<svg width="1280" height="832" viewBox="0 0 1280 832" fill="none" xmlns="http://www.w3.org/2000/svg">
<rect width="1280" height="832" fill="#D4F0F7"/>
<rect x="115" y="66" width="1050" height="700" fill="white"/>
<g filter="url(#filter0_d_1_1123)">
<rect x="450" y="183" width="380" height="480" rx="20" fill="#F6DAE4"/>
</g>
<g filter="url(#filter1_d_1_1123)">
<path d="M401 293.55H449C449 293.55 448 284.05 442 285.05C439.729 285.429 438.962 284.375 438.886 282.918C438.691 279.158 442.659 277.037 446.424 277.014C495.728 276.71 836.253 274.661 839.5 276.052C843 277.551 832 288.051 830.5 290.552C829 293.052 877.5 297.051 878 290.552C878.5 284.052 855 257.051 855 252.552C855 248.052 879 212.051 878 210.551C877 209.052 841 212.051 839.5 210.551C838 209.052 842 188.042 839.5 184.551C837.163 181.288 488.385 184.126 442.876 184.51C440.132 184.533 438 186.764 438 189.508V211.05H401L425 251.55L401 293.55Z" fill="#E4AEC1"/>
<path d="M401 293.55H449C449 293.55 448 284.05 442 285.05C439.729 285.429 438.962 284.375 438.886 282.918C438.691 279.158 442.659 277.037 446.424 277.014C495.728 276.71 836.253 274.661 839.5 276.052C843 277.551 832 288.051 830.5 290.552C829 293.052 877.5 297.051 878 290.552C878.5 284.052 855 257.051 855 252.552C855 248.052 879 212.051 878 210.551C877 209.052 841 212.051 839.5 210.551C838 209.052 842 188.042 839.5 184.551C837.163 181.288 488.385 184.126 442.876 184.51C440.132 184.533 438 186.764 438 189.508V211.05H401L425 251.55L401 293.55Z" stroke="white" stroke-width="3"/>
</g>
<path d="M546.268 234.925H550.647C550.56 236.36 550.164 237.635 549.461 238.748C548.768 239.861 547.796 240.73 546.546 241.355C545.306 241.98 543.812 242.293 542.063 242.293C540.696 242.293 539.471 242.059 538.387 241.59C537.303 241.111 536.375 240.428 535.604 239.539C534.842 238.65 534.261 237.576 533.86 236.316C533.46 235.057 533.26 233.646 533.26 232.083V230.604C533.26 229.041 533.465 227.63 533.875 226.37C534.295 225.101 534.891 224.021 535.662 223.133C536.443 222.244 537.376 221.561 538.46 221.082C539.544 220.604 540.755 220.364 542.093 220.364C543.87 220.364 545.369 220.687 546.59 221.331C547.82 221.976 548.772 222.864 549.446 223.997C550.13 225.13 550.54 226.419 550.677 227.864H546.282C546.233 227.005 546.062 226.277 545.77 225.682C545.477 225.076 545.032 224.622 544.437 224.319C543.851 224.007 543.069 223.851 542.093 223.851C541.36 223.851 540.721 223.987 540.174 224.261C539.627 224.534 539.168 224.949 538.797 225.506C538.426 226.062 538.147 226.766 537.962 227.615C537.786 228.455 537.698 229.441 537.698 230.574V232.083C537.698 233.187 537.781 234.158 537.947 234.998C538.113 235.828 538.367 236.531 538.709 237.107C539.061 237.674 539.51 238.104 540.057 238.396C540.613 238.68 541.282 238.821 542.063 238.821C542.981 238.821 543.738 238.675 544.334 238.382C544.93 238.089 545.384 237.654 545.696 237.078C546.019 236.502 546.209 235.784 546.268 234.925ZM552.596 234.236V233.929C552.596 232.767 552.762 231.697 553.094 230.721C553.426 229.734 553.909 228.88 554.544 228.157C555.179 227.435 555.96 226.873 556.888 226.473C557.815 226.062 558.88 225.857 560.081 225.857C561.282 225.857 562.352 226.062 563.289 226.473C564.227 226.873 565.013 227.435 565.647 228.157C566.292 228.88 566.78 229.734 567.112 230.721C567.444 231.697 567.61 232.767 567.61 233.929V234.236C567.61 235.389 567.444 236.458 567.112 237.444C566.78 238.421 566.292 239.275 565.647 240.008C565.013 240.73 564.231 241.292 563.304 241.692C562.376 242.093 561.312 242.293 560.11 242.293C558.909 242.293 557.84 242.093 556.902 241.692C555.975 241.292 555.188 240.73 554.544 240.008C553.909 239.275 553.426 238.421 553.094 237.444C552.762 236.458 552.596 235.389 552.596 234.236ZM556.814 233.929V234.236C556.814 234.9 556.873 235.521 556.99 236.097C557.107 236.673 557.293 237.181 557.547 237.62C557.811 238.05 558.152 238.387 558.572 238.631C558.992 238.875 559.505 238.997 560.11 238.997C560.696 238.997 561.199 238.875 561.619 238.631C562.039 238.387 562.376 238.05 562.63 237.62C562.884 237.181 563.069 236.673 563.187 236.097C563.313 235.521 563.377 234.9 563.377 234.236V233.929C563.377 233.284 563.313 232.679 563.187 232.112C563.069 231.536 562.879 231.028 562.615 230.589C562.361 230.14 562.024 229.788 561.604 229.534C561.185 229.28 560.677 229.153 560.081 229.153C559.485 229.153 558.978 229.28 558.558 229.534C558.147 229.788 557.811 230.14 557.547 230.589C557.293 231.028 557.107 231.536 556.99 232.112C556.873 232.679 556.814 233.284 556.814 233.929ZM574.334 229.534V242H570.115V226.15H574.07L574.334 229.534ZM573.719 233.519H572.576C572.576 232.347 572.728 231.292 573.03 230.354C573.333 229.407 573.758 228.602 574.305 227.938C574.852 227.264 575.501 226.751 576.253 226.399C577.015 226.038 577.864 225.857 578.802 225.857C579.544 225.857 580.223 225.965 580.838 226.18C581.453 226.395 581.98 226.736 582.42 227.205C582.869 227.674 583.211 228.294 583.445 229.065C583.689 229.837 583.812 230.779 583.812 231.893V242H579.563V231.878C579.563 231.175 579.466 230.628 579.271 230.237C579.075 229.847 578.787 229.573 578.406 229.417C578.035 229.251 577.576 229.168 577.029 229.168C576.463 229.168 575.97 229.28 575.55 229.505C575.14 229.729 574.798 230.042 574.524 230.442C574.261 230.833 574.061 231.292 573.924 231.819C573.787 232.347 573.719 232.913 573.719 233.519ZM597.054 226.15H600.877V241.473C600.877 242.918 600.555 244.144 599.91 245.149C599.275 246.165 598.387 246.932 597.244 247.449C596.102 247.977 594.773 248.24 593.26 248.24C592.596 248.24 591.893 248.152 591.15 247.977C590.418 247.801 589.715 247.527 589.041 247.156C588.377 246.785 587.82 246.316 587.371 245.75L589.231 243.26C589.72 243.826 590.286 244.266 590.931 244.578C591.575 244.9 592.288 245.062 593.069 245.062C593.831 245.062 594.476 244.92 595.003 244.637C595.53 244.363 595.936 243.958 596.219 243.421C596.502 242.894 596.644 242.254 596.644 241.502V229.812L597.054 226.15ZM586.39 234.266V233.958C586.39 232.747 586.536 231.648 586.829 230.662C587.132 229.666 587.557 228.812 588.104 228.099C588.66 227.386 589.334 226.834 590.125 226.443C590.916 226.053 591.81 225.857 592.806 225.857C593.86 225.857 594.744 226.053 595.457 226.443C596.17 226.834 596.756 227.391 597.215 228.113C597.674 228.826 598.03 229.671 598.284 230.647C598.548 231.614 598.753 232.674 598.899 233.826V234.5C598.753 235.604 598.533 236.629 598.24 237.576C597.947 238.523 597.562 239.354 597.083 240.066C596.604 240.77 596.009 241.316 595.296 241.707C594.593 242.098 593.753 242.293 592.776 242.293C591.8 242.293 590.916 242.093 590.125 241.692C589.344 241.292 588.675 240.73 588.118 240.008C587.562 239.285 587.132 238.436 586.829 237.459C586.536 236.482 586.39 235.418 586.39 234.266ZM590.608 233.958V234.266C590.608 234.92 590.672 235.53 590.799 236.097C590.926 236.663 591.121 237.166 591.385 237.605C591.658 238.035 591.995 238.372 592.396 238.616C592.806 238.851 593.289 238.968 593.846 238.968C594.617 238.968 595.247 238.807 595.735 238.484C596.224 238.152 596.59 237.698 596.834 237.122C597.078 236.546 597.22 235.882 597.259 235.13V233.211C597.239 232.596 597.156 232.044 597.01 231.556C596.863 231.058 596.658 230.633 596.395 230.281C596.131 229.93 595.789 229.656 595.369 229.461C594.949 229.266 594.451 229.168 593.875 229.168C593.318 229.168 592.835 229.295 592.425 229.549C592.024 229.793 591.688 230.13 591.414 230.56C591.15 230.989 590.95 231.497 590.813 232.083C590.677 232.659 590.608 233.284 590.608 233.958ZM608.377 229.607V242H604.158V226.15H608.128L608.377 229.607ZM613.152 226.048L613.079 229.959C612.874 229.93 612.625 229.905 612.332 229.886C612.049 229.856 611.79 229.842 611.556 229.842C610.96 229.842 610.442 229.92 610.003 230.076C609.573 230.223 609.212 230.442 608.919 230.735C608.636 231.028 608.421 231.385 608.274 231.805C608.138 232.225 608.06 232.703 608.04 233.24L607.19 232.977C607.19 231.951 607.293 231.009 607.498 230.149C607.703 229.28 608.001 228.523 608.392 227.879C608.792 227.234 609.28 226.736 609.856 226.385C610.433 226.033 611.092 225.857 611.834 225.857C612.068 225.857 612.308 225.877 612.552 225.916C612.796 225.945 612.996 225.989 613.152 226.048ZM623.201 238.426V231.365C623.201 230.857 623.118 230.423 622.952 230.062C622.786 229.69 622.527 229.402 622.176 229.197C621.834 228.992 621.39 228.89 620.843 228.89C620.374 228.89 619.969 228.973 619.627 229.139C619.285 229.295 619.021 229.524 618.836 229.827C618.65 230.12 618.558 230.467 618.558 230.867H614.339C614.339 230.193 614.495 229.554 614.808 228.948C615.12 228.343 615.574 227.811 616.17 227.352C616.766 226.883 617.474 226.517 618.294 226.253C619.124 225.989 620.052 225.857 621.077 225.857C622.308 225.857 623.401 226.062 624.358 226.473C625.315 226.883 626.067 227.498 626.614 228.318C627.171 229.139 627.449 230.164 627.449 231.395V238.177C627.449 239.046 627.503 239.759 627.61 240.315C627.718 240.862 627.874 241.341 628.079 241.751V242H623.816C623.611 241.57 623.455 241.033 623.348 240.389C623.25 239.734 623.201 239.08 623.201 238.426ZM623.758 232.347L623.787 234.734H621.429C620.872 234.734 620.389 234.798 619.979 234.925C619.568 235.052 619.231 235.232 618.968 235.467C618.704 235.691 618.509 235.955 618.382 236.258C618.265 236.561 618.206 236.893 618.206 237.254C618.206 237.615 618.289 237.942 618.455 238.235C618.621 238.519 618.86 238.743 619.173 238.909C619.485 239.065 619.852 239.144 620.271 239.144C620.906 239.144 621.458 239.017 621.927 238.763C622.396 238.509 622.757 238.196 623.011 237.825C623.274 237.454 623.411 237.103 623.421 236.771L624.534 238.558C624.378 238.958 624.163 239.373 623.89 239.803C623.626 240.232 623.289 240.638 622.879 241.019C622.469 241.39 621.976 241.697 621.399 241.941C620.823 242.176 620.14 242.293 619.349 242.293C618.343 242.293 617.43 242.093 616.609 241.692C615.799 241.282 615.154 240.721 614.676 240.008C614.207 239.285 613.973 238.465 613.973 237.547C613.973 236.717 614.129 235.979 614.441 235.335C614.754 234.69 615.213 234.148 615.818 233.709C616.434 233.26 617.2 232.923 618.118 232.698C619.036 232.464 620.101 232.347 621.312 232.347H623.758ZM638.465 226.15V229.139H629.236V226.15H638.465ZM631.521 222.239H635.74V237.225C635.74 237.684 635.799 238.035 635.916 238.279C636.043 238.523 636.229 238.694 636.473 238.792C636.717 238.88 637.024 238.924 637.396 238.924C637.659 238.924 637.894 238.914 638.099 238.895C638.313 238.865 638.494 238.836 638.641 238.807L638.655 241.912C638.294 242.029 637.903 242.122 637.483 242.19C637.063 242.259 636.6 242.293 636.092 242.293C635.164 242.293 634.354 242.142 633.66 241.839C632.977 241.526 632.449 241.028 632.078 240.345C631.707 239.661 631.521 238.763 631.521 237.649V222.239ZM650.242 238.206V226.15H654.461V242H650.491L650.242 238.206ZM650.711 234.954L651.956 234.925C651.956 235.979 651.834 236.961 651.59 237.869C651.346 238.768 650.979 239.549 650.491 240.213C650.003 240.867 649.388 241.38 648.646 241.751C647.903 242.112 647.029 242.293 646.023 242.293C645.252 242.293 644.539 242.186 643.885 241.971C643.24 241.746 642.684 241.399 642.215 240.931C641.756 240.452 641.395 239.842 641.131 239.1C640.877 238.348 640.75 237.444 640.75 236.39V226.15H644.969V236.419C644.969 236.888 645.022 237.283 645.13 237.605C645.247 237.928 645.408 238.191 645.613 238.396C645.818 238.602 646.058 238.748 646.331 238.836C646.614 238.924 646.927 238.968 647.269 238.968C648.138 238.968 648.821 238.792 649.319 238.44C649.827 238.089 650.184 237.61 650.389 237.005C650.604 236.39 650.711 235.706 650.711 234.954ZM662.137 219.5V242H657.903V219.5H662.137ZM674.178 238.426V231.365C674.178 230.857 674.095 230.423 673.929 230.062C673.763 229.69 673.504 229.402 673.152 229.197C672.811 228.992 672.366 228.89 671.819 228.89C671.351 228.89 670.945 228.973 670.604 229.139C670.262 229.295 669.998 229.524 669.812 229.827C669.627 230.12 669.534 230.467 669.534 230.867H665.315C665.315 230.193 665.472 229.554 665.784 228.948C666.097 228.343 666.551 227.811 667.146 227.352C667.742 226.883 668.45 226.517 669.271 226.253C670.101 225.989 671.028 225.857 672.054 225.857C673.284 225.857 674.378 226.062 675.335 226.473C676.292 226.883 677.044 227.498 677.591 228.318C678.147 229.139 678.426 230.164 678.426 231.395V238.177C678.426 239.046 678.479 239.759 678.587 240.315C678.694 240.862 678.851 241.341 679.056 241.751V242H674.793C674.588 241.57 674.432 241.033 674.324 240.389C674.227 239.734 674.178 239.08 674.178 238.426ZM674.734 232.347L674.764 234.734H672.405C671.849 234.734 671.365 234.798 670.955 234.925C670.545 235.052 670.208 235.232 669.944 235.467C669.681 235.691 669.485 235.955 669.358 236.258C669.241 236.561 669.183 236.893 669.183 237.254C669.183 237.615 669.266 237.942 669.432 238.235C669.598 238.519 669.837 238.743 670.149 238.909C670.462 239.065 670.828 239.144 671.248 239.144C671.883 239.144 672.435 239.017 672.903 238.763C673.372 238.509 673.733 238.196 673.987 237.825C674.251 237.454 674.388 237.103 674.397 236.771L675.511 238.558C675.354 238.958 675.14 239.373 674.866 239.803C674.603 240.232 674.266 240.638 673.855 241.019C673.445 241.39 672.952 241.697 672.376 241.941C671.8 242.176 671.116 242.293 670.325 242.293C669.319 242.293 668.406 242.093 667.586 241.692C666.775 241.282 666.131 240.721 665.652 240.008C665.184 239.285 664.949 238.465 664.949 237.547C664.949 236.717 665.105 235.979 665.418 235.335C665.73 234.69 666.189 234.148 666.795 233.709C667.41 233.26 668.177 232.923 669.095 232.698C670.013 232.464 671.077 232.347 672.288 232.347H674.734ZM689.441 226.15V229.139H680.213V226.15H689.441ZM682.498 222.239H686.717V237.225C686.717 237.684 686.775 238.035 686.893 238.279C687.02 238.523 687.205 238.694 687.449 238.792C687.693 238.88 688.001 238.924 688.372 238.924C688.636 238.924 688.87 238.914 689.075 238.895C689.29 238.865 689.471 238.836 689.617 238.807L689.632 241.912C689.271 242.029 688.88 242.122 688.46 242.19C688.04 242.259 687.576 242.293 687.068 242.293C686.141 242.293 685.33 242.142 684.637 241.839C683.953 241.526 683.426 241.028 683.055 240.345C682.684 239.661 682.498 238.763 682.498 237.649V222.239ZM696.297 226.15V242H692.063V226.15H696.297ZM691.8 222.02C691.8 221.404 692.015 220.896 692.444 220.496C692.874 220.096 693.45 219.896 694.173 219.896C694.886 219.896 695.457 220.096 695.887 220.496C696.326 220.896 696.546 221.404 696.546 222.02C696.546 222.635 696.326 223.143 695.887 223.543C695.457 223.943 694.886 224.144 694.173 224.144C693.45 224.144 692.874 223.943 692.444 223.543C692.015 223.143 691.8 222.635 691.8 222.02ZM699.109 234.236V233.929C699.109 232.767 699.275 231.697 699.607 230.721C699.939 229.734 700.423 228.88 701.058 228.157C701.692 227.435 702.474 226.873 703.401 226.473C704.329 226.062 705.394 225.857 706.595 225.857C707.796 225.857 708.865 226.062 709.803 226.473C710.74 226.873 711.526 227.435 712.161 228.157C712.806 228.88 713.294 229.734 713.626 230.721C713.958 231.697 714.124 232.767 714.124 233.929V234.236C714.124 235.389 713.958 236.458 713.626 237.444C713.294 238.421 712.806 239.275 712.161 240.008C711.526 240.73 710.745 241.292 709.817 241.692C708.89 242.093 707.825 242.293 706.624 242.293C705.423 242.293 704.354 242.093 703.416 241.692C702.488 241.292 701.702 240.73 701.058 240.008C700.423 239.275 699.939 238.421 699.607 237.444C699.275 236.458 699.109 235.389 699.109 234.236ZM703.328 233.929V234.236C703.328 234.9 703.387 235.521 703.504 236.097C703.621 236.673 703.807 237.181 704.061 237.62C704.324 238.05 704.666 238.387 705.086 238.631C705.506 238.875 706.019 238.997 706.624 238.997C707.21 238.997 707.713 238.875 708.133 238.631C708.553 238.387 708.89 238.05 709.144 237.62C709.397 237.181 709.583 236.673 709.7 236.097C709.827 235.521 709.891 234.9 709.891 234.236V233.929C709.891 233.284 709.827 232.679 709.7 232.112C709.583 231.536 709.393 231.028 709.129 230.589C708.875 230.14 708.538 229.788 708.118 229.534C707.698 229.28 707.19 229.153 706.595 229.153C705.999 229.153 705.491 229.28 705.071 229.534C704.661 229.788 704.324 230.14 704.061 230.589C703.807 231.028 703.621 231.536 703.504 232.112C703.387 232.679 703.328 233.284 703.328 233.929ZM720.848 229.534V242H716.629V226.15H720.584L720.848 229.534ZM720.232 233.519H719.09C719.09 232.347 719.241 231.292 719.544 230.354C719.847 229.407 720.271 228.602 720.818 227.938C721.365 227.264 722.015 226.751 722.767 226.399C723.528 226.038 724.378 225.857 725.315 225.857C726.058 225.857 726.736 225.965 727.352 226.18C727.967 226.395 728.494 226.736 728.934 227.205C729.383 227.674 729.725 228.294 729.959 229.065C730.203 229.837 730.325 230.779 730.325 231.893V242H726.077V231.878C726.077 231.175 725.979 230.628 725.784 230.237C725.589 229.847 725.301 229.573 724.92 229.417C724.549 229.251 724.09 229.168 723.543 229.168C722.977 229.168 722.483 229.28 722.063 229.505C721.653 229.729 721.312 230.042 721.038 230.442C720.774 230.833 720.574 231.292 720.438 231.819C720.301 232.347 720.232 232.913 720.232 233.519ZM742.103 237.62C742.103 237.317 742.015 237.044 741.839 236.8C741.663 236.556 741.336 236.331 740.857 236.126C740.389 235.911 739.71 235.716 738.821 235.54C738.021 235.364 737.273 235.145 736.58 234.881C735.896 234.607 735.301 234.28 734.793 233.899C734.295 233.519 733.904 233.069 733.621 232.552C733.338 232.024 733.196 231.424 733.196 230.75C733.196 230.086 733.338 229.461 733.621 228.875C733.914 228.289 734.329 227.771 734.866 227.322C735.413 226.863 736.077 226.507 736.858 226.253C737.649 225.989 738.538 225.857 739.524 225.857C740.901 225.857 742.083 226.077 743.069 226.517C744.065 226.956 744.827 227.562 745.354 228.333C745.892 229.095 746.16 229.964 746.16 230.94H741.941C741.941 230.53 741.854 230.164 741.678 229.842C741.512 229.51 741.248 229.251 740.887 229.065C740.535 228.87 740.076 228.772 739.51 228.772C739.041 228.772 738.636 228.855 738.294 229.021C737.952 229.178 737.688 229.393 737.503 229.666C737.327 229.93 737.239 230.223 737.239 230.545C737.239 230.789 737.288 231.009 737.386 231.204C737.493 231.39 737.664 231.561 737.898 231.717C738.133 231.873 738.436 232.02 738.807 232.156C739.188 232.283 739.656 232.4 740.213 232.508C741.355 232.742 742.376 233.05 743.274 233.431C744.173 233.802 744.886 234.31 745.413 234.954C745.94 235.589 746.204 236.424 746.204 237.459C746.204 238.162 746.048 238.807 745.735 239.393C745.423 239.979 744.974 240.491 744.388 240.931C743.802 241.36 743.099 241.697 742.278 241.941C741.468 242.176 740.555 242.293 739.539 242.293C738.064 242.293 736.814 242.029 735.789 241.502C734.773 240.975 734.002 240.306 733.475 239.495C732.957 238.675 732.698 237.835 732.698 236.976H736.697C736.717 237.552 736.863 238.016 737.137 238.367C737.42 238.719 737.776 238.973 738.206 239.129C738.646 239.285 739.119 239.363 739.627 239.363C740.174 239.363 740.628 239.29 740.989 239.144C741.351 238.987 741.624 238.782 741.81 238.528C742.005 238.265 742.103 237.962 742.103 237.62Z" fill="white"/>
<g filter="url(#filter2_d_1_1123)">
<path d="M579.241 449.939V454H567.398V449.939H579.241ZM569.187 430.539V454H563.934V430.539H569.187ZM597.771 449.939V454H585.284V449.939H597.771ZM587.072 430.539V454H581.819V430.539H587.072ZM596.16 439.981V443.913H585.284V439.981H596.16ZM597.788 430.539V434.616H585.284V430.539H597.788ZM609.019 448.795L614.239 430.539H620.088L612.048 454H608.229L609.019 448.795ZM604.265 430.539L609.47 448.795L610.292 454H606.424L598.432 430.539H604.265ZM637.99 449.939V454H625.502V449.939H637.99ZM627.291 430.539V454H622.038V430.539H627.291ZM636.379 439.981V443.913H625.502V439.981H636.379ZM638.006 430.539V434.616H625.502V430.539H638.006ZM655.876 449.939V454H644.033V449.939H655.876ZM645.821 430.539V454H640.568V430.539H645.821ZM679.514 430.539H684.767V445.943C684.767 447.77 684.38 449.306 683.607 450.552C682.844 451.798 681.781 452.738 680.417 453.372C679.052 454.005 677.473 454.322 675.679 454.322C673.875 454.322 672.285 454.005 670.91 453.372C669.545 452.738 668.471 451.798 667.687 450.552C666.914 449.306 666.527 447.77 666.527 445.943V430.539H671.796V445.943C671.796 446.953 671.946 447.78 672.247 448.425C672.559 449.059 673.004 449.526 673.584 449.827C674.165 450.117 674.863 450.262 675.679 450.262C676.496 450.262 677.188 450.117 677.758 449.827C678.338 449.526 678.773 449.059 679.063 448.425C679.364 447.78 679.514 446.953 679.514 445.943V430.539ZM697.771 445.847H691.873V441.77H697.771C698.641 441.77 699.339 441.625 699.865 441.335C700.402 441.045 700.794 440.647 701.042 440.143C701.299 439.627 701.428 439.047 701.428 438.402C701.428 437.736 701.299 437.119 701.042 436.549C700.794 435.969 700.402 435.502 699.865 435.147C699.339 434.793 698.641 434.616 697.771 434.616H693.774V454H688.521V430.539H697.771C699.64 430.539 701.24 430.877 702.572 431.554C703.915 432.231 704.941 433.16 705.65 434.342C706.37 435.513 706.729 436.855 706.729 438.37C706.729 439.885 706.37 441.201 705.65 442.318C704.941 443.435 703.915 444.305 702.572 444.928C701.24 445.541 699.64 445.847 697.771 445.847ZM715.318 430.539L714.706 446.701H710.564L709.952 430.539H715.318ZM709.807 451.712C709.807 450.992 710.065 450.385 710.581 449.891C711.096 449.397 711.778 449.15 712.627 449.15C713.465 449.15 714.136 449.397 714.641 449.891C715.157 450.385 715.415 450.992 715.415 451.712C715.415 452.442 715.157 453.055 714.641 453.549C714.136 454.032 713.465 454.274 712.627 454.274C711.778 454.274 711.096 454.032 710.581 453.549C710.065 453.055 709.807 452.442 709.807 451.712Z" fill="white"/>
</g>
<g filter="url(#filter3_d_1_1123)">
<circle cx="372" cy="220" r="6" fill="#FFF268"/>
</g>
<g filter="url(#filter4_d_1_1123)">
<circle cx="857" cy="174" r="6" fill="#FFF268"/>
</g>
<g filter="url(#filter5_d_1_1123)">
<circle cx="872" cy="583" r="6" fill="#FFF268"/>
</g>
<g filter="url(#filter6_d_1_1123)">
<circle cx="392" cy="183" r="9" fill="#FFF268"/>
</g>
<g filter="url(#filter7_di_1_1123)">
<path d="M514.098 306.854C514.697 305.011 517.303 305.011 517.902 306.854L524.532 327.257C524.799 328.081 525.567 328.639 526.434 328.639H547.887C549.824 328.639 550.63 331.119 549.062 332.257L531.706 344.867C531.005 345.377 530.712 346.279 530.98 347.103L537.609 367.507C538.208 369.349 536.099 370.881 534.532 369.743L517.176 357.133C516.475 356.623 515.525 356.623 514.824 357.133L497.468 369.743C495.901 370.881 493.792 369.349 494.391 367.507L501.02 347.103C501.288 346.279 500.995 345.377 500.294 344.867L482.938 332.257C481.37 331.119 482.176 328.639 484.113 328.639H505.566C506.433 328.639 507.201 328.081 507.468 327.257L514.098 306.854Z" fill="#FFF268"/>
</g>
<g filter="url(#filter8_di_1_1123)">
<path d="M602.098 306.854C602.697 305.011 605.303 305.011 605.902 306.854L612.532 327.257C612.799 328.081 613.567 328.639 614.434 328.639H635.887C637.824 328.639 638.63 331.119 637.062 332.257L619.706 344.867C619.005 345.377 618.712 346.279 618.98 347.103L625.609 367.507C626.208 369.349 624.099 370.881 622.532 369.743L605.176 357.133C604.475 356.623 603.525 356.623 602.824 357.133L585.468 369.743C583.901 370.881 581.792 369.349 582.391 367.507L589.02 347.103C589.288 346.279 588.995 345.377 588.294 344.867L570.938 332.257C569.37 331.119 570.176 328.639 572.113 328.639H593.566C594.433 328.639 595.201 328.081 595.468 327.257L602.098 306.854Z" fill="#FFF268"/>
</g>
<g filter="url(#filter9_di_1_1123)">
<path d="M682.098 306.854C682.697 305.011 685.303 305.011 685.902 306.854L692.532 327.257C692.799 328.081 693.567 328.639 694.434 328.639H715.887C717.824 328.639 718.63 331.119 717.062 332.257L699.706 344.867C699.005 345.377 698.712 346.279 698.98 347.103L705.609 367.507C706.208 369.349 704.099 370.881 702.532 369.743L685.176 357.133C684.475 356.623 683.525 356.623 682.824 357.133L665.468 369.743C663.901 370.881 661.792 369.349 662.391 367.507L669.02 347.103C669.288 346.279 668.995 345.377 668.294 344.867L650.938 332.257C649.37 331.119 650.176 328.639 652.113 328.639H673.566C674.433 328.639 675.201 328.081 675.468 327.257L682.098 306.854Z" fill="white" fill-opacity="0.5"/>
</g>
<g filter="url(#filter10_di_1_1123)">
<path d="M762.098 306.854C762.697 305.011 765.303 305.011 765.902 306.854L772.532 327.257C772.799 328.081 773.567 328.639 774.434 328.639H795.887C797.824 328.639 798.63 331.119 797.062 332.257L779.706 344.867C779.005 345.377 778.712 346.279 778.98 347.103L785.609 367.507C786.208 369.349 784.099 370.881 782.532 369.743L765.176 357.133C764.475 356.623 763.525 356.623 762.824 357.133L745.468 369.743C743.901 370.881 741.792 369.349 742.391 367.507L749.02 347.103C749.288 346.279 748.995 345.377 748.294 344.867L730.938 332.257C729.37 331.119 730.176 328.639 732.113 328.639H753.566C754.433 328.639 755.201 328.081 755.468 327.257L762.098 306.854Z" fill="white" fill-opacity="0.5"/>
</g>
<path d="M855.124 620.069C855.769 618.328 858.231 618.328 858.876 620.069L860.732 625.086C860.935 625.634 861.366 626.065 861.914 626.268L866.931 628.124C868.672 628.769 868.672 631.231 866.931 631.876L861.914 633.732C861.366 633.935 860.935 634.366 860.732 634.914L858.876 639.931C858.231 641.672 855.769 641.672 855.124 639.931L853.268 634.914C853.065 634.366 852.634 633.935 852.086 633.732L847.069 631.876C845.328 631.231 845.328 628.769 847.069 628.124L852.086 626.268C852.634 626.065 853.065 625.634 853.268 625.086L855.124 620.069Z" fill="#FFF268"/>
<path d="M414.124 486.069C414.769 484.328 417.231 484.328 417.876 486.069L419.732 491.086C419.935 491.634 420.366 492.065 420.914 492.268L425.931 494.124C427.672 494.769 427.672 497.231 425.931 497.876L420.914 499.732C420.366 499.935 419.935 500.366 419.732 500.914L417.876 505.931C417.231 507.672 414.769 507.672 414.124 505.931L412.268 500.914C412.065 500.366 411.634 499.935 411.086 499.732L406.069 497.876C404.328 497.231 404.328 494.769 406.069 494.124L411.086 492.268C411.634 492.065 412.065 491.634 412.268 491.086L414.124 486.069Z" fill="white"/>
<path d="M831.124 140.069C831.769 138.328 834.231 138.328 834.876 140.069L836.732 145.086C836.935 145.634 837.366 146.065 837.914 146.268L842.931 148.124C844.672 148.769 844.672 151.231 842.931 151.876L837.914 153.732C837.366 153.935 836.935 154.366 836.732 154.914L834.876 159.931C834.231 161.672 831.769 161.672 831.124 159.931L829.268 154.914C829.065 154.366 828.634 153.935 828.086 153.732L823.069 151.876C821.328 151.231 821.328 148.769 823.069 148.124L828.086 146.268C828.634 146.065 829.065 145.634 829.268 145.086L831.124 140.069Z" fill="white"/>
<defs>
<filter id="filter0_d_1_1123" x="446" y="183" width="388" height="488" filterUnits="userSpaceOnUse" color-interpolation-filters="sRGB">
<feFlood flood-opacity="0" result="BackgroundImageFix"/>
<feColorMatrix in="SourceAlpha" type="matrix" values="0 0 0 0 0 0 0 0 0 0 0 0 0 0 0 0 0 0 127 0" result="hardAlpha"/>
<feOffset dy="4"/>
<feGaussianBlur stdDeviation="2"/>
<feComposite in2="hardAlpha" operator="out"/>
<feColorMatrix type="matrix" values="0 0 0 0 0 0 0 0 0 0 0 0 0 0 0 0 0 0 0.25 0"/>
<feBlend mode="normal" in2="BackgroundImageFix" result="effect1_dropShadow_1_1123"/>
<feBlend mode="normal" in="SourceGraphic" in2="effect1_dropShadow_1_1123" result="shape"/>
</filter>
<filter id="filter1_d_1_1123" x="394.368" y="181.5" width="489.163" height="122.08" filterUnits="userSpaceOnUse" color-interpolation-filters="sRGB">
<feFlood flood-opacity="0" result="BackgroundImageFix"/>
<feColorMatrix in="SourceAlpha" type="matrix" values="0 0 0 0 0 0 0 0 0 0 0 0 0 0 0 0 0 0 127 0" result="hardAlpha"/>
<feOffset dy="4"/>
<feGaussianBlur stdDeviation="2"/>
<feComposite in2="hardAlpha" operator="out"/>
<feColorMatrix type="matrix" values="0 0 0 0 0 0 0 0 0 0 0 0 0 0 0 0 0 0 0.25 0"/>
<feBlend mode="normal" in2="BackgroundImageFix" result="effect1_dropShadow_1_1123"/>
<feBlend mode="normal" in="SourceGraphic" in2="effect1_dropShadow_1_1123" result="shape"/>
</filter>
<filter id="filter2_d_1_1123" x="559.934" y="430.539" width="159.481" height="31.7832" filterUnits="userSpaceOnUse" color-interpolation-filters="sRGB">
<feFlood flood-opacity="0" result="BackgroundImageFix"/>
<feColorMatrix in="SourceAlpha" type="matrix" values="0 0 0 0 0 0 0 0 0 0 0 0 0 0 0 0 0 0 127 0" result="hardAlpha"/>
<feOffset dy="4"/>
<feGaussianBlur stdDeviation="2"/>
<feComposite in2="hardAlpha" operator="out"/>
<feColorMatrix type="matrix" values="0 0 0 0 0 0 0 0 0 0 0 0 0 0 0 0 0 0 0.25 0"/>
<feBlend mode="normal" in2="BackgroundImageFix" result="effect1_dropShadow_1_1123"/>
<feBlend mode="normal" in="SourceGraphic" in2="effect1_dropShadow_1_1123" result="shape"/>
</filter>
<filter id="filter3_d_1_1123" x="362" y="214" width="20" height="20" filterUnits="userSpaceOnUse" color-interpolation-filters="sRGB">
<feFlood flood-opacity="0" result="BackgroundImageFix"/>
<feColorMatrix in="SourceAlpha" type="matrix" values="0 0 0 0 0 0 0 0 0 0 0 0 0 0 0 0 0 0 127 0" result="hardAlpha"/>
<feOffset dy="4"/>
<feGaussianBlur stdDeviation="2"/>
<feComposite in2="hardAlpha" operator="out"/>
<feColorMatrix type="matrix" values="0 0 0 0 1 0 0 0 0 1 0 0 0 0 1 0 0 0 0.25 0"/>
<feBlend mode="normal" in2="BackgroundImageFix" result="effect1_dropShadow_1_1123"/>
<feBlend mode="normal" in="SourceGraphic" in2="effect1_dropShadow_1_1123" result="shape"/>
</filter>
<filter id="filter4_d_1_1123" x="847" y="168" width="20" height="20" filterUnits="userSpaceOnUse" color-interpolation-filters="sRGB">
<feFlood flood-opacity="0" result="BackgroundImageFix"/>
<feColorMatrix in="SourceAlpha" type="matrix" values="0 0 0 0 0 0 0 0 0 0 0 0 0 0 0 0 0 0 127 0" result="hardAlpha"/>
<feOffset dy="4"/>
<feGaussianBlur stdDeviation="2"/>
<feComposite in2="hardAlpha" operator="out"/>
<feColorMatrix type="matrix" values="0 0 0 0 1 0 0 0 0 1 0 0 0 0 1 0 0 0 0.25 0"/>
<feBlend mode="normal" in2="BackgroundImageFix" result="effect1_dropShadow_1_1123"/>
<feBlend mode="normal" in="SourceGraphic" in2="effect1_dropShadow_1_1123" result="shape"/>
</filter>
<filter id="filter5_d_1_1123" x="862" y="577" width="20" height="20" filterUnits="userSpaceOnUse" color-interpolation-filters="sRGB">
<feFlood flood-opacity="0" result="BackgroundImageFix"/>
<feColorMatrix in="SourceAlpha" type="matrix" values="0 0 0 0 0 0 0 0 0 0 0 0 0 0 0 0 0 0 127 0" result="hardAlpha"/>
<feOffset dy="4"/>
<feGaussianBlur stdDeviation="2"/>
<feComposite in2="hardAlpha" operator="out"/>
<feColorMatrix type="matrix" values="0 0 0 0 1 0 0 0 0 1 0 0 0 0 1 0 0 0 0.25 0"/>
<feBlend mode="normal" in2="BackgroundImageFix" result="effect1_dropShadow_1_1123"/>
<feBlend mode="normal" in="SourceGraphic" in2="effect1_dropShadow_1_1123" result="shape"/>
</filter>
<filter id="filter6_d_1_1123" x="379" y="174" width="26" height="26" filterUnits="userSpaceOnUse" color-interpolation-filters="sRGB">
<feFlood flood-opacity="0" result="BackgroundImageFix"/>
<feColorMatrix in="SourceAlpha" type="matrix" values="0 0 0 0 0 0 0 0 0 0 0 0 0 0 0 0 0 0 127 0" result="hardAlpha"/>
<feOffset dy="4"/>
<feGaussianBlur stdDeviation="2"/>
<feComposite in2="hardAlpha" operator="out"/>
<feColorMatrix type="matrix" values="0 0 0 0 1 0 0 0 0 1 0 0 0 0 1 0 0 0 0.25 0"/>
<feBlend mode="normal" in2="BackgroundImageFix" result="effect1_dropShadow_1_1123"/>
<feBlend mode="normal" in="SourceGraphic" in2="effect1_dropShadow_1_1123" result="shape"/>
</filter>
<filter id="filter7_di_1_1123" x="478.109" y="303.472" width="75.7814" height="72.6615" filterUnits="userSpaceOnUse" color-interpolation-filters="sRGB">
<feFlood flood-opacity="0" result="BackgroundImageFix"/>
<feColorMatrix in="SourceAlpha" type="matrix" values="0 0 0 0 0 0 0 0 0 0 0 0 0 0 0 0 0 0 127 0" result="hardAlpha"/>
<feOffset dy="2"/>
<feGaussianBlur stdDeviation="2"/>
<feComposite in2="hardAlpha" operator="out"/>
<feColorMatrix type="matrix" values="0 0 0 0 0 0 0 0 0 0 0 0 0 0 0 0 0 0 0.25 0"/>
<feBlend mode="normal" in2="BackgroundImageFix" result="effect1_dropShadow_1_1123"/>
<feBlend mode="normal" in="SourceGraphic" in2="effect1_dropShadow_1_1123" result="shape"/>
<feColorMatrix in="SourceAlpha" type="matrix" values="0 0 0 0 0 0 0 0 0 0 0 0 0 0 0 0 0 0 127 0" result="hardAlpha"/>
<feOffset dy="4"/>
<feGaussianBlur stdDeviation="10"/>
<feComposite in2="hardAlpha" operator="arithmetic" k2="-1" k3="1"/>
<feColorMatrix type="matrix" values="0 0 0 0 1 0 0 0 0 1 0 0 0 0 1 0 0 0 0.2 0"/>
<feBlend mode="normal" in2="shape" result="effect2_innerShadow_1_1123"/>
</filter>
<filter id="filter8_di_1_1123" x="566.109" y="303.472" width="75.7812" height="72.6615" filterUnits="userSpaceOnUse" color-interpolation-filters="sRGB">
<feFlood flood-opacity="0" result="BackgroundImageFix"/>
<feColorMatrix in="SourceAlpha" type="matrix" values="0 0 0 0 0 0 0 0 0 0 0 0 0 0 0 0 0 0 127 0" result="hardAlpha"/>
<feOffset dy="2"/>
<feGaussianBlur stdDeviation="2"/>
<feComposite in2="hardAlpha" operator="out"/>
<feColorMatrix type="matrix" values="0 0 0 0 0 0 0 0 0 0 0 0 0 0 0 0 0 0 0.25 0"/>
<feBlend mode="normal" in2="BackgroundImageFix" result="effect1_dropShadow_1_1123"/>
<feBlend mode="normal" in="SourceGraphic" in2="effect1_dropShadow_1_1123" result="shape"/>
<feColorMatrix in="SourceAlpha" type="matrix" values="0 0 0 0 0 0 0 0 0 0 0 0 0 0 0 0 0 0 127 0" result="hardAlpha"/>
<feOffset dy="4"/>
<feGaussianBlur stdDeviation="10"/>
<feComposite in2="hardAlpha" operator="arithmetic" k2="-1" k3="1"/>
<feColorMatrix type="matrix" values="0 0 0 0 1 0 0 0 0 1 0 0 0 0 1 0 0 0 0.2 0"/>
<feBlend mode="normal" in2="shape" result="effect2_innerShadow_1_1123"/>
</filter>
<filter id="filter9_di_1_1123" x="646.109" y="303.472" width="75.7812" height="72.6615" filterUnits="userSpaceOnUse" color-interpolation-filters="sRGB">
<feFlood flood-opacity="0" result="BackgroundImageFix"/>
<feColorMatrix in="SourceAlpha" type="matrix" values="0 0 0 0 0 0 0 0 0 0 0 0 0 0 0 0 0 0 127 0" result="hardAlpha"/>
<feOffset dy="2"/>
<feGaussianBlur stdDeviation="2"/>
<feComposite in2="hardAlpha" operator="out"/>
<feColorMatrix type="matrix" values="0 0 0 0 0 0 0 0 0 0 0 0 0 0 0 0 0 0 0.25 0"/>
<feBlend mode="normal" in2="BackgroundImageFix" result="effect1_dropShadow_1_1123"/>
<feBlend mode="normal" in="SourceGraphic" in2="effect1_dropShadow_1_1123" result="shape"/>
<feColorMatrix in="SourceAlpha" type="matrix" values="0 0 0 0 0 0 0 0 0 0 0 0 0 0 0 0 0 0 127 0" result="hardAlpha"/>
<feOffset dy="4"/>
<feGaussianBlur stdDeviation="10"/>
<feComposite in2="hardAlpha" operator="arithmetic" k2="-1" k3="1"/>
<feColorMatrix type="matrix" values="0 0 0 0 1 0 0 0 0 1 0 0 0 0 1 0 0 0 0.2 0"/>
<feBlend mode="normal" in2="shape" result="effect2_innerShadow_1_1123"/>
</filter>
<filter id="filter10_di_1_1123" x="726.109" y="303.472" width="75.7812" height="72.6615" filterUnits="userSpaceOnUse" color-interpolation-filters="sRGB">
<feFlood flood-opacity="0" result="BackgroundImageFix"/>
<feColorMatrix in="SourceAlpha" type="matrix" values="0 0 0 0 0 0 0 0 0 0 0 0 0 0 0 0 0 0 127 0" result="hardAlpha"/>
<feOffset dy="2"/>
<feGaussianBlur stdDeviation="2"/>
<feComposite in2="hardAlpha" operator="out"/>
<feColorMatrix type="matrix" values="0 0 0 0 0 0 0 0 0 0 0 0 0 0 0 0 0 0 0.25 0"/>
<feBlend mode="normal" in2="BackgroundImageFix" result="effect1_dropShadow_1_1123"/>
<feBlend mode="normal" in="SourceGraphic" in2="effect1_dropShadow_1_1123" result="shape"/>
<feColorMatrix in="SourceAlpha" type="matrix" values="0 0 0 0 0 0 0 0 0 0 0 0 0 0 0 0 0 0 127 0" result="hardAlpha"/>
<feOffset dy="4"/>
<feGaussianBlur stdDeviation="10"/>
<feComposite in2="hardAlpha" operator="arithmetic" k2="-1" k3="1"/>
<feColorMatrix type="matrix" values="0 0 0 0 1 0 0 0 0 1 0 0 0 0 1 0 0 0 0.2 0"/>
<feBlend mode="normal" in2="shape" result="effect2_innerShadow_1_1123"/>
</filter>
</defs>
</svg>
