<svg width="1280" height="832" viewBox="0 0 1280 832" fill="none" xmlns="http://www.w3.org/2000/svg">
<g clip-path="url(#clip0_1_998)">
<rect width="1280" height="832" fill="#D4F0F7"/>
<g filter="url(#filter0_d_1_998)">
<path fill-rule="evenodd" clip-rule="evenodd" d="M46.4817 143.123C46.8583 142.719 47.491 142.697 47.895 143.073L56.6727 151.256C57.0767 151.632 57.0989 152.265 56.7223 152.669C56.3458 153.073 55.713 153.095 55.309 152.719L46.5313 144.536C46.1273 144.16 46.1051 143.527 46.4817 143.123Z" fill="white"/>
<path fill-rule="evenodd" clip-rule="evenodd" d="M41.302 124.233C41.6786 123.829 42.3113 123.807 42.7153 124.184L63.6857 143.732C64.0897 144.108 64.1119 144.741 63.7354 145.145C63.3588 145.549 62.726 145.571 62.322 145.195L41.3516 125.646C40.9476 125.27 40.9254 124.637 41.302 124.233Z" fill="white"/>
<path fill-rule="evenodd" clip-rule="evenodd" d="M36.2532 105.986C36.6297 105.582 37.2625 105.56 37.6665 105.937L70.4392 136.487C70.8432 136.863 70.8654 137.496 70.4888 137.9C70.1122 138.304 69.4794 138.326 69.0755 137.95L36.3028 107.4C35.8988 107.023 35.8766 106.39 36.2532 105.986Z" fill="white"/>
<path fill-rule="evenodd" clip-rule="evenodd" d="M30.8077 86.2417C31.1868 85.8401 31.8197 85.8218 32.2213 86.2009C45.4208 98.6598 70.5822 121.994 76.4996 127.482C77.2257 128.155 77.662 128.56 77.7509 128.643C78.155 129.019 78.1773 129.652 77.8008 130.056C77.4242 130.46 76.7915 130.483 76.3874 130.106C76.3002 130.025 75.8693 129.625 75.1514 128.959C69.2624 123.498 44.0626 100.128 30.8485 87.6553C30.4468 87.2762 30.4286 86.6433 30.8077 86.2417Z" fill="white"/>
<path fill-rule="evenodd" clip-rule="evenodd" d="M26.0124 68.8375C26.389 68.4335 27.0218 68.4113 27.4258 68.7879L84.2066 121.718C84.6105 122.094 84.6328 122.727 84.2562 123.131C83.8796 123.535 83.2468 123.557 82.8428 123.181L26.062 70.2508C25.6581 69.8743 25.6358 69.2415 26.0124 68.8375Z" fill="white"/>
<path fill-rule="evenodd" clip-rule="evenodd" d="M21.2453 50.853C21.6219 50.449 22.2547 50.4268 22.6587 50.8034L90.9603 114.473C91.3643 114.849 91.3865 115.482 91.0099 115.886C90.6333 116.29 90.0005 116.312 89.5965 115.936L21.295 52.2663C20.891 51.8898 20.8688 51.257 21.2453 50.853Z" fill="white"/>
<path fill-rule="evenodd" clip-rule="evenodd" d="M16.2038 32.6128C16.5804 32.2088 17.2132 32.1866 17.6172 32.5632L97.7138 107.228C98.1178 107.604 98.14 108.237 97.7634 108.641C97.3869 109.045 96.7541 109.067 96.3501 108.691L16.2534 34.0261C15.8495 33.6495 15.8273 33.0167 16.2038 32.6128Z" fill="white"/>
<path fill-rule="evenodd" clip-rule="evenodd" d="M33.6555 35.3401C34.0321 34.9361 34.6649 34.9139 35.0688 35.2904L104.468 99.9826C104.872 100.359 104.894 100.992 104.517 101.396C104.141 101.8 103.508 101.822 103.104 101.446L33.7051 36.7534C33.3011 36.3768 33.2789 35.744 33.6555 35.3401Z" fill="white"/>
<path fill-rule="evenodd" clip-rule="evenodd" d="M51.9299 38.8342C52.3065 38.4302 52.9393 38.408 53.3433 38.7846L111.221 92.7373C111.625 93.1139 111.648 93.7467 111.271 94.1507C110.894 94.5546 110.262 94.5768 109.858 94.2003L51.9795 40.2475C51.5755 39.871 51.5533 39.2382 51.9299 38.8342Z" fill="white"/>
<path fill-rule="evenodd" clip-rule="evenodd" d="M70.7532 42.8401C71.1297 42.4361 71.7625 42.4139 72.1665 42.7904L117.975 85.4923C118.379 85.8689 118.401 86.5017 118.025 86.9057C117.648 87.3097 117.015 87.3319 116.611 86.9553L70.8028 44.2534C70.3988 43.8768 70.3766 43.244 70.7532 42.8401Z" fill="white"/>
<path fill-rule="evenodd" clip-rule="evenodd" d="M89.302 46.5901C89.6786 46.1861 90.3113 46.1639 90.7153 46.5404L124.729 78.2472C125.133 78.6238 125.155 79.2566 124.779 79.6606C124.402 80.0645 123.769 80.0867 123.365 79.7102L89.3516 48.0034C88.9476 47.6268 88.9254 46.994 89.302 46.5901Z" fill="white"/>
<path fill-rule="evenodd" clip-rule="evenodd" d="M107.576 50.0844C107.953 49.6805 108.586 49.6582 108.99 50.0348L131.483 71.0022C131.887 71.3788 131.909 72.0116 131.532 72.4156C131.156 72.8196 130.523 72.8418 130.119 72.4652L107.626 51.4978C107.222 51.1212 107.2 50.4884 107.576 50.0844Z" fill="white"/>
<path fill-rule="evenodd" clip-rule="evenodd" d="M126.4 54.0901C126.776 53.6861 127.409 53.6639 127.813 54.0404L138.237 63.7571C138.641 64.1337 138.663 64.7664 138.286 65.1704C137.91 65.5744 137.277 65.5966 136.873 65.22L126.449 55.5034C126.045 55.1268 126.023 54.494 126.4 54.0901Z" fill="white"/>
<path fill-rule="evenodd" clip-rule="evenodd" d="M141.181 56.9321C141.557 56.5281 142.19 56.5059 142.594 56.8825L143.637 57.8541C144.041 58.2307 144.063 58.8635 143.686 59.2675C143.31 59.6715 142.677 59.6937 142.273 59.3171L141.23 58.3454C140.827 57.9689 140.804 57.3361 141.181 56.9321Z" fill="white"/>
</g>
<g filter="url(#filter1_d_1_998)">
<path fill-rule="evenodd" clip-rule="evenodd" d="M1269.95 76.5668C1269.7 76.0759 1269.89 75.4728 1270.38 75.2197L1310.21 54.687C1310.7 54.4339 1311.3 54.6267 1311.55 55.1175C1311.81 55.6084 1311.61 56.2115 1311.12 56.4646L1271.3 76.9973C1270.81 77.2504 1270.21 77.0576 1269.95 76.5668Z" fill="white"/>
<path fill-rule="evenodd" clip-rule="evenodd" d="M1249.53 75.0258C1249.28 74.5333 1249.48 73.9314 1249.97 73.6814C1266.15 65.4638 1296.61 49.6591 1303.78 45.9422C1304.65 45.4861 1305.18 45.212 1305.29 45.1563C1305.78 44.9031 1306.38 45.0958 1306.64 45.5866C1306.89 46.0775 1306.7 46.6806 1306.21 46.9338C1306.1 46.9885 1305.58 47.2591 1304.71 47.7101C1297.58 51.4091 1267.08 67.238 1250.87 75.4647C1250.38 75.7147 1249.78 75.5182 1249.53 75.0258Z" fill="white"/>
<path fill-rule="evenodd" clip-rule="evenodd" d="M1231.53 73.6626C1231.27 73.1717 1231.47 72.5686 1231.96 72.3155L1300.95 36.7413C1301.44 36.4882 1302.05 36.681 1302.3 37.1719C1302.55 37.6627 1302.36 38.2659 1301.87 38.519L1232.87 74.0931C1232.38 74.3462 1231.78 74.1535 1231.53 73.6626Z" fill="white"/>
<path fill-rule="evenodd" clip-rule="evenodd" d="M1212.99 72.0774C1212.74 71.5865 1212.93 70.9834 1213.42 70.7303L1296.41 27.9382C1296.9 27.6851 1297.51 27.8778 1297.76 28.3687C1298.01 28.8596 1297.82 29.4627 1297.33 29.7158L1214.34 72.5079C1213.85 72.761 1213.24 72.5683 1212.99 72.0774Z" fill="white"/>
<path fill-rule="evenodd" clip-rule="evenodd" d="M1194.12 70.6637C1193.87 70.1728 1194.06 69.5697 1194.55 69.3166L1291.87 19.1347C1292.36 18.8816 1292.97 19.0743 1293.22 19.5652C1293.47 20.0561 1293.28 20.6592 1292.79 20.9123L1195.47 71.0942C1194.97 71.3473 1194.37 71.1546 1194.12 70.6637Z" fill="white"/>
<path fill-rule="evenodd" clip-rule="evenodd" d="M1202.58 55.1578C1202.33 54.6669 1202.52 54.0638 1203.01 53.8107L1287.33 10.3312C1287.83 10.0781 1288.43 10.2708 1288.68 10.7617C1288.93 11.2526 1288.74 11.8557 1288.25 12.1088L1203.93 55.5883C1203.43 55.8415 1202.83 55.6487 1202.58 55.1578Z" fill="white"/>
<path fill-rule="evenodd" clip-rule="evenodd" d="M1212.04 39.1363C1211.78 38.6455 1211.98 38.0424 1212.47 37.7893L1282.8 1.52764C1283.29 1.27454 1283.89 1.46729 1284.14 1.95817C1284.4 2.44904 1284.2 3.05215 1283.71 3.30526L1213.38 39.5669C1212.89 39.82 1212.29 39.6272 1212.04 39.1363Z" fill="white"/>
<path fill-rule="evenodd" clip-rule="evenodd" d="M1222.16 22.7713C1221.91 22.2805 1222.1 21.6774 1222.59 21.4243L1278.26 -7.27567C1278.75 -7.52877 1279.35 -7.33602 1279.6 -6.84515C1279.86 -6.35427 1279.66 -5.75116 1279.17 -5.49806L1223.51 23.2019C1223.02 23.455 1222.42 23.2622 1222.16 22.7713Z" fill="white"/>
<path fill-rule="evenodd" clip-rule="evenodd" d="M1231.96 6.57811C1231.7 6.08724 1231.9 5.48413 1232.39 5.23102L1273.72 -16.0791C1274.21 -16.3322 1274.81 -16.1394 1275.06 -15.6486C1275.32 -15.1577 1275.12 -14.5546 1274.63 -14.3015L1233.3 7.00864C1232.81 7.26174 1232.21 7.06899 1231.96 6.57811Z" fill="white"/>
</g>
<g filter="url(#filter2_d_1_998)">
<path fill-rule="evenodd" clip-rule="evenodd" d="M5.3834 767.685C5.77475 768.075 5.77609 768.708 5.38639 769.099L-26.2276 800.847C-26.6173 801.238 -27.2504 801.24 -27.6418 800.85C-28.0331 800.46 -28.0344 799.827 -27.6447 799.436L3.96919 767.688C4.35889 767.297 4.99205 767.295 5.3834 767.685Z" fill="white"/>
<path fill-rule="evenodd" clip-rule="evenodd" d="M25.2965 762.893C25.6854 763.286 25.6828 763.919 25.2907 764.308C12.4033 777.089 -11.748 801.468 -17.4278 807.201C-18.1247 807.904 -18.5436 808.327 -18.6293 808.413C-19.019 808.805 -19.6522 808.806 -20.0436 808.416C-20.435 808.027 -20.4364 807.394 -20.0467 807.002C-19.9626 806.918 -19.549 806.5 -18.8599 805.805C-13.2074 800.099 10.9807 775.683 23.8823 762.888C24.2744 762.499 24.9076 762.501 25.2965 762.893Z" fill="white"/>
<path fill-rule="evenodd" clip-rule="evenodd" d="M42.8497 758.675C43.2411 759.065 43.2424 759.698 42.8527 760.089L-11.9205 815.094C-12.3102 815.485 -12.9433 815.487 -13.3347 815.097C-13.726 814.707 -13.7274 814.074 -13.3377 813.683L41.4355 758.678C41.8252 758.286 42.4584 758.285 42.8497 758.675Z" fill="white"/>
<path fill-rule="evenodd" clip-rule="evenodd" d="M60.9815 754.503C61.3729 754.893 61.3742 755.526 60.9845 755.917L-4.90211 822.083C-5.29181 822.474 -5.92498 822.475 -6.31632 822.086C-6.70767 821.696 -6.70901 821.063 -6.31931 820.671L59.5673 754.506C59.957 754.115 60.5902 754.113 60.9815 754.503Z" fill="white"/>
<path fill-rule="evenodd" clip-rule="evenodd" d="M79.378 750.066C79.7694 750.456 79.7707 751.089 79.381 751.48L2.11636 829.072C1.72666 829.463 1.09349 829.464 0.702146 829.075C0.310799 828.685 0.309463 828.052 0.699162 827.66L77.9638 750.069C78.3535 749.678 78.9867 749.676 79.378 750.066Z" fill="white"/>
<path fill-rule="evenodd" clip-rule="evenodd" d="M76.0768 767.418C76.4681 767.808 76.4694 768.441 76.0797 768.832L9.13468 836.061C8.74498 836.452 8.11182 836.453 7.72047 836.064C7.32912 835.674 7.32779 835.041 7.71749 834.649L74.6626 767.421C75.0523 767.03 75.6854 767.028 76.0768 767.418Z" fill="white"/>
<path fill-rule="evenodd" clip-rule="evenodd" d="M71.982 785.568C72.3734 785.957 72.3747 786.59 71.985 786.982L16.1534 843.05C15.7637 843.441 15.1305 843.442 14.7392 843.053C14.3478 842.663 14.3465 842.03 14.7362 841.638L70.5678 785.571C70.9575 785.179 71.5907 785.178 71.982 785.568Z" fill="white"/>
<path fill-rule="evenodd" clip-rule="evenodd" d="M67.3575 804.248C67.7489 804.638 67.7502 805.271 67.3605 805.663L23.1715 850.038C22.7818 850.43 22.1486 850.431 21.7573 850.041C21.3659 849.652 21.3646 849.019 21.7543 848.627L65.9433 804.251C66.333 803.86 66.9662 803.859 67.3575 804.248Z" fill="white"/>
<path fill-rule="evenodd" clip-rule="evenodd" d="M62.9981 822.663C63.3895 823.053 63.3908 823.686 63.0011 824.078L30.1902 857.027C29.8005 857.419 29.1673 857.42 28.776 857.03C28.3846 856.641 28.3833 856.007 28.773 855.616L61.5839 822.666C61.9736 822.275 62.6068 822.274 62.9981 822.663Z" fill="white"/>
</g>
<g filter="url(#filter3_d_1_998)">
<path fill-rule="evenodd" clip-rule="evenodd" d="M1072.12 807.216C1072.64 807.027 1073.21 807.294 1073.4 807.813L1075.73 814.203C1075.92 814.722 1075.65 815.296 1075.13 815.485C1074.61 815.674 1074.04 815.406 1073.85 814.887L1071.52 808.497C1071.33 807.978 1071.6 807.405 1072.12 807.216Z" fill="white"/>
<path fill-rule="evenodd" clip-rule="evenodd" d="M1073.72 796.581C1074.24 796.392 1074.81 796.66 1075 797.179L1080.56 812.445C1080.75 812.964 1080.48 813.537 1079.96 813.726C1079.44 813.915 1078.87 813.648 1078.68 813.129L1073.12 797.863C1072.93 797.344 1073.2 796.77 1073.72 796.581Z" fill="white"/>
<path fill-rule="evenodd" clip-rule="evenodd" d="M1075.25 786.295C1075.77 786.106 1076.34 786.374 1076.53 786.893L1085.21 810.75C1085.4 811.269 1085.13 811.843 1084.62 812.032C1084.1 812.221 1083.52 811.953 1083.33 811.434L1074.65 787.577C1074.46 787.058 1074.73 786.484 1075.25 786.295Z" fill="white"/>
<path fill-rule="evenodd" clip-rule="evenodd" d="M1076.91 775.17C1077.43 774.984 1078 775.254 1078.19 775.774C1081.65 785.456 1088.34 803.706 1089.92 808.006C1090.11 808.534 1090.23 808.852 1090.25 808.917C1090.44 809.436 1090.17 810.01 1089.65 810.199C1089.13 810.388 1088.56 810.12 1088.37 809.601C1088.35 809.538 1088.23 809.226 1088.04 808.707C1086.48 804.44 1079.77 786.146 1076.31 776.448C1076.12 775.928 1076.39 775.356 1076.91 775.17Z" fill="white"/>
<path fill-rule="evenodd" clip-rule="evenodd" d="M1078.37 765.365C1078.89 765.176 1079.47 765.444 1079.65 765.963L1094.7 807.297C1094.89 807.816 1094.62 808.39 1094.1 808.579C1093.58 808.768 1093.01 808.5 1092.82 807.981L1077.78 766.647C1077.59 766.128 1077.85 765.554 1078.37 765.365Z" fill="white"/>
<path fill-rule="evenodd" clip-rule="evenodd" d="M1079.97 755.285C1080.49 755.096 1081.07 755.364 1081.26 755.883L1099.35 805.604C1099.54 806.123 1099.27 806.697 1098.76 806.886C1098.24 807.075 1097.66 806.807 1097.47 806.288L1079.38 756.567C1079.19 756.048 1079.46 755.474 1079.97 755.285Z" fill="white"/>
<path fill-rule="evenodd" clip-rule="evenodd" d="M1081.5 745.004C1082.02 744.816 1082.6 745.083 1082.78 745.602L1104.01 803.91C1104.2 804.429 1103.93 805.003 1103.41 805.192C1102.89 805.381 1102.32 805.113 1102.13 804.594L1080.91 746.286C1080.72 745.767 1080.98 745.193 1081.5 745.004Z" fill="white"/>
<path fill-rule="evenodd" clip-rule="evenodd" d="M1088.99 751.098C1089.51 750.909 1090.08 751.177 1090.27 751.696L1108.66 802.216C1108.85 802.735 1108.58 803.309 1108.06 803.498C1107.54 803.687 1106.97 803.419 1106.78 802.9L1088.39 752.38C1088.2 751.861 1088.47 751.287 1088.99 751.098Z" fill="white"/>
<path fill-rule="evenodd" clip-rule="evenodd" d="M1096.7 757.791C1097.22 757.603 1097.79 757.87 1097.98 758.389L1113.31 800.523C1113.5 801.042 1113.24 801.615 1112.72 801.804C1112.2 801.993 1111.62 801.726 1111.43 801.207L1096.1 759.073C1095.91 758.554 1096.18 757.98 1096.7 757.791Z" fill="white"/>
<path fill-rule="evenodd" clip-rule="evenodd" d="M1104.55 764.884C1105.07 764.695 1105.64 764.962 1105.83 765.481L1117.97 798.829C1118.16 799.348 1117.89 799.922 1117.37 800.11C1116.85 800.299 1116.28 800.032 1116.09 799.513L1103.95 766.165C1103.76 765.646 1104.03 765.073 1104.55 764.884Z" fill="white"/>
<path fill-rule="evenodd" clip-rule="evenodd" d="M1112.33 771.776C1112.85 771.587 1113.42 771.855 1113.61 772.374L1122.62 797.135C1122.81 797.654 1122.54 798.227 1122.02 798.416C1121.5 798.605 1120.93 798.338 1120.74 797.819L1111.73 773.058C1111.54 772.539 1111.81 771.965 1112.33 771.776Z" fill="white"/>
<path fill-rule="evenodd" clip-rule="evenodd" d="M1120.03 778.469C1120.55 778.28 1121.13 778.548 1121.32 779.067L1120.38 779.409L1119.44 779.751C1119.25 779.232 1119.51 778.658 1120.03 778.469ZM1120.38 779.409C1119.44 779.751 1119.44 779.751 1119.44 779.751L1125.4 796.125C1125.58 796.644 1126.16 796.912 1126.68 796.723C1127.2 796.534 1127.46 795.96 1127.28 795.441L1121.32 779.067C1121.32 779.067 1121.32 779.067 1120.38 779.409Z" fill="white"/>
<path fill-rule="evenodd" clip-rule="evenodd" d="M1127.89 785.562C1128.4 785.373 1128.98 785.64 1129.17 786.159L1131.93 793.747C1132.12 794.266 1131.85 794.84 1131.33 795.029C1130.81 795.218 1130.24 794.95 1130.05 794.431L1127.29 786.843C1127.1 786.324 1127.37 785.75 1127.89 785.562Z" fill="white"/>
<path fill-rule="evenodd" clip-rule="evenodd" d="M1134.12 790.983C1134.63 790.794 1135.21 791.062 1135.4 791.58L1135.67 792.339C1135.86 792.858 1135.59 793.432 1135.08 793.621C1134.56 793.81 1133.98 793.542 1133.79 793.023L1133.52 792.265C1133.33 791.746 1133.6 791.172 1134.12 790.983Z" fill="white"/>
</g>
<g filter="url(#filter4_d_1_998)">
<path fill-rule="evenodd" clip-rule="evenodd" d="M336.119 809.216C336.638 809.027 337.212 809.294 337.401 809.813L339.726 816.203C339.915 816.722 339.648 817.296 339.129 817.485C338.61 817.674 338.036 817.406 337.847 816.887L335.521 810.497C335.332 809.978 335.6 809.405 336.119 809.216Z" fill="white"/>
<path fill-rule="evenodd" clip-rule="evenodd" d="M337.721 798.581C338.24 798.392 338.814 798.66 339.003 799.179L344.559 814.445C344.748 814.964 344.48 815.537 343.961 815.726C343.442 815.915 342.868 815.648 342.68 815.129L337.123 799.863C336.934 799.344 337.202 798.77 337.721 798.581Z" fill="white"/>
<path fill-rule="evenodd" clip-rule="evenodd" d="M339.248 788.295C339.767 788.106 340.341 788.374 340.53 788.893L349.213 812.75C349.402 813.269 349.134 813.843 348.615 814.032C348.096 814.221 347.522 813.953 347.334 813.434L338.65 789.577C338.461 789.058 338.729 788.484 339.248 788.295Z" fill="white"/>
<path fill-rule="evenodd" clip-rule="evenodd" d="M340.91 777.17C341.43 776.984 342.002 777.254 342.188 777.774C345.652 787.456 352.341 805.706 353.917 810.006C354.111 810.534 354.227 810.852 354.251 810.917C354.44 811.436 354.173 812.01 353.654 812.199C353.135 812.388 352.561 812.12 352.372 811.601C352.349 811.538 352.235 811.226 352.044 810.707C350.48 806.44 343.775 788.146 340.305 778.448C340.119 777.928 340.39 777.356 340.91 777.17Z" fill="white"/>
<path fill-rule="evenodd" clip-rule="evenodd" d="M342.373 767.365C342.892 767.176 343.466 767.444 343.655 767.963L358.7 809.297C358.888 809.816 358.621 810.39 358.102 810.579C357.583 810.768 357.009 810.5 356.82 809.981L341.776 768.647C341.587 768.128 341.854 767.554 342.373 767.365Z" fill="white"/>
<path fill-rule="evenodd" clip-rule="evenodd" d="M343.974 757.285C344.493 757.096 345.067 757.364 345.256 757.883L363.353 807.604C363.542 808.123 363.275 808.697 362.756 808.886C362.237 809.075 361.663 808.807 361.474 808.288L343.377 758.567C343.188 758.048 343.455 757.474 343.974 757.285Z" fill="white"/>
<path fill-rule="evenodd" clip-rule="evenodd" d="M345.503 747.004C346.022 746.816 346.596 747.083 346.784 747.602L368.007 805.91C368.196 806.429 367.928 807.003 367.409 807.192C366.89 807.381 366.316 807.113 366.127 806.594L344.905 748.286C344.716 747.767 344.984 747.193 345.503 747.004Z" fill="white"/>
<path fill-rule="evenodd" clip-rule="evenodd" d="M352.991 753.098C353.51 752.909 354.084 753.177 354.273 753.696L372.661 804.216C372.849 804.735 372.582 805.309 372.063 805.498C371.544 805.687 370.97 805.419 370.781 804.9L352.393 754.38C352.204 753.861 352.472 753.287 352.991 753.098Z" fill="white"/>
<path fill-rule="evenodd" clip-rule="evenodd" d="M360.697 759.791C361.216 759.603 361.79 759.87 361.979 760.389L377.314 802.523C377.503 803.042 377.235 803.615 376.716 803.804C376.197 803.993 375.624 803.726 375.435 803.207L360.099 761.073C359.91 760.554 360.178 759.98 360.697 759.791Z" fill="white"/>
<path fill-rule="evenodd" clip-rule="evenodd" d="M368.549 766.884C369.068 766.695 369.642 766.962 369.831 767.481L381.968 800.829C382.157 801.348 381.89 801.922 381.371 802.11C380.852 802.299 380.278 802.032 380.089 801.513L367.951 768.165C367.763 767.646 368.03 767.073 368.549 766.884Z" fill="white"/>
<path fill-rule="evenodd" clip-rule="evenodd" d="M376.327 773.776C376.846 773.587 377.42 773.855 377.609 774.374L386.621 799.135C386.81 799.654 386.543 800.227 386.024 800.416C385.505 800.605 384.931 800.338 384.742 799.819L375.73 775.058C375.541 774.539 375.808 773.965 376.327 773.776Z" fill="white"/>
<path fill-rule="evenodd" clip-rule="evenodd" d="M384.034 780.469C384.553 780.28 385.127 780.548 385.316 781.067L384.376 781.409L383.436 781.751C383.247 781.232 383.515 780.658 384.034 780.469ZM384.376 781.409C383.436 781.751 383.436 781.751 383.436 781.751L389.396 798.125C389.585 798.644 390.159 798.912 390.678 798.723C391.197 798.534 391.464 797.96 391.275 797.441L385.316 781.067C385.316 781.067 385.316 781.067 384.376 781.409Z" fill="white"/>
<path fill-rule="evenodd" clip-rule="evenodd" d="M391.885 787.562C392.404 787.373 392.978 787.64 393.167 788.159L395.929 795.747C396.118 796.266 395.85 796.84 395.331 797.029C394.812 797.218 394.239 796.95 394.05 796.431L391.288 788.843C391.099 788.324 391.367 787.75 391.885 787.562Z" fill="white"/>
<path fill-rule="evenodd" clip-rule="evenodd" d="M398.115 792.983C398.634 792.794 399.208 793.062 399.397 793.58L399.673 794.339C399.862 794.858 399.595 795.432 399.076 795.621C398.557 795.81 397.983 795.542 397.794 795.023L397.518 794.265C397.329 793.746 397.596 793.172 398.115 792.983Z" fill="white"/>
</g>
<g filter="url(#filter5_d_1_998)">
<path fill-rule="evenodd" clip-rule="evenodd" d="M917.398 823.335C917.375 822.784 917.804 822.318 918.355 822.295L925.149 822.012C925.701 821.989 926.167 822.417 926.19 822.969C926.213 823.521 925.784 823.987 925.233 824.01L918.439 824.293C917.887 824.316 917.421 823.887 917.398 823.335Z" fill="white"/>
<path fill-rule="evenodd" clip-rule="evenodd" d="M907.746 818.59C907.723 818.039 908.152 817.573 908.704 817.55L924.935 816.873C925.487 816.85 925.953 817.279 925.976 817.831C925.999 818.383 925.57 818.849 925.019 818.872L908.787 819.548C908.235 819.571 907.769 819.142 907.746 818.59Z" fill="white"/>
<path fill-rule="evenodd" clip-rule="evenodd" d="M898.405 814.022C898.382 813.471 898.811 813.005 899.363 812.982L924.729 811.925C925.281 811.902 925.747 812.331 925.77 812.882C925.793 813.434 925.364 813.9 924.813 813.923L899.446 814.98C898.894 815.003 898.428 814.574 898.405 814.022Z" fill="white"/>
<path fill-rule="evenodd" clip-rule="evenodd" d="M888.304 809.072C888.284 808.52 888.715 808.056 889.267 808.036C899.543 807.665 918.962 806.812 923.537 806.611C924.099 806.586 924.437 806.571 924.506 806.568C925.058 806.545 925.524 806.974 925.547 807.526C925.57 808.077 925.141 808.543 924.59 808.566C924.523 808.569 924.191 808.584 923.638 808.608C919.098 808.808 899.633 809.663 889.34 810.035C888.788 810.055 888.324 809.624 888.304 809.072Z" fill="white"/>
<path fill-rule="evenodd" clip-rule="evenodd" d="M879.402 804.71C879.379 804.158 879.807 803.692 880.359 803.669L924.309 801.838C924.86 801.815 925.326 802.244 925.349 802.796C925.372 803.348 924.944 803.814 924.392 803.837L880.442 805.668C879.891 805.691 879.425 805.262 879.402 804.71Z" fill="white"/>
<path fill-rule="evenodd" clip-rule="evenodd" d="M870.279 800.134C870.256 799.582 870.684 799.116 871.236 799.093L924.103 796.89C924.655 796.867 925.121 797.296 925.144 797.848C925.167 798.4 924.738 798.866 924.186 798.889L871.319 801.091C870.768 801.114 870.302 800.686 870.279 800.134Z" fill="white"/>
<path fill-rule="evenodd" clip-rule="evenodd" d="M860.943 795.566C860.92 795.014 861.348 794.548 861.9 794.525L923.896 791.942C924.448 791.92 924.914 792.348 924.937 792.9C924.96 793.452 924.532 793.918 923.98 793.941L861.984 796.524C861.432 796.547 860.966 796.118 860.943 795.566Z" fill="white"/>
<path fill-rule="evenodd" clip-rule="evenodd" d="M869.017 790.273C868.994 789.721 869.423 789.255 869.974 789.232L923.69 786.994C924.242 786.971 924.708 787.4 924.731 787.952C924.754 788.503 924.325 788.969 923.774 788.992L870.058 791.23C869.506 791.253 869.04 790.825 869.017 790.273Z" fill="white"/>
<path fill-rule="evenodd" clip-rule="evenodd" d="M877.728 784.953C877.705 784.402 878.134 783.936 878.686 783.913L923.485 782.046C924.036 782.023 924.502 782.452 924.525 783.004C924.548 783.555 924.12 784.021 923.568 784.044L878.769 785.911C878.217 785.934 877.751 785.505 877.728 784.953Z" fill="white"/>
<path fill-rule="evenodd" clip-rule="evenodd" d="M886.864 779.616C886.841 779.064 887.27 778.598 887.822 778.575L923.278 777.098C923.83 777.075 924.296 777.504 924.319 778.055C924.342 778.607 923.913 779.073 923.362 779.096L887.905 780.573C887.353 780.596 886.887 780.168 886.864 779.616Z" fill="white"/>
<path fill-rule="evenodd" clip-rule="evenodd" d="M895.787 774.288C895.764 773.736 896.193 773.27 896.744 773.247L923.072 772.15C923.623 772.127 924.089 772.556 924.112 773.108C924.135 773.659 923.707 774.125 923.155 774.148L896.828 775.245C896.276 775.268 895.81 774.839 895.787 774.288Z" fill="white"/>
<path fill-rule="evenodd" clip-rule="evenodd" d="M904.499 768.968C904.476 768.416 904.905 767.95 905.456 767.927L905.498 768.926L905.54 769.925C904.988 769.948 904.522 769.52 904.499 768.968ZM905.498 768.926C905.54 769.925 905.54 769.925 905.54 769.925L922.95 769.2C923.501 769.177 923.93 768.711 923.907 768.159C923.884 767.608 923.418 767.179 922.866 767.202L905.456 767.927C905.456 767.927 905.456 767.927 905.498 768.926Z" fill="white"/>
<path fill-rule="evenodd" clip-rule="evenodd" d="M913.634 763.631C913.611 763.079 914.04 762.613 914.592 762.59L922.66 762.254C923.211 762.231 923.677 762.66 923.7 763.211C923.723 763.763 923.295 764.229 922.743 764.252L914.675 764.588C914.123 764.611 913.657 764.183 913.634 763.631Z" fill="white"/>
<path fill-rule="evenodd" clip-rule="evenodd" d="M920.686 759.334C920.663 758.782 921.092 758.316 921.644 758.293L922.451 758.259C923.003 758.236 923.468 758.665 923.491 759.217C923.514 759.769 923.086 760.234 922.534 760.257L921.727 760.291C921.175 760.314 920.709 759.885 920.686 759.334Z" fill="white"/>
</g>
<g filter="url(#filter6_d_1_998)">
<path fill-rule="evenodd" clip-rule="evenodd" d="M1224.72 522.317C1224.34 522.719 1223.71 522.736 1223.31 522.356L1218.37 517.682C1217.97 517.302 1217.95 516.669 1218.33 516.268C1218.71 515.867 1219.34 515.849 1219.75 516.229L1224.68 520.904C1225.09 521.283 1225.1 521.916 1224.72 522.317Z" fill="white"/>
<path fill-rule="evenodd" clip-rule="evenodd" d="M1228.05 532.545C1227.67 532.946 1227.03 532.964 1226.63 532.584L1214.84 521.416C1214.43 521.036 1214.42 520.404 1214.8 520.002C1215.18 519.601 1215.81 519.584 1216.21 519.964L1228.01 531.132C1228.41 531.511 1228.43 532.144 1228.05 532.545Z" fill="white"/>
<path fill-rule="evenodd" clip-rule="evenodd" d="M1231.28 542.428C1230.9 542.829 1230.27 542.846 1229.87 542.467L1211.43 525.013C1211.03 524.634 1211.01 524.001 1211.39 523.6C1211.77 523.199 1212.41 523.181 1212.81 523.561L1231.24 541.014C1231.65 541.394 1231.66 542.027 1231.28 542.428Z" fill="white"/>
<path fill-rule="evenodd" clip-rule="evenodd" d="M1234.77 553.122C1234.39 553.521 1233.76 553.535 1233.36 553.153C1225.93 546.043 1211.78 532.713 1208.45 529.572C1208.04 529.186 1207.8 528.954 1207.75 528.907C1207.34 528.527 1207.33 527.894 1207.71 527.493C1208.09 527.092 1208.72 527.075 1209.12 527.454C1209.17 527.5 1209.41 527.728 1209.81 528.107C1213.12 531.224 1227.3 544.586 1234.74 551.708C1235.14 552.09 1235.16 552.723 1234.77 553.122Z" fill="white"/>
<path fill-rule="evenodd" clip-rule="evenodd" d="M1237.85 562.545C1237.47 562.946 1236.84 562.964 1236.44 562.584L1204.49 532.345C1204.09 531.965 1204.07 531.332 1204.45 530.931C1204.83 530.53 1205.47 530.513 1205.87 530.892L1237.81 561.132C1238.21 561.511 1238.23 562.144 1237.85 562.545Z" fill="white"/>
<path fill-rule="evenodd" clip-rule="evenodd" d="M1240.93 572.277C1240.55 572.678 1239.91 572.695 1239.51 572.316L1201.09 535.941C1200.69 535.561 1200.67 534.928 1201.05 534.527C1201.43 534.126 1202.06 534.109 1202.46 534.489L1240.89 570.863C1241.29 571.243 1241.31 571.876 1240.93 572.277Z" fill="white"/>
<path fill-rule="evenodd" clip-rule="evenodd" d="M1244.16 582.155C1243.78 582.556 1243.15 582.574 1242.75 582.194L1197.68 539.538C1197.28 539.158 1197.26 538.525 1197.64 538.124C1198.02 537.723 1198.66 537.706 1199.06 538.085L1244.12 580.742C1244.52 581.121 1244.54 581.754 1244.16 582.155Z" fill="white"/>
<path fill-rule="evenodd" clip-rule="evenodd" d="M1234.74 580.055C1234.36 580.456 1233.72 580.473 1233.32 580.094L1194.28 543.135C1193.88 542.755 1193.86 542.122 1194.24 541.721C1194.62 541.32 1195.25 541.302 1195.65 541.682L1234.7 578.641C1235.1 579.021 1235.12 579.654 1234.74 580.055Z" fill="white"/>
<path fill-rule="evenodd" clip-rule="evenodd" d="M1224.85 577.516C1224.47 577.917 1223.84 577.934 1223.44 577.554L1190.87 546.731C1190.47 546.351 1190.45 545.718 1190.83 545.317C1191.21 544.916 1191.85 544.899 1192.25 545.278L1224.81 576.102C1225.21 576.482 1225.23 577.115 1224.85 577.516Z" fill="white"/>
<path fill-rule="evenodd" clip-rule="evenodd" d="M1214.65 574.685C1214.27 575.086 1213.64 575.103 1213.24 574.723L1187.47 550.327C1187.07 549.948 1187.05 549.315 1187.43 548.914C1187.81 548.513 1188.44 548.495 1188.84 548.875L1214.62 573.271C1215.02 573.651 1215.03 574.284 1214.65 574.685Z" fill="white"/>
<path fill-rule="evenodd" clip-rule="evenodd" d="M1204.61 572C1204.23 572.401 1203.6 572.418 1203.2 572.039L1184.06 553.924C1183.66 553.545 1183.65 552.912 1184.03 552.511C1184.41 552.109 1185.04 552.092 1185.44 552.472L1204.58 570.586C1204.98 570.966 1204.99 571.599 1204.61 572Z" fill="white"/>
<path fill-rule="evenodd" clip-rule="evenodd" d="M1194.73 569.461C1194.35 569.862 1193.71 569.879 1193.31 569.499L1194 568.773L1194.69 568.047C1195.09 568.427 1195.11 569.059 1194.73 569.461ZM1194 568.773C1194.69 568.047 1194.69 568.047 1194.69 568.047L1182.03 556.068C1181.63 555.688 1181 555.706 1180.62 556.107C1180.24 556.508 1180.26 557.141 1180.66 557.52L1193.31 569.499C1193.31 569.499 1193.31 569.499 1194 568.773Z" fill="white"/>
<path fill-rule="evenodd" clip-rule="evenodd" d="M1184.53 566.629C1184.15 567.031 1183.52 567.048 1183.12 566.668L1177.26 561.117C1176.85 560.737 1176.84 560.104 1177.22 559.703C1177.6 559.302 1178.23 559.285 1178.63 559.665L1184.49 565.216C1184.9 565.595 1184.91 566.228 1184.53 566.629Z" fill="white"/>
<path fill-rule="evenodd" clip-rule="evenodd" d="M1176.54 564.567C1176.16 564.969 1175.52 564.986 1175.12 564.606L1174.54 564.051C1174.13 563.671 1174.12 563.039 1174.5 562.637C1174.88 562.236 1175.51 562.219 1175.91 562.599L1176.5 563.154C1176.9 563.533 1176.92 564.166 1176.54 564.567Z" fill="white"/>
</g>
<g filter="url(#filter7_d_1_998)">
<path fill-rule="evenodd" clip-rule="evenodd" d="M1221.15 476.965C1220.75 476.582 1220.74 475.949 1221.12 475.551L1225.83 470.65C1226.22 470.252 1226.85 470.24 1227.25 470.622C1227.65 471.005 1227.66 471.638 1227.28 472.036L1222.56 476.938C1222.18 477.336 1221.55 477.348 1221.15 476.965Z" fill="white"/>
<path fill-rule="evenodd" clip-rule="evenodd" d="M1210.89 480.208C1210.5 479.826 1210.48 479.193 1210.87 478.794L1222.13 467.085C1222.51 466.687 1223.14 466.675 1223.54 467.058C1223.94 467.44 1223.95 468.073 1223.57 468.471L1212.31 480.181C1211.93 480.579 1211.29 480.591 1210.89 480.208Z" fill="white"/>
<path fill-rule="evenodd" clip-rule="evenodd" d="M1200.99 483.366C1200.59 482.983 1200.58 482.35 1200.96 481.952L1218.56 463.652C1218.94 463.254 1219.57 463.242 1219.97 463.625C1220.37 464.007 1220.38 464.64 1220 465.039L1202.4 483.338C1202.02 483.736 1201.38 483.748 1200.99 483.366Z" fill="white"/>
<path fill-rule="evenodd" clip-rule="evenodd" d="M1190.27 486.771C1189.87 486.386 1189.86 485.753 1190.25 485.357C1197.41 477.985 1210.86 463.944 1214.02 460.637C1214.41 460.23 1214.65 459.986 1214.69 459.936C1215.08 459.538 1215.71 459.525 1216.11 459.908C1216.51 460.291 1216.52 460.924 1216.14 461.322C1216.09 461.37 1215.86 461.61 1215.48 462.009C1212.33 465.293 1198.86 479.367 1191.68 486.751C1191.29 487.147 1190.66 487.156 1190.27 486.771Z" fill="white"/>
<path fill-rule="evenodd" clip-rule="evenodd" d="M1180.82 489.774C1180.42 489.391 1180.41 488.758 1180.79 488.36L1211.28 456.655C1211.66 456.257 1212.3 456.244 1212.69 456.627C1213.09 457.01 1213.11 457.643 1212.72 458.041L1182.23 489.746C1181.85 490.144 1181.22 490.156 1180.82 489.774Z" fill="white"/>
<path fill-rule="evenodd" clip-rule="evenodd" d="M1171.06 492.774C1170.66 492.391 1170.65 491.758 1171.03 491.36L1207.71 453.222C1208.09 452.823 1208.73 452.811 1209.13 453.194C1209.52 453.577 1209.54 454.21 1209.15 454.608L1172.48 492.746C1172.09 493.144 1171.46 493.156 1171.06 492.774Z" fill="white"/>
<path fill-rule="evenodd" clip-rule="evenodd" d="M1161.16 495.927C1160.76 495.544 1160.75 494.911 1161.13 494.513L1204.14 449.789C1204.52 449.391 1205.16 449.379 1205.56 449.761C1205.95 450.144 1205.97 450.777 1205.58 451.175L1162.57 495.899C1162.19 496.298 1161.56 496.31 1161.16 495.927Z" fill="white"/>
<path fill-rule="evenodd" clip-rule="evenodd" d="M1163.33 486.521C1162.94 486.138 1162.92 485.505 1163.31 485.107L1200.57 446.356C1200.96 445.958 1201.59 445.946 1201.99 446.328C1202.38 446.711 1202.4 447.344 1202.01 447.742L1164.75 486.493C1164.36 486.891 1163.73 486.903 1163.33 486.521Z" fill="white"/>
<path fill-rule="evenodd" clip-rule="evenodd" d="M1165.95 476.655C1165.55 476.272 1165.54 475.639 1165.92 475.241L1197 442.923C1197.39 442.525 1198.02 442.513 1198.42 442.895C1198.82 443.278 1198.83 443.911 1198.44 444.309L1167.36 476.627C1166.98 477.025 1166.35 477.038 1165.95 476.655Z" fill="white"/>
<path fill-rule="evenodd" clip-rule="evenodd" d="M1168.86 466.482C1168.46 466.1 1168.45 465.467 1168.83 465.069L1193.43 439.49C1193.82 439.092 1194.45 439.08 1194.85 439.462C1195.25 439.845 1195.26 440.478 1194.88 440.876L1170.28 466.455C1169.89 466.853 1169.26 466.865 1168.86 466.482Z" fill="white"/>
<path fill-rule="evenodd" clip-rule="evenodd" d="M1171.63 456.464C1171.23 456.081 1171.22 455.448 1171.6 455.05L1189.86 436.058C1190.25 435.66 1190.88 435.647 1191.28 436.03C1191.68 436.413 1191.69 437.046 1191.31 437.444L1173.04 456.436C1172.66 456.835 1172.02 456.847 1171.63 456.464Z" fill="white"/>
<path fill-rule="evenodd" clip-rule="evenodd" d="M1174.24 446.598C1173.85 446.215 1173.83 445.582 1174.22 445.184L1174.94 445.877L1175.66 446.57C1175.27 446.968 1174.64 446.981 1174.24 446.598ZM1174.94 445.877C1175.66 446.57 1175.66 446.57 1175.66 446.57L1187.74 434.011C1188.12 433.613 1188.11 432.98 1187.71 432.597C1187.31 432.214 1186.68 432.226 1186.29 432.625L1174.22 445.184C1174.22 445.184 1174.22 445.184 1174.94 445.877Z" fill="white"/>
<path fill-rule="evenodd" clip-rule="evenodd" d="M1177.16 436.426C1176.76 436.043 1176.74 435.41 1177.13 435.012L1182.72 429.192C1183.11 428.794 1183.74 428.781 1184.14 429.164C1184.54 429.547 1184.55 430.18 1184.17 430.578L1178.57 436.398C1178.19 436.796 1177.55 436.809 1177.16 436.426Z" fill="white"/>
<path fill-rule="evenodd" clip-rule="evenodd" d="M1179.28 428.446C1178.88 428.063 1178.87 427.43 1179.25 427.032L1179.81 426.45C1180.2 426.052 1180.83 426.039 1181.23 426.422C1181.62 426.805 1181.64 427.438 1181.25 427.836L1180.69 428.418C1180.31 428.816 1179.68 428.829 1179.28 428.446Z" fill="white"/>
</g>
<g filter="url(#filter8_d_1_998)">
<path fill-rule="evenodd" clip-rule="evenodd" d="M704.148 28.9652C703.75 28.5823 703.738 27.9493 704.121 27.5512L708.834 22.6499C709.217 22.2519 709.85 22.2395 710.248 22.6223C710.646 23.0052 710.659 23.6382 710.276 24.0363L705.562 28.9376C705.179 29.3356 704.546 29.348 704.148 28.9652Z" fill="white"/>
<path fill-rule="evenodd" clip-rule="evenodd" d="M693.894 32.2084C693.496 31.8256 693.484 31.1926 693.867 30.7945L705.128 19.0851C705.511 18.687 706.144 18.6747 706.542 19.0575C706.94 19.4403 706.952 20.0734 706.569 20.4715L695.308 32.1808C694.926 32.5789 694.293 32.5913 693.894 32.2084Z" fill="white"/>
<path fill-rule="evenodd" clip-rule="evenodd" d="M683.987 35.3657C683.589 34.9828 683.576 34.3498 683.959 33.9517L701.558 15.6522C701.941 15.2542 702.574 15.2418 702.972 15.6246C703.37 16.0074 703.382 16.6405 702.999 17.0386L685.401 35.3381C685.018 35.7361 684.385 35.7485 683.987 35.3657Z" fill="white"/>
<path fill-rule="evenodd" clip-rule="evenodd" d="M673.266 38.771C672.87 38.386 672.861 37.7529 673.246 37.3569C680.414 29.985 693.856 15.9444 697.022 12.6366C697.412 12.23 697.646 11.9856 697.694 11.9357C698.076 11.5375 698.709 11.5251 699.107 11.9079C699.506 12.2907 699.518 12.9237 699.135 13.3218C699.089 13.3703 698.859 13.61 698.477 14.0095C695.334 17.2925 681.86 31.3665 674.68 38.7511C674.295 39.1471 673.662 39.156 673.266 38.771Z" fill="white"/>
<path fill-rule="evenodd" clip-rule="evenodd" d="M663.818 41.7736C663.42 41.3908 663.407 40.7578 663.79 40.3597L694.281 8.65463C694.664 8.25656 695.297 8.2442 695.695 8.62703C696.093 9.00985 696.105 9.6429 695.722 10.041L665.232 41.746C664.849 42.1441 664.216 42.1565 663.818 41.7736Z" fill="white"/>
<path fill-rule="evenodd" clip-rule="evenodd" d="M654.062 44.7735C653.664 44.3907 653.652 43.7576 654.035 43.3596L690.712 5.22156C691.095 4.82349 691.728 4.81113 692.126 5.19396C692.524 5.57678 692.537 6.20983 692.154 6.6079L655.476 44.7459C655.094 45.144 654.461 45.1563 654.062 44.7735Z" fill="white"/>
<path fill-rule="evenodd" clip-rule="evenodd" d="M644.159 47.9271C643.761 47.5442 643.748 46.9112 644.131 46.5131L687.142 1.78905C687.525 1.39097 688.158 1.37861 688.556 1.76144C688.954 2.14427 688.967 2.77731 688.584 3.17538L645.573 47.8995C645.19 48.2975 644.557 48.3099 644.159 47.9271Z" fill="white"/>
<path fill-rule="evenodd" clip-rule="evenodd" d="M646.333 38.5206C645.935 38.1377 645.923 37.5047 646.306 37.1066L683.572 -1.64403C683.955 -2.0421 684.588 -2.05446 684.986 -1.67163C685.384 -1.2888 685.397 -0.65576 685.014 -0.257687L647.747 38.493C647.365 38.891 646.731 38.9034 646.333 38.5206Z" fill="white"/>
<path fill-rule="evenodd" clip-rule="evenodd" d="M648.951 28.6547C648.553 28.2719 648.54 27.6389 648.923 27.2408L680.003 -5.07696C680.386 -5.47503 681.019 -5.48739 681.417 -5.10456C681.815 -4.72173 681.827 -4.08869 681.445 -3.69062L650.365 28.6271C649.982 29.0252 649.349 29.0376 648.951 28.6547Z" fill="white"/>
<path fill-rule="evenodd" clip-rule="evenodd" d="M651.862 18.4825C651.464 18.0997 651.452 17.4666 651.835 17.0685L676.433 -8.50994C676.816 -8.90801 677.449 -8.92037 677.847 -8.53754C678.245 -8.15472 678.258 -7.52167 677.875 -7.1236L653.276 18.4549C652.893 18.853 652.26 18.8653 651.862 18.4825Z" fill="white"/>
<path fill-rule="evenodd" clip-rule="evenodd" d="M654.626 8.46406C654.228 8.08123 654.216 7.44819 654.599 7.05011L672.864 -11.9423C673.247 -12.3403 673.88 -12.3527 674.278 -11.9699C674.676 -11.5871 674.688 -10.954 674.305 -10.5559L656.04 8.43645C655.658 8.83452 655.024 8.84688 654.626 8.46406Z" fill="white"/>
</g>
<g filter="url(#filter9_d_1_998)">
<path fill-rule="evenodd" clip-rule="evenodd" d="M1238.37 687.413C1237.91 687.719 1237.29 687.596 1236.99 687.136L1230.32 677.155C1230.02 676.696 1230.14 676.075 1230.6 675.768C1231.06 675.462 1231.68 675.585 1231.99 676.045L1238.65 686.026C1238.96 686.485 1238.83 687.106 1238.37 687.413Z" fill="white"/>
<path fill-rule="evenodd" clip-rule="evenodd" d="M1239.07 706.988C1238.61 707.295 1237.99 707.171 1237.68 706.711L1221.77 682.866C1221.46 682.406 1221.59 681.785 1222.05 681.479C1222.5 681.172 1223.13 681.296 1223.43 681.755L1239.35 705.601C1239.65 706.06 1239.53 706.681 1239.07 706.988Z" fill="white"/>
<path fill-rule="evenodd" clip-rule="evenodd" d="M1239.79 725.906C1239.33 726.213 1238.71 726.089 1238.4 725.63L1213.53 688.364C1213.22 687.904 1213.35 687.283 1213.81 686.977C1214.27 686.67 1214.89 686.794 1215.19 687.253L1240.07 724.519C1240.37 724.979 1240.25 725.6 1239.79 725.906Z" fill="white"/>
<path fill-rule="evenodd" clip-rule="evenodd" d="M1240.55 746.374C1240.09 746.678 1239.47 746.55 1239.16 746.089C1229.18 730.929 1210.06 702.435 1205.56 695.734C1205.01 694.912 1204.68 694.418 1204.61 694.317C1204.3 693.857 1204.43 693.236 1204.89 692.93C1205.35 692.623 1205.97 692.747 1206.27 693.206C1206.34 693.305 1206.67 693.793 1207.21 694.606C1211.69 701.275 1230.84 729.813 1240.84 744.989C1241.14 745.45 1241.01 746.07 1240.55 746.374Z" fill="white"/>
<path fill-rule="evenodd" clip-rule="evenodd" d="M1241.22 764.415C1240.76 764.722 1240.14 764.598 1239.83 764.139L1196.74 699.573C1196.43 699.113 1196.55 698.493 1197.01 698.186C1197.47 697.879 1198.09 698.003 1198.4 698.463L1241.49 763.028C1241.8 763.488 1241.68 764.109 1241.22 764.415Z" fill="white"/>
<path fill-rule="evenodd" clip-rule="evenodd" d="M1241.72 783.013C1241.26 783.32 1240.64 783.196 1240.33 782.736L1188.5 705.07C1188.19 704.611 1188.32 703.99 1188.78 703.683C1189.23 703.377 1189.86 703.501 1190.16 703.96L1242 781.626C1242.3 782.086 1242.18 782.706 1241.72 783.013Z" fill="white"/>
<path fill-rule="evenodd" clip-rule="evenodd" d="M1242.43 801.923C1241.97 802.23 1241.35 802.106 1241.05 801.647L1180.26 710.568C1179.95 710.109 1180.08 709.488 1180.54 709.181C1181 708.875 1181.62 708.999 1181.92 709.458L1242.71 800.536C1243.02 800.996 1242.89 801.617 1242.43 801.923Z" fill="white"/>
<path fill-rule="evenodd" clip-rule="evenodd" d="M1226.08 795.257C1225.62 795.564 1225 795.44 1224.69 794.981L1172.02 716.067C1171.72 715.608 1171.84 714.987 1172.3 714.68C1172.76 714.374 1173.38 714.497 1173.69 714.957L1226.35 793.871C1226.66 794.33 1226.54 794.951 1226.08 795.257Z" fill="white"/>
<path fill-rule="evenodd" clip-rule="evenodd" d="M1209.09 787.656C1208.64 787.962 1208.01 787.838 1207.71 787.379L1163.78 721.565C1163.48 721.106 1163.6 720.485 1164.06 720.179C1164.52 719.872 1165.14 719.996 1165.45 720.455L1209.37 786.269C1209.68 786.728 1209.55 787.349 1209.09 787.656Z" fill="white"/>
<path fill-rule="evenodd" clip-rule="evenodd" d="M1191.7 779.43C1191.24 779.737 1190.62 779.613 1190.31 779.153L1155.54 727.064C1155.24 726.605 1155.36 725.984 1155.82 725.677C1156.28 725.371 1156.9 725.494 1157.21 725.954L1191.97 778.043C1192.28 778.502 1192.16 779.123 1191.7 779.43Z" fill="white"/>
<path fill-rule="evenodd" clip-rule="evenodd" d="M1174.51 771.516C1174.05 771.823 1173.43 771.699 1173.12 771.24L1147.31 732.563C1147 732.103 1147.12 731.482 1147.58 731.176C1148.04 730.869 1148.66 730.993 1148.97 731.452L1174.78 770.129C1175.09 770.589 1174.97 771.21 1174.51 771.516Z" fill="white"/>
<path fill-rule="evenodd" clip-rule="evenodd" d="M1157.52 763.914C1157.07 764.221 1156.44 764.097 1156.14 763.637L1156.97 763.082L1157.8 762.527C1158.11 762.986 1157.98 763.607 1157.52 763.914ZM1156.97 763.082C1157.8 762.527 1157.8 762.527 1157.8 762.527L1140.73 736.95C1140.42 736.491 1139.8 736.367 1139.34 736.674C1138.88 736.98 1138.76 737.601 1139.07 738.061L1156.14 763.637C1156.14 763.638 1156.14 763.637 1156.97 763.082Z" fill="white"/>
<path fill-rule="evenodd" clip-rule="evenodd" d="M1140.13 755.688C1139.67 755.995 1139.05 755.871 1138.74 755.412L1130.83 743.559C1130.52 743.1 1130.65 742.479 1131.11 742.172C1131.57 741.866 1132.19 741.99 1132.49 742.449L1140.4 754.302C1140.71 754.761 1140.59 755.382 1140.13 755.688Z" fill="white"/>
<path fill-rule="evenodd" clip-rule="evenodd" d="M1126.39 749.525C1125.94 749.832 1125.31 749.708 1125.01 749.248L1124.22 748.063C1123.91 747.604 1124.03 746.983 1124.49 746.676C1124.95 746.37 1125.57 746.493 1125.88 746.953L1126.67 748.138C1126.98 748.597 1126.85 749.218 1126.39 749.525Z" fill="white"/>
</g>
<g filter="url(#filter10_d_1_998)">
<path fill-rule="evenodd" clip-rule="evenodd" d="M253.824 34.909C253.364 35.2156 252.743 35.0917 252.437 34.6324L248.662 28.9764C248.355 28.517 248.479 27.8961 248.938 27.5895C249.398 27.2829 250.019 27.4067 250.325 27.8661L254.1 33.5221C254.407 33.9815 254.283 34.6024 253.824 34.909Z" fill="white"/>
<path fill-rule="evenodd" clip-rule="evenodd" d="M254.789 45.6208C254.33 45.9274 253.709 45.8035 253.402 45.3442L244.384 31.8317C244.077 31.3723 244.201 30.7514 244.661 30.4448C245.12 30.1382 245.741 30.2621 246.048 30.7214L255.066 44.2339C255.373 44.6933 255.249 45.3142 254.789 45.6208Z" fill="white"/>
<path fill-rule="evenodd" clip-rule="evenodd" d="M255.746 55.9747C255.287 56.2813 254.666 56.1574 254.359 55.698L240.265 34.5807C239.958 34.1213 240.082 33.5004 240.542 33.1938C241.001 32.8872 241.622 33.011 241.929 33.4704L256.023 54.5878C256.329 55.0472 256.205 55.6681 255.746 55.9747Z" fill="white"/>
<path fill-rule="evenodd" clip-rule="evenodd" d="M256.77 67.1772C256.309 67.4813 255.688 67.354 255.384 66.893C249.723 58.3093 238.896 42.1662 236.346 38.3632C236.032 37.8957 235.844 37.6147 235.805 37.5571C235.499 37.0977 235.622 36.4768 236.082 36.1701C236.541 35.8635 237.162 35.9873 237.469 36.4466C237.506 36.5025 237.691 36.7782 237.999 37.2375C240.531 41.0123 251.383 57.1935 257.054 65.7918C257.358 66.2529 257.231 66.8731 256.77 67.1772Z" fill="white"/>
<path fill-rule="evenodd" clip-rule="evenodd" d="M257.674 77.0491C257.215 77.3557 256.594 77.2319 256.287 76.7725L231.869 40.1853C231.562 39.7259 231.686 39.105 232.145 38.7984C232.605 38.4918 233.225 38.6157 233.532 39.075L257.951 75.6623C258.257 76.1216 258.133 76.7426 257.674 77.0491Z" fill="white"/>
<path fill-rule="evenodd" clip-rule="evenodd" d="M258.509 87.2215C258.05 87.5281 257.429 87.4042 257.122 86.9449L227.749 42.9341C227.442 42.4747 227.566 41.8538 228.026 41.5472C228.485 41.2406 229.106 41.3645 229.412 41.8238L258.786 85.8346C259.092 86.294 258.968 86.9149 258.509 87.2215Z" fill="white"/>
<path fill-rule="evenodd" clip-rule="evenodd" d="M259.462 97.5706C259.003 97.8772 258.382 97.7534 258.075 97.294L223.63 45.683C223.323 45.2236 223.447 44.6027 223.906 44.2961C224.366 43.9895 224.987 44.1133 225.293 44.5727L259.739 96.1837C260.045 96.6431 259.922 97.264 259.462 97.5706Z" fill="white"/>
<path fill-rule="evenodd" clip-rule="evenodd" d="M250.743 93.4267C250.284 93.7333 249.663 93.6094 249.356 93.1501L219.511 48.4323C219.204 47.9729 219.328 47.352 219.788 47.0454C220.247 46.7388 220.868 46.8627 221.175 47.322L251.02 92.0398C251.326 92.4992 251.202 93.1201 250.743 93.4267Z" fill="white"/>
<path fill-rule="evenodd" clip-rule="evenodd" d="M241.669 88.7525C241.209 89.0591 240.588 88.9352 240.282 88.4759L215.391 51.1816C215.085 50.7222 215.209 50.1013 215.668 49.7947C216.127 49.4881 216.748 49.612 217.055 50.0714L241.945 87.3656C242.252 87.825 242.128 88.4459 241.669 88.7525Z" fill="white"/>
<path fill-rule="evenodd" clip-rule="evenodd" d="M232.359 83.7248C231.9 84.0314 231.279 83.9075 230.972 83.4482L211.272 53.9309C210.966 53.4716 211.089 52.8506 211.549 52.544C212.008 52.2374 212.629 52.3613 212.936 52.8207L232.636 82.3379C232.942 82.7973 232.819 83.4182 232.359 83.7248Z" fill="white"/>
<path fill-rule="evenodd" clip-rule="evenodd" d="M223.167 78.8737C222.708 79.1803 222.087 79.0565 221.78 78.5971L207.153 56.6801C206.846 56.2207 206.97 55.5998 207.429 55.2932C207.889 54.9866 208.51 55.1105 208.816 55.5699L223.444 77.4868C223.75 77.9462 223.627 78.5671 223.167 78.8737Z" fill="white"/>
<path fill-rule="evenodd" clip-rule="evenodd" d="M214.094 74.1993C213.634 74.5059 213.013 74.382 212.707 73.9227L213.538 73.3675L214.37 72.8124C214.677 73.2718 214.553 73.8927 214.094 74.1993ZM213.538 73.3675C214.37 72.8124 214.37 72.8125 214.37 72.8124L204.697 58.3189C204.39 57.8595 203.77 57.7357 203.31 58.0423C202.851 58.3488 202.727 58.9698 203.034 59.4291L212.707 73.9227C212.707 73.9228 212.707 73.9227 213.538 73.3675Z" fill="white"/>
<path fill-rule="evenodd" clip-rule="evenodd" d="M204.784 69.1716C204.325 69.4782 203.704 69.3543 203.397 68.8949L198.914 62.1784C198.608 61.719 198.732 61.0981 199.191 60.7915C199.65 60.4849 200.271 60.6088 200.578 61.0682L205.061 67.7847C205.367 68.2441 205.243 68.865 204.784 69.1716Z" fill="white"/>
<path fill-rule="evenodd" clip-rule="evenodd" d="M197.446 65.3828C196.987 65.6894 196.366 65.5655 196.059 65.1061L195.611 64.4345C195.304 63.9751 195.428 63.3542 195.888 63.0476C196.347 62.741 196.968 62.8649 197.274 63.3242L197.723 63.9959C198.029 64.4552 197.905 65.0762 197.446 65.3828Z" fill="white"/>
</g>
<g filter="url(#filter11_d_1_998)">
<path fill-rule="evenodd" clip-rule="evenodd" d="M48.5021 607.14C48.0843 606.779 48.0382 606.148 48.3993 605.73L50.7531 603.006C51.1142 602.588 51.7457 602.542 52.1635 602.903C52.5814 603.264 52.6275 603.896 52.2664 604.314L49.9126 607.037C49.5515 607.455 48.92 607.501 48.5021 607.14Z" fill="white"/>
<path fill-rule="evenodd" clip-rule="evenodd" d="M43.2873 609.243C42.8694 608.882 42.8234 608.25 43.1845 607.832L48.8077 601.325C49.1688 600.907 49.8003 600.861 50.2182 601.222C50.6361 601.583 50.6821 602.214 50.321 602.632L44.6978 609.14C44.3367 609.558 43.7052 609.604 43.2873 609.243Z" fill="white"/>
<path fill-rule="evenodd" clip-rule="evenodd" d="M38.2487 611.286C37.8308 610.925 37.7848 610.294 38.1459 609.876L46.9339 599.706C47.295 599.288 47.9265 599.242 48.3444 599.603C48.7623 599.964 48.8083 600.596 48.4472 601.013L39.6592 611.184C39.2981 611.601 38.6666 611.648 38.2487 611.286Z" fill="white"/>
<path fill-rule="evenodd" clip-rule="evenodd" d="M32.7942 613.49C32.3782 613.127 32.3354 612.495 32.6987 612.079C36.2767 607.982 42.982 600.188 44.5677 598.345C44.7634 598.118 44.8811 597.981 44.9054 597.953C45.2664 597.535 45.8979 597.489 46.3158 597.85C46.7338 598.211 46.7799 598.842 46.4188 599.26C46.3958 599.287 46.2821 599.419 46.0925 599.64C44.5279 601.458 37.7942 609.285 34.2052 613.395C33.8419 613.811 33.2102 613.854 32.7942 613.49Z" fill="white"/>
<path fill-rule="evenodd" clip-rule="evenodd" d="M27.9914 615.437C27.5735 615.076 27.5275 614.444 27.8886 614.026L43.1144 596.406C43.4755 595.988 44.107 595.942 44.5249 596.303C44.9428 596.664 44.9888 597.295 44.6277 597.713L29.4019 615.334C29.0408 615.752 28.4093 615.798 27.9914 615.437Z" fill="white"/>
<path fill-rule="evenodd" clip-rule="evenodd" d="M23.029 617.393C22.6111 617.032 22.5651 616.4 22.9262 615.982L41.2413 594.787C41.6024 594.369 42.2339 594.323 42.6518 594.684C43.0697 595.045 43.1157 595.676 42.7546 596.094L24.4395 617.29C24.0784 617.708 23.4469 617.754 23.029 617.393Z" fill="white"/>
<path fill-rule="evenodd" clip-rule="evenodd" d="M17.9924 619.434C17.5745 619.073 17.5285 618.441 17.8895 618.023L39.3676 593.168C39.7287 592.75 40.3602 592.704 40.7781 593.065C41.1959 593.426 41.242 594.057 40.8809 594.475L19.4028 619.331C19.0417 619.749 18.4103 619.795 17.9924 619.434Z" fill="white"/>
<path fill-rule="evenodd" clip-rule="evenodd" d="M18.9875 614.495C18.5696 614.134 18.5236 613.503 18.8847 613.085L37.4941 591.549C37.8552 591.131 38.4866 591.085 38.9045 591.446C39.3224 591.807 39.3685 592.438 39.0074 592.856L20.398 614.392C20.0369 614.81 19.4054 614.856 18.9875 614.495Z" fill="white"/>
<path fill-rule="evenodd" clip-rule="evenodd" d="M20.2028 609.301C19.7849 608.94 19.7389 608.309 20.1 607.891L35.6201 589.93C35.9812 589.512 36.6127 589.466 37.0306 589.827C37.4484 590.188 37.4945 590.819 37.1334 591.237L21.6133 609.198C21.2522 609.616 20.6207 609.662 20.2028 609.301Z" fill="white"/>
<path fill-rule="evenodd" clip-rule="evenodd" d="M21.5656 603.937C21.1477 603.575 21.1017 602.944 21.4628 602.526L33.7465 588.311C34.1076 587.893 34.739 587.847 35.1569 588.208C35.5748 588.569 35.6208 589.2 35.2598 589.618L22.9761 603.834C22.615 604.252 21.9835 604.298 21.5656 603.937Z" fill="white"/>
<path fill-rule="evenodd" clip-rule="evenodd" d="M22.8552 598.657C22.4373 598.296 22.3912 597.665 22.7523 597.247L31.8731 586.692C32.2342 586.274 32.8657 586.228 33.2836 586.589C33.7015 586.95 33.7475 587.581 33.3864 587.999L24.2656 598.555C23.9045 598.972 23.2731 599.018 22.8552 598.657Z" fill="white"/>
<path fill-rule="evenodd" clip-rule="evenodd" d="M24.071 593.463C23.6531 593.102 23.6071 592.471 23.9682 592.053L24.7248 592.707L25.4815 593.36C25.1204 593.778 24.4889 593.824 24.071 593.463ZM24.7248 592.707C25.4815 593.36 25.4814 593.36 25.4815 593.36L31.513 586.38C31.8741 585.962 31.828 585.331 31.4101 584.97C30.9923 584.609 30.3608 584.655 29.9997 585.073L23.9682 592.053C23.9681 592.053 23.9682 592.053 24.7248 592.707Z" fill="white"/>
<path fill-rule="evenodd" clip-rule="evenodd" d="M25.4338 588.099C25.0159 587.738 24.9699 587.106 25.331 586.688L28.1261 583.454C28.4871 583.036 29.1186 582.99 29.5365 583.351C29.9544 583.712 30.0004 584.343 29.6393 584.761L26.8443 587.996C26.4832 588.414 25.8517 588.46 25.4338 588.099Z" fill="white"/>
<path fill-rule="evenodd" clip-rule="evenodd" d="M26.4211 583.897C26.0032 583.536 25.9572 582.904 26.3183 582.486L26.5978 582.163C26.9589 581.745 27.5904 581.699 28.0082 582.06C28.4261 582.421 28.4722 583.053 28.1111 583.471L27.8316 583.794C27.4705 584.212 26.839 584.258 26.4211 583.897Z" fill="white"/>
</g>
<g filter="url(#filter12_d_1_998)">
<path fill-rule="evenodd" clip-rule="evenodd" d="M522.502 830.14C522.084 829.779 522.038 829.148 522.399 828.73L524.753 826.006C525.114 825.588 525.746 825.542 526.164 825.903C526.581 826.264 526.627 826.896 526.266 827.314L523.913 830.037C523.552 830.455 522.92 830.501 522.502 830.14Z" fill="white"/>
<path fill-rule="evenodd" clip-rule="evenodd" d="M517.287 832.243C516.869 831.882 516.823 831.25 517.184 830.832L522.808 824.325C523.169 823.907 523.8 823.861 524.218 824.222C524.636 824.583 524.682 825.214 524.321 825.632L518.698 832.14C518.337 832.558 517.705 832.604 517.287 832.243Z" fill="white"/>
<path fill-rule="evenodd" clip-rule="evenodd" d="M512.249 834.286C511.831 833.925 511.785 833.294 512.146 832.876L520.934 822.706C521.295 822.288 521.927 822.242 522.344 822.603C522.762 822.964 522.808 823.596 522.447 824.013L513.659 834.184C513.298 834.601 512.667 834.648 512.249 834.286Z" fill="white"/>
<path fill-rule="evenodd" clip-rule="evenodd" d="M506.794 836.49C506.378 836.127 506.335 835.495 506.699 835.079C510.277 830.982 516.982 823.188 518.568 821.345C518.763 821.118 518.881 820.981 518.905 820.953C519.266 820.535 519.898 820.489 520.316 820.85C520.734 821.211 520.78 821.842 520.419 822.26C520.396 822.287 520.282 822.419 520.093 822.64C518.528 824.458 511.794 832.285 508.205 836.395C507.842 836.811 507.21 836.854 506.794 836.49Z" fill="white"/>
<path fill-rule="evenodd" clip-rule="evenodd" d="M501.991 838.437C501.574 838.076 501.527 837.444 501.889 837.026L517.114 819.406C517.476 818.988 518.107 818.942 518.525 819.303C518.943 819.664 518.989 820.295 518.628 820.713L503.402 838.334C503.041 838.752 502.409 838.798 501.991 838.437Z" fill="white"/>
<path fill-rule="evenodd" clip-rule="evenodd" d="M497.029 840.393C496.611 840.032 496.565 839.4 496.926 838.982L515.241 817.787C515.602 817.369 516.234 817.323 516.652 817.684C517.07 818.045 517.116 818.676 516.755 819.094L498.439 840.29C498.078 840.708 497.447 840.754 497.029 840.393Z" fill="white"/>
<path fill-rule="evenodd" clip-rule="evenodd" d="M491.992 842.434C491.574 842.073 491.528 841.441 491.89 841.023L513.368 816.168C513.729 815.75 514.36 815.704 514.778 816.065C515.196 816.426 515.242 817.057 514.881 817.475L493.403 842.331C493.042 842.749 492.41 842.795 491.992 842.434Z" fill="white"/>
<path fill-rule="evenodd" clip-rule="evenodd" d="M492.987 837.495C492.57 837.134 492.524 836.503 492.885 836.085L511.494 814.549C511.855 814.131 512.487 814.085 512.905 814.446C513.322 814.807 513.368 815.438 513.007 815.856L494.398 837.392C494.037 837.81 493.405 837.856 492.987 837.495Z" fill="white"/>
<path fill-rule="evenodd" clip-rule="evenodd" d="M494.203 832.301C493.785 831.94 493.739 831.309 494.1 830.891L509.62 812.93C509.981 812.512 510.613 812.466 511.031 812.827C511.448 813.188 511.494 813.819 511.133 814.237L495.613 832.198C495.252 832.616 494.621 832.662 494.203 832.301Z" fill="white"/>
<path fill-rule="evenodd" clip-rule="evenodd" d="M495.566 826.937C495.148 826.575 495.102 825.944 495.463 825.526L507.746 811.311C508.108 810.893 508.739 810.847 509.157 811.208C509.575 811.569 509.621 812.2 509.26 812.618L496.976 826.834C496.615 827.252 495.984 827.298 495.566 826.937Z" fill="white"/>
<path fill-rule="evenodd" clip-rule="evenodd" d="M496.855 821.657C496.437 821.296 496.391 820.665 496.752 820.247L505.873 809.692C506.234 809.274 506.866 809.228 507.284 809.589C507.701 809.95 507.748 810.581 507.386 810.999L498.266 821.555C497.905 821.972 497.273 822.018 496.855 821.657Z" fill="white"/>
<path fill-rule="evenodd" clip-rule="evenodd" d="M498.071 816.463C497.653 816.102 497.607 815.471 497.968 815.053L498.725 815.707L499.481 816.36C499.12 816.778 498.489 816.824 498.071 816.463ZM498.725 815.707C499.481 816.36 499.481 816.36 499.481 816.36L505.513 809.38C505.874 808.962 505.828 808.331 505.41 807.97C504.992 807.609 504.361 807.655 504 808.073L497.968 815.053C497.968 815.053 497.968 815.053 498.725 815.707Z" fill="white"/>
<path fill-rule="evenodd" clip-rule="evenodd" d="M499.434 811.099C499.016 810.738 498.97 810.106 499.331 809.688L502.126 806.454C502.487 806.036 503.119 805.99 503.537 806.351C503.954 806.712 504 807.343 503.639 807.761L500.844 810.996C500.483 811.414 499.852 811.46 499.434 811.099Z" fill="white"/>
<path fill-rule="evenodd" clip-rule="evenodd" d="M500.421 806.897C500.003 806.536 499.957 805.904 500.318 805.486L500.598 805.163C500.959 804.745 501.59 804.699 502.008 805.06C502.426 805.421 502.472 806.053 502.111 806.471L501.832 806.794C501.47 807.212 500.839 807.258 500.421 806.897Z" fill="white"/>
</g>
<g filter="url(#filter13_d_1_998)">
<path fill-rule="evenodd" clip-rule="evenodd" d="M881.893 56.833C882.355 57.1366 882.483 57.7567 882.179 58.2181L880.2 61.2254C879.897 61.6868 879.277 61.8147 878.815 61.5111C878.354 61.2075 878.226 60.5874 878.53 60.126L880.508 57.1187C880.812 56.6573 881.432 56.5294 881.893 56.833Z" fill="white"/>
<path fill-rule="evenodd" clip-rule="evenodd" d="M886.79 54.0691C887.252 54.3727 887.38 54.9928 887.076 55.4542L882.348 62.6388C882.045 63.1002 881.425 63.2281 880.963 62.9245C880.502 62.6209 880.374 62.0008 880.678 61.5394L885.405 54.3548C885.709 53.8934 886.329 53.7655 886.79 54.0691Z" fill="white"/>
<path fill-rule="evenodd" clip-rule="evenodd" d="M891.52 51.3866C891.981 51.6902 892.109 52.3103 891.806 52.7717L884.417 63.9999C884.114 64.4612 883.493 64.5891 883.032 64.2856C882.571 63.982 882.443 63.3619 882.746 62.9005L890.135 51.6723C890.438 51.2109 891.059 51.083 891.52 51.3866Z" fill="white"/>
<path fill-rule="evenodd" clip-rule="evenodd" d="M896.641 48.4911C897.1 48.797 897.225 49.4178 896.919 49.8776C893.905 54.4064 888.272 63.0068 886.94 65.0407C886.776 65.2917 886.677 65.4427 886.656 65.4737C886.353 65.9351 885.733 66.063 885.271 65.7595C884.81 65.456 884.682 64.8359 884.986 64.3745C885.005 64.3451 885.1 64.1993 885.26 63.956C886.574 61.9491 892.231 53.3123 895.254 48.7696C895.56 48.3098 896.181 48.1851 896.641 48.4911Z" fill="white"/>
<path fill-rule="evenodd" clip-rule="evenodd" d="M901.149 45.9357C901.611 46.2393 901.739 46.8594 901.435 47.3207L888.634 66.7743C888.331 67.2357 887.71 67.3636 887.249 67.06C886.788 66.7564 886.66 66.1363 886.963 65.675L899.764 46.2214C900.068 45.76 900.688 45.6321 901.149 45.9357Z" fill="white"/>
<path fill-rule="evenodd" clip-rule="evenodd" d="M905.815 43.3499C906.276 43.6534 906.404 44.2736 906.101 44.7349L890.702 68.1357C890.399 68.597 889.779 68.7249 889.317 68.4213C888.856 68.1178 888.728 67.4976 889.032 67.0363L904.43 43.6355C904.733 43.1742 905.353 43.0463 905.815 43.3499Z" fill="white"/>
<path fill-rule="evenodd" clip-rule="evenodd" d="M910.542 40.6701C911.004 40.9736 911.132 41.5938 910.828 42.0551L892.771 69.497C892.467 69.9583 891.847 70.0862 891.386 69.7826C890.924 69.479 890.796 68.8589 891.1 68.3976L909.157 40.9557C909.461 40.4944 910.081 40.3665 910.542 40.6701Z" fill="white"/>
<path fill-rule="evenodd" clip-rule="evenodd" d="M910.199 45.6963C910.66 45.9999 910.788 46.62 910.485 47.0814L894.839 70.858C894.536 71.3194 893.916 71.4473 893.454 71.1437C892.993 70.8401 892.865 70.22 893.168 69.7586L908.814 45.982C909.118 45.5206 909.738 45.3927 910.199 45.6963Z" fill="white"/>
<path fill-rule="evenodd" clip-rule="evenodd" d="M909.67 51.0043C910.132 51.3079 910.26 51.928 909.956 52.3893L896.908 72.2189C896.604 72.6802 895.984 72.8082 895.523 72.5046C895.061 72.201 894.933 71.5809 895.237 71.1195L908.285 51.29C908.589 50.8286 909.209 50.7007 909.67 51.0043Z" fill="white"/>
<path fill-rule="evenodd" clip-rule="evenodd" d="M909.018 56.5006C909.48 56.8042 909.608 57.4243 909.304 57.8857L898.977 73.5801C898.673 74.0415 898.053 74.1694 897.592 73.8658C897.13 73.5622 897.003 72.9421 897.306 72.4808L907.633 56.7863C907.937 56.3249 908.557 56.197 909.018 56.5006Z" fill="white"/>
<path fill-rule="evenodd" clip-rule="evenodd" d="M908.427 61.903C908.889 62.2065 909.016 62.8267 908.713 63.288L901.045 74.9414C900.741 75.4027 900.121 75.5306 899.66 75.2271C899.198 74.9235 899.07 74.3034 899.374 73.842L907.042 62.1886C907.346 61.7273 907.966 61.5994 908.427 61.903Z" fill="white"/>
<path fill-rule="evenodd" clip-rule="evenodd" d="M907.899 67.2112C908.36 67.5148 908.488 68.1349 908.185 68.5962L907.349 68.0466L906.514 67.4969C906.817 67.0355 907.437 66.9076 907.899 67.2112ZM907.349 68.0466C906.514 67.4969 906.514 67.4968 906.514 67.4969L901.443 75.2031C901.139 75.6645 901.267 76.2846 901.729 76.5882C902.19 76.8918 902.81 76.7639 903.114 76.3025L908.185 68.5962C908.185 68.5962 908.185 68.5962 907.349 68.0466Z" fill="white"/>
<path fill-rule="evenodd" clip-rule="evenodd" d="M907.246 72.7074C907.707 73.011 907.835 73.6311 907.532 74.0925L905.182 77.6637C904.878 78.125 904.258 78.2529 903.797 77.9494C903.335 77.6458 903.207 77.0257 903.511 76.5643L905.861 72.9931C906.165 72.5317 906.785 72.4038 907.246 72.7074Z" fill="white"/>
<path fill-rule="evenodd" clip-rule="evenodd" d="M906.814 77.0021C907.276 77.3057 907.404 77.9258 907.1 78.3871L906.865 78.7443C906.561 79.2056 905.941 79.3335 905.48 79.0299C905.019 78.7264 904.891 78.1062 905.194 77.6449L905.429 77.2878C905.733 76.8264 906.353 76.6985 906.814 77.0021Z" fill="white"/>
</g>
<g filter="url(#filter14_d_1_998)">
<path fill-rule="evenodd" clip-rule="evenodd" d="M330.893 117.833C331.355 118.137 331.483 118.757 331.179 119.218L329.2 122.225C328.897 122.687 328.277 122.815 327.815 122.511C327.354 122.207 327.226 121.587 327.53 121.126L329.508 118.119C329.812 117.657 330.432 117.529 330.893 117.833Z" fill="white"/>
<path fill-rule="evenodd" clip-rule="evenodd" d="M335.79 115.069C336.252 115.373 336.38 115.993 336.076 116.454L331.348 123.639C331.045 124.1 330.425 124.228 329.963 123.924C329.502 123.621 329.374 123.001 329.678 122.539L334.405 115.355C334.709 114.893 335.329 114.766 335.79 115.069Z" fill="white"/>
<path fill-rule="evenodd" clip-rule="evenodd" d="M340.52 112.387C340.981 112.69 341.109 113.31 340.806 113.772L333.417 125C333.114 125.461 332.493 125.589 332.032 125.286C331.571 124.982 331.443 124.362 331.746 123.901L339.135 112.672C339.438 112.211 340.059 112.083 340.52 112.387Z" fill="white"/>
<path fill-rule="evenodd" clip-rule="evenodd" d="M345.641 109.491C346.1 109.797 346.225 110.418 345.919 110.878C342.905 115.406 337.272 124.007 335.94 126.041C335.776 126.292 335.677 126.443 335.656 126.474C335.353 126.935 334.733 127.063 334.271 126.759C333.81 126.456 333.682 125.836 333.986 125.374C334.005 125.345 334.1 125.199 334.26 124.956C335.574 122.949 341.231 114.312 344.254 109.77C344.56 109.31 345.181 109.185 345.641 109.491Z" fill="white"/>
<path fill-rule="evenodd" clip-rule="evenodd" d="M350.149 106.936C350.611 107.239 350.739 107.859 350.435 108.321L337.634 127.774C337.331 128.236 336.71 128.364 336.249 128.06C335.788 127.756 335.66 127.136 335.963 126.675L348.764 107.221C349.068 106.76 349.688 106.632 350.149 106.936Z" fill="white"/>
<path fill-rule="evenodd" clip-rule="evenodd" d="M354.815 104.35C355.276 104.653 355.404 105.274 355.101 105.735L339.702 129.136C339.399 129.597 338.779 129.725 338.317 129.421C337.856 129.118 337.728 128.498 338.032 128.036L353.43 104.636C353.733 104.174 354.353 104.046 354.815 104.35Z" fill="white"/>
<path fill-rule="evenodd" clip-rule="evenodd" d="M359.542 101.67C360.004 101.974 360.132 102.594 359.828 103.055L341.771 130.497C341.467 130.958 340.847 131.086 340.386 130.783C339.924 130.479 339.796 129.859 340.1 129.398L358.157 101.956C358.461 101.494 359.081 101.366 359.542 101.67Z" fill="white"/>
<path fill-rule="evenodd" clip-rule="evenodd" d="M359.199 106.696C359.66 107 359.788 107.62 359.485 108.081L343.839 131.858C343.536 132.319 342.916 132.447 342.454 132.144C341.993 131.84 341.865 131.22 342.168 130.759L357.814 106.982C358.118 106.521 358.738 106.393 359.199 106.696Z" fill="white"/>
<path fill-rule="evenodd" clip-rule="evenodd" d="M358.67 112.004C359.132 112.308 359.26 112.928 358.956 113.389L345.908 133.219C345.604 133.68 344.984 133.808 344.523 133.505C344.061 133.201 343.933 132.581 344.237 132.12L357.285 112.29C357.589 111.829 358.209 111.701 358.67 112.004Z" fill="white"/>
<path fill-rule="evenodd" clip-rule="evenodd" d="M358.018 117.501C358.48 117.804 358.608 118.424 358.304 118.886L347.977 134.58C347.673 135.042 347.053 135.169 346.592 134.866C346.13 134.562 346.003 133.942 346.306 133.481L356.633 117.786C356.937 117.325 357.557 117.197 358.018 117.501Z" fill="white"/>
<path fill-rule="evenodd" clip-rule="evenodd" d="M357.427 122.903C357.889 123.207 358.016 123.827 357.713 124.288L350.045 135.941C349.741 136.403 349.121 136.531 348.66 136.227C348.198 135.923 348.07 135.303 348.374 134.842L356.042 123.189C356.346 122.727 356.966 122.599 357.427 122.903Z" fill="white"/>
<path fill-rule="evenodd" clip-rule="evenodd" d="M356.899 128.211C357.36 128.515 357.488 129.135 357.185 129.596L356.349 129.047L355.514 128.497C355.817 128.036 356.437 127.908 356.899 128.211ZM356.349 129.047C355.514 128.497 355.514 128.497 355.514 128.497L350.443 136.203C350.139 136.664 350.267 137.285 350.729 137.588C351.19 137.892 351.81 137.764 352.114 137.303L357.185 129.596C357.185 129.596 357.185 129.596 356.349 129.047Z" fill="white"/>
<path fill-rule="evenodd" clip-rule="evenodd" d="M356.246 133.707C356.707 134.011 356.835 134.631 356.532 135.092L354.182 138.664C353.878 139.125 353.258 139.253 352.797 138.949C352.335 138.646 352.207 138.026 352.511 137.564L354.861 133.993C355.165 133.532 355.785 133.404 356.246 133.707Z" fill="white"/>
<path fill-rule="evenodd" clip-rule="evenodd" d="M355.814 138.002C356.276 138.306 356.404 138.926 356.1 139.387L355.865 139.744C355.561 140.206 354.941 140.334 354.48 140.03C354.019 139.726 353.891 139.106 354.194 138.645L354.429 138.288C354.733 137.826 355.353 137.698 355.814 138.002Z" fill="white"/>
</g>
<g filter="url(#filter15_d_1_998)">
<path fill-rule="evenodd" clip-rule="evenodd" d="M89.8235 204.909C89.3641 205.216 88.7432 205.092 88.4366 204.632L84.6617 198.976C84.3552 198.517 84.479 197.896 84.9384 197.589C85.3978 197.283 86.0187 197.407 86.3253 197.866L90.1001 203.522C90.4067 203.981 90.2829 204.602 89.8235 204.909Z" fill="white"/>
<path fill-rule="evenodd" clip-rule="evenodd" d="M90.7893 215.621C90.33 215.927 89.709 215.804 89.4024 215.344L80.3841 201.832C80.0775 201.372 80.2013 200.751 80.6607 200.445C81.1201 200.138 81.741 200.262 82.0476 200.721L91.066 214.234C91.3726 214.693 91.2487 215.314 90.7893 215.621Z" fill="white"/>
<path fill-rule="evenodd" clip-rule="evenodd" d="M91.7459 225.975C91.2865 226.281 90.6656 226.157 90.359 225.698L76.265 204.581C75.9584 204.121 76.0823 203.5 76.5417 203.194C77.001 202.887 77.622 203.011 77.9286 203.47L92.0225 224.588C92.3291 225.047 92.2052 225.668 91.7459 225.975Z" fill="white"/>
<path fill-rule="evenodd" clip-rule="evenodd" d="M92.7696 237.177C92.3086 237.481 91.6883 237.354 91.3843 236.893C85.7232 228.309 74.8964 212.166 72.3458 208.363C72.0322 207.896 71.8438 207.615 71.8053 207.557C71.4987 207.098 71.6224 206.477 72.0818 206.17C72.5411 205.864 73.1621 205.987 73.4687 206.447C73.506 206.503 73.6909 206.778 73.9989 207.237C76.5306 211.012 87.3831 227.193 93.0539 235.792C93.3579 236.253 93.2307 236.873 92.7696 237.177Z" fill="white"/>
<path fill-rule="evenodd" clip-rule="evenodd" d="M93.6741 247.049C93.2147 247.356 92.5938 247.232 92.2872 246.773L67.8685 210.185C67.562 209.726 67.6858 209.105 68.1452 208.798C68.6046 208.492 69.2255 208.616 69.5321 209.075L93.9507 245.662C94.2573 246.122 94.1335 246.743 93.6741 247.049Z" fill="white"/>
<path fill-rule="evenodd" clip-rule="evenodd" d="M94.5091 257.222C94.0497 257.528 93.4288 257.404 93.1222 256.945L63.749 212.934C63.4424 212.475 63.5662 211.854 64.0256 211.547C64.485 211.241 65.1059 211.364 65.4125 211.824L94.7857 255.835C95.0923 256.294 94.9684 256.915 94.5091 257.222Z" fill="white"/>
<path fill-rule="evenodd" clip-rule="evenodd" d="M95.4622 267.571C95.0028 267.877 94.3819 267.753 94.0753 267.294L59.6296 215.683C59.323 215.224 59.4469 214.603 59.9062 214.296C60.3656 213.989 60.9866 214.113 61.2931 214.573L95.7388 266.184C96.0454 266.643 95.9216 267.264 95.4622 267.571Z" fill="white"/>
<path fill-rule="evenodd" clip-rule="evenodd" d="M86.7429 263.427C86.2836 263.733 85.6626 263.609 85.356 263.15L55.511 218.432C55.2044 217.973 55.3283 217.352 55.7876 217.045C56.247 216.739 56.8679 216.863 57.1745 217.322L87.0196 262.04C87.3262 262.499 87.2023 263.12 86.7429 263.427Z" fill="white"/>
<path fill-rule="evenodd" clip-rule="evenodd" d="M77.6687 258.753C77.2094 259.059 76.5884 258.935 76.2818 258.476L51.3913 221.182C51.0847 220.722 51.2086 220.101 51.6679 219.795C52.1273 219.488 52.7482 219.612 53.0548 220.071L77.9454 257.366C78.2519 257.825 78.1281 258.446 77.6687 258.753Z" fill="white"/>
<path fill-rule="evenodd" clip-rule="evenodd" d="M68.3592 253.725C67.8998 254.031 67.2788 253.908 66.9723 253.448L47.2722 223.931C46.9656 223.472 47.0894 222.851 47.5488 222.544C48.0082 222.237 48.6291 222.361 48.9357 222.821L68.6358 252.338C68.9424 252.797 68.8185 253.418 68.3592 253.725Z" fill="white"/>
<path fill-rule="evenodd" clip-rule="evenodd" d="M59.1673 248.874C58.7079 249.18 58.087 249.056 57.7804 248.597L43.1528 226.68C42.8462 226.221 42.97 225.6 43.4294 225.293C43.8888 224.987 44.5097 225.11 44.8163 225.57L59.4439 247.487C59.7505 247.946 59.6266 248.567 59.1673 248.874Z" fill="white"/>
<path fill-rule="evenodd" clip-rule="evenodd" d="M50.0935 244.199C49.6342 244.506 49.0132 244.382 48.7066 243.923L49.5384 243.368L50.3702 242.812C50.6768 243.272 50.5529 243.893 50.0935 244.199ZM49.5384 243.368C50.3702 242.812 50.3702 242.813 50.3702 242.812L40.6971 228.319C40.3905 227.86 39.7695 227.736 39.3102 228.042C38.8508 228.349 38.7269 228.97 39.0335 229.429L48.7066 243.923C48.7067 243.923 48.7066 243.923 49.5384 243.368Z" fill="white"/>
<path fill-rule="evenodd" clip-rule="evenodd" d="M40.784 239.172C40.3246 239.478 39.7037 239.354 39.3971 238.895L34.9144 232.178C34.6078 231.719 34.7317 231.098 35.191 230.792C35.6504 230.485 36.2713 230.609 36.5779 231.068L41.0606 237.785C41.3672 238.244 41.2433 238.865 40.784 239.172Z" fill="white"/>
<path fill-rule="evenodd" clip-rule="evenodd" d="M33.4461 235.383C32.9867 235.689 32.3658 235.565 32.0592 235.106L31.6109 234.434C31.3043 233.975 31.4282 233.354 31.8875 233.048C32.3469 232.741 32.9679 232.865 33.2744 233.324L33.7227 233.996C34.0293 234.455 33.9054 235.076 33.4461 235.383Z" fill="white"/>
</g>
<g filter="url(#filter16_d_1_998)">
<path d="M25 323.5C25 327.642 21.6421 331 17.5 331C13.3579 331 10 327.642 10 323.5C10 319.358 13.3579 316 17.5 316C21.6421 316 25 319.358 25 323.5Z" fill="white"/>
<path d="M25 350.5C25 354.642 21.6421 358 17.5 358C13.3579 358 10 354.642 10 350.5C10 346.358 13.3579 343 17.5 343C21.6421 343 25 346.358 25 350.5Z" fill="white"/>
<path d="M25 377.5C25 381.642 21.6421 385 17.5 385C13.3579 385 10 381.642 10 377.5C10 373.358 13.3579 370 17.5 370C21.6421 370 25 373.358 25 377.5Z" fill="white"/>
<path d="M25 404.5C25 408.642 21.6421 412 17.5 412C13.3579 412 10 408.642 10 404.5C10 400.358 13.3579 397 17.5 397C21.6421 397 25 400.358 25 404.5Z" fill="white"/>
<path d="M49 323.5C49 327.642 45.6421 331 41.5 331C37.3579 331 34 327.642 34 323.5C34 319.358 37.3579 316 41.5 316C45.6421 316 49 319.358 49 323.5Z" fill="white"/>
<path d="M49 350.5C49 354.642 45.6421 358 41.5 358C37.3579 358 34 354.642 34 350.5C34 346.358 37.3579 343 41.5 343C45.6421 343 49 346.358 49 350.5Z" fill="white"/>
<path d="M49 377.5C49 381.642 45.6421 385 41.5 385C37.3579 385 34 381.642 34 377.5C34 373.358 37.3579 370 41.5 370C45.6421 370 49 373.358 49 377.5Z" fill="white"/>
<path d="M49 404.5C49 408.642 45.6421 412 41.5 412C37.3579 412 34 408.642 34 404.5C34 400.358 37.3579 397 41.5 397C45.6421 397 49 400.358 49 404.5Z" fill="white"/>
<path d="M73 323.5C73 327.642 69.6421 331 65.5 331C61.3579 331 58 327.642 58 323.5C58 319.358 61.3579 316 65.5 316C69.6421 316 73 319.358 73 323.5Z" fill="white"/>
<path d="M73 350.5C73 354.642 69.6421 358 65.5 358C61.3579 358 58 354.642 58 350.5C58 346.358 61.3579 343 65.5 343C69.6421 343 73 346.358 73 350.5Z" fill="white"/>
<path d="M73 377.5C73 381.642 69.6421 385 65.5 385C61.3579 385 58 381.642 58 377.5C58 373.358 61.3579 370 65.5 370C69.6421 370 73 373.358 73 377.5Z" fill="white"/>
<path d="M73 404.5C73 408.642 69.6421 412 65.5 412C61.3579 412 58 408.642 58 404.5C58 400.358 61.3579 397 65.5 397C69.6421 397 73 400.358 73 404.5Z" fill="white"/>
<path d="M97 323.5C97 327.642 93.6421 331 89.5 331C85.3579 331 82 327.642 82 323.5C82 319.358 85.3579 316 89.5 316C93.6421 316 97 319.358 97 323.5Z" fill="white"/>
<path d="M97 350.5C97 354.642 93.6421 358 89.5 358C85.3579 358 82 354.642 82 350.5C82 346.358 85.3579 343 89.5 343C93.6421 343 97 346.358 97 350.5Z" fill="white"/>
<path d="M97 377.5C97 381.642 93.6421 385 89.5 385C85.3579 385 82 381.642 82 377.5C82 373.358 85.3579 370 89.5 370C93.6421 370 97 373.358 97 377.5Z" fill="white"/>
<path d="M97 404.5C97 408.642 93.6421 412 89.5 412C85.3579 412 82 408.642 82 404.5C82 400.358 85.3579 397 89.5 397C93.6421 397 97 400.358 97 404.5Z" fill="white"/>
<path d="M121 323.5C121 327.642 117.642 331 113.5 331C109.358 331 106 327.642 106 323.5C106 319.358 109.358 316 113.5 316C117.642 316 121 319.358 121 323.5Z" fill="white"/>
<path d="M121 350.5C121 354.642 117.642 358 113.5 358C109.358 358 106 354.642 106 350.5C106 346.358 109.358 343 113.5 343C117.642 343 121 346.358 121 350.5Z" fill="white"/>
<path d="M121 377.5C121 381.642 117.642 385 113.5 385C109.358 385 106 381.642 106 377.5C106 373.358 109.358 370 113.5 370C117.642 370 121 373.358 121 377.5Z" fill="white"/>
<path d="M121 404.5C121 408.642 117.642 412 113.5 412C109.358 412 106 408.642 106 404.5C106 400.358 109.358 397 113.5 397C117.642 397 121 400.358 121 404.5Z" fill="white"/>
<path d="M145 323.5C145 327.642 141.642 331 137.5 331C133.358 331 130 327.642 130 323.5C130 319.358 133.358 316 137.5 316C141.642 316 145 319.358 145 323.5Z" fill="white"/>
<path d="M145 350.5C145 354.642 141.642 358 137.5 358C133.358 358 130 354.642 130 350.5C130 346.358 133.358 343 137.5 343C141.642 343 145 346.358 145 350.5Z" fill="white"/>
<path d="M145 377.5C145 381.642 141.642 385 137.5 385C133.358 385 130 381.642 130 377.5C130 373.358 133.358 370 137.5 370C141.642 370 145 373.358 145 377.5Z" fill="white"/>
<path d="M145 404.5C145 408.642 141.642 412 137.5 412C133.358 412 130 408.642 130 404.5C130 400.358 133.358 397 137.5 397C141.642 397 145 400.358 145 404.5Z" fill="white"/>
</g>
<g filter="url(#filter17_d_1_998)">
<path d="M1265.5 336C1269.64 336 1273 339.358 1273 343.5C1273 347.642 1269.64 351 1265.5 351C1261.36 351 1258 347.642 1258 343.5C1258 339.358 1261.36 336 1265.5 336Z" fill="white"/>
<path d="M1265.5 312C1269.64 312 1273 315.358 1273 319.5C1273 323.642 1269.64 327 1265.5 327C1261.36 327 1258 323.642 1258 319.5C1258 315.358 1261.36 312 1265.5 312Z" fill="white"/>
<path d="M1237.5 216C1241.64 216 1245 219.358 1245 223.5C1245 227.642 1241.64 231 1237.5 231C1233.36 231 1230 227.642 1230 223.5C1230 219.358 1233.36 216 1237.5 216Z" fill="white"/>
<path d="M1264.5 216C1268.64 216 1272 219.358 1272 223.5C1272 227.642 1268.64 231 1264.5 231C1260.36 231 1257 227.642 1257 223.5C1257 219.358 1260.36 216 1264.5 216Z" fill="white"/>
<path d="M1237.5 336C1241.64 336 1245 339.358 1245 343.5C1245 347.642 1241.64 351 1237.5 351C1233.36 351 1230 347.642 1230 343.5C1230 339.358 1233.36 336 1237.5 336Z" fill="white"/>
<path d="M1237.5 312C1241.64 312 1245 315.358 1245 319.5C1245 323.642 1241.64 327 1237.5 327C1233.36 327 1230 323.642 1230 319.5C1230 315.358 1233.36 312 1237.5 312Z" fill="white"/>
<path d="M1237.5 192C1241.64 192 1245 195.358 1245 199.5C1245 203.642 1241.64 207 1237.5 207C1233.36 207 1230 203.642 1230 199.5C1230 195.358 1233.36 192 1237.5 192Z" fill="white"/>
<path d="M1264.5 192C1268.64 192 1272 195.358 1272 199.5C1272 203.642 1268.64 207 1264.5 207C1260.36 207 1257 203.642 1257 199.5C1257 195.358 1260.36 192 1264.5 192Z" fill="white"/>
<path d="M1265.5 360C1269.64 360 1273 363.358 1273 367.5C1273 371.642 1269.64 375 1265.5 375C1261.36 375 1258 371.642 1258 367.5C1258 363.358 1261.36 360 1265.5 360Z" fill="white"/>
<path d="M1237.5 360C1241.64 360 1245 363.358 1245 367.5C1245 371.642 1241.64 375 1237.5 375C1233.36 375 1230 371.642 1230 367.5C1230 363.358 1233.36 360 1237.5 360Z" fill="white"/>
<path d="M1237.5 168C1241.64 168 1245 171.358 1245 175.5C1245 179.642 1241.64 183 1237.5 183C1233.36 183 1230 179.642 1230 175.5C1230 171.358 1233.36 168 1237.5 168Z" fill="white"/>
<path d="M1264.5 168C1268.64 168 1272 171.358 1272 175.5C1272 179.642 1268.64 183 1264.5 183C1260.36 183 1257 179.642 1257 175.5C1257 171.358 1260.36 168 1264.5 168Z" fill="white"/>
<path d="M1237.5 288C1241.64 288 1245 291.358 1245 295.5C1245 299.642 1241.64 303 1237.5 303C1233.36 303 1230 299.642 1230 295.5C1230 291.358 1233.36 288 1237.5 288Z" fill="white"/>
<path d="M1265.5 264C1269.64 264 1273 267.358 1273 271.5C1273 275.642 1269.64 279 1265.5 279C1261.36 279 1258 275.642 1258 271.5C1258 267.358 1261.36 264 1265.5 264Z" fill="white"/>
<path d="M1237.5 144C1241.64 144 1245 147.358 1245 151.5C1245 155.642 1241.64 159 1237.5 159C1233.36 159 1230 155.642 1230 151.5C1230 147.358 1233.36 144 1237.5 144Z" fill="white"/>
<path d="M1264.5 144C1268.64 144 1272 147.358 1272 151.5C1272 155.642 1268.64 159 1264.5 159C1260.36 159 1257 155.642 1257 151.5C1257 147.358 1260.36 144 1264.5 144Z" fill="white"/>
<path d="M1265.5 288C1269.64 288 1273 291.358 1273 295.5C1273 299.642 1269.64 303 1265.5 303C1261.36 303 1258 299.642 1258 295.5C1258 291.358 1261.36 288 1265.5 288Z" fill="white"/>
<path d="M1237.5 264C1241.64 264 1245 267.358 1245 271.5C1245 275.642 1241.64 279 1237.5 279C1233.36 279 1230 275.642 1230 271.5C1230 267.358 1233.36 264 1237.5 264Z" fill="white"/>
<path d="M1237.5 120C1241.64 120 1245 123.358 1245 127.5C1245 131.642 1241.64 135 1237.5 135C1233.36 135 1230 131.642 1230 127.5C1230 123.358 1233.36 120 1237.5 120Z" fill="white"/>
<path d="M1264.5 120C1268.64 120 1272 123.358 1272 127.5C1272 131.642 1268.64 135 1264.5 135C1260.36 135 1257 131.642 1257 127.5C1257 123.358 1260.36 120 1264.5 120Z" fill="white"/>
<path d="M1237.5 240C1241.64 240 1245 243.358 1245 247.5C1245 251.642 1241.64 255 1237.5 255C1233.36 255 1230 251.642 1230 247.5C1230 243.358 1233.36 240 1237.5 240Z" fill="white"/>
<path d="M1265.5 240C1269.64 240 1273 243.358 1273 247.5C1273 251.642 1269.64 255 1265.5 255C1261.36 255 1258 251.642 1258 247.5C1258 243.358 1261.36 240 1265.5 240Z" fill="white"/>
<path d="M1237.5 96C1241.64 96 1245 99.3579 1245 103.5C1245 107.642 1241.64 111 1237.5 111C1233.36 111 1230 107.642 1230 103.5C1230 99.3579 1233.36 96 1237.5 96Z" fill="white"/>
<path d="M1264.5 96C1268.64 96 1272 99.3579 1272 103.5C1272 107.642 1268.64 111 1264.5 111C1260.36 111 1257 107.642 1257 103.5C1257 99.3579 1260.36 96 1264.5 96Z" fill="white"/>
</g>
</g>
<defs>
<filter id="filter0_d_1_998" x="11.9355" y="32.2947" width="136.019" height="128.692" filterUnits="userSpaceOnUse" color-interpolation-filters="sRGB">
<feFlood flood-opacity="0" result="BackgroundImageFix"/>
<feColorMatrix in="SourceAlpha" type="matrix" values="0 0 0 0 0 0 0 0 0 0 0 0 0 0 0 0 0 0 127 0" result="hardAlpha"/>
<feOffset dy="4"/>
<feGaussianBlur stdDeviation="2"/>
<feComposite in2="hardAlpha" operator="out"/>
<feColorMatrix type="matrix" values="0 0 0 0 0 0 0 0 0 0 0 0 0 0 0 0 0 0 0.25 0"/>
<feBlend mode="normal" in2="BackgroundImageFix" result="effect1_dropShadow_1_998"/>
<feBlend mode="normal" in="SourceGraphic" in2="effect1_dropShadow_1_998" result="shape"/>
</filter>
<filter id="filter1_d_1_998" x="1190.01" y="-40.8734" width="134.909" height="128.894" filterUnits="userSpaceOnUse" color-interpolation-filters="sRGB">
<feFlood flood-opacity="0" result="BackgroundImageFix"/>
<feColorMatrix in="SourceAlpha" type="matrix" values="0 0 0 0 0 0 0 0 0 0 0 0 0 0 0 0 0 0 127 0" result="hardAlpha"/>
<feOffset dy="4"/>
<feGaussianBlur stdDeviation="2"/>
<feComposite in2="hardAlpha" operator="out"/>
<feColorMatrix type="matrix" values="0 0 0 0 0 0 0 0 0 0 0 0 0 0 0 0 0 0 0.25 0"/>
<feBlend mode="normal" in2="BackgroundImageFix" result="effect1_dropShadow_1_998"/>
<feBlend mode="normal" in="SourceGraphic" in2="effect1_dropShadow_1_998" result="shape"/>
</filter>
<filter id="filter2_d_1_998" x="-46.2432" y="749.775" width="129.916" height="135.117" filterUnits="userSpaceOnUse" color-interpolation-filters="sRGB">
<feFlood flood-opacity="0" result="BackgroundImageFix"/>
<feColorMatrix in="SourceAlpha" type="matrix" values="0 0 0 0 0 0 0 0 0 0 0 0 0 0 0 0 0 0 127 0" result="hardAlpha"/>
<feOffset dy="4"/>
<feGaussianBlur stdDeviation="2"/>
<feComposite in2="hardAlpha" operator="out"/>
<feColorMatrix type="matrix" values="0 0 0 0 0 0 0 0 0 0 0 0 0 0 0 0 0 0 0.25 0"/>
<feBlend mode="normal" in2="BackgroundImageFix" result="effect1_dropShadow_1_998"/>
<feBlend mode="normal" in="SourceGraphic" in2="effect1_dropShadow_1_998" result="shape"/>
</filter>
<filter id="filter3_d_1_998" x="1067.46" y="744.944" width="72.2734" height="78.6017" filterUnits="userSpaceOnUse" color-interpolation-filters="sRGB">
<feFlood flood-opacity="0" result="BackgroundImageFix"/>
<feColorMatrix in="SourceAlpha" type="matrix" values="0 0 0 0 0 0 0 0 0 0 0 0 0 0 0 0 0 0 127 0" result="hardAlpha"/>
<feOffset dy="4"/>
<feGaussianBlur stdDeviation="2"/>
<feComposite in2="hardAlpha" operator="out"/>
<feColorMatrix type="matrix" values="0 0 0 0 0 0 0 0 0 0 0 0 0 0 0 0 0 0 0.25 0"/>
<feBlend mode="normal" in2="BackgroundImageFix" result="effect1_dropShadow_1_998"/>
<feBlend mode="normal" in="SourceGraphic" in2="effect1_dropShadow_1_998" result="shape"/>
</filter>
<filter id="filter4_d_1_998" x="331.46" y="746.944" width="72.2734" height="78.6017" filterUnits="userSpaceOnUse" color-interpolation-filters="sRGB">
<feFlood flood-opacity="0" result="BackgroundImageFix"/>
<feColorMatrix in="SourceAlpha" type="matrix" values="0 0 0 0 0 0 0 0 0 0 0 0 0 0 0 0 0 0 127 0" result="hardAlpha"/>
<feOffset dy="4"/>
<feGaussianBlur stdDeviation="2"/>
<feComposite in2="hardAlpha" operator="out"/>
<feColorMatrix type="matrix" values="0 0 0 0 0 0 0 0 0 0 0 0 0 0 0 0 0 0 0.25 0"/>
<feBlend mode="normal" in2="BackgroundImageFix" result="effect1_dropShadow_1_998"/>
<feBlend mode="normal" in="SourceGraphic" in2="effect1_dropShadow_1_998" result="shape"/>
</filter>
<filter id="filter5_d_1_998" x="856.942" y="758.258" width="73.249" height="74.0354" filterUnits="userSpaceOnUse" color-interpolation-filters="sRGB">
<feFlood flood-opacity="0" result="BackgroundImageFix"/>
<feColorMatrix in="SourceAlpha" type="matrix" values="0 0 0 0 0 0 0 0 0 0 0 0 0 0 0 0 0 0 127 0" result="hardAlpha"/>
<feOffset dy="4"/>
<feGaussianBlur stdDeviation="2"/>
<feComposite in2="hardAlpha" operator="out"/>
<feColorMatrix type="matrix" values="0 0 0 0 0 0 0 0 0 0 0 0 0 0 0 0 0 0 0.25 0"/>
<feBlend mode="normal" in2="BackgroundImageFix" result="effect1_dropShadow_1_998"/>
<feBlend mode="normal" in="SourceGraphic" in2="effect1_dropShadow_1_998" result="shape"/>
</filter>
<filter id="filter6_d_1_998" x="1170.22" y="515.955" width="78.209" height="74.5123" filterUnits="userSpaceOnUse" color-interpolation-filters="sRGB">
<feFlood flood-opacity="0" result="BackgroundImageFix"/>
<feColorMatrix in="SourceAlpha" type="matrix" values="0 0 0 0 0 0 0 0 0 0 0 0 0 0 0 0 0 0 127 0" result="hardAlpha"/>
<feOffset dy="4"/>
<feGaussianBlur stdDeviation="2"/>
<feComposite in2="hardAlpha" operator="out"/>
<feColorMatrix type="matrix" values="0 0 0 0 0 0 0 0 0 0 0 0 0 0 0 0 0 0 0.25 0"/>
<feBlend mode="normal" in2="BackgroundImageFix" result="effect1_dropShadow_1_998"/>
<feBlend mode="normal" in="SourceGraphic" in2="effect1_dropShadow_1_998" result="shape"/>
</filter>
<filter id="filter7_d_1_998" x="1156.85" y="426.143" width="74.7036" height="78.0634" filterUnits="userSpaceOnUse" color-interpolation-filters="sRGB">
<feFlood flood-opacity="0" result="BackgroundImageFix"/>
<feColorMatrix in="SourceAlpha" type="matrix" values="0 0 0 0 0 0 0 0 0 0 0 0 0 0 0 0 0 0 127 0" result="hardAlpha"/>
<feOffset dy="4"/>
<feGaussianBlur stdDeviation="2"/>
<feComposite in2="hardAlpha" operator="out"/>
<feColorMatrix type="matrix" values="0 0 0 0 0 0 0 0 0 0 0 0 0 0 0 0 0 0 0.25 0"/>
<feBlend mode="normal" in2="BackgroundImageFix" result="effect1_dropShadow_1_998"/>
<feBlend mode="normal" in="SourceGraphic" in2="effect1_dropShadow_1_998" result="shape"/>
</filter>
<filter id="filter8_d_1_998" x="639.852" y="-21.8571" width="74.7036" height="78.0634" filterUnits="userSpaceOnUse" color-interpolation-filters="sRGB">
<feFlood flood-opacity="0" result="BackgroundImageFix"/>
<feColorMatrix in="SourceAlpha" type="matrix" values="0 0 0 0 0 0 0 0 0 0 0 0 0 0 0 0 0 0 127 0" result="hardAlpha"/>
<feOffset dy="4"/>
<feGaussianBlur stdDeviation="2"/>
<feComposite in2="hardAlpha" operator="out"/>
<feColorMatrix type="matrix" values="0 0 0 0 0 0 0 0 0 0 0 0 0 0 0 0 0 0 0.25 0"/>
<feBlend mode="normal" in2="BackgroundImageFix" result="effect1_dropShadow_1_998"/>
<feBlend mode="normal" in="SourceGraphic" in2="effect1_dropShadow_1_998" result="shape"/>
</filter>
<filter id="filter9_d_1_998" x="1120.05" y="675.6" width="126.83" height="134.492" filterUnits="userSpaceOnUse" color-interpolation-filters="sRGB">
<feFlood flood-opacity="0" result="BackgroundImageFix"/>
<feColorMatrix in="SourceAlpha" type="matrix" values="0 0 0 0 0 0 0 0 0 0 0 0 0 0 0 0 0 0 127 0" result="hardAlpha"/>
<feOffset dy="4"/>
<feGaussianBlur stdDeviation="2"/>
<feComposite in2="hardAlpha" operator="out"/>
<feColorMatrix type="matrix" values="0 0 0 0 0 0 0 0 0 0 0 0 0 0 0 0 0 0 0.25 0"/>
<feBlend mode="normal" in2="BackgroundImageFix" result="effect1_dropShadow_1_998"/>
<feBlend mode="normal" in="SourceGraphic" in2="effect1_dropShadow_1_998" result="shape"/>
</filter>
<filter id="filter10_d_1_998" x="191.442" y="27.4211" width="72.4648" height="78.3179" filterUnits="userSpaceOnUse" color-interpolation-filters="sRGB">
<feFlood flood-opacity="0" result="BackgroundImageFix"/>
<feColorMatrix in="SourceAlpha" type="matrix" values="0 0 0 0 0 0 0 0 0 0 0 0 0 0 0 0 0 0 127 0" result="hardAlpha"/>
<feOffset dy="4"/>
<feGaussianBlur stdDeviation="2"/>
<feComposite in2="hardAlpha" operator="out"/>
<feColorMatrix type="matrix" values="0 0 0 0 0 0 0 0 0 0 0 0 0 0 0 0 0 0 0.25 0"/>
<feBlend mode="normal" in2="BackgroundImageFix" result="effect1_dropShadow_1_998"/>
<feBlend mode="normal" in="SourceGraphic" in2="effect1_dropShadow_1_998" result="shape"/>
</filter>
<filter id="filter11_d_1_998" x="13.646" y="581.817" width="42.8638" height="45.8604" filterUnits="userSpaceOnUse" color-interpolation-filters="sRGB">
<feFlood flood-opacity="0" result="BackgroundImageFix"/>
<feColorMatrix in="SourceAlpha" type="matrix" values="0 0 0 0 0 0 0 0 0 0 0 0 0 0 0 0 0 0 127 0" result="hardAlpha"/>
<feOffset dy="4"/>
<feGaussianBlur stdDeviation="2"/>
<feComposite in2="hardAlpha" operator="out"/>
<feColorMatrix type="matrix" values="0 0 0 0 0 0 0 0 0 0 0 0 0 0 0 0 0 0 0.25 0"/>
<feBlend mode="normal" in2="BackgroundImageFix" result="effect1_dropShadow_1_998"/>
<feBlend mode="normal" in="SourceGraphic" in2="effect1_dropShadow_1_998" result="shape"/>
</filter>
<filter id="filter12_d_1_998" x="487.646" y="804.817" width="42.8638" height="45.8604" filterUnits="userSpaceOnUse" color-interpolation-filters="sRGB">
<feFlood flood-opacity="0" result="BackgroundImageFix"/>
<feColorMatrix in="SourceAlpha" type="matrix" values="0 0 0 0 0 0 0 0 0 0 0 0 0 0 0 0 0 0 127 0" result="hardAlpha"/>
<feOffset dy="4"/>
<feGaussianBlur stdDeviation="2"/>
<feComposite in2="hardAlpha" operator="out"/>
<feColorMatrix type="matrix" values="0 0 0 0 0 0 0 0 0 0 0 0 0 0 0 0 0 0 0.25 0"/>
<feBlend mode="normal" in2="BackgroundImageFix" result="effect1_dropShadow_1_998"/>
<feBlend mode="normal" in="SourceGraphic" in2="effect1_dropShadow_1_998" result="shape"/>
</filter>
<filter id="filter13_d_1_998" x="874.365" y="40.5052" width="40.6279" height="46.6895" filterUnits="userSpaceOnUse" color-interpolation-filters="sRGB">
<feFlood flood-opacity="0" result="BackgroundImageFix"/>
<feColorMatrix in="SourceAlpha" type="matrix" values="0 0 0 0 0 0 0 0 0 0 0 0 0 0 0 0 0 0 127 0" result="hardAlpha"/>
<feOffset dy="4"/>
<feGaussianBlur stdDeviation="2"/>
<feComposite in2="hardAlpha" operator="out"/>
<feColorMatrix type="matrix" values="0 0 0 0 0 0 0 0 0 0 0 0 0 0 0 0 0 0 0.25 0"/>
<feBlend mode="normal" in2="BackgroundImageFix" result="effect1_dropShadow_1_998"/>
<feBlend mode="normal" in="SourceGraphic" in2="effect1_dropShadow_1_998" result="shape"/>
</filter>
<filter id="filter14_d_1_998" x="323.365" y="101.505" width="40.6279" height="46.6895" filterUnits="userSpaceOnUse" color-interpolation-filters="sRGB">
<feFlood flood-opacity="0" result="BackgroundImageFix"/>
<feColorMatrix in="SourceAlpha" type="matrix" values="0 0 0 0 0 0 0 0 0 0 0 0 0 0 0 0 0 0 127 0" result="hardAlpha"/>
<feOffset dy="4"/>
<feGaussianBlur stdDeviation="2"/>
<feComposite in2="hardAlpha" operator="out"/>
<feColorMatrix type="matrix" values="0 0 0 0 0 0 0 0 0 0 0 0 0 0 0 0 0 0 0.25 0"/>
<feBlend mode="normal" in2="BackgroundImageFix" result="effect1_dropShadow_1_998"/>
<feBlend mode="normal" in="SourceGraphic" in2="effect1_dropShadow_1_998" result="shape"/>
</filter>
<filter id="filter15_d_1_998" x="27.4424" y="197.421" width="72.4648" height="78.3179" filterUnits="userSpaceOnUse" color-interpolation-filters="sRGB">
<feFlood flood-opacity="0" result="BackgroundImageFix"/>
<feColorMatrix in="SourceAlpha" type="matrix" values="0 0 0 0 0 0 0 0 0 0 0 0 0 0 0 0 0 0 127 0" result="hardAlpha"/>
<feOffset dy="4"/>
<feGaussianBlur stdDeviation="2"/>
<feComposite in2="hardAlpha" operator="out"/>
<feColorMatrix type="matrix" values="0 0 0 0 0 0 0 0 0 0 0 0 0 0 0 0 0 0 0.25 0"/>
<feBlend mode="normal" in2="BackgroundImageFix" result="effect1_dropShadow_1_998"/>
<feBlend mode="normal" in="SourceGraphic" in2="effect1_dropShadow_1_998" result="shape"/>
</filter>
<filter id="filter16_d_1_998" x="6" y="316" width="143" height="104" filterUnits="userSpaceOnUse" color-interpolation-filters="sRGB">
<feFlood flood-opacity="0" result="BackgroundImageFix"/>
<feColorMatrix in="SourceAlpha" type="matrix" values="0 0 0 0 0 0 0 0 0 0 0 0 0 0 0 0 0 0 127 0" result="hardAlpha"/>
<feOffset dy="4"/>
<feGaussianBlur stdDeviation="2"/>
<feComposite in2="hardAlpha" operator="out"/>
<feColorMatrix type="matrix" values="0 0 0 0 0 0 0 0 0 0 0 0 0 0 0 0 0 0 0.25 0"/>
<feBlend mode="normal" in2="BackgroundImageFix" result="effect1_dropShadow_1_998"/>
<feBlend mode="normal" in="SourceGraphic" in2="effect1_dropShadow_1_998" result="shape"/>
</filter>
<filter id="filter17_d_1_998" x="1226" y="96" width="51" height="287" filterUnits="userSpaceOnUse" color-interpolation-filters="sRGB">
<feFlood flood-opacity="0" result="BackgroundImageFix"/>
<feColorMatrix in="SourceAlpha" type="matrix" values="0 0 0 0 0 0 0 0 0 0 0 0 0 0 0 0 0 0 127 0" result="hardAlpha"/>
<feOffset dy="4"/>
<feGaussianBlur stdDeviation="2"/>
<feComposite in2="hardAlpha" operator="out"/>
<feColorMatrix type="matrix" values="0 0 0 0 0 0 0 0 0 0 0 0 0 0 0 0 0 0 0.25 0"/>
<feBlend mode="normal" in2="BackgroundImageFix" result="effect1_dropShadow_1_998"/>
<feBlend mode="normal" in="SourceGraphic" in2="effect1_dropShadow_1_998" result="shape"/>
</filter>
<clipPath id="clip0_1_998">
<rect width="1280" height="832" fill="white"/>
</clipPath>
</defs>
</svg>
