<svg width="1280" height="832" viewBox="0 0 1280 832" fill="none" xmlns="http://www.w3.org/2000/svg">
<g clip-path="url(#clip0_1_1001)">
<rect width="1280" height="832" fill="#D4F0F7"/>
<g filter="url(#filter0_d_1_1001)">
<path fill-rule="evenodd" clip-rule="evenodd" d="M47.4817 143.123C47.8583 142.719 48.491 142.697 48.895 143.073L57.6727 151.256C58.0767 151.632 58.0989 152.265 57.7223 152.669C57.3458 153.073 56.713 153.095 56.309 152.719L47.5313 144.536C47.1273 144.16 47.1051 143.527 47.4817 143.123Z" fill="white"/>
<path fill-rule="evenodd" clip-rule="evenodd" d="M42.302 124.233C42.6786 123.829 43.3113 123.807 43.7153 124.184L64.6857 143.732C65.0897 144.108 65.1119 144.741 64.7354 145.145C64.3588 145.549 63.726 145.571 63.322 145.195L42.3516 125.646C41.9476 125.27 41.9254 124.637 42.302 124.233Z" fill="white"/>
<path fill-rule="evenodd" clip-rule="evenodd" d="M37.2532 105.987C37.6297 105.583 38.2625 105.56 38.6665 105.937L71.4392 136.487C71.8432 136.864 71.8654 137.496 71.4888 137.9C71.1122 138.304 70.4794 138.326 70.0755 137.95L37.3028 107.4C36.8988 107.023 36.8766 106.391 37.2532 105.987Z" fill="white"/>
<path fill-rule="evenodd" clip-rule="evenodd" d="M31.8077 86.2419C32.1868 85.8403 32.8197 85.822 33.2213 86.2011C46.4208 98.6601 71.5822 121.994 77.4996 127.482C78.2257 128.156 78.662 128.56 78.7509 128.643C79.155 129.02 79.1773 129.652 78.8008 130.056C78.4242 130.46 77.7915 130.483 77.3874 130.106C77.3002 130.025 76.8693 129.625 76.1514 128.96C70.2624 123.498 45.0626 100.128 31.8485 87.6556C31.4468 87.2765 31.4286 86.6436 31.8077 86.2419Z" fill="white"/>
<path fill-rule="evenodd" clip-rule="evenodd" d="M27.0124 68.8376C27.389 68.4336 28.0218 68.4114 28.4258 68.788L85.2066 121.718C85.6105 122.094 85.6328 122.727 85.2562 123.131C84.8796 123.535 84.2468 123.557 83.8428 123.181L27.062 70.251C26.6581 69.8744 26.6358 69.2416 27.0124 68.8376Z" fill="white"/>
<path fill-rule="evenodd" clip-rule="evenodd" d="M22.2453 50.8532C22.6219 50.4493 23.2547 50.427 23.6587 50.8036L91.9603 114.473C92.3643 114.85 92.3865 115.482 92.0099 115.886C91.6333 116.29 91.0005 116.312 90.5965 115.936L22.295 52.2666C21.891 51.89 21.8688 51.2572 22.2453 50.8532Z" fill="white"/>
<path fill-rule="evenodd" clip-rule="evenodd" d="M17.2038 32.6128C17.5804 32.2088 18.2132 32.1866 18.6172 32.5632L98.7138 107.228C99.1178 107.604 99.14 108.237 98.7634 108.641C98.3869 109.045 97.7541 109.067 97.3501 108.691L17.2534 34.0261C16.8495 33.6495 16.8273 33.0167 17.2038 32.6128Z" fill="white"/>
<path fill-rule="evenodd" clip-rule="evenodd" d="M34.6555 35.3403C35.0321 34.9363 35.6649 34.9141 36.0688 35.2907L105.468 99.9828C105.872 100.359 105.894 100.992 105.517 101.396C105.141 101.8 104.508 101.822 104.104 101.446L34.7051 36.7536C34.3011 36.3771 34.2789 35.7443 34.6555 35.3403Z" fill="white"/>
<path fill-rule="evenodd" clip-rule="evenodd" d="M52.9299 38.8342C53.3065 38.4302 53.9393 38.408 54.3433 38.7846L112.221 92.7373C112.625 93.1139 112.648 93.7467 112.271 94.1507C111.894 94.5546 111.262 94.5768 110.858 94.2003L52.9795 40.2475C52.5755 39.871 52.5533 39.2382 52.9299 38.8342Z" fill="white"/>
<path fill-rule="evenodd" clip-rule="evenodd" d="M71.7532 42.8403C72.1297 42.4363 72.7625 42.4141 73.1665 42.7907L118.975 85.4926C119.379 85.8692 119.401 86.5019 119.025 86.9059C118.648 87.3099 118.015 87.3321 117.611 86.9555L71.8028 44.2536C71.3988 43.8771 71.3766 43.2443 71.7532 42.8403Z" fill="white"/>
<path fill-rule="evenodd" clip-rule="evenodd" d="M90.302 46.5901C90.6786 46.1861 91.3113 46.1639 91.7153 46.5404L125.729 78.2472C126.133 78.6238 126.155 79.2566 125.779 79.6606C125.402 80.0645 124.769 80.0868 124.365 79.7102L90.3516 48.0034C89.9476 47.6268 89.9254 46.994 90.302 46.5901Z" fill="white"/>
<path fill-rule="evenodd" clip-rule="evenodd" d="M108.576 50.0844C108.953 49.6805 109.586 49.6582 109.99 50.0348L109.308 50.7663L108.626 51.4978C108.222 51.1212 108.2 50.4884 108.576 50.0844ZM109.308 50.7663C108.626 51.4978 108.626 51.4976 108.626 51.4978L131.119 72.4652C131.523 72.8418 132.156 72.8196 132.532 72.4156C132.909 72.0116 132.887 71.3788 132.483 71.0022L109.99 50.0348C109.99 50.0347 109.99 50.0348 109.308 50.7663Z" fill="white"/>
<path fill-rule="evenodd" clip-rule="evenodd" d="M127.4 54.0903C127.776 53.6863 128.409 53.6641 128.813 54.0407L139.237 63.7573C139.641 64.1339 139.663 64.7667 139.286 65.1707C138.91 65.5747 138.277 65.5969 137.873 65.2203L127.449 55.5036C127.045 55.1271 127.023 54.4943 127.4 54.0903Z" fill="white"/>
<path fill-rule="evenodd" clip-rule="evenodd" d="M142.181 56.9321C142.557 56.5281 143.19 56.5059 143.594 56.8825L144.637 57.8541C145.041 58.2307 145.063 58.8635 144.686 59.2675C144.31 59.6715 143.677 59.6937 143.273 59.3171L142.23 58.3454C141.827 57.9689 141.804 57.3361 142.181 56.9321Z" fill="white"/>
</g>
<g filter="url(#filter1_d_1_1001)">
<path fill-rule="evenodd" clip-rule="evenodd" d="M1269.95 76.5668C1269.7 76.0759 1269.89 75.4728 1270.38 75.2197L1310.21 54.687C1310.7 54.4339 1311.3 54.6267 1311.55 55.1175C1311.81 55.6084 1311.61 56.2115 1311.12 56.4646L1271.3 76.9973C1270.81 77.2504 1270.21 77.0576 1269.95 76.5668Z" fill="white"/>
<path fill-rule="evenodd" clip-rule="evenodd" d="M1249.53 75.0259C1249.28 74.5334 1249.48 73.9315 1249.97 73.6815C1266.15 65.464 1296.61 49.6592 1303.78 45.9423C1304.65 45.4863 1305.18 45.2122 1305.29 45.1564C1305.78 44.9033 1306.38 45.0959 1306.64 45.5868C1306.89 46.0776 1306.7 46.6807 1306.21 46.9339C1306.1 46.9886 1305.58 47.2593 1304.71 47.7102C1297.58 51.4093 1267.08 67.2381 1250.87 75.4648C1250.38 75.7148 1249.78 75.5183 1249.53 75.0259Z" fill="white"/>
<path fill-rule="evenodd" clip-rule="evenodd" d="M1231.53 73.6627C1231.27 73.1718 1231.47 72.5687 1231.96 72.3156L1300.95 36.7415C1301.44 36.4884 1302.05 36.6811 1302.3 37.172C1302.55 37.6629 1302.36 38.266 1301.87 38.5191L1232.87 74.0932C1232.38 74.3463 1231.78 74.1536 1231.53 73.6627Z" fill="white"/>
<path fill-rule="evenodd" clip-rule="evenodd" d="M1212.99 72.0775C1212.74 71.5866 1212.93 70.9835 1213.42 70.7304L1296.41 27.9383C1296.9 27.6852 1297.51 27.8779 1297.76 28.3688C1298.01 28.8597 1297.82 29.4628 1297.33 29.7159L1214.34 72.508C1213.85 72.7611 1213.24 72.5684 1212.99 72.0775Z" fill="white"/>
<path fill-rule="evenodd" clip-rule="evenodd" d="M1194.12 70.6637C1193.87 70.1728 1194.06 69.5697 1194.55 69.3166L1291.87 19.1347C1292.36 18.8816 1292.97 19.0743 1293.22 19.5652C1293.47 20.0561 1293.28 20.6592 1292.79 20.9123L1195.47 71.0942C1194.97 71.3473 1194.37 71.1546 1194.12 70.6637Z" fill="white"/>
<path fill-rule="evenodd" clip-rule="evenodd" d="M1202.58 55.1581C1202.33 54.6672 1202.52 54.0641 1203.01 53.811L1287.33 10.3314C1287.83 10.0783 1288.43 10.2711 1288.68 10.7619C1288.93 11.2528 1288.74 11.8559 1288.25 12.109L1203.93 55.5886C1203.43 55.8417 1202.83 55.6489 1202.58 55.1581Z" fill="white"/>
<path fill-rule="evenodd" clip-rule="evenodd" d="M1212.04 39.1366C1211.78 38.6457 1211.98 38.0426 1212.47 37.7895L1282.8 1.52789C1283.29 1.27479 1283.89 1.46754 1284.14 1.95841C1284.4 2.44929 1284.2 3.0524 1283.71 3.3055L1213.38 39.5671C1212.89 39.8202 1212.29 39.6275 1212.04 39.1366Z" fill="white"/>
<path fill-rule="evenodd" clip-rule="evenodd" d="M1222.16 22.7716C1221.91 22.2807 1222.1 21.6776 1222.59 21.4245L1278.26 -7.27542C1278.75 -7.52853 1279.35 -7.33578 1279.6 -6.8449C1279.86 -6.35403 1279.66 -5.75091 1279.17 -5.49781L1223.51 23.2021C1223.02 23.4552 1222.42 23.2625 1222.16 22.7716Z" fill="white"/>
<path fill-rule="evenodd" clip-rule="evenodd" d="M1231.96 6.57823C1231.7 6.08736 1231.9 5.48425 1232.39 5.23115L1273.72 -16.079C1274.21 -16.3321 1274.81 -16.1393 1275.06 -15.6484C1275.32 -15.1576 1275.12 -14.5545 1274.63 -14.3013L1233.3 7.00876C1232.81 7.26186 1232.21 7.06911 1231.96 6.57823Z" fill="white"/>
</g>
<g filter="url(#filter2_d_1_1001)">
<path fill-rule="evenodd" clip-rule="evenodd" d="M5.3834 767.685C5.77475 768.075 5.77609 768.708 5.38639 769.099L-26.2276 800.847C-26.6173 801.238 -27.2504 801.24 -27.6418 800.85C-28.0331 800.46 -28.0344 799.827 -27.6447 799.436L3.96919 767.688C4.35889 767.297 4.99205 767.296 5.3834 767.685Z" fill="white"/>
<path fill-rule="evenodd" clip-rule="evenodd" d="M25.2965 762.893C25.6854 763.286 25.6828 763.919 25.2907 764.308C12.4033 777.089 -11.748 801.468 -17.4278 807.201C-18.1247 807.904 -18.5436 808.327 -18.6293 808.413C-19.019 808.805 -19.6522 808.806 -20.0436 808.416C-20.435 808.027 -20.4364 807.394 -20.0467 807.002C-19.9626 806.918 -19.549 806.5 -18.8599 805.805C-13.2074 800.099 10.9807 775.683 23.8823 762.888C24.2744 762.499 24.9076 762.501 25.2965 762.893Z" fill="white"/>
<path fill-rule="evenodd" clip-rule="evenodd" d="M42.8497 758.675C43.2411 759.065 43.2424 759.698 42.8527 760.089L-11.9205 815.094C-12.3102 815.485 -12.9433 815.487 -13.3347 815.097C-13.726 814.707 -13.7274 814.074 -13.3377 813.683L41.4355 758.678C41.8252 758.286 42.4584 758.285 42.8497 758.675Z" fill="white"/>
<path fill-rule="evenodd" clip-rule="evenodd" d="M60.9815 754.503C61.3729 754.893 61.3742 755.526 60.9845 755.917L-4.90211 822.083C-5.29181 822.474 -5.92498 822.475 -6.31632 822.086C-6.70767 821.696 -6.70901 821.063 -6.31931 820.671L59.5673 754.506C59.957 754.115 60.5902 754.113 60.9815 754.503Z" fill="white"/>
<path fill-rule="evenodd" clip-rule="evenodd" d="M79.378 750.066C79.7694 750.456 79.7707 751.089 79.381 751.48L2.11636 829.072C1.72666 829.463 1.09349 829.464 0.702146 829.075C0.310799 828.685 0.309463 828.052 0.699162 827.66L77.9638 750.069C78.3535 749.678 78.9867 749.676 79.378 750.066Z" fill="white"/>
<path fill-rule="evenodd" clip-rule="evenodd" d="M76.0768 767.418C76.4681 767.808 76.4694 768.441 76.0797 768.832L9.13468 836.061C8.74498 836.452 8.11182 836.453 7.72047 836.063C7.32912 835.674 7.32779 835.041 7.71749 834.649L74.6626 767.421C75.0523 767.03 75.6854 767.028 76.0768 767.418Z" fill="white"/>
<path fill-rule="evenodd" clip-rule="evenodd" d="M71.982 785.568C72.3734 785.957 72.3747 786.59 71.985 786.982L16.1534 843.05C15.7637 843.441 15.1305 843.442 14.7392 843.052C14.3478 842.663 14.3465 842.03 14.7362 841.638L70.5678 785.571C70.9575 785.179 71.5907 785.178 71.982 785.568Z" fill="white"/>
<path fill-rule="evenodd" clip-rule="evenodd" d="M67.3575 804.248C67.7489 804.638 67.7502 805.271 67.3605 805.663L23.1715 850.038C22.7818 850.43 22.1486 850.431 21.7573 850.041C21.3659 849.652 21.3646 849.019 21.7543 848.627L65.9433 804.251C66.333 803.86 66.9662 803.859 67.3575 804.248Z" fill="white"/>
<path fill-rule="evenodd" clip-rule="evenodd" d="M62.9981 822.663C63.3895 823.053 63.3908 823.686 63.0011 824.078L30.1902 857.027C29.8005 857.419 29.1673 857.42 28.776 857.03C28.3846 856.641 28.3833 856.007 28.773 855.616L61.5839 822.666C61.9736 822.275 62.6068 822.274 62.9981 822.663Z" fill="white"/>
</g>
<g filter="url(#filter3_d_1_1001)">
<path fill-rule="evenodd" clip-rule="evenodd" d="M1072.12 807.216C1072.64 807.027 1073.21 807.294 1073.4 807.813L1075.73 814.203C1075.92 814.722 1075.65 815.296 1075.13 815.485C1074.61 815.674 1074.04 815.406 1073.85 814.887L1071.52 808.497C1071.33 807.978 1071.6 807.405 1072.12 807.216Z" fill="white"/>
<path fill-rule="evenodd" clip-rule="evenodd" d="M1073.72 796.581C1074.24 796.392 1074.81 796.66 1075 797.179L1080.56 812.445C1080.75 812.964 1080.48 813.538 1079.96 813.726C1079.44 813.915 1078.87 813.648 1078.68 813.129L1073.12 797.863C1072.93 797.344 1073.2 796.77 1073.72 796.581Z" fill="white"/>
<path fill-rule="evenodd" clip-rule="evenodd" d="M1075.25 786.295C1075.77 786.106 1076.34 786.374 1076.53 786.893L1085.21 810.75C1085.4 811.269 1085.13 811.843 1084.62 812.032C1084.1 812.221 1083.52 811.953 1083.33 811.434L1074.65 787.577C1074.46 787.058 1074.73 786.484 1075.25 786.295Z" fill="white"/>
<path fill-rule="evenodd" clip-rule="evenodd" d="M1076.91 775.17C1077.43 774.984 1078 775.254 1078.19 775.774C1081.65 785.456 1088.34 803.706 1089.92 808.006C1090.11 808.534 1090.23 808.852 1090.25 808.917C1090.44 809.436 1090.17 810.01 1089.65 810.199C1089.13 810.388 1088.56 810.12 1088.37 809.601C1088.35 809.538 1088.23 809.226 1088.04 808.707C1086.48 804.44 1079.77 786.146 1076.31 776.448C1076.12 775.928 1076.39 775.356 1076.91 775.17Z" fill="white"/>
<path fill-rule="evenodd" clip-rule="evenodd" d="M1078.37 765.365C1078.89 765.176 1079.47 765.444 1079.65 765.963L1094.7 807.297C1094.89 807.816 1094.62 808.39 1094.1 808.579C1093.58 808.768 1093.01 808.501 1092.82 807.982L1077.78 766.647C1077.59 766.128 1077.85 765.554 1078.37 765.365Z" fill="white"/>
<path fill-rule="evenodd" clip-rule="evenodd" d="M1079.97 755.285C1080.49 755.096 1081.07 755.364 1081.26 755.883L1099.35 805.604C1099.54 806.123 1099.27 806.697 1098.76 806.886C1098.24 807.075 1097.66 806.807 1097.47 806.288L1079.38 756.567C1079.19 756.048 1079.46 755.474 1079.97 755.285Z" fill="white"/>
<path fill-rule="evenodd" clip-rule="evenodd" d="M1081.5 745.005C1082.02 744.816 1082.6 745.083 1082.78 745.602L1104.01 803.91C1104.2 804.429 1103.93 805.003 1103.41 805.192C1102.89 805.381 1102.32 805.113 1102.13 804.594L1080.91 746.286C1080.72 745.767 1080.98 745.193 1081.5 745.005Z" fill="white"/>
<path fill-rule="evenodd" clip-rule="evenodd" d="M1088.99 751.098C1089.51 750.909 1090.08 751.177 1090.27 751.696L1108.66 802.216C1108.85 802.735 1108.58 803.309 1108.06 803.498C1107.54 803.687 1106.97 803.419 1106.78 802.9L1088.39 752.38C1088.2 751.861 1088.47 751.287 1088.99 751.098Z" fill="white"/>
<path fill-rule="evenodd" clip-rule="evenodd" d="M1096.7 757.792C1097.22 757.603 1097.79 757.87 1097.98 758.389L1113.31 800.523C1113.5 801.042 1113.24 801.615 1112.72 801.804C1112.2 801.993 1111.62 801.726 1111.43 801.207L1096.1 759.073C1095.91 758.554 1096.18 757.98 1096.7 757.792Z" fill="white"/>
<path fill-rule="evenodd" clip-rule="evenodd" d="M1104.55 764.884C1105.07 764.695 1105.64 764.962 1105.83 765.481L1117.97 798.829C1118.16 799.348 1117.89 799.922 1117.37 800.11C1116.85 800.299 1116.28 800.032 1116.09 799.513L1103.95 766.165C1103.76 765.646 1104.03 765.073 1104.55 764.884Z" fill="white"/>
<path fill-rule="evenodd" clip-rule="evenodd" d="M1112.33 771.776C1112.85 771.587 1113.42 771.855 1113.61 772.374L1122.62 797.135C1122.81 797.654 1122.54 798.227 1122.02 798.416C1121.5 798.605 1120.93 798.338 1120.74 797.819L1111.73 773.058C1111.54 772.539 1111.81 771.965 1112.33 771.776Z" fill="white"/>
<path fill-rule="evenodd" clip-rule="evenodd" d="M1120.03 778.469C1120.55 778.28 1121.13 778.548 1121.32 779.067L1120.38 779.409L1119.44 779.751C1119.25 779.232 1119.51 778.658 1120.03 778.469ZM1120.38 779.409C1119.44 779.751 1119.44 779.751 1119.44 779.751L1125.4 796.125C1125.58 796.644 1126.16 796.912 1126.68 796.723C1127.2 796.534 1127.46 795.96 1127.28 795.441L1121.32 779.067C1121.32 779.067 1121.32 779.067 1120.38 779.409Z" fill="white"/>
<path fill-rule="evenodd" clip-rule="evenodd" d="M1127.89 785.562C1128.4 785.373 1128.98 785.64 1129.17 786.159L1131.93 793.747C1132.12 794.266 1131.85 794.84 1131.33 795.029C1130.81 795.218 1130.24 794.95 1130.05 794.431L1127.29 786.843C1127.1 786.324 1127.37 785.751 1127.89 785.562Z" fill="white"/>
<path fill-rule="evenodd" clip-rule="evenodd" d="M1134.12 790.983C1134.63 790.794 1135.21 791.062 1135.4 791.581L1135.67 792.339C1135.86 792.858 1135.59 793.432 1135.08 793.621C1134.56 793.81 1133.98 793.542 1133.79 793.023L1133.52 792.265C1133.33 791.746 1133.6 791.172 1134.12 790.983Z" fill="white"/>
</g>
<g filter="url(#filter4_d_1_1001)">
<path fill-rule="evenodd" clip-rule="evenodd" d="M336.119 822.216C336.638 822.027 337.212 822.294 337.401 822.813L339.726 829.203C339.915 829.722 339.648 830.296 339.129 830.485C338.61 830.674 338.036 830.406 337.847 829.887L335.521 823.497C335.332 822.978 335.6 822.405 336.119 822.216Z" fill="white"/>
<path fill-rule="evenodd" clip-rule="evenodd" d="M337.721 811.581C338.24 811.392 338.814 811.66 339.003 812.179L344.559 827.445C344.748 827.964 344.48 828.538 343.961 828.726C343.442 828.915 342.868 828.648 342.68 828.129L337.123 812.863C336.934 812.344 337.202 811.77 337.721 811.581Z" fill="white"/>
<path fill-rule="evenodd" clip-rule="evenodd" d="M339.248 801.295C339.767 801.106 340.341 801.374 340.53 801.893L349.213 825.75C349.402 826.269 349.134 826.843 348.615 827.032C348.096 827.221 347.522 826.953 347.334 826.434L338.65 802.577C338.461 802.058 338.729 801.484 339.248 801.295Z" fill="white"/>
<path fill-rule="evenodd" clip-rule="evenodd" d="M340.91 790.17C341.43 789.984 342.002 790.254 342.188 790.774C345.652 800.456 352.341 818.706 353.917 823.006C354.111 823.534 354.227 823.852 354.251 823.917C354.44 824.436 354.173 825.01 353.654 825.199C353.135 825.388 352.561 825.12 352.372 824.601C352.349 824.538 352.235 824.226 352.044 823.707C350.48 819.44 343.775 801.146 340.305 791.448C340.119 790.928 340.39 790.356 340.91 790.17Z" fill="white"/>
<path fill-rule="evenodd" clip-rule="evenodd" d="M342.373 780.365C342.892 780.176 343.466 780.444 343.655 780.963L358.7 822.297C358.888 822.816 358.621 823.39 358.102 823.579C357.583 823.768 357.009 823.501 356.82 822.982L341.776 781.647C341.587 781.128 341.854 780.554 342.373 780.365Z" fill="white"/>
<path fill-rule="evenodd" clip-rule="evenodd" d="M343.974 770.285C344.493 770.096 345.067 770.364 345.256 770.883L363.353 820.604C363.542 821.123 363.275 821.697 362.756 821.886C362.237 822.075 361.663 821.807 361.474 821.288L343.377 771.567C343.188 771.048 343.455 770.474 343.974 770.285Z" fill="white"/>
<path fill-rule="evenodd" clip-rule="evenodd" d="M345.503 760.005C346.022 759.816 346.596 760.083 346.784 760.602L368.007 818.91C368.196 819.429 367.928 820.003 367.409 820.192C366.89 820.381 366.316 820.113 366.127 819.594L344.905 761.286C344.716 760.767 344.984 760.193 345.503 760.005Z" fill="white"/>
<path fill-rule="evenodd" clip-rule="evenodd" d="M352.991 766.098C353.51 765.909 354.084 766.177 354.273 766.696L372.661 817.216C372.849 817.735 372.582 818.309 372.063 818.498C371.544 818.687 370.97 818.419 370.781 817.9L352.393 767.38C352.204 766.861 352.472 766.287 352.991 766.098Z" fill="white"/>
<path fill-rule="evenodd" clip-rule="evenodd" d="M360.697 772.792C361.216 772.603 361.79 772.87 361.979 773.389L377.314 815.523C377.503 816.042 377.235 816.615 376.716 816.804C376.197 816.993 375.624 816.726 375.435 816.207L360.099 774.073C359.91 773.554 360.178 772.98 360.697 772.792Z" fill="white"/>
<path fill-rule="evenodd" clip-rule="evenodd" d="M368.549 779.884C369.068 779.695 369.642 779.962 369.831 780.481L381.968 813.829C382.157 814.348 381.89 814.922 381.371 815.11C380.852 815.299 380.278 815.032 380.089 814.513L367.951 781.165C367.763 780.646 368.03 780.073 368.549 779.884Z" fill="white"/>
<path fill-rule="evenodd" clip-rule="evenodd" d="M376.327 786.776C376.846 786.587 377.42 786.855 377.609 787.374L386.621 812.135C386.81 812.654 386.543 813.227 386.024 813.416C385.505 813.605 384.931 813.338 384.742 812.819L375.73 788.058C375.541 787.539 375.808 786.965 376.327 786.776Z" fill="white"/>
<path fill-rule="evenodd" clip-rule="evenodd" d="M384.034 793.469C384.553 793.28 385.127 793.548 385.316 794.067L384.376 794.409L383.436 794.751C383.247 794.232 383.515 793.658 384.034 793.469ZM384.376 794.409C383.436 794.751 383.436 794.751 383.436 794.751L389.396 811.125C389.585 811.644 390.159 811.912 390.678 811.723C391.197 811.534 391.464 810.96 391.275 810.441L385.316 794.067C385.316 794.067 385.316 794.067 384.376 794.409Z" fill="white"/>
<path fill-rule="evenodd" clip-rule="evenodd" d="M391.885 800.562C392.404 800.373 392.978 800.64 393.167 801.159L395.929 808.747C396.118 809.266 395.85 809.84 395.331 810.029C394.812 810.218 394.239 809.95 394.05 809.431L391.288 801.843C391.099 801.324 391.367 800.751 391.885 800.562Z" fill="white"/>
<path fill-rule="evenodd" clip-rule="evenodd" d="M398.115 805.983C398.634 805.794 399.208 806.062 399.397 806.581L399.673 807.339C399.862 807.858 399.595 808.432 399.076 808.621C398.557 808.81 397.983 808.542 397.794 808.023L397.518 807.265C397.329 806.746 397.596 806.172 398.115 805.983Z" fill="white"/>
</g>
<g filter="url(#filter5_d_1_1001)">
<path fill-rule="evenodd" clip-rule="evenodd" d="M917.398 823.335C917.375 822.784 917.804 822.318 918.355 822.295L925.149 822.012C925.701 821.989 926.167 822.417 926.19 822.969C926.213 823.521 925.784 823.987 925.233 824.01L918.439 824.293C917.887 824.316 917.421 823.887 917.398 823.335Z" fill="white"/>
<path fill-rule="evenodd" clip-rule="evenodd" d="M907.746 818.59C907.723 818.039 908.152 817.573 908.704 817.55L924.935 816.873C925.487 816.85 925.953 817.279 925.976 817.831C925.999 818.383 925.57 818.849 925.019 818.872L908.787 819.548C908.235 819.571 907.769 819.142 907.746 818.59Z" fill="white"/>
<path fill-rule="evenodd" clip-rule="evenodd" d="M898.405 814.022C898.382 813.471 898.811 813.005 899.363 812.982L924.729 811.925C925.281 811.902 925.747 812.331 925.77 812.882C925.793 813.434 925.364 813.9 924.813 813.923L899.446 814.98C898.894 815.003 898.428 814.574 898.405 814.022Z" fill="white"/>
<path fill-rule="evenodd" clip-rule="evenodd" d="M888.304 809.072C888.284 808.52 888.715 808.056 889.267 808.036C899.543 807.665 918.962 806.812 923.537 806.611C924.099 806.586 924.437 806.571 924.506 806.568C925.058 806.545 925.524 806.974 925.547 807.526C925.57 808.077 925.141 808.543 924.59 808.566C924.523 808.569 924.191 808.584 923.638 808.608C919.098 808.808 899.633 809.663 889.34 810.035C888.788 810.055 888.324 809.624 888.304 809.072Z" fill="white"/>
<path fill-rule="evenodd" clip-rule="evenodd" d="M879.402 804.71C879.379 804.158 879.807 803.692 880.359 803.669L924.309 801.838C924.86 801.815 925.326 802.244 925.349 802.796C925.372 803.348 924.944 803.814 924.392 803.837L880.442 805.668C879.891 805.691 879.425 805.262 879.402 804.71Z" fill="white"/>
<path fill-rule="evenodd" clip-rule="evenodd" d="M870.279 800.134C870.256 799.582 870.684 799.116 871.236 799.093L924.103 796.89C924.655 796.867 925.121 797.296 925.144 797.848C925.167 798.4 924.738 798.866 924.186 798.889L871.319 801.091C870.768 801.114 870.302 800.686 870.279 800.134Z" fill="white"/>
<path fill-rule="evenodd" clip-rule="evenodd" d="M860.943 795.566C860.92 795.014 861.348 794.549 861.9 794.526L923.896 791.943C924.448 791.92 924.914 792.348 924.937 792.9C924.96 793.452 924.532 793.918 923.98 793.941L861.984 796.524C861.432 796.547 860.966 796.118 860.943 795.566Z" fill="white"/>
<path fill-rule="evenodd" clip-rule="evenodd" d="M869.017 790.273C868.994 789.721 869.423 789.255 869.974 789.232L923.69 786.994C924.242 786.971 924.708 787.4 924.731 787.952C924.754 788.503 924.325 788.969 923.774 788.992L870.058 791.23C869.506 791.253 869.04 790.825 869.017 790.273Z" fill="white"/>
<path fill-rule="evenodd" clip-rule="evenodd" d="M877.728 784.953C877.705 784.402 878.134 783.936 878.686 783.913L923.485 782.046C924.036 782.023 924.502 782.452 924.525 783.004C924.548 783.555 924.12 784.021 923.568 784.044L878.769 785.911C878.217 785.934 877.751 785.505 877.728 784.953Z" fill="white"/>
<path fill-rule="evenodd" clip-rule="evenodd" d="M886.864 779.616C886.841 779.064 887.27 778.598 887.822 778.575L923.278 777.098C923.83 777.075 924.296 777.504 924.319 778.055C924.342 778.607 923.913 779.073 923.362 779.096L887.905 780.573C887.353 780.596 886.887 780.168 886.864 779.616Z" fill="white"/>
<path fill-rule="evenodd" clip-rule="evenodd" d="M895.787 774.288C895.764 773.736 896.193 773.27 896.744 773.247L923.072 772.15C923.623 772.127 924.089 772.556 924.112 773.107C924.135 773.659 923.707 774.125 923.155 774.148L896.828 775.245C896.276 775.268 895.81 774.839 895.787 774.288Z" fill="white"/>
<path fill-rule="evenodd" clip-rule="evenodd" d="M904.499 768.968C904.476 768.416 904.905 767.95 905.456 767.927L905.498 768.926L905.54 769.926C904.988 769.949 904.522 769.52 904.499 768.968ZM905.498 768.926C905.54 769.926 905.54 769.926 905.54 769.926L922.95 769.2C923.501 769.177 923.93 768.711 923.907 768.159C923.884 767.608 923.418 767.179 922.866 767.202L905.456 767.927C905.456 767.927 905.456 767.927 905.498 768.926Z" fill="white"/>
<path fill-rule="evenodd" clip-rule="evenodd" d="M913.634 763.631C913.611 763.079 914.04 762.613 914.592 762.59L922.66 762.254C923.211 762.231 923.677 762.66 923.7 763.211C923.723 763.763 923.295 764.229 922.743 764.252L914.675 764.588C914.123 764.611 913.657 764.183 913.634 763.631Z" fill="white"/>
<path fill-rule="evenodd" clip-rule="evenodd" d="M920.686 759.334C920.663 758.782 921.092 758.316 921.644 758.293L922.451 758.259C923.003 758.236 923.468 758.665 923.491 759.217C923.514 759.768 923.086 760.234 922.534 760.257L921.727 760.291C921.175 760.314 920.709 759.885 920.686 759.334Z" fill="white"/>
</g>
<g filter="url(#filter6_d_1_1001)">
<path fill-rule="evenodd" clip-rule="evenodd" d="M1133.72 292.318C1133.34 292.719 1132.71 292.736 1132.31 292.356L1127.37 287.682C1126.97 287.302 1126.95 286.669 1127.33 286.268C1127.71 285.867 1128.34 285.85 1128.75 286.229L1133.68 290.904C1134.09 291.284 1134.1 291.916 1133.72 292.318Z" fill="white"/>
<path fill-rule="evenodd" clip-rule="evenodd" d="M1137.05 302.545C1136.67 302.946 1136.03 302.964 1135.63 302.584L1123.84 291.416C1123.43 291.036 1123.42 290.403 1123.8 290.002C1124.18 289.601 1124.81 289.584 1125.21 289.964L1137.01 301.132C1137.41 301.511 1137.43 302.144 1137.05 302.545Z" fill="white"/>
<path fill-rule="evenodd" clip-rule="evenodd" d="M1140.28 312.428C1139.9 312.829 1139.27 312.846 1138.87 312.467L1120.43 295.013C1120.03 294.634 1120.01 294.001 1120.39 293.6C1120.77 293.198 1121.41 293.181 1121.81 293.561L1140.24 311.014C1140.65 311.394 1140.66 312.027 1140.28 312.428Z" fill="white"/>
<path fill-rule="evenodd" clip-rule="evenodd" d="M1143.77 323.122C1143.39 323.521 1142.76 323.535 1142.36 323.153C1134.93 316.043 1120.78 302.713 1117.45 299.573C1117.04 299.186 1116.8 298.954 1116.75 298.907C1116.34 298.527 1116.33 297.894 1116.71 297.493C1117.09 297.092 1117.72 297.075 1118.12 297.454C1118.17 297.5 1118.41 297.728 1118.81 298.107C1122.12 301.224 1136.3 314.586 1143.74 321.708C1144.14 322.09 1144.16 322.723 1143.77 323.122Z" fill="white"/>
<path fill-rule="evenodd" clip-rule="evenodd" d="M1146.85 332.545C1146.47 332.946 1145.84 332.964 1145.44 332.584L1113.49 302.345C1113.09 301.965 1113.07 301.332 1113.45 300.931C1113.83 300.53 1114.47 300.513 1114.87 300.892L1146.81 331.132C1147.21 331.511 1147.23 332.144 1146.85 332.545Z" fill="white"/>
<path fill-rule="evenodd" clip-rule="evenodd" d="M1149.93 342.277C1149.55 342.678 1148.91 342.695 1148.51 342.316L1110.09 305.941C1109.69 305.561 1109.67 304.928 1110.05 304.527C1110.43 304.126 1111.06 304.109 1111.46 304.489L1149.89 340.863C1150.29 341.243 1150.31 341.876 1149.93 342.277Z" fill="white"/>
<path fill-rule="evenodd" clip-rule="evenodd" d="M1153.16 352.155C1152.78 352.556 1152.15 352.574 1151.75 352.194L1106.68 309.538C1106.28 309.158 1106.26 308.525 1106.64 308.124C1107.02 307.723 1107.66 307.706 1108.06 308.085L1153.12 350.742C1153.52 351.121 1153.54 351.754 1153.16 352.155Z" fill="white"/>
<path fill-rule="evenodd" clip-rule="evenodd" d="M1143.74 350.055C1143.36 350.456 1142.72 350.473 1142.32 350.094L1103.28 313.135C1102.88 312.755 1102.86 312.122 1103.24 311.721C1103.62 311.32 1104.25 311.302 1104.65 311.682L1143.7 348.641C1144.1 349.021 1144.12 349.654 1143.74 350.055Z" fill="white"/>
<path fill-rule="evenodd" clip-rule="evenodd" d="M1133.85 347.516C1133.47 347.917 1132.84 347.934 1132.44 347.554L1099.87 316.731C1099.47 316.351 1099.45 315.718 1099.83 315.317C1100.21 314.916 1100.85 314.899 1101.25 315.278L1133.81 346.102C1134.21 346.482 1134.23 347.114 1133.85 347.516Z" fill="white"/>
<path fill-rule="evenodd" clip-rule="evenodd" d="M1123.65 344.685C1123.27 345.086 1122.64 345.103 1122.24 344.724L1096.47 320.328C1096.07 319.948 1096.05 319.315 1096.43 318.914C1096.81 318.513 1097.44 318.495 1097.84 318.875L1123.62 343.271C1124.02 343.651 1124.03 344.284 1123.65 344.685Z" fill="white"/>
<path fill-rule="evenodd" clip-rule="evenodd" d="M1113.61 342C1113.23 342.401 1112.6 342.418 1112.2 342.038L1093.06 323.924C1092.66 323.544 1092.65 322.912 1093.03 322.51C1093.41 322.109 1094.04 322.092 1094.44 322.472L1113.58 340.586C1113.98 340.966 1113.99 341.599 1113.61 342Z" fill="white"/>
<path fill-rule="evenodd" clip-rule="evenodd" d="M1103.73 339.461C1103.35 339.862 1102.71 339.879 1102.31 339.499L1103 338.773L1103.69 338.047C1104.09 338.427 1104.11 339.06 1103.73 339.461ZM1103 338.773C1103.69 338.047 1103.69 338.047 1103.69 338.047L1091.03 326.068C1090.63 325.688 1090 325.706 1089.62 326.107C1089.24 326.508 1089.26 327.141 1089.66 327.521L1102.31 339.499C1102.31 339.499 1102.31 339.499 1103 338.773Z" fill="white"/>
<path fill-rule="evenodd" clip-rule="evenodd" d="M1093.53 336.63C1093.15 337.031 1092.52 337.048 1092.12 336.668L1086.26 331.117C1085.85 330.737 1085.84 330.105 1086.22 329.703C1086.6 329.302 1087.23 329.285 1087.63 329.665L1093.49 335.216C1093.9 335.596 1093.91 336.228 1093.53 336.63Z" fill="white"/>
<path fill-rule="evenodd" clip-rule="evenodd" d="M1085.54 334.568C1085.16 334.969 1084.52 334.986 1084.12 334.606L1083.54 334.051C1083.13 333.672 1083.12 333.039 1083.5 332.638C1083.88 332.236 1084.51 332.219 1084.91 332.599L1085.5 333.154C1085.9 333.534 1085.92 334.166 1085.54 334.568Z" fill="white"/>
</g>
<g filter="url(#filter7_d_1_1001)">
<path fill-rule="evenodd" clip-rule="evenodd" d="M1246.15 430.965C1245.75 430.582 1245.74 429.949 1246.12 429.551L1250.83 424.65C1251.22 424.252 1251.85 424.239 1252.25 424.622C1252.65 425.005 1252.66 425.638 1252.28 426.036L1247.56 430.937C1247.18 431.335 1246.55 431.348 1246.15 430.965Z" fill="white"/>
<path fill-rule="evenodd" clip-rule="evenodd" d="M1235.89 434.208C1235.5 433.825 1235.48 433.192 1235.87 432.794L1247.13 421.085C1247.51 420.687 1248.14 420.674 1248.54 421.057C1248.94 421.44 1248.95 422.073 1248.57 422.471L1237.31 434.181C1236.93 434.579 1236.29 434.591 1235.89 434.208Z" fill="white"/>
<path fill-rule="evenodd" clip-rule="evenodd" d="M1225.99 437.365C1225.59 436.983 1225.58 436.35 1225.96 435.951L1243.56 417.652C1243.94 417.254 1244.57 417.242 1244.97 417.624C1245.37 418.007 1245.38 418.64 1245 419.038L1227.4 437.338C1227.02 437.736 1226.38 437.748 1225.99 437.365Z" fill="white"/>
<path fill-rule="evenodd" clip-rule="evenodd" d="M1215.27 440.771C1214.87 440.386 1214.86 439.753 1215.25 439.357C1222.41 431.985 1235.86 417.944 1239.02 414.636C1239.41 414.23 1239.65 413.985 1239.69 413.935C1240.08 413.537 1240.71 413.525 1241.11 413.908C1241.51 414.29 1241.52 414.923 1241.14 415.322C1241.09 415.37 1240.86 415.61 1240.48 416.009C1237.33 419.292 1223.86 433.366 1216.68 440.751C1216.29 441.147 1215.66 441.156 1215.27 440.771Z" fill="white"/>
<path fill-rule="evenodd" clip-rule="evenodd" d="M1205.82 443.773C1205.42 443.391 1205.41 442.758 1205.79 442.359L1236.28 410.654C1236.66 410.256 1237.3 410.244 1237.69 410.627C1238.09 411.01 1238.11 411.643 1237.72 412.041L1207.23 443.746C1206.85 444.144 1206.22 444.156 1205.82 443.773Z" fill="white"/>
<path fill-rule="evenodd" clip-rule="evenodd" d="M1196.06 446.773C1195.66 446.39 1195.65 445.757 1196.03 445.359L1232.71 407.221C1233.09 406.823 1233.73 406.811 1234.13 407.194C1234.52 407.577 1234.54 408.21 1234.15 408.608L1197.48 446.746C1197.09 447.144 1196.46 447.156 1196.06 446.773Z" fill="white"/>
<path fill-rule="evenodd" clip-rule="evenodd" d="M1186.16 449.927C1185.76 449.544 1185.75 448.911 1186.13 448.513L1229.14 403.789C1229.52 403.391 1230.16 403.378 1230.56 403.761C1230.95 404.144 1230.97 404.777 1230.58 405.175L1187.57 449.899C1187.19 450.297 1186.56 450.31 1186.16 449.927Z" fill="white"/>
<path fill-rule="evenodd" clip-rule="evenodd" d="M1188.33 440.52C1187.94 440.138 1187.92 439.504 1188.31 439.106L1225.57 400.356C1225.96 399.958 1226.59 399.945 1226.99 400.328C1227.38 400.711 1227.4 401.344 1227.01 401.742L1189.75 440.493C1189.36 440.891 1188.73 440.903 1188.33 440.52Z" fill="white"/>
<path fill-rule="evenodd" clip-rule="evenodd" d="M1190.95 430.654C1190.55 430.272 1190.54 429.639 1190.92 429.241L1222 396.923C1222.39 396.525 1223.02 396.512 1223.42 396.895C1223.82 397.278 1223.83 397.911 1223.44 398.309L1192.36 430.627C1191.98 431.025 1191.35 431.037 1190.95 430.654Z" fill="white"/>
<path fill-rule="evenodd" clip-rule="evenodd" d="M1193.86 420.482C1193.46 420.099 1193.45 419.466 1193.83 419.068L1218.43 393.49C1218.82 393.092 1219.45 393.079 1219.85 393.462C1220.25 393.845 1220.26 394.478 1219.88 394.876L1195.28 420.455C1194.89 420.853 1194.26 420.865 1193.86 420.482Z" fill="white"/>
<path fill-rule="evenodd" clip-rule="evenodd" d="M1196.63 410.464C1196.23 410.081 1196.22 409.448 1196.6 409.05L1214.86 390.057C1215.25 389.659 1215.88 389.647 1216.28 390.03C1216.68 390.413 1216.69 391.046 1216.31 391.444L1198.04 410.436C1197.66 410.834 1197.02 410.847 1196.63 410.464Z" fill="white"/>
<path fill-rule="evenodd" clip-rule="evenodd" d="M1199.24 400.598C1198.85 400.215 1198.83 399.582 1199.22 399.184L1199.94 399.877L1200.66 400.57C1200.27 400.968 1199.64 400.981 1199.24 400.598ZM1199.94 399.877C1200.66 400.57 1200.66 400.57 1200.66 400.57L1212.74 388.011C1213.12 387.613 1213.11 386.979 1212.71 386.597C1212.31 386.214 1211.68 386.226 1211.29 386.624L1199.22 399.184C1199.22 399.184 1199.22 399.184 1199.94 399.877Z" fill="white"/>
<path fill-rule="evenodd" clip-rule="evenodd" d="M1202.16 390.426C1201.76 390.043 1201.74 389.41 1202.13 389.012L1207.72 383.192C1208.11 382.793 1208.74 382.781 1209.14 383.164C1209.54 383.547 1209.55 384.18 1209.17 384.578L1203.57 390.398C1203.19 390.796 1202.55 390.809 1202.16 390.426Z" fill="white"/>
<path fill-rule="evenodd" clip-rule="evenodd" d="M1204.28 382.446C1203.88 382.063 1203.87 381.43 1204.25 381.032L1204.81 380.45C1205.2 380.051 1205.83 380.039 1206.23 380.422C1206.62 380.805 1206.64 381.438 1206.25 381.836L1205.69 382.418C1205.31 382.816 1204.68 382.828 1204.28 382.446Z" fill="white"/>
</g>
<g filter="url(#filter8_d_1_1001)">
<path fill-rule="evenodd" clip-rule="evenodd" d="M704.148 28.965C703.75 28.5822 703.738 27.9492 704.121 27.5511L708.834 22.6498C709.217 22.2517 709.85 22.2394 710.248 22.6222C710.646 23.005 710.659 23.6381 710.276 24.0362L705.562 28.9374C705.179 29.3355 704.546 29.3479 704.148 28.965Z" fill="white"/>
<path fill-rule="evenodd" clip-rule="evenodd" d="M693.894 32.2084C693.496 31.8256 693.484 31.1926 693.867 30.7945L705.128 19.0851C705.511 18.687 706.144 18.6747 706.542 19.0575C706.94 19.4403 706.952 20.0734 706.569 20.4715L695.308 32.1808C694.926 32.5789 694.293 32.5913 693.894 32.2084Z" fill="white"/>
<path fill-rule="evenodd" clip-rule="evenodd" d="M683.987 35.3657C683.589 34.9828 683.576 34.3498 683.959 33.9517L701.558 15.6522C701.941 15.2542 702.574 15.2418 702.972 15.6246C703.37 16.0074 703.382 16.6405 702.999 17.0386L685.401 35.3381C685.018 35.7361 684.385 35.7485 683.987 35.3657Z" fill="white"/>
<path fill-rule="evenodd" clip-rule="evenodd" d="M673.266 38.771C672.87 38.386 672.861 37.7529 673.246 37.3569C680.414 29.985 693.856 15.9444 697.022 12.6366C697.412 12.23 697.646 11.9856 697.694 11.9357C698.076 11.5375 698.709 11.5251 699.107 11.9079C699.506 12.2907 699.518 12.9237 699.135 13.3218C699.089 13.3703 698.859 13.61 698.477 14.0095C695.334 17.2925 681.86 31.3665 674.68 38.7511C674.295 39.1471 673.662 39.156 673.266 38.771Z" fill="white"/>
<path fill-rule="evenodd" clip-rule="evenodd" d="M663.818 41.7736C663.42 41.3908 663.407 40.7578 663.79 40.3597L694.281 8.65463C694.664 8.25656 695.297 8.2442 695.695 8.62703C696.093 9.00985 696.105 9.6429 695.722 10.041L665.232 41.746C664.849 42.1441 664.216 42.1565 663.818 41.7736Z" fill="white"/>
<path fill-rule="evenodd" clip-rule="evenodd" d="M654.062 44.7734C653.664 44.3906 653.652 43.7575 654.035 43.3594L690.712 5.22144C691.095 4.82337 691.728 4.81101 692.126 5.19383C692.524 5.57666 692.537 6.20971 692.154 6.60778L655.476 44.7458C655.094 45.1439 654.461 45.1562 654.062 44.7734Z" fill="white"/>
<path fill-rule="evenodd" clip-rule="evenodd" d="M644.159 47.9269C643.761 47.5441 643.748 46.9111 644.131 46.513L687.142 1.78892C687.525 1.39085 688.158 1.37849 688.556 1.76132C688.954 2.14414 688.967 2.77719 688.584 3.17526L645.573 47.8993C645.19 48.2974 644.557 48.3098 644.159 47.9269Z" fill="white"/>
<path fill-rule="evenodd" clip-rule="evenodd" d="M646.333 38.5207C645.935 38.1379 645.923 37.5048 646.306 37.1068L683.572 -1.6439C683.955 -2.04198 684.588 -2.05434 684.986 -1.67151C685.384 -1.28868 685.397 -0.655638 685.014 -0.257565L647.747 38.4931C647.365 38.8912 646.731 38.9035 646.333 38.5207Z" fill="white"/>
<path fill-rule="evenodd" clip-rule="evenodd" d="M648.951 28.6547C648.553 28.2719 648.54 27.6389 648.923 27.2408L680.003 -5.07696C680.386 -5.47503 681.019 -5.48739 681.417 -5.10456C681.815 -4.72173 681.827 -4.08869 681.445 -3.69062L650.365 28.6271C649.982 29.0252 649.349 29.0376 648.951 28.6547Z" fill="white"/>
<path fill-rule="evenodd" clip-rule="evenodd" d="M651.862 18.4826C651.464 18.0998 651.452 17.4667 651.835 17.0687L676.433 -8.50981C676.816 -8.90789 677.449 -8.92025 677.847 -8.53742C678.245 -8.15459 678.258 -7.52155 677.875 -7.12348L653.276 18.455C652.893 18.8531 652.26 18.8654 651.862 18.4826Z" fill="white"/>
<path fill-rule="evenodd" clip-rule="evenodd" d="M654.626 8.46406C654.228 8.08123 654.216 7.44819 654.599 7.05011L672.864 -11.9423C673.247 -12.3403 673.88 -12.3527 674.278 -11.9699C674.676 -11.5871 674.688 -10.954 674.305 -10.5559L656.04 8.43645C655.658 8.83452 655.024 8.84688 654.626 8.46406Z" fill="white"/>
</g>
<g filter="url(#filter9_d_1_1001)">
<path fill-rule="evenodd" clip-rule="evenodd" d="M1238.37 687.413C1237.91 687.719 1237.29 687.596 1236.99 687.136L1230.32 677.155C1230.02 676.696 1230.14 676.075 1230.6 675.768C1231.06 675.461 1231.68 675.585 1231.99 676.045L1238.65 686.026C1238.96 686.485 1238.83 687.106 1238.37 687.413Z" fill="white"/>
<path fill-rule="evenodd" clip-rule="evenodd" d="M1239.07 706.988C1238.61 707.295 1237.99 707.171 1237.68 706.711L1221.77 682.866C1221.46 682.406 1221.59 681.785 1222.05 681.479C1222.5 681.172 1223.13 681.296 1223.43 681.756L1239.35 705.601C1239.65 706.06 1239.53 706.681 1239.07 706.988Z" fill="white"/>
<path fill-rule="evenodd" clip-rule="evenodd" d="M1239.79 725.906C1239.33 726.213 1238.71 726.089 1238.4 725.629L1213.53 688.363C1213.22 687.904 1213.35 687.283 1213.81 686.977C1214.27 686.67 1214.89 686.794 1215.19 687.253L1240.07 724.519C1240.37 724.979 1240.25 725.599 1239.79 725.906Z" fill="white"/>
<path fill-rule="evenodd" clip-rule="evenodd" d="M1240.55 746.374C1240.09 746.678 1239.47 746.55 1239.16 746.089C1229.18 730.929 1210.06 702.435 1205.56 695.734C1205.01 694.912 1204.68 694.418 1204.61 694.317C1204.3 693.857 1204.43 693.236 1204.89 692.93C1205.35 692.623 1205.97 692.747 1206.27 693.206C1206.34 693.305 1206.67 693.793 1207.21 694.606C1211.69 701.275 1230.84 729.813 1240.84 744.989C1241.14 745.45 1241.01 746.07 1240.55 746.374Z" fill="white"/>
<path fill-rule="evenodd" clip-rule="evenodd" d="M1241.22 764.415C1240.76 764.722 1240.14 764.598 1239.83 764.138L1196.74 699.573C1196.43 699.113 1196.55 698.492 1197.01 698.186C1197.47 697.879 1198.09 698.003 1198.4 698.463L1241.49 763.028C1241.8 763.488 1241.68 764.109 1241.22 764.415Z" fill="white"/>
<path fill-rule="evenodd" clip-rule="evenodd" d="M1241.72 783.013C1241.26 783.32 1240.64 783.196 1240.33 782.736L1188.5 705.07C1188.19 704.611 1188.32 703.99 1188.78 703.683C1189.23 703.377 1189.86 703.501 1190.16 703.96L1242 781.626C1242.3 782.085 1242.18 782.706 1241.72 783.013Z" fill="white"/>
<path fill-rule="evenodd" clip-rule="evenodd" d="M1242.43 801.923C1241.97 802.23 1241.35 802.106 1241.05 801.647L1180.26 710.568C1179.95 710.109 1180.08 709.488 1180.54 709.181C1181 708.875 1181.62 708.999 1181.92 709.458L1242.71 800.536C1243.02 800.996 1242.89 801.617 1242.43 801.923Z" fill="white"/>
<path fill-rule="evenodd" clip-rule="evenodd" d="M1226.08 795.257C1225.62 795.564 1225 795.44 1224.69 794.981L1172.02 716.067C1171.72 715.608 1171.84 714.987 1172.3 714.68C1172.76 714.374 1173.38 714.497 1173.69 714.957L1226.35 793.871C1226.66 794.33 1226.54 794.951 1226.08 795.257Z" fill="white"/>
<path fill-rule="evenodd" clip-rule="evenodd" d="M1209.09 787.655C1208.64 787.962 1208.01 787.838 1207.71 787.379L1163.78 721.565C1163.48 721.106 1163.6 720.485 1164.06 720.179C1164.52 719.872 1165.14 719.996 1165.45 720.455L1209.37 786.269C1209.68 786.728 1209.55 787.349 1209.09 787.655Z" fill="white"/>
<path fill-rule="evenodd" clip-rule="evenodd" d="M1191.7 779.43C1191.24 779.737 1190.62 779.613 1190.31 779.153L1155.54 727.064C1155.24 726.605 1155.36 725.984 1155.82 725.677C1156.28 725.371 1156.9 725.494 1157.21 725.954L1191.97 778.043C1192.28 778.502 1192.16 779.123 1191.7 779.43Z" fill="white"/>
<path fill-rule="evenodd" clip-rule="evenodd" d="M1174.51 771.516C1174.05 771.823 1173.43 771.699 1173.12 771.24L1147.31 732.563C1147 732.103 1147.12 731.482 1147.58 731.176C1148.04 730.869 1148.66 730.993 1148.97 731.452L1174.78 770.129C1175.09 770.589 1174.97 771.21 1174.51 771.516Z" fill="white"/>
<path fill-rule="evenodd" clip-rule="evenodd" d="M1157.52 763.914C1157.07 764.22 1156.44 764.097 1156.14 763.637L1156.97 763.082L1157.8 762.527C1158.11 762.986 1157.98 763.607 1157.52 763.914ZM1156.97 763.082C1157.8 762.527 1157.8 762.527 1157.8 762.527L1140.73 736.95C1140.42 736.491 1139.8 736.367 1139.34 736.674C1138.88 736.98 1138.76 737.601 1139.07 738.06L1156.14 763.637C1156.14 763.637 1156.14 763.637 1156.97 763.082Z" fill="white"/>
<path fill-rule="evenodd" clip-rule="evenodd" d="M1140.13 755.689C1139.67 755.995 1139.05 755.871 1138.74 755.412L1130.83 743.559C1130.52 743.1 1130.65 742.479 1131.11 742.172C1131.57 741.866 1132.19 741.99 1132.49 742.449L1140.4 754.302C1140.71 754.761 1140.59 755.382 1140.13 755.689Z" fill="white"/>
<path fill-rule="evenodd" clip-rule="evenodd" d="M1126.39 749.525C1125.94 749.832 1125.31 749.708 1125.01 749.248L1124.22 748.063C1123.91 747.604 1124.03 746.983 1124.49 746.676C1124.95 746.37 1125.57 746.493 1125.88 746.953L1126.67 748.138C1126.98 748.597 1126.85 749.218 1126.39 749.525Z" fill="white"/>
</g>
<g filter="url(#filter10_d_1_1001)">
<path fill-rule="evenodd" clip-rule="evenodd" d="M253.824 34.9089C253.364 35.2155 252.743 35.0916 252.437 34.6323L248.662 28.9762C248.355 28.5169 248.479 27.8959 248.938 27.5894C249.398 27.2828 250.019 27.4066 250.325 27.866L254.1 33.522C254.407 33.9814 254.283 34.6023 253.824 34.9089Z" fill="white"/>
<path fill-rule="evenodd" clip-rule="evenodd" d="M254.789 45.6208C254.33 45.9274 253.709 45.8035 253.402 45.3442L244.384 31.8317C244.077 31.3723 244.201 30.7514 244.661 30.4448C245.12 30.1382 245.741 30.2621 246.048 30.7214L255.066 44.2339C255.373 44.6933 255.249 45.3142 254.789 45.6208Z" fill="white"/>
<path fill-rule="evenodd" clip-rule="evenodd" d="M255.746 55.9746C255.287 56.2811 254.666 56.1573 254.359 55.6979L240.265 34.5805C239.958 34.1212 240.082 33.5002 240.542 33.1936C241.001 32.8871 241.622 33.0109 241.929 33.4703L256.023 54.5877C256.329 55.047 256.205 55.668 255.746 55.9746Z" fill="white"/>
<path fill-rule="evenodd" clip-rule="evenodd" d="M256.77 67.1773C256.309 67.4814 255.688 67.3541 255.384 66.8931C249.723 58.3094 238.896 42.1663 236.346 38.3633C236.032 37.8958 235.844 37.6148 235.805 37.5572C235.499 37.0979 235.622 36.4769 236.082 36.1703C236.541 35.8636 237.162 35.9874 237.469 36.4467C237.506 36.5026 237.691 36.7783 237.999 37.2376C240.531 41.0124 251.383 57.1936 257.054 65.792C257.358 66.253 257.231 66.8732 256.77 67.1773Z" fill="white"/>
<path fill-rule="evenodd" clip-rule="evenodd" d="M257.674 77.0493C257.215 77.3559 256.594 77.232 256.287 76.7726L231.869 40.1854C231.562 39.726 231.686 39.1051 232.145 38.7985C232.605 38.4919 233.225 38.6158 233.532 39.0751L257.951 75.6624C258.257 76.1217 258.133 76.7427 257.674 77.0493Z" fill="white"/>
<path fill-rule="evenodd" clip-rule="evenodd" d="M258.509 87.2216C258.05 87.5282 257.429 87.4044 257.122 86.945L227.749 42.9342C227.442 42.4749 227.566 41.8539 228.026 41.5473C228.485 41.2407 229.106 41.3646 229.412 41.824L258.786 85.8347C259.092 86.2941 258.968 86.915 258.509 87.2216Z" fill="white"/>
<path fill-rule="evenodd" clip-rule="evenodd" d="M259.462 97.5708C259.003 97.8773 258.382 97.7535 258.075 97.2941L223.63 45.6831C223.323 45.2237 223.447 44.6028 223.906 44.2962C224.366 43.9896 224.987 44.1135 225.293 44.5728L259.739 96.1839C260.045 96.6432 259.922 97.2642 259.462 97.5708Z" fill="white"/>
<path fill-rule="evenodd" clip-rule="evenodd" d="M250.743 93.4267C250.284 93.7333 249.663 93.6094 249.356 93.1501L219.511 48.4323C219.204 47.9729 219.328 47.352 219.788 47.0454C220.247 46.7388 220.868 46.8627 221.175 47.322L251.02 92.0398C251.326 92.4992 251.202 93.1201 250.743 93.4267Z" fill="white"/>
<path fill-rule="evenodd" clip-rule="evenodd" d="M241.669 88.7524C241.209 89.059 240.588 88.9351 240.282 88.4758L215.391 51.1815C215.085 50.7221 215.209 50.1012 215.668 49.7946C216.127 49.488 216.748 49.6119 217.055 50.0712L241.945 87.3655C242.252 87.8249 242.128 88.4458 241.669 88.7524Z" fill="white"/>
<path fill-rule="evenodd" clip-rule="evenodd" d="M232.359 83.7248C231.9 84.0314 231.279 83.9075 230.972 83.4482L211.272 53.9309C210.966 53.4716 211.089 52.8506 211.549 52.544C212.008 52.2374 212.629 52.3613 212.936 52.8207L232.636 82.3379C232.942 82.7973 232.819 83.4182 232.359 83.7248Z" fill="white"/>
<path fill-rule="evenodd" clip-rule="evenodd" d="M223.167 78.8737C222.708 79.1803 222.087 79.0565 221.78 78.5971L207.153 56.6801C206.846 56.2207 206.97 55.5998 207.429 55.2932C207.889 54.9866 208.51 55.1105 208.816 55.5699L223.444 77.4868C223.75 77.9462 223.627 78.5671 223.167 78.8737Z" fill="white"/>
<path fill-rule="evenodd" clip-rule="evenodd" d="M214.094 74.1992C213.634 74.5058 213.013 74.3819 212.707 73.9225L213.538 73.3674L214.37 72.8123C214.677 73.2716 214.553 73.8926 214.094 74.1992ZM213.538 73.3674C214.37 72.8123 214.37 72.8124 214.37 72.8123L204.697 58.3188C204.39 57.8594 203.77 57.7355 203.31 58.0421C202.851 58.3487 202.727 58.9697 203.034 59.429L212.707 73.9225C212.707 73.9226 212.707 73.9225 213.538 73.3674Z" fill="white"/>
<path fill-rule="evenodd" clip-rule="evenodd" d="M204.784 69.1716C204.325 69.4782 203.704 69.3543 203.397 68.8949L198.914 62.1784C198.608 61.719 198.732 61.0981 199.191 60.7915C199.65 60.4849 200.271 60.6088 200.578 61.0682L205.061 67.7847C205.367 68.2441 205.243 68.865 204.784 69.1716Z" fill="white"/>
<path fill-rule="evenodd" clip-rule="evenodd" d="M197.446 65.3828C196.987 65.6894 196.366 65.5655 196.059 65.1061L195.611 64.4345C195.304 63.9751 195.428 63.3542 195.888 63.0476C196.347 62.741 196.968 62.8649 197.274 63.3242L197.723 63.9959C198.029 64.4552 197.905 65.0762 197.446 65.3828Z" fill="white"/>
</g>
<g filter="url(#filter11_d_1_1001)">
<path fill-rule="evenodd" clip-rule="evenodd" d="M60.5021 598.14C60.0843 597.779 60.0382 597.148 60.3993 596.73L62.7531 594.006C63.1142 593.588 63.7457 593.542 64.1635 593.903C64.5814 594.264 64.6275 594.896 64.2664 595.314L61.9126 598.038C61.5515 598.455 60.92 598.501 60.5021 598.14Z" fill="white"/>
<path fill-rule="evenodd" clip-rule="evenodd" d="M55.2873 600.243C54.8694 599.882 54.8234 599.25 55.1845 598.832L60.8077 592.325C61.1688 591.907 61.8003 591.861 62.2182 592.222C62.6361 592.583 62.6821 593.214 62.321 593.632L56.6978 600.14C56.3367 600.558 55.7052 600.604 55.2873 600.243Z" fill="white"/>
<path fill-rule="evenodd" clip-rule="evenodd" d="M50.2487 602.286C49.8308 601.925 49.7848 601.294 50.1459 600.876L58.9339 590.706C59.295 590.288 59.9265 590.242 60.3444 590.603C60.7623 590.964 60.8083 591.596 60.4472 592.014L51.6592 602.184C51.2981 602.602 50.6666 602.648 50.2487 602.286Z" fill="white"/>
<path fill-rule="evenodd" clip-rule="evenodd" d="M44.7942 604.49C44.3782 604.127 44.3354 603.495 44.6987 603.079C48.2767 598.982 54.982 591.188 56.5677 589.345C56.7634 589.118 56.8811 588.981 56.9054 588.953C57.2664 588.535 57.8979 588.489 58.3158 588.85C58.7338 589.211 58.7799 589.842 58.4188 590.26C58.3958 590.287 58.2821 590.419 58.0925 590.64C56.5279 592.458 49.7942 600.285 46.2052 604.395C45.8419 604.811 45.2102 604.854 44.7942 604.49Z" fill="white"/>
<path fill-rule="evenodd" clip-rule="evenodd" d="M39.9914 606.437C39.5735 606.076 39.5275 605.444 39.8886 605.026L55.1144 587.406C55.4755 586.988 56.107 586.942 56.5249 587.303C56.9428 587.664 56.9888 588.295 56.6277 588.713L41.4019 606.334C41.0408 606.752 40.4093 606.798 39.9914 606.437Z" fill="white"/>
<path fill-rule="evenodd" clip-rule="evenodd" d="M35.029 608.393C34.6111 608.032 34.5651 607.4 34.9262 606.982L53.2413 585.787C53.6024 585.369 54.2339 585.323 54.6518 585.684C55.0697 586.045 55.1157 586.676 54.7546 587.094L36.4395 608.29C36.0784 608.708 35.4469 608.754 35.029 608.393Z" fill="white"/>
<path fill-rule="evenodd" clip-rule="evenodd" d="M29.9924 610.434C29.5745 610.073 29.5285 609.441 29.8895 609.023L51.3676 584.167C51.7287 583.75 52.3602 583.704 52.7781 584.065C53.1959 584.426 53.242 585.057 52.8809 585.475L31.4028 610.331C31.0417 610.749 30.4103 610.795 29.9924 610.434Z" fill="white"/>
<path fill-rule="evenodd" clip-rule="evenodd" d="M30.9875 605.495C30.5696 605.134 30.5236 604.503 30.8847 604.085L49.4941 582.549C49.8552 582.131 50.4866 582.085 50.9045 582.446C51.3224 582.807 51.3685 583.438 51.0074 583.856L32.398 605.392C32.0369 605.81 31.4054 605.856 30.9875 605.495Z" fill="white"/>
<path fill-rule="evenodd" clip-rule="evenodd" d="M32.2028 600.301C31.7849 599.94 31.7389 599.309 32.1 598.891L47.6201 580.93C47.9812 580.512 48.6127 580.466 49.0306 580.827C49.4484 581.188 49.4945 581.819 49.1334 582.237L33.6133 600.198C33.2522 600.616 32.6207 600.662 32.2028 600.301Z" fill="white"/>
<path fill-rule="evenodd" clip-rule="evenodd" d="M33.5656 594.937C33.1477 594.576 33.1017 593.944 33.4628 593.526L45.7465 579.311C46.1076 578.893 46.739 578.847 47.1569 579.208C47.5748 579.569 47.6208 580.2 47.2598 580.618L34.9761 594.834C34.615 595.252 33.9835 595.298 33.5656 594.937Z" fill="white"/>
<path fill-rule="evenodd" clip-rule="evenodd" d="M34.8552 589.657C34.4373 589.296 34.3912 588.665 34.7523 588.247L43.8731 577.692C44.2342 577.274 44.8657 577.228 45.2836 577.589C45.7015 577.95 45.7475 578.581 45.3864 578.999L36.2656 589.555C35.9045 589.972 35.2731 590.018 34.8552 589.657Z" fill="white"/>
<path fill-rule="evenodd" clip-rule="evenodd" d="M36.071 584.463C35.6531 584.102 35.6071 583.471 35.9682 583.053L36.7248 583.706L37.4815 584.36C37.1204 584.778 36.4889 584.824 36.071 584.463ZM36.7248 583.706C37.4815 584.36 37.4814 584.36 37.4815 584.36L43.513 577.38C43.8741 576.962 43.828 576.331 43.4101 575.97C42.9923 575.609 42.3608 575.655 41.9997 576.073L35.9682 583.053C35.9681 583.053 35.9682 583.053 36.7248 583.706Z" fill="white"/>
<path fill-rule="evenodd" clip-rule="evenodd" d="M37.4338 579.099C37.0159 578.738 36.9699 578.106 37.331 577.688L40.1261 574.454C40.4871 574.036 41.1186 573.99 41.5365 574.351C41.9544 574.712 42.0004 575.343 41.6393 575.761L38.8443 578.996C38.4832 579.414 37.8517 579.46 37.4338 579.099Z" fill="white"/>
<path fill-rule="evenodd" clip-rule="evenodd" d="M38.4211 574.897C38.0032 574.536 37.9572 573.904 38.3183 573.486L38.5978 573.163C38.9589 572.745 39.5904 572.699 40.0082 573.06C40.4261 573.421 40.4722 574.053 40.1111 574.471L39.8316 574.794C39.4705 575.212 38.839 575.258 38.4211 574.897Z" fill="white"/>
</g>
<g filter="url(#filter12_d_1_1001)">
<path fill-rule="evenodd" clip-rule="evenodd" d="M530.502 815.14C530.084 814.779 530.038 814.148 530.399 813.73L532.753 811.006C533.114 810.588 533.746 810.542 534.164 810.903C534.581 811.264 534.627 811.896 534.266 812.314L531.913 815.038C531.552 815.455 530.92 815.501 530.502 815.14Z" fill="white"/>
<path fill-rule="evenodd" clip-rule="evenodd" d="M525.287 817.243C524.869 816.882 524.823 816.25 525.184 815.832L530.808 809.325C531.169 808.907 531.8 808.861 532.218 809.222C532.636 809.583 532.682 810.214 532.321 810.632L526.698 817.14C526.337 817.558 525.705 817.604 525.287 817.243Z" fill="white"/>
<path fill-rule="evenodd" clip-rule="evenodd" d="M520.249 819.286C519.831 818.925 519.785 818.294 520.146 817.876L528.934 807.706C529.295 807.288 529.927 807.242 530.344 807.603C530.762 807.964 530.808 808.596 530.447 809.014L521.659 819.184C521.298 819.602 520.667 819.648 520.249 819.286Z" fill="white"/>
<path fill-rule="evenodd" clip-rule="evenodd" d="M514.794 821.49C514.378 821.127 514.335 820.495 514.699 820.079C518.277 815.982 524.982 808.188 526.568 806.345C526.763 806.118 526.881 805.981 526.905 805.953C527.266 805.535 527.898 805.489 528.316 805.85C528.734 806.211 528.78 806.842 528.419 807.26C528.396 807.287 528.282 807.419 528.093 807.64C526.528 809.458 519.794 817.285 516.205 821.395C515.842 821.811 515.21 821.854 514.794 821.49Z" fill="white"/>
<path fill-rule="evenodd" clip-rule="evenodd" d="M509.991 823.437C509.574 823.076 509.527 822.444 509.889 822.026L525.114 804.406C525.476 803.988 526.107 803.942 526.525 804.303C526.943 804.664 526.989 805.295 526.628 805.713L511.402 823.334C511.041 823.752 510.409 823.798 509.991 823.437Z" fill="white"/>
<path fill-rule="evenodd" clip-rule="evenodd" d="M505.029 825.393C504.611 825.032 504.565 824.4 504.926 823.982L523.241 802.787C523.602 802.369 524.234 802.323 524.652 802.684C525.07 803.045 525.116 803.676 524.755 804.094L506.439 825.29C506.078 825.708 505.447 825.754 505.029 825.393Z" fill="white"/>
<path fill-rule="evenodd" clip-rule="evenodd" d="M499.992 827.434C499.574 827.073 499.528 826.441 499.89 826.023L521.368 801.167C521.729 800.75 522.36 800.704 522.778 801.065C523.196 801.426 523.242 802.057 522.881 802.475L501.403 827.331C501.042 827.749 500.41 827.795 499.992 827.434Z" fill="white"/>
<path fill-rule="evenodd" clip-rule="evenodd" d="M500.987 822.495C500.57 822.134 500.524 821.503 500.885 821.085L519.494 799.549C519.855 799.131 520.487 799.085 520.905 799.446C521.322 799.807 521.368 800.438 521.007 800.856L502.398 822.392C502.037 822.81 501.405 822.856 500.987 822.495Z" fill="white"/>
<path fill-rule="evenodd" clip-rule="evenodd" d="M502.203 817.301C501.785 816.94 501.739 816.309 502.1 815.891L517.62 797.93C517.981 797.512 518.613 797.466 519.031 797.827C519.448 798.188 519.494 798.819 519.133 799.237L503.613 817.198C503.252 817.616 502.621 817.662 502.203 817.301Z" fill="white"/>
<path fill-rule="evenodd" clip-rule="evenodd" d="M503.566 811.937C503.148 811.576 503.102 810.944 503.463 810.526L515.746 796.311C516.108 795.893 516.739 795.847 517.157 796.208C517.575 796.569 517.621 797.2 517.26 797.618L504.976 811.834C504.615 812.252 503.984 812.298 503.566 811.937Z" fill="white"/>
<path fill-rule="evenodd" clip-rule="evenodd" d="M504.855 806.657C504.437 806.296 504.391 805.665 504.752 805.247L513.873 794.692C514.234 794.274 514.866 794.228 515.284 794.589C515.701 794.95 515.748 795.581 515.386 795.999L506.266 806.555C505.905 806.972 505.273 807.018 504.855 806.657Z" fill="white"/>
<path fill-rule="evenodd" clip-rule="evenodd" d="M506.071 801.463C505.653 801.102 505.607 800.471 505.968 800.053L506.725 800.706L507.481 801.36C507.12 801.778 506.489 801.824 506.071 801.463ZM506.725 800.706C507.481 801.36 507.481 801.36 507.481 801.36L513.513 794.38C513.874 793.962 513.828 793.331 513.41 792.97C512.992 792.609 512.361 792.655 512 793.073L505.968 800.053C505.968 800.053 505.968 800.053 506.725 800.706Z" fill="white"/>
<path fill-rule="evenodd" clip-rule="evenodd" d="M507.434 796.099C507.016 795.738 506.97 795.106 507.331 794.688L510.126 791.454C510.487 791.036 511.119 790.99 511.537 791.351C511.954 791.712 512 792.343 511.639 792.761L508.844 795.996C508.483 796.414 507.852 796.46 507.434 796.099Z" fill="white"/>
<path fill-rule="evenodd" clip-rule="evenodd" d="M508.421 791.897C508.003 791.536 507.957 790.904 508.318 790.486L508.598 790.163C508.959 789.745 509.59 789.699 510.008 790.06C510.426 790.421 510.472 791.053 510.111 791.471L509.832 791.794C509.47 792.212 508.839 792.258 508.421 791.897Z" fill="white"/>
</g>
<g filter="url(#filter13_d_1_1001)">
<path fill-rule="evenodd" clip-rule="evenodd" d="M863.893 97.8331C864.355 98.1367 864.483 98.7568 864.179 99.2182L862.2 102.226C861.897 102.687 861.277 102.815 860.815 102.511C860.354 102.208 860.226 101.588 860.53 101.126L862.508 98.1188C862.812 97.6575 863.432 97.5296 863.893 97.8331Z" fill="white"/>
<path fill-rule="evenodd" clip-rule="evenodd" d="M868.79 95.0692C869.252 95.3728 869.38 95.9929 869.076 96.4543L864.348 103.639C864.045 104.1 863.425 104.228 862.963 103.925C862.502 103.621 862.374 103.001 862.678 102.54L867.405 95.3549C867.709 94.8935 868.329 94.7656 868.79 95.0692Z" fill="white"/>
<path fill-rule="evenodd" clip-rule="evenodd" d="M873.52 92.3866C873.981 92.6902 874.109 93.3103 873.806 93.7717L866.417 105C866.114 105.461 865.493 105.589 865.032 105.286C864.571 104.982 864.443 104.362 864.746 103.901L872.135 92.6723C872.438 92.2109 873.059 92.083 873.52 92.3866Z" fill="white"/>
<path fill-rule="evenodd" clip-rule="evenodd" d="M878.641 89.4912C879.1 89.7972 879.225 90.4179 878.919 90.8777C875.905 95.4065 870.272 104.007 868.94 106.041C868.776 106.292 868.677 106.443 868.656 106.474C868.353 106.935 867.733 107.063 867.271 106.76C866.81 106.456 866.682 105.836 866.986 105.375C867.005 105.345 867.1 105.199 867.26 104.956C868.574 102.949 874.231 94.3124 877.254 89.7697C877.56 89.3099 878.181 89.1852 878.641 89.4912Z" fill="white"/>
<path fill-rule="evenodd" clip-rule="evenodd" d="M883.149 86.9357C883.611 87.2393 883.739 87.8594 883.435 88.3207L870.634 107.774C870.331 108.236 869.71 108.364 869.249 108.06C868.788 107.756 868.66 107.136 868.963 106.675L881.764 87.2214C882.068 86.76 882.688 86.6321 883.149 86.9357Z" fill="white"/>
<path fill-rule="evenodd" clip-rule="evenodd" d="M887.814 84.35C888.276 84.6536 888.404 85.2737 888.1 85.735L872.702 109.136C872.398 109.597 871.778 109.725 871.317 109.421C870.855 109.118 870.728 108.498 871.031 108.036L886.429 84.6357C886.733 84.1743 887.353 84.0464 887.814 84.35Z" fill="white"/>
<path fill-rule="evenodd" clip-rule="evenodd" d="M892.542 81.6701C893.003 81.9736 893.131 82.5938 892.828 83.0551L874.77 110.497C874.467 110.958 873.847 111.086 873.385 110.783C872.924 110.479 872.796 109.859 873.099 109.398L891.157 81.9557C891.46 81.4944 892.081 81.3665 892.542 81.6701Z" fill="white"/>
<path fill-rule="evenodd" clip-rule="evenodd" d="M892.199 86.6964C892.66 87 892.788 87.6201 892.485 88.0815L876.839 111.858C876.536 112.319 875.916 112.447 875.454 112.144C874.993 111.84 874.865 111.22 875.168 110.759L890.814 86.9821C891.118 86.5207 891.738 86.3928 892.199 86.6964Z" fill="white"/>
<path fill-rule="evenodd" clip-rule="evenodd" d="M891.67 92.0045C892.132 92.3081 892.26 92.9282 891.956 93.3896L878.908 113.219C878.604 113.68 877.984 113.808 877.523 113.505C877.061 113.201 876.933 112.581 877.237 112.12L890.285 92.2902C890.589 91.8288 891.209 91.7009 891.67 92.0045Z" fill="white"/>
<path fill-rule="evenodd" clip-rule="evenodd" d="M891.018 97.5009C891.479 97.8044 891.607 98.4246 891.304 98.8859L880.976 114.58C880.673 115.042 880.053 115.17 879.591 114.866C879.13 114.562 879.002 113.942 879.306 113.481L889.633 97.7865C889.937 97.3252 890.557 97.1973 891.018 97.5009Z" fill="white"/>
<path fill-rule="evenodd" clip-rule="evenodd" d="M890.427 102.903C890.889 103.207 891.016 103.827 890.713 104.288L883.045 115.941C882.741 116.403 882.121 116.531 881.66 116.227C881.198 115.923 881.07 115.303 881.374 114.842L889.042 103.189C889.346 102.727 889.966 102.599 890.427 102.903Z" fill="white"/>
<path fill-rule="evenodd" clip-rule="evenodd" d="M889.898 108.211C890.36 108.515 890.488 109.135 890.184 109.596L885.113 117.303C884.81 117.764 884.189 117.892 883.728 117.588C883.267 117.285 883.139 116.665 883.442 116.203L888.513 108.497C888.817 108.036 889.437 107.908 889.898 108.211Z" fill="white"/>
<path fill-rule="evenodd" clip-rule="evenodd" d="M889.246 113.707C889.707 114.011 889.835 114.631 889.532 115.092L887.182 118.664C886.878 119.125 886.258 119.253 885.797 118.949C885.335 118.646 885.207 118.026 885.511 117.564L887.861 113.993C888.165 113.532 888.785 113.404 889.246 113.707Z" fill="white"/>
<path fill-rule="evenodd" clip-rule="evenodd" d="M888.814 118.002C889.276 118.306 889.404 118.926 889.1 119.387L888.865 119.744C888.561 120.206 887.941 120.334 887.48 120.03C887.019 119.726 886.891 119.106 887.194 118.645L887.429 118.288C887.733 117.826 888.353 117.698 888.814 118.002Z" fill="white"/>
</g>
<g filter="url(#filter14_d_1_1001)">
<path fill-rule="evenodd" clip-rule="evenodd" d="M330.893 117.833C331.355 118.136 331.483 118.757 331.179 119.218L329.2 122.225C328.897 122.687 328.277 122.815 327.815 122.511C327.354 122.207 327.226 121.587 327.53 121.126L329.508 118.119C329.812 117.657 330.432 117.529 330.893 117.833Z" fill="white"/>
<path fill-rule="evenodd" clip-rule="evenodd" d="M335.79 115.069C336.252 115.373 336.38 115.993 336.076 116.454L331.348 123.639C331.045 124.1 330.425 124.228 329.963 123.925C329.502 123.621 329.374 123.001 329.678 122.54L334.405 115.355C334.709 114.894 335.329 114.766 335.79 115.069Z" fill="white"/>
<path fill-rule="evenodd" clip-rule="evenodd" d="M340.52 112.387C340.981 112.69 341.109 113.31 340.806 113.772L333.417 125C333.114 125.461 332.493 125.589 332.032 125.286C331.571 124.982 331.443 124.362 331.746 123.901L339.135 112.672C339.438 112.211 340.059 112.083 340.52 112.387Z" fill="white"/>
<path fill-rule="evenodd" clip-rule="evenodd" d="M345.641 109.491C346.1 109.797 346.225 110.418 345.919 110.877C342.905 115.406 337.272 124.007 335.94 126.041C335.776 126.292 335.677 126.443 335.656 126.474C335.353 126.935 334.733 127.063 334.271 126.759C333.81 126.456 333.682 125.836 333.986 125.374C334.005 125.345 334.1 125.199 334.26 124.956C335.574 122.949 341.231 114.312 344.254 109.769C344.56 109.31 345.181 109.185 345.641 109.491Z" fill="white"/>
<path fill-rule="evenodd" clip-rule="evenodd" d="M350.149 106.936C350.611 107.239 350.739 107.859 350.435 108.321L337.634 127.774C337.331 128.236 336.71 128.364 336.249 128.06C335.788 127.756 335.66 127.136 335.963 126.675L348.764 107.221C349.068 106.76 349.688 106.632 350.149 106.936Z" fill="white"/>
<path fill-rule="evenodd" clip-rule="evenodd" d="M354.815 104.35C355.276 104.653 355.404 105.273 355.101 105.735L339.702 129.136C339.399 129.597 338.779 129.725 338.317 129.421C337.856 129.118 337.728 128.498 338.032 128.036L353.43 104.635C353.733 104.174 354.353 104.046 354.815 104.35Z" fill="white"/>
<path fill-rule="evenodd" clip-rule="evenodd" d="M359.542 101.67C360.004 101.974 360.132 102.594 359.828 103.055L341.771 130.497C341.467 130.958 340.847 131.086 340.386 130.783C339.924 130.479 339.796 129.859 340.1 129.398L358.157 101.956C358.461 101.494 359.081 101.366 359.542 101.67Z" fill="white"/>
<path fill-rule="evenodd" clip-rule="evenodd" d="M359.199 106.696C359.66 107 359.788 107.62 359.485 108.081L343.839 131.858C343.536 132.319 342.916 132.447 342.454 132.144C341.993 131.84 341.865 131.22 342.168 130.759L357.814 106.982C358.118 106.52 358.738 106.393 359.199 106.696Z" fill="white"/>
<path fill-rule="evenodd" clip-rule="evenodd" d="M358.67 112.004C359.132 112.308 359.26 112.928 358.956 113.389L345.908 133.219C345.604 133.68 344.984 133.808 344.523 133.505C344.061 133.201 343.933 132.581 344.237 132.12L357.285 112.29C357.589 111.829 358.209 111.701 358.67 112.004Z" fill="white"/>
<path fill-rule="evenodd" clip-rule="evenodd" d="M358.018 117.501C358.48 117.804 358.608 118.424 358.304 118.886L347.977 134.58C347.673 135.042 347.053 135.169 346.592 134.866C346.13 134.562 346.003 133.942 346.306 133.481L356.633 117.786C356.937 117.325 357.557 117.197 358.018 117.501Z" fill="white"/>
<path fill-rule="evenodd" clip-rule="evenodd" d="M357.427 122.903C357.889 123.207 358.016 123.827 357.713 124.288L350.045 135.941C349.741 136.403 349.121 136.531 348.66 136.227C348.198 135.923 348.07 135.303 348.374 134.842L356.042 123.189C356.346 122.727 356.966 122.599 357.427 122.903Z" fill="white"/>
<path fill-rule="evenodd" clip-rule="evenodd" d="M356.899 128.211C357.36 128.515 357.488 129.135 357.185 129.596L356.349 129.047L355.514 128.497C355.817 128.036 356.437 127.908 356.899 128.211ZM356.349 129.047C355.514 128.497 355.514 128.497 355.514 128.497L350.443 136.203C350.139 136.665 350.267 137.285 350.729 137.588C351.19 137.892 351.81 137.764 352.114 137.303L357.185 129.596C357.185 129.596 357.185 129.596 356.349 129.047Z" fill="white"/>
<path fill-rule="evenodd" clip-rule="evenodd" d="M356.246 133.707C356.707 134.011 356.835 134.631 356.532 135.092L354.182 138.664C353.878 139.125 353.258 139.253 352.797 138.949C352.335 138.646 352.207 138.026 352.511 137.564L354.861 133.993C355.165 133.532 355.785 133.404 356.246 133.707Z" fill="white"/>
<path fill-rule="evenodd" clip-rule="evenodd" d="M355.814 138.002C356.276 138.306 356.404 138.926 356.1 139.387L355.865 139.744C355.561 140.206 354.941 140.334 354.48 140.03C354.019 139.726 353.891 139.106 354.194 138.645L354.429 138.288C354.733 137.826 355.353 137.698 355.814 138.002Z" fill="white"/>
</g>
<g filter="url(#filter15_d_1_1001)">
<path fill-rule="evenodd" clip-rule="evenodd" d="M70.8235 174.909C70.3641 175.215 69.7432 175.091 69.4366 174.632L65.6617 168.976C65.3552 168.517 65.479 167.896 65.9384 167.589C66.3978 167.283 67.0187 167.406 67.3253 167.866L71.1001 173.522C71.4067 173.981 71.2829 174.602 70.8235 174.909Z" fill="white"/>
<path fill-rule="evenodd" clip-rule="evenodd" d="M71.7893 185.621C71.33 185.927 70.709 185.803 70.4024 185.344L61.3841 171.831C61.0775 171.372 61.2013 170.751 61.6607 170.445C62.1201 170.138 62.741 170.262 63.0476 170.721L72.066 184.234C72.3726 184.693 72.2487 185.314 71.7893 185.621Z" fill="white"/>
<path fill-rule="evenodd" clip-rule="evenodd" d="M72.7459 195.974C72.2865 196.281 71.6656 196.157 71.359 195.698L57.265 174.58C56.9584 174.121 57.0823 173.5 57.5417 173.193C58.001 172.887 58.622 173.011 58.9286 173.47L73.0225 194.587C73.3291 195.047 73.2052 195.668 72.7459 195.974Z" fill="white"/>
<path fill-rule="evenodd" clip-rule="evenodd" d="M73.7696 207.177C73.3086 207.481 72.6883 207.354 72.3843 206.893C66.7232 198.309 55.8964 182.166 53.3458 178.363C53.0322 177.896 52.8438 177.615 52.8053 177.557C52.4987 177.098 52.6224 176.477 53.0818 176.17C53.5411 175.863 54.1621 175.987 54.4687 176.446C54.506 176.502 54.6909 176.778 54.9989 177.237C57.5306 181.012 68.3831 197.193 74.0539 205.792C74.3579 206.253 74.2307 206.873 73.7696 207.177Z" fill="white"/>
<path fill-rule="evenodd" clip-rule="evenodd" d="M74.6741 217.049C74.2147 217.356 73.5938 217.232 73.2872 216.772L48.8685 180.185C48.562 179.726 48.6858 179.105 49.1452 178.798C49.6046 178.492 50.2255 178.616 50.5321 179.075L74.9507 215.662C75.2573 216.122 75.1335 216.742 74.6741 217.049Z" fill="white"/>
<path fill-rule="evenodd" clip-rule="evenodd" d="M75.5091 227.221C75.0497 227.528 74.4288 227.404 74.1222 226.945L44.749 182.934C44.4424 182.475 44.5662 181.854 45.0256 181.547C45.485 181.241 46.1059 181.364 46.4125 181.824L75.7857 225.834C76.0923 226.294 75.9684 226.915 75.5091 227.221Z" fill="white"/>
<path fill-rule="evenodd" clip-rule="evenodd" d="M76.4622 237.571C76.0028 237.877 75.3819 237.753 75.0753 237.294L40.6296 185.683C40.323 185.223 40.4469 184.603 40.9062 184.296C41.3656 183.989 41.9866 184.113 42.2931 184.573L76.7388 236.184C77.0454 236.643 76.9216 237.264 76.4622 237.571Z" fill="white"/>
<path fill-rule="evenodd" clip-rule="evenodd" d="M67.7429 233.426C67.2836 233.733 66.6626 233.609 66.356 233.15L36.511 188.432C36.2044 187.973 36.3283 187.352 36.7876 187.045C37.247 186.739 37.8679 186.862 38.1745 187.322L68.0196 232.04C68.3262 232.499 68.2023 233.12 67.7429 233.426Z" fill="white"/>
<path fill-rule="evenodd" clip-rule="evenodd" d="M58.6687 228.752C58.2094 229.059 57.5884 228.935 57.2818 228.476L32.3913 191.181C32.0847 190.722 32.2086 190.101 32.6679 189.794C33.1273 189.488 33.7482 189.612 34.0548 190.071L58.9454 227.365C59.2519 227.825 59.1281 228.446 58.6687 228.752Z" fill="white"/>
<path fill-rule="evenodd" clip-rule="evenodd" d="M49.3592 223.725C48.8998 224.031 48.2788 223.907 47.9723 223.448L28.2722 193.931C27.9656 193.471 28.0894 192.85 28.5488 192.544C29.0082 192.237 29.6291 192.361 29.9357 192.82L49.6358 222.338C49.9424 222.797 49.8185 223.418 49.3592 223.725Z" fill="white"/>
<path fill-rule="evenodd" clip-rule="evenodd" d="M40.1673 218.873C39.7079 219.18 39.087 219.056 38.7804 218.597L24.1528 196.68C23.8462 196.221 23.97 195.6 24.4294 195.293C24.8888 194.986 25.5097 195.11 25.8163 195.57L40.4439 217.487C40.7505 217.946 40.6266 218.567 40.1673 218.873Z" fill="white"/>
<path fill-rule="evenodd" clip-rule="evenodd" d="M31.0935 214.199C30.6342 214.506 30.0132 214.382 29.7066 213.922L30.5384 213.367L31.3702 212.812C31.6768 213.271 31.5529 213.892 31.0935 214.199ZM30.5384 213.367C31.3702 212.812 31.3702 212.812 31.3702 212.812L21.6971 198.319C21.3905 197.859 20.7695 197.735 20.3102 198.042C19.8508 198.348 19.7269 198.969 20.0335 199.429L29.7066 213.922C29.7067 213.922 29.7066 213.922 30.5384 213.367Z" fill="white"/>
<path fill-rule="evenodd" clip-rule="evenodd" d="M21.784 209.171C21.3246 209.478 20.7037 209.354 20.3971 208.895L15.9144 202.178C15.6078 201.719 15.7317 201.098 16.191 200.791C16.6504 200.485 17.2713 200.609 17.5779 201.068L22.0606 207.784C22.3672 208.244 22.2433 208.865 21.784 209.171Z" fill="white"/>
<path fill-rule="evenodd" clip-rule="evenodd" d="M14.4461 205.383C13.9867 205.689 13.3658 205.565 13.0592 205.106L12.6109 204.434C12.3043 203.975 12.4282 203.354 12.8875 203.047C13.3469 202.741 13.9679 202.865 14.2744 203.324L14.7227 203.996C15.0293 204.455 14.9054 205.076 14.4461 205.383Z" fill="white"/>
</g>
<g filter="url(#filter16_d_1_1001)">
<path d="M25 323.5C25 327.642 21.6421 331 17.5 331C13.3579 331 10 327.642 10 323.5C10 319.358 13.3579 316 17.5 316C21.6421 316 25 319.358 25 323.5Z" fill="white"/>
<path d="M25 350.5C25 354.642 21.6421 358 17.5 358C13.3579 358 10 354.642 10 350.5C10 346.358 13.3579 343 17.5 343C21.6421 343 25 346.358 25 350.5Z" fill="white"/>
<path d="M25 377.5C25 381.642 21.6421 385 17.5 385C13.3579 385 10 381.642 10 377.5C10 373.358 13.3579 370 17.5 370C21.6421 370 25 373.358 25 377.5Z" fill="white"/>
<path d="M25 404.5C25 408.642 21.6421 412 17.5 412C13.3579 412 10 408.642 10 404.5C10 400.358 13.3579 397 17.5 397C21.6421 397 25 400.358 25 404.5Z" fill="white"/>
<path d="M49 323.5C49 327.642 45.6421 331 41.5 331C37.3579 331 34 327.642 34 323.5C34 319.358 37.3579 316 41.5 316C45.6421 316 49 319.358 49 323.5Z" fill="white"/>
<path d="M49 350.5C49 354.642 45.6421 358 41.5 358C37.3579 358 34 354.642 34 350.5C34 346.358 37.3579 343 41.5 343C45.6421 343 49 346.358 49 350.5Z" fill="white"/>
<path d="M49 377.5C49 381.642 45.6421 385 41.5 385C37.3579 385 34 381.642 34 377.5C34 373.358 37.3579 370 41.5 370C45.6421 370 49 373.358 49 377.5Z" fill="white"/>
<path d="M49 404.5C49 408.642 45.6421 412 41.5 412C37.3579 412 34 408.642 34 404.5C34 400.358 37.3579 397 41.5 397C45.6421 397 49 400.358 49 404.5Z" fill="white"/>
<path d="M73 323.5C73 327.642 69.6421 331 65.5 331C61.3579 331 58 327.642 58 323.5C58 319.358 61.3579 316 65.5 316C69.6421 316 73 319.358 73 323.5Z" fill="white"/>
<path d="M73 350.5C73 354.642 69.6421 358 65.5 358C61.3579 358 58 354.642 58 350.5C58 346.358 61.3579 343 65.5 343C69.6421 343 73 346.358 73 350.5Z" fill="white"/>
<path d="M73 377.5C73 381.642 69.6421 385 65.5 385C61.3579 385 58 381.642 58 377.5C58 373.358 61.3579 370 65.5 370C69.6421 370 73 373.358 73 377.5Z" fill="white"/>
<path d="M73 404.5C73 408.642 69.6421 412 65.5 412C61.3579 412 58 408.642 58 404.5C58 400.358 61.3579 397 65.5 397C69.6421 397 73 400.358 73 404.5Z" fill="white"/>
<path d="M97 323.5C97 327.642 93.6421 331 89.5 331C85.3579 331 82 327.642 82 323.5C82 319.358 85.3579 316 89.5 316C93.6421 316 97 319.358 97 323.5Z" fill="white"/>
<path d="M97 350.5C97 354.642 93.6421 358 89.5 358C85.3579 358 82 354.642 82 350.5C82 346.358 85.3579 343 89.5 343C93.6421 343 97 346.358 97 350.5Z" fill="white"/>
<path d="M97 377.5C97 381.642 93.6421 385 89.5 385C85.3579 385 82 381.642 82 377.5C82 373.358 85.3579 370 89.5 370C93.6421 370 97 373.358 97 377.5Z" fill="white"/>
<path d="M97 404.5C97 408.642 93.6421 412 89.5 412C85.3579 412 82 408.642 82 404.5C82 400.358 85.3579 397 89.5 397C93.6421 397 97 400.358 97 404.5Z" fill="white"/>
</g>
<g filter="url(#filter17_d_1_1001)">
<path d="M1265.5 312C1269.64 312 1273 315.358 1273 319.5C1273 323.642 1269.64 327 1265.5 327C1261.36 327 1258 323.642 1258 319.5C1258 315.358 1261.36 312 1265.5 312Z" fill="white"/>
<path d="M1264.5 216C1268.64 216 1272 219.358 1272 223.5C1272 227.642 1268.64 231 1264.5 231C1260.36 231 1257 227.642 1257 223.5C1257 219.358 1260.36 216 1264.5 216Z" fill="white"/>
<path d="M1237.5 336C1241.64 336 1245 339.358 1245 343.5C1245 347.642 1241.64 351 1237.5 351C1233.36 351 1230 347.642 1230 343.5C1230 339.358 1233.36 336 1237.5 336Z" fill="white"/>
<path d="M1237.5 192C1241.64 192 1245 195.358 1245 199.5C1245 203.642 1241.64 207 1237.5 207C1233.36 207 1230 203.642 1230 199.5C1230 195.358 1233.36 192 1237.5 192Z" fill="white"/>
<path d="M1265.5 360C1269.64 360 1273 363.358 1273 367.5C1273 371.642 1269.64 375 1265.5 375C1261.36 375 1258 371.642 1258 367.5C1258 363.358 1261.36 360 1265.5 360Z" fill="white"/>
<path d="M1264.5 168C1268.64 168 1272 171.358 1272 175.5C1272 179.642 1268.64 183 1264.5 183C1260.36 183 1257 179.642 1257 175.5C1257 171.358 1260.36 168 1264.5 168Z" fill="white"/>
<path d="M1237.5 288C1241.64 288 1245 291.358 1245 295.5C1245 299.642 1241.64 303 1237.5 303C1233.36 303 1230 299.642 1230 295.5C1230 291.358 1233.36 288 1237.5 288Z" fill="white"/>
<path d="M1265.5 264C1269.64 264 1273 267.358 1273 271.5C1273 275.642 1269.64 279 1265.5 279C1261.36 279 1258 275.642 1258 271.5C1258 267.358 1261.36 264 1265.5 264Z" fill="white"/>
<path d="M1237.5 144C1241.64 144 1245 147.358 1245 151.5C1245 155.642 1241.64 159 1237.5 159C1233.36 159 1230 155.642 1230 151.5C1230 147.358 1233.36 144 1237.5 144Z" fill="white"/>
<path d="M1264.5 120C1268.64 120 1272 123.358 1272 127.5C1272 131.642 1268.64 135 1264.5 135C1260.36 135 1257 131.642 1257 127.5C1257 123.358 1260.36 120 1264.5 120Z" fill="white"/>
<path d="M1237.5 240C1241.64 240 1245 243.358 1245 247.5C1245 251.642 1241.64 255 1237.5 255C1233.36 255 1230 251.642 1230 247.5C1230 243.358 1233.36 240 1237.5 240Z" fill="white"/>
<path d="M1237.5 96C1241.64 96 1245 99.3579 1245 103.5C1245 107.642 1241.64 111 1237.5 111C1233.36 111 1230 107.642 1230 103.5C1230 99.3579 1233.36 96 1237.5 96Z" fill="white"/>
</g>
</g>
<defs>
<filter id="filter0_d_1_1001" x="12.9355" y="32.2947" width="136.019" height="128.692" filterUnits="userSpaceOnUse" color-interpolation-filters="sRGB">
<feFlood flood-opacity="0" result="BackgroundImageFix"/>
<feColorMatrix in="SourceAlpha" type="matrix" values="0 0 0 0 0 0 0 0 0 0 0 0 0 0 0 0 0 0 127 0" result="hardAlpha"/>
<feOffset dy="4"/>
<feGaussianBlur stdDeviation="2"/>
<feComposite in2="hardAlpha" operator="out"/>
<feColorMatrix type="matrix" values="0 0 0 0 0 0 0 0 0 0 0 0 0 0 0 0 0 0 0.25 0"/>
<feBlend mode="normal" in2="BackgroundImageFix" result="effect1_dropShadow_1_1001"/>
<feBlend mode="normal" in="SourceGraphic" in2="effect1_dropShadow_1_1001" result="shape"/>
</filter>
<filter id="filter1_d_1_1001" x="1190.01" y="-40.873" width="134.909" height="128.894" filterUnits="userSpaceOnUse" color-interpolation-filters="sRGB">
<feFlood flood-opacity="0" result="BackgroundImageFix"/>
<feColorMatrix in="SourceAlpha" type="matrix" values="0 0 0 0 0 0 0 0 0 0 0 0 0 0 0 0 0 0 127 0" result="hardAlpha"/>
<feOffset dy="4"/>
<feGaussianBlur stdDeviation="2"/>
<feComposite in2="hardAlpha" operator="out"/>
<feColorMatrix type="matrix" values="0 0 0 0 0 0 0 0 0 0 0 0 0 0 0 0 0 0 0.25 0"/>
<feBlend mode="normal" in2="BackgroundImageFix" result="effect1_dropShadow_1_1001"/>
<feBlend mode="normal" in="SourceGraphic" in2="effect1_dropShadow_1_1001" result="shape"/>
</filter>
<filter id="filter2_d_1_1001" x="-46.2432" y="749.775" width="129.916" height="135.117" filterUnits="userSpaceOnUse" color-interpolation-filters="sRGB">
<feFlood flood-opacity="0" result="BackgroundImageFix"/>
<feColorMatrix in="SourceAlpha" type="matrix" values="0 0 0 0 0 0 0 0 0 0 0 0 0 0 0 0 0 0 127 0" result="hardAlpha"/>
<feOffset dy="4"/>
<feGaussianBlur stdDeviation="2"/>
<feComposite in2="hardAlpha" operator="out"/>
<feColorMatrix type="matrix" values="0 0 0 0 0 0 0 0 0 0 0 0 0 0 0 0 0 0 0.25 0"/>
<feBlend mode="normal" in2="BackgroundImageFix" result="effect1_dropShadow_1_1001"/>
<feBlend mode="normal" in="SourceGraphic" in2="effect1_dropShadow_1_1001" result="shape"/>
</filter>
<filter id="filter3_d_1_1001" x="1067.46" y="744.944" width="72.2734" height="78.6017" filterUnits="userSpaceOnUse" color-interpolation-filters="sRGB">
<feFlood flood-opacity="0" result="BackgroundImageFix"/>
<feColorMatrix in="SourceAlpha" type="matrix" values="0 0 0 0 0 0 0 0 0 0 0 0 0 0 0 0 0 0 127 0" result="hardAlpha"/>
<feOffset dy="4"/>
<feGaussianBlur stdDeviation="2"/>
<feComposite in2="hardAlpha" operator="out"/>
<feColorMatrix type="matrix" values="0 0 0 0 0 0 0 0 0 0 0 0 0 0 0 0 0 0 0.25 0"/>
<feBlend mode="normal" in2="BackgroundImageFix" result="effect1_dropShadow_1_1001"/>
<feBlend mode="normal" in="SourceGraphic" in2="effect1_dropShadow_1_1001" result="shape"/>
</filter>
<filter id="filter4_d_1_1001" x="331.46" y="759.944" width="72.2734" height="78.6017" filterUnits="userSpaceOnUse" color-interpolation-filters="sRGB">
<feFlood flood-opacity="0" result="BackgroundImageFix"/>
<feColorMatrix in="SourceAlpha" type="matrix" values="0 0 0 0 0 0 0 0 0 0 0 0 0 0 0 0 0 0 127 0" result="hardAlpha"/>
<feOffset dy="4"/>
<feGaussianBlur stdDeviation="2"/>
<feComposite in2="hardAlpha" operator="out"/>
<feColorMatrix type="matrix" values="0 0 0 0 0 0 0 0 0 0 0 0 0 0 0 0 0 0 0.25 0"/>
<feBlend mode="normal" in2="BackgroundImageFix" result="effect1_dropShadow_1_1001"/>
<feBlend mode="normal" in="SourceGraphic" in2="effect1_dropShadow_1_1001" result="shape"/>
</filter>
<filter id="filter5_d_1_1001" x="856.942" y="758.258" width="73.249" height="74.0354" filterUnits="userSpaceOnUse" color-interpolation-filters="sRGB">
<feFlood flood-opacity="0" result="BackgroundImageFix"/>
<feColorMatrix in="SourceAlpha" type="matrix" values="0 0 0 0 0 0 0 0 0 0 0 0 0 0 0 0 0 0 127 0" result="hardAlpha"/>
<feOffset dy="4"/>
<feGaussianBlur stdDeviation="2"/>
<feComposite in2="hardAlpha" operator="out"/>
<feColorMatrix type="matrix" values="0 0 0 0 0 0 0 0 0 0 0 0 0 0 0 0 0 0 0.25 0"/>
<feBlend mode="normal" in2="BackgroundImageFix" result="effect1_dropShadow_1_1001"/>
<feBlend mode="normal" in="SourceGraphic" in2="effect1_dropShadow_1_1001" result="shape"/>
</filter>
<filter id="filter6_d_1_1001" x="1079.22" y="285.955" width="78.209" height="74.5125" filterUnits="userSpaceOnUse" color-interpolation-filters="sRGB">
<feFlood flood-opacity="0" result="BackgroundImageFix"/>
<feColorMatrix in="SourceAlpha" type="matrix" values="0 0 0 0 0 0 0 0 0 0 0 0 0 0 0 0 0 0 127 0" result="hardAlpha"/>
<feOffset dy="4"/>
<feGaussianBlur stdDeviation="2"/>
<feComposite in2="hardAlpha" operator="out"/>
<feColorMatrix type="matrix" values="0 0 0 0 0 0 0 0 0 0 0 0 0 0 0 0 0 0 0.25 0"/>
<feBlend mode="normal" in2="BackgroundImageFix" result="effect1_dropShadow_1_1001"/>
<feBlend mode="normal" in="SourceGraphic" in2="effect1_dropShadow_1_1001" result="shape"/>
</filter>
<filter id="filter7_d_1_1001" x="1181.85" y="380.143" width="74.7036" height="78.0634" filterUnits="userSpaceOnUse" color-interpolation-filters="sRGB">
<feFlood flood-opacity="0" result="BackgroundImageFix"/>
<feColorMatrix in="SourceAlpha" type="matrix" values="0 0 0 0 0 0 0 0 0 0 0 0 0 0 0 0 0 0 127 0" result="hardAlpha"/>
<feOffset dy="4"/>
<feGaussianBlur stdDeviation="2"/>
<feComposite in2="hardAlpha" operator="out"/>
<feColorMatrix type="matrix" values="0 0 0 0 0 0 0 0 0 0 0 0 0 0 0 0 0 0 0.25 0"/>
<feBlend mode="normal" in2="BackgroundImageFix" result="effect1_dropShadow_1_1001"/>
<feBlend mode="normal" in="SourceGraphic" in2="effect1_dropShadow_1_1001" result="shape"/>
</filter>
<filter id="filter8_d_1_1001" x="639.852" y="-21.8569" width="74.7036" height="78.063" filterUnits="userSpaceOnUse" color-interpolation-filters="sRGB">
<feFlood flood-opacity="0" result="BackgroundImageFix"/>
<feColorMatrix in="SourceAlpha" type="matrix" values="0 0 0 0 0 0 0 0 0 0 0 0 0 0 0 0 0 0 127 0" result="hardAlpha"/>
<feOffset dy="4"/>
<feGaussianBlur stdDeviation="2"/>
<feComposite in2="hardAlpha" operator="out"/>
<feColorMatrix type="matrix" values="0 0 0 0 0 0 0 0 0 0 0 0 0 0 0 0 0 0 0.25 0"/>
<feBlend mode="normal" in2="BackgroundImageFix" result="effect1_dropShadow_1_1001"/>
<feBlend mode="normal" in="SourceGraphic" in2="effect1_dropShadow_1_1001" result="shape"/>
</filter>
<filter id="filter9_d_1_1001" x="1120.05" y="675.6" width="126.83" height="134.492" filterUnits="userSpaceOnUse" color-interpolation-filters="sRGB">
<feFlood flood-opacity="0" result="BackgroundImageFix"/>
<feColorMatrix in="SourceAlpha" type="matrix" values="0 0 0 0 0 0 0 0 0 0 0 0 0 0 0 0 0 0 127 0" result="hardAlpha"/>
<feOffset dy="4"/>
<feGaussianBlur stdDeviation="2"/>
<feComposite in2="hardAlpha" operator="out"/>
<feColorMatrix type="matrix" values="0 0 0 0 0 0 0 0 0 0 0 0 0 0 0 0 0 0 0.25 0"/>
<feBlend mode="normal" in2="BackgroundImageFix" result="effect1_dropShadow_1_1001"/>
<feBlend mode="normal" in="SourceGraphic" in2="effect1_dropShadow_1_1001" result="shape"/>
</filter>
<filter id="filter10_d_1_1001" x="191.442" y="27.4209" width="72.4648" height="78.3181" filterUnits="userSpaceOnUse" color-interpolation-filters="sRGB">
<feFlood flood-opacity="0" result="BackgroundImageFix"/>
<feColorMatrix in="SourceAlpha" type="matrix" values="0 0 0 0 0 0 0 0 0 0 0 0 0 0 0 0 0 0 127 0" result="hardAlpha"/>
<feOffset dy="4"/>
<feGaussianBlur stdDeviation="2"/>
<feComposite in2="hardAlpha" operator="out"/>
<feColorMatrix type="matrix" values="0 0 0 0 0 0 0 0 0 0 0 0 0 0 0 0 0 0 0.25 0"/>
<feBlend mode="normal" in2="BackgroundImageFix" result="effect1_dropShadow_1_1001"/>
<feBlend mode="normal" in="SourceGraphic" in2="effect1_dropShadow_1_1001" result="shape"/>
</filter>
<filter id="filter11_d_1_1001" x="25.646" y="572.817" width="42.8638" height="45.8605" filterUnits="userSpaceOnUse" color-interpolation-filters="sRGB">
<feFlood flood-opacity="0" result="BackgroundImageFix"/>
<feColorMatrix in="SourceAlpha" type="matrix" values="0 0 0 0 0 0 0 0 0 0 0 0 0 0 0 0 0 0 127 0" result="hardAlpha"/>
<feOffset dy="4"/>
<feGaussianBlur stdDeviation="2"/>
<feComposite in2="hardAlpha" operator="out"/>
<feColorMatrix type="matrix" values="0 0 0 0 0 0 0 0 0 0 0 0 0 0 0 0 0 0 0.25 0"/>
<feBlend mode="normal" in2="BackgroundImageFix" result="effect1_dropShadow_1_1001"/>
<feBlend mode="normal" in="SourceGraphic" in2="effect1_dropShadow_1_1001" result="shape"/>
</filter>
<filter id="filter12_d_1_1001" x="495.646" y="789.817" width="42.8638" height="45.8605" filterUnits="userSpaceOnUse" color-interpolation-filters="sRGB">
<feFlood flood-opacity="0" result="BackgroundImageFix"/>
<feColorMatrix in="SourceAlpha" type="matrix" values="0 0 0 0 0 0 0 0 0 0 0 0 0 0 0 0 0 0 127 0" result="hardAlpha"/>
<feOffset dy="4"/>
<feGaussianBlur stdDeviation="2"/>
<feComposite in2="hardAlpha" operator="out"/>
<feColorMatrix type="matrix" values="0 0 0 0 0 0 0 0 0 0 0 0 0 0 0 0 0 0 0.25 0"/>
<feBlend mode="normal" in2="BackgroundImageFix" result="effect1_dropShadow_1_1001"/>
<feBlend mode="normal" in="SourceGraphic" in2="effect1_dropShadow_1_1001" result="shape"/>
</filter>
<filter id="filter13_d_1_1001" x="856.365" y="81.5054" width="40.6274" height="46.6892" filterUnits="userSpaceOnUse" color-interpolation-filters="sRGB">
<feFlood flood-opacity="0" result="BackgroundImageFix"/>
<feColorMatrix in="SourceAlpha" type="matrix" values="0 0 0 0 0 0 0 0 0 0 0 0 0 0 0 0 0 0 127 0" result="hardAlpha"/>
<feOffset dy="4"/>
<feGaussianBlur stdDeviation="2"/>
<feComposite in2="hardAlpha" operator="out"/>
<feColorMatrix type="matrix" values="0 0 0 0 0 0 0 0 0 0 0 0 0 0 0 0 0 0 0.25 0"/>
<feBlend mode="normal" in2="BackgroundImageFix" result="effect1_dropShadow_1_1001"/>
<feBlend mode="normal" in="SourceGraphic" in2="effect1_dropShadow_1_1001" result="shape"/>
</filter>
<filter id="filter14_d_1_1001" x="323.365" y="101.505" width="40.6279" height="46.6892" filterUnits="userSpaceOnUse" color-interpolation-filters="sRGB">
<feFlood flood-opacity="0" result="BackgroundImageFix"/>
<feColorMatrix in="SourceAlpha" type="matrix" values="0 0 0 0 0 0 0 0 0 0 0 0 0 0 0 0 0 0 127 0" result="hardAlpha"/>
<feOffset dy="4"/>
<feGaussianBlur stdDeviation="2"/>
<feComposite in2="hardAlpha" operator="out"/>
<feColorMatrix type="matrix" values="0 0 0 0 0 0 0 0 0 0 0 0 0 0 0 0 0 0 0.25 0"/>
<feBlend mode="normal" in2="BackgroundImageFix" result="effect1_dropShadow_1_1001"/>
<feBlend mode="normal" in="SourceGraphic" in2="effect1_dropShadow_1_1001" result="shape"/>
</filter>
<filter id="filter15_d_1_1001" x="8.44238" y="167.421" width="72.4648" height="78.3181" filterUnits="userSpaceOnUse" color-interpolation-filters="sRGB">
<feFlood flood-opacity="0" result="BackgroundImageFix"/>
<feColorMatrix in="SourceAlpha" type="matrix" values="0 0 0 0 0 0 0 0 0 0 0 0 0 0 0 0 0 0 127 0" result="hardAlpha"/>
<feOffset dy="4"/>
<feGaussianBlur stdDeviation="2"/>
<feComposite in2="hardAlpha" operator="out"/>
<feColorMatrix type="matrix" values="0 0 0 0 0 0 0 0 0 0 0 0 0 0 0 0 0 0 0.25 0"/>
<feBlend mode="normal" in2="BackgroundImageFix" result="effect1_dropShadow_1_1001"/>
<feBlend mode="normal" in="SourceGraphic" in2="effect1_dropShadow_1_1001" result="shape"/>
</filter>
<filter id="filter16_d_1_1001" x="6" y="316" width="95" height="104" filterUnits="userSpaceOnUse" color-interpolation-filters="sRGB">
<feFlood flood-opacity="0" result="BackgroundImageFix"/>
<feColorMatrix in="SourceAlpha" type="matrix" values="0 0 0 0 0 0 0 0 0 0 0 0 0 0 0 0 0 0 127 0" result="hardAlpha"/>
<feOffset dy="4"/>
<feGaussianBlur stdDeviation="2"/>
<feComposite in2="hardAlpha" operator="out"/>
<feColorMatrix type="matrix" values="0 0 0 0 0 0 0 0 0 0 0 0 0 0 0 0 0 0 0.25 0"/>
<feBlend mode="normal" in2="BackgroundImageFix" result="effect1_dropShadow_1_1001"/>
<feBlend mode="normal" in="SourceGraphic" in2="effect1_dropShadow_1_1001" result="shape"/>
</filter>
<filter id="filter17_d_1_1001" x="1226" y="96" width="51" height="287" filterUnits="userSpaceOnUse" color-interpolation-filters="sRGB">
<feFlood flood-opacity="0" result="BackgroundImageFix"/>
<feColorMatrix in="SourceAlpha" type="matrix" values="0 0 0 0 0 0 0 0 0 0 0 0 0 0 0 0 0 0 127 0" result="hardAlpha"/>
<feOffset dy="4"/>
<feGaussianBlur stdDeviation="2"/>
<feComposite in2="hardAlpha" operator="out"/>
<feColorMatrix type="matrix" values="0 0 0 0 0 0 0 0 0 0 0 0 0 0 0 0 0 0 0.25 0"/>
<feBlend mode="normal" in2="BackgroundImageFix" result="effect1_dropShadow_1_1001"/>
<feBlend mode="normal" in="SourceGraphic" in2="effect1_dropShadow_1_1001" result="shape"/>
</filter>
<clipPath id="clip0_1_1001">
<rect width="1280" height="832" fill="white"/>
</clipPath>
</defs>
</svg>
