<svg width="700" height="600" viewBox="0 0 700 600" fill="none" xmlns="http://www.w3.org/2000/svg">
<g filter="url(#filter0_d_1_2120)">
<rect x="160" y="67" width="380" height="480" rx="20" fill="#F6DAE4"/>
</g>
<g filter="url(#filter1_d_1_2120)">
<path d="M111 177.55H159C159 177.55 158 168.05 152 169.05C149.729 169.429 148.962 168.375 148.886 166.918C148.691 163.158 152.659 161.037 156.424 161.014C205.728 160.71 546.253 158.661 549.5 160.052C553 161.551 542 172.051 540.5 174.552C539 177.052 587.5 181.051 588 174.552C588.5 168.052 565 141.051 565 136.552C565 132.052 589 96.0505 588 94.5515C587 93.0525 551 96.0505 549.5 94.5515C548 93.0525 552 72.0424 549.5 68.5515C547.163 65.2884 198.385 68.1256 152.876 68.5098C150.132 68.533 148 70.7636 148 73.5079V95.0504H111L135 135.55L111 177.55Z" fill="#E4AEC1"/>
<path d="M111 177.55H159C159 177.55 158 168.05 152 169.05C149.729 169.429 148.962 168.375 148.886 166.918C148.691 163.158 152.659 161.037 156.424 161.014C205.728 160.71 546.253 158.661 549.5 160.052C553 161.551 542 172.051 540.5 174.552C539 177.052 587.5 181.051 588 174.552C588.5 168.052 565 141.051 565 136.552C565 132.052 589 96.0505 588 94.5515C587 93.0525 551 96.0505 549.5 94.5515C548 93.0525 552 72.0424 549.5 68.5515C547.163 65.2884 198.385 68.1256 152.876 68.5098C150.132 68.533 148 70.7636 148 73.5079V95.0504H111L135 135.55L111 177.55Z" stroke="white" stroke-width="3"/>
</g>
<path d="M256.268 118.925H260.647C260.56 120.36 260.164 121.635 259.461 122.748C258.768 123.861 257.796 124.73 256.546 125.355C255.306 125.98 253.812 126.293 252.063 126.293C250.696 126.293 249.471 126.059 248.387 125.59C247.303 125.111 246.375 124.428 245.604 123.539C244.842 122.65 244.261 121.576 243.86 120.316C243.46 119.057 243.26 117.646 243.26 116.083V114.604C243.26 113.041 243.465 111.63 243.875 110.37C244.295 109.101 244.891 108.021 245.662 107.133C246.443 106.244 247.376 105.561 248.46 105.082C249.544 104.604 250.755 104.364 252.093 104.364C253.87 104.364 255.369 104.687 256.59 105.331C257.82 105.976 258.772 106.864 259.446 107.997C260.13 109.13 260.54 110.419 260.677 111.864H256.282C256.233 111.005 256.062 110.277 255.77 109.682C255.477 109.076 255.032 108.622 254.437 108.319C253.851 108.007 253.069 107.851 252.093 107.851C251.36 107.851 250.721 107.987 250.174 108.261C249.627 108.534 249.168 108.949 248.797 109.506C248.426 110.062 248.147 110.766 247.962 111.615C247.786 112.455 247.698 113.441 247.698 114.574V116.083C247.698 117.187 247.781 118.158 247.947 118.998C248.113 119.828 248.367 120.531 248.709 121.107C249.061 121.674 249.51 122.104 250.057 122.396C250.613 122.68 251.282 122.821 252.063 122.821C252.981 122.821 253.738 122.675 254.334 122.382C254.93 122.089 255.384 121.654 255.696 121.078C256.019 120.502 256.209 119.784 256.268 118.925ZM262.596 118.236V117.929C262.596 116.767 262.762 115.697 263.094 114.721C263.426 113.734 263.909 112.88 264.544 112.157C265.179 111.435 265.96 110.873 266.888 110.473C267.815 110.062 268.88 109.857 270.081 109.857C271.282 109.857 272.352 110.062 273.289 110.473C274.227 110.873 275.013 111.435 275.647 112.157C276.292 112.88 276.78 113.734 277.112 114.721C277.444 115.697 277.61 116.767 277.61 117.929V118.236C277.61 119.389 277.444 120.458 277.112 121.444C276.78 122.421 276.292 123.275 275.647 124.008C275.013 124.73 274.231 125.292 273.304 125.692C272.376 126.093 271.312 126.293 270.11 126.293C268.909 126.293 267.84 126.093 266.902 125.692C265.975 125.292 265.188 124.73 264.544 124.008C263.909 123.275 263.426 122.421 263.094 121.444C262.762 120.458 262.596 119.389 262.596 118.236ZM266.814 117.929V118.236C266.814 118.9 266.873 119.521 266.99 120.097C267.107 120.673 267.293 121.181 267.547 121.62C267.811 122.05 268.152 122.387 268.572 122.631C268.992 122.875 269.505 122.997 270.11 122.997C270.696 122.997 271.199 122.875 271.619 122.631C272.039 122.387 272.376 122.05 272.63 121.62C272.884 121.181 273.069 120.673 273.187 120.097C273.313 119.521 273.377 118.9 273.377 118.236V117.929C273.377 117.284 273.313 116.679 273.187 116.112C273.069 115.536 272.879 115.028 272.615 114.589C272.361 114.14 272.024 113.788 271.604 113.534C271.185 113.28 270.677 113.153 270.081 113.153C269.485 113.153 268.978 113.28 268.558 113.534C268.147 113.788 267.811 114.14 267.547 114.589C267.293 115.028 267.107 115.536 266.99 116.112C266.873 116.679 266.814 117.284 266.814 117.929ZM284.334 113.534V126H280.115V110.15H284.07L284.334 113.534ZM283.719 117.519H282.576C282.576 116.347 282.728 115.292 283.03 114.354C283.333 113.407 283.758 112.602 284.305 111.938C284.852 111.264 285.501 110.751 286.253 110.399C287.015 110.038 287.864 109.857 288.802 109.857C289.544 109.857 290.223 109.965 290.838 110.18C291.453 110.395 291.98 110.736 292.42 111.205C292.869 111.674 293.211 112.294 293.445 113.065C293.689 113.837 293.812 114.779 293.812 115.893V126H289.563V115.878C289.563 115.175 289.466 114.628 289.271 114.237C289.075 113.847 288.787 113.573 288.406 113.417C288.035 113.251 287.576 113.168 287.029 113.168C286.463 113.168 285.97 113.28 285.55 113.505C285.14 113.729 284.798 114.042 284.524 114.442C284.261 114.833 284.061 115.292 283.924 115.819C283.787 116.347 283.719 116.913 283.719 117.519ZM307.054 110.15H310.877V125.473C310.877 126.918 310.555 128.144 309.91 129.149C309.275 130.165 308.387 130.932 307.244 131.449C306.102 131.977 304.773 132.24 303.26 132.24C302.596 132.24 301.893 132.152 301.15 131.977C300.418 131.801 299.715 131.527 299.041 131.156C298.377 130.785 297.82 130.316 297.371 129.75L299.231 127.26C299.72 127.826 300.286 128.266 300.931 128.578C301.575 128.9 302.288 129.062 303.069 129.062C303.831 129.062 304.476 128.92 305.003 128.637C305.53 128.363 305.936 127.958 306.219 127.421C306.502 126.894 306.644 126.254 306.644 125.502V113.812L307.054 110.15ZM296.39 118.266V117.958C296.39 116.747 296.536 115.648 296.829 114.662C297.132 113.666 297.557 112.812 298.104 112.099C298.66 111.386 299.334 110.834 300.125 110.443C300.916 110.053 301.81 109.857 302.806 109.857C303.86 109.857 304.744 110.053 305.457 110.443C306.17 110.834 306.756 111.391 307.215 112.113C307.674 112.826 308.03 113.671 308.284 114.647C308.548 115.614 308.753 116.674 308.899 117.826V118.5C308.753 119.604 308.533 120.629 308.24 121.576C307.947 122.523 307.562 123.354 307.083 124.066C306.604 124.77 306.009 125.316 305.296 125.707C304.593 126.098 303.753 126.293 302.776 126.293C301.8 126.293 300.916 126.093 300.125 125.692C299.344 125.292 298.675 124.73 298.118 124.008C297.562 123.285 297.132 122.436 296.829 121.459C296.536 120.482 296.39 119.418 296.39 118.266ZM300.608 117.958V118.266C300.608 118.92 300.672 119.53 300.799 120.097C300.926 120.663 301.121 121.166 301.385 121.605C301.658 122.035 301.995 122.372 302.396 122.616C302.806 122.851 303.289 122.968 303.846 122.968C304.617 122.968 305.247 122.807 305.735 122.484C306.224 122.152 306.59 121.698 306.834 121.122C307.078 120.546 307.22 119.882 307.259 119.13V117.211C307.239 116.596 307.156 116.044 307.01 115.556C306.863 115.058 306.658 114.633 306.395 114.281C306.131 113.93 305.789 113.656 305.369 113.461C304.949 113.266 304.451 113.168 303.875 113.168C303.318 113.168 302.835 113.295 302.425 113.549C302.024 113.793 301.688 114.13 301.414 114.56C301.15 114.989 300.95 115.497 300.813 116.083C300.677 116.659 300.608 117.284 300.608 117.958ZM318.377 113.607V126H314.158V110.15H318.128L318.377 113.607ZM323.152 110.048L323.079 113.959C322.874 113.93 322.625 113.905 322.332 113.886C322.049 113.856 321.79 113.842 321.556 113.842C320.96 113.842 320.442 113.92 320.003 114.076C319.573 114.223 319.212 114.442 318.919 114.735C318.636 115.028 318.421 115.385 318.274 115.805C318.138 116.225 318.06 116.703 318.04 117.24L317.19 116.977C317.19 115.951 317.293 115.009 317.498 114.149C317.703 113.28 318.001 112.523 318.392 111.879C318.792 111.234 319.28 110.736 319.856 110.385C320.433 110.033 321.092 109.857 321.834 109.857C322.068 109.857 322.308 109.877 322.552 109.916C322.796 109.945 322.996 109.989 323.152 110.048ZM333.201 122.426V115.365C333.201 114.857 333.118 114.423 332.952 114.062C332.786 113.69 332.527 113.402 332.176 113.197C331.834 112.992 331.39 112.89 330.843 112.89C330.374 112.89 329.969 112.973 329.627 113.139C329.285 113.295 329.021 113.524 328.836 113.827C328.65 114.12 328.558 114.467 328.558 114.867H324.339C324.339 114.193 324.495 113.554 324.808 112.948C325.12 112.343 325.574 111.811 326.17 111.352C326.766 110.883 327.474 110.517 328.294 110.253C329.124 109.989 330.052 109.857 331.077 109.857C332.308 109.857 333.401 110.062 334.358 110.473C335.315 110.883 336.067 111.498 336.614 112.318C337.171 113.139 337.449 114.164 337.449 115.395V122.177C337.449 123.046 337.503 123.759 337.61 124.315C337.718 124.862 337.874 125.341 338.079 125.751V126H333.816C333.611 125.57 333.455 125.033 333.348 124.389C333.25 123.734 333.201 123.08 333.201 122.426ZM333.758 116.347L333.787 118.734H331.429C330.872 118.734 330.389 118.798 329.979 118.925C329.568 119.052 329.231 119.232 328.968 119.467C328.704 119.691 328.509 119.955 328.382 120.258C328.265 120.561 328.206 120.893 328.206 121.254C328.206 121.615 328.289 121.942 328.455 122.235C328.621 122.519 328.86 122.743 329.173 122.909C329.485 123.065 329.852 123.144 330.271 123.144C330.906 123.144 331.458 123.017 331.927 122.763C332.396 122.509 332.757 122.196 333.011 121.825C333.274 121.454 333.411 121.103 333.421 120.771L334.534 122.558C334.378 122.958 334.163 123.373 333.89 123.803C333.626 124.232 333.289 124.638 332.879 125.019C332.469 125.39 331.976 125.697 331.399 125.941C330.823 126.176 330.14 126.293 329.349 126.293C328.343 126.293 327.43 126.093 326.609 125.692C325.799 125.282 325.154 124.721 324.676 124.008C324.207 123.285 323.973 122.465 323.973 121.547C323.973 120.717 324.129 119.979 324.441 119.335C324.754 118.69 325.213 118.148 325.818 117.709C326.434 117.26 327.2 116.923 328.118 116.698C329.036 116.464 330.101 116.347 331.312 116.347H333.758ZM348.465 110.15V113.139H339.236V110.15H348.465ZM341.521 106.239H345.74V121.225C345.74 121.684 345.799 122.035 345.916 122.279C346.043 122.523 346.229 122.694 346.473 122.792C346.717 122.88 347.024 122.924 347.396 122.924C347.659 122.924 347.894 122.914 348.099 122.895C348.313 122.865 348.494 122.836 348.641 122.807L348.655 125.912C348.294 126.029 347.903 126.122 347.483 126.19C347.063 126.259 346.6 126.293 346.092 126.293C345.164 126.293 344.354 126.142 343.66 125.839C342.977 125.526 342.449 125.028 342.078 124.345C341.707 123.661 341.521 122.763 341.521 121.649V106.239ZM360.242 122.206V110.15H364.461V126H360.491L360.242 122.206ZM360.711 118.954L361.956 118.925C361.956 119.979 361.834 120.961 361.59 121.869C361.346 122.768 360.979 123.549 360.491 124.213C360.003 124.867 359.388 125.38 358.646 125.751C357.903 126.112 357.029 126.293 356.023 126.293C355.252 126.293 354.539 126.186 353.885 125.971C353.24 125.746 352.684 125.399 352.215 124.931C351.756 124.452 351.395 123.842 351.131 123.1C350.877 122.348 350.75 121.444 350.75 120.39V110.15H354.969V120.419C354.969 120.888 355.022 121.283 355.13 121.605C355.247 121.928 355.408 122.191 355.613 122.396C355.818 122.602 356.058 122.748 356.331 122.836C356.614 122.924 356.927 122.968 357.269 122.968C358.138 122.968 358.821 122.792 359.319 122.44C359.827 122.089 360.184 121.61 360.389 121.005C360.604 120.39 360.711 119.706 360.711 118.954ZM372.137 103.5V126H367.903V103.5H372.137ZM384.178 122.426V115.365C384.178 114.857 384.095 114.423 383.929 114.062C383.763 113.69 383.504 113.402 383.152 113.197C382.811 112.992 382.366 112.89 381.819 112.89C381.351 112.89 380.945 112.973 380.604 113.139C380.262 113.295 379.998 113.524 379.812 113.827C379.627 114.12 379.534 114.467 379.534 114.867H375.315C375.315 114.193 375.472 113.554 375.784 112.948C376.097 112.343 376.551 111.811 377.146 111.352C377.742 110.883 378.45 110.517 379.271 110.253C380.101 109.989 381.028 109.857 382.054 109.857C383.284 109.857 384.378 110.062 385.335 110.473C386.292 110.883 387.044 111.498 387.591 112.318C388.147 113.139 388.426 114.164 388.426 115.395V122.177C388.426 123.046 388.479 123.759 388.587 124.315C388.694 124.862 388.851 125.341 389.056 125.751V126H384.793C384.588 125.57 384.432 125.033 384.324 124.389C384.227 123.734 384.178 123.08 384.178 122.426ZM384.734 116.347L384.764 118.734H382.405C381.849 118.734 381.365 118.798 380.955 118.925C380.545 119.052 380.208 119.232 379.944 119.467C379.681 119.691 379.485 119.955 379.358 120.258C379.241 120.561 379.183 120.893 379.183 121.254C379.183 121.615 379.266 121.942 379.432 122.235C379.598 122.519 379.837 122.743 380.149 122.909C380.462 123.065 380.828 123.144 381.248 123.144C381.883 123.144 382.435 123.017 382.903 122.763C383.372 122.509 383.733 122.196 383.987 121.825C384.251 121.454 384.388 121.103 384.397 120.771L385.511 122.558C385.354 122.958 385.14 123.373 384.866 123.803C384.603 124.232 384.266 124.638 383.855 125.019C383.445 125.39 382.952 125.697 382.376 125.941C381.8 126.176 381.116 126.293 380.325 126.293C379.319 126.293 378.406 126.093 377.586 125.692C376.775 125.282 376.131 124.721 375.652 124.008C375.184 123.285 374.949 122.465 374.949 121.547C374.949 120.717 375.105 119.979 375.418 119.335C375.73 118.69 376.189 118.148 376.795 117.709C377.41 117.26 378.177 116.923 379.095 116.698C380.013 116.464 381.077 116.347 382.288 116.347H384.734ZM399.441 110.15V113.139H390.213V110.15H399.441ZM392.498 106.239H396.717V121.225C396.717 121.684 396.775 122.035 396.893 122.279C397.02 122.523 397.205 122.694 397.449 122.792C397.693 122.88 398.001 122.924 398.372 122.924C398.636 122.924 398.87 122.914 399.075 122.895C399.29 122.865 399.471 122.836 399.617 122.807L399.632 125.912C399.271 126.029 398.88 126.122 398.46 126.19C398.04 126.259 397.576 126.293 397.068 126.293C396.141 126.293 395.33 126.142 394.637 125.839C393.953 125.526 393.426 125.028 393.055 124.345C392.684 123.661 392.498 122.763 392.498 121.649V106.239ZM406.297 110.15V126H402.063V110.15H406.297ZM401.8 106.02C401.8 105.404 402.015 104.896 402.444 104.496C402.874 104.096 403.45 103.896 404.173 103.896C404.886 103.896 405.457 104.096 405.887 104.496C406.326 104.896 406.546 105.404 406.546 106.02C406.546 106.635 406.326 107.143 405.887 107.543C405.457 107.943 404.886 108.144 404.173 108.144C403.45 108.144 402.874 107.943 402.444 107.543C402.015 107.143 401.8 106.635 401.8 106.02ZM409.109 118.236V117.929C409.109 116.767 409.275 115.697 409.607 114.721C409.939 113.734 410.423 112.88 411.058 112.157C411.692 111.435 412.474 110.873 413.401 110.473C414.329 110.062 415.394 109.857 416.595 109.857C417.796 109.857 418.865 110.062 419.803 110.473C420.74 110.873 421.526 111.435 422.161 112.157C422.806 112.88 423.294 113.734 423.626 114.721C423.958 115.697 424.124 116.767 424.124 117.929V118.236C424.124 119.389 423.958 120.458 423.626 121.444C423.294 122.421 422.806 123.275 422.161 124.008C421.526 124.73 420.745 125.292 419.817 125.692C418.89 126.093 417.825 126.293 416.624 126.293C415.423 126.293 414.354 126.093 413.416 125.692C412.488 125.292 411.702 124.73 411.058 124.008C410.423 123.275 409.939 122.421 409.607 121.444C409.275 120.458 409.109 119.389 409.109 118.236ZM413.328 117.929V118.236C413.328 118.9 413.387 119.521 413.504 120.097C413.621 120.673 413.807 121.181 414.061 121.62C414.324 122.05 414.666 122.387 415.086 122.631C415.506 122.875 416.019 122.997 416.624 122.997C417.21 122.997 417.713 122.875 418.133 122.631C418.553 122.387 418.89 122.05 419.144 121.62C419.397 121.181 419.583 120.673 419.7 120.097C419.827 119.521 419.891 118.9 419.891 118.236V117.929C419.891 117.284 419.827 116.679 419.7 116.112C419.583 115.536 419.393 115.028 419.129 114.589C418.875 114.14 418.538 113.788 418.118 113.534C417.698 113.28 417.19 113.153 416.595 113.153C415.999 113.153 415.491 113.28 415.071 113.534C414.661 113.788 414.324 114.14 414.061 114.589C413.807 115.028 413.621 115.536 413.504 116.112C413.387 116.679 413.328 117.284 413.328 117.929ZM430.848 113.534V126H426.629V110.15H430.584L430.848 113.534ZM430.232 117.519H429.09C429.09 116.347 429.241 115.292 429.544 114.354C429.847 113.407 430.271 112.602 430.818 111.938C431.365 111.264 432.015 110.751 432.767 110.399C433.528 110.038 434.378 109.857 435.315 109.857C436.058 109.857 436.736 109.965 437.352 110.18C437.967 110.395 438.494 110.736 438.934 111.205C439.383 111.674 439.725 112.294 439.959 113.065C440.203 113.837 440.325 114.779 440.325 115.893V126H436.077V115.878C436.077 115.175 435.979 114.628 435.784 114.237C435.589 113.847 435.301 113.573 434.92 113.417C434.549 113.251 434.09 113.168 433.543 113.168C432.977 113.168 432.483 113.28 432.063 113.505C431.653 113.729 431.312 114.042 431.038 114.442C430.774 114.833 430.574 115.292 430.438 115.819C430.301 116.347 430.232 116.913 430.232 117.519ZM452.103 121.62C452.103 121.317 452.015 121.044 451.839 120.8C451.663 120.556 451.336 120.331 450.857 120.126C450.389 119.911 449.71 119.716 448.821 119.54C448.021 119.364 447.273 119.145 446.58 118.881C445.896 118.607 445.301 118.28 444.793 117.899C444.295 117.519 443.904 117.069 443.621 116.552C443.338 116.024 443.196 115.424 443.196 114.75C443.196 114.086 443.338 113.461 443.621 112.875C443.914 112.289 444.329 111.771 444.866 111.322C445.413 110.863 446.077 110.507 446.858 110.253C447.649 109.989 448.538 109.857 449.524 109.857C450.901 109.857 452.083 110.077 453.069 110.517C454.065 110.956 454.827 111.562 455.354 112.333C455.892 113.095 456.16 113.964 456.16 114.94H451.941C451.941 114.53 451.854 114.164 451.678 113.842C451.512 113.51 451.248 113.251 450.887 113.065C450.535 112.87 450.076 112.772 449.51 112.772C449.041 112.772 448.636 112.855 448.294 113.021C447.952 113.178 447.688 113.393 447.503 113.666C447.327 113.93 447.239 114.223 447.239 114.545C447.239 114.789 447.288 115.009 447.386 115.204C447.493 115.39 447.664 115.561 447.898 115.717C448.133 115.873 448.436 116.02 448.807 116.156C449.188 116.283 449.656 116.4 450.213 116.508C451.355 116.742 452.376 117.05 453.274 117.431C454.173 117.802 454.886 118.31 455.413 118.954C455.94 119.589 456.204 120.424 456.204 121.459C456.204 122.162 456.048 122.807 455.735 123.393C455.423 123.979 454.974 124.491 454.388 124.931C453.802 125.36 453.099 125.697 452.278 125.941C451.468 126.176 450.555 126.293 449.539 126.293C448.064 126.293 446.814 126.029 445.789 125.502C444.773 124.975 444.002 124.306 443.475 123.495C442.957 122.675 442.698 121.835 442.698 120.976H446.697C446.717 121.552 446.863 122.016 447.137 122.367C447.42 122.719 447.776 122.973 448.206 123.129C448.646 123.285 449.119 123.363 449.627 123.363C450.174 123.363 450.628 123.29 450.989 123.144C451.351 122.987 451.624 122.782 451.81 122.528C452.005 122.265 452.103 121.962 452.103 121.62Z" fill="white"/>
<g filter="url(#filter2_d_1_2120)">
<path d="M289.241 333.939V338H277.398V333.939H289.241ZM279.187 314.539V338H273.934V314.539H279.187ZM307.771 333.939V338H295.284V333.939H307.771ZM297.072 314.539V338H291.819V314.539H297.072ZM306.16 323.981V327.913H295.284V323.981H306.16ZM307.788 314.539V318.616H295.284V314.539H307.788ZM319.019 332.795L324.239 314.539H330.088L322.048 338H318.229L319.019 332.795ZM314.265 314.539L319.47 332.795L320.292 338H316.424L308.432 314.539H314.265ZM347.99 333.939V338H335.502V333.939H347.99ZM337.291 314.539V338H332.038V314.539H337.291ZM346.379 323.981V327.913H335.502V323.981H346.379ZM348.006 314.539V318.616H335.502V314.539H348.006ZM365.876 333.939V338H354.033V333.939H365.876ZM355.821 314.539V338H350.568V314.539H355.821ZM389.514 314.539H394.767V329.943C394.767 331.77 394.38 333.306 393.607 334.552C392.844 335.798 391.781 336.738 390.417 337.372C389.052 338.005 387.473 338.322 385.679 338.322C383.875 338.322 382.285 338.005 380.91 337.372C379.545 336.738 378.471 335.798 377.687 334.552C376.914 333.306 376.527 331.77 376.527 329.943V314.539H381.796V329.943C381.796 330.953 381.946 331.78 382.247 332.425C382.559 333.059 383.004 333.526 383.584 333.827C384.165 334.117 384.863 334.262 385.679 334.262C386.496 334.262 387.188 334.117 387.758 333.827C388.338 333.526 388.773 333.059 389.063 332.425C389.364 331.78 389.514 330.953 389.514 329.943V314.539ZM407.771 329.847H401.873V325.77H407.771C408.641 325.77 409.339 325.625 409.865 325.335C410.402 325.045 410.794 324.647 411.042 324.143C411.299 323.627 411.428 323.047 411.428 322.402C411.428 321.736 411.299 321.119 411.042 320.549C410.794 319.969 410.402 319.502 409.865 319.147C409.339 318.793 408.641 318.616 407.771 318.616H403.774V338H398.521V314.539H407.771C409.64 314.539 411.24 314.877 412.572 315.554C413.915 316.231 414.941 317.16 415.65 318.342C416.37 319.513 416.729 320.855 416.729 322.37C416.729 323.885 416.37 325.201 415.65 326.318C414.941 327.435 413.915 328.305 412.572 328.928C411.24 329.541 409.64 329.847 407.771 329.847ZM425.318 314.539L424.706 330.701H420.564L419.952 314.539H425.318ZM419.807 335.712C419.807 334.992 420.065 334.385 420.581 333.891C421.096 333.397 421.778 333.15 422.627 333.15C423.465 333.15 424.136 333.397 424.641 333.891C425.157 334.385 425.415 334.992 425.415 335.712C425.415 336.442 425.157 337.055 424.641 337.549C424.136 338.032 423.465 338.274 422.627 338.274C421.778 338.274 421.096 338.032 420.581 337.549C420.065 337.055 419.807 336.442 419.807 335.712Z" fill="white"/>
</g>
<g filter="url(#filter3_d_1_2120)">
<circle cx="82" cy="104" r="6" fill="#FFF268"/>
</g>
<g filter="url(#filter4_d_1_2120)">
<circle cx="567" cy="58" r="6" fill="#FFF268"/>
</g>
<g filter="url(#filter5_d_1_2120)">
<circle cx="582" cy="467" r="6" fill="#FFF268"/>
</g>
<g filter="url(#filter6_d_1_2120)">
<circle cx="102" cy="67" r="9" fill="#FFF268"/>
</g>
<g filter="url(#filter7_di_1_2120)">
<path d="M224.098 190.854C224.697 189.011 227.303 189.011 227.902 190.854L234.532 211.257C234.799 212.081 235.567 212.639 236.434 212.639H257.887C259.824 212.639 260.63 215.119 259.062 216.257L241.706 228.867C241.005 229.377 240.712 230.279 240.98 231.103L247.609 251.507C248.208 253.349 246.099 254.881 244.532 253.743L227.176 241.133C226.475 240.623 225.525 240.623 224.824 241.133L207.468 253.743C205.901 254.881 203.792 253.349 204.391 251.507L211.02 231.103C211.288 230.279 210.995 229.377 210.294 228.867L192.938 216.257C191.37 215.119 192.176 212.639 194.113 212.639H215.566C216.433 212.639 217.201 212.081 217.468 211.257L224.098 190.854Z" fill="#FFF268"/>
</g>
<g filter="url(#filter8_di_1_2120)">
<path d="M312.098 190.854C312.697 189.011 315.303 189.011 315.902 190.854L322.532 211.257C322.799 212.081 323.567 212.639 324.434 212.639H345.887C347.824 212.639 348.63 215.119 347.062 216.257L329.706 228.867C329.005 229.377 328.712 230.279 328.98 231.103L335.609 251.507C336.208 253.349 334.099 254.881 332.532 253.743L315.176 241.133C314.475 240.623 313.525 240.623 312.824 241.133L295.468 253.743C293.901 254.881 291.792 253.349 292.391 251.507L299.02 231.103C299.288 230.279 298.995 229.377 298.294 228.867L280.938 216.257C279.37 215.119 280.176 212.639 282.113 212.639H303.566C304.433 212.639 305.201 212.081 305.468 211.257L312.098 190.854Z" fill="#FFF268"/>
</g>
<g filter="url(#filter9_di_1_2120)">
<path d="M392.098 190.854C392.697 189.011 395.303 189.011 395.902 190.854L402.532 211.257C402.799 212.081 403.567 212.639 404.434 212.639H425.887C427.824 212.639 428.63 215.119 427.062 216.257L409.706 228.867C409.005 229.377 408.712 230.279 408.98 231.103L415.609 251.507C416.208 253.349 414.099 254.881 412.532 253.743L395.176 241.133C394.475 240.623 393.525 240.623 392.824 241.133L375.468 253.743C373.901 254.881 371.792 253.349 372.391 251.507L379.02 231.103C379.288 230.279 378.995 229.377 378.294 228.867L360.938 216.257C359.37 215.119 360.176 212.639 362.113 212.639H383.566C384.433 212.639 385.201 212.081 385.468 211.257L392.098 190.854Z" fill="white" fill-opacity="0.5"/>
</g>
<g filter="url(#filter10_di_1_2120)">
<path d="M472.098 190.854C472.697 189.011 475.303 189.011 475.902 190.854L482.532 211.257C482.799 212.081 483.567 212.639 484.434 212.639H505.887C507.824 212.639 508.63 215.119 507.062 216.257L489.706 228.867C489.005 229.377 488.712 230.279 488.98 231.103L495.609 251.507C496.208 253.349 494.099 254.881 492.532 253.743L475.176 241.133C474.475 240.623 473.525 240.623 472.824 241.133L455.468 253.743C453.901 254.881 451.792 253.349 452.391 251.507L459.02 231.103C459.288 230.279 458.995 229.377 458.294 228.867L440.938 216.257C439.37 215.119 440.176 212.639 442.113 212.639H463.566C464.433 212.639 465.201 212.081 465.468 211.257L472.098 190.854Z" fill="white" fill-opacity="0.5"/>
</g>
<path d="M565.124 504.069C565.769 502.328 568.231 502.328 568.876 504.069L570.732 509.086C570.935 509.634 571.366 510.065 571.914 510.268L576.931 512.124C578.672 512.769 578.672 515.231 576.931 515.876L571.914 517.732C571.366 517.935 570.935 518.366 570.732 518.914L568.876 523.931C568.231 525.672 565.769 525.672 565.124 523.931L563.268 518.914C563.065 518.366 562.634 517.935 562.086 517.732L557.069 515.876C555.328 515.231 555.328 512.769 557.069 512.124L562.086 510.268C562.634 510.065 563.065 509.634 563.268 509.086L565.124 504.069Z" fill="#FFF268"/>
<path d="M124.124 370.069C124.769 368.328 127.231 368.328 127.876 370.069L129.732 375.086C129.935 375.634 130.366 376.065 130.914 376.268L135.931 378.124C137.672 378.769 137.672 381.231 135.931 381.876L130.914 383.732C130.366 383.935 129.935 384.366 129.732 384.914L127.876 389.931C127.231 391.672 124.769 391.672 124.124 389.931L122.268 384.914C122.065 384.366 121.634 383.935 121.086 383.732L116.069 381.876C114.328 381.231 114.328 378.769 116.069 378.124L121.086 376.268C121.634 376.065 122.065 375.634 122.268 375.086L124.124 370.069Z" fill="white"/>
<path d="M541.124 24.069C541.769 22.3278 544.231 22.3278 544.876 24.069L546.732 29.0862C546.935 29.6336 547.366 30.0652 547.914 30.2678L552.931 32.1243C554.672 32.7686 554.672 35.2314 552.931 35.8757L547.914 37.7322C547.366 37.9348 546.935 38.3664 546.732 38.9138L544.876 43.931C544.231 45.6722 541.769 45.6722 541.124 43.931L539.268 38.9138C539.065 38.3664 538.634 37.9348 538.086 37.7322L533.069 35.8757C531.328 35.2314 531.328 32.7686 533.069 32.1243L538.086 30.2678C538.634 30.0652 539.065 29.6336 539.268 29.0862L541.124 24.069Z" fill="white"/>
<defs>
<filter id="filter0_d_1_2120" x="156" y="67" width="388" height="488" filterUnits="userSpaceOnUse" color-interpolation-filters="sRGB">
<feFlood flood-opacity="0" result="BackgroundImageFix"/>
<feColorMatrix in="SourceAlpha" type="matrix" values="0 0 0 0 0 0 0 0 0 0 0 0 0 0 0 0 0 0 127 0" result="hardAlpha"/>
<feOffset dy="4"/>
<feGaussianBlur stdDeviation="2"/>
<feComposite in2="hardAlpha" operator="out"/>
<feColorMatrix type="matrix" values="0 0 0 0 0 0 0 0 0 0 0 0 0 0 0 0 0 0 0.25 0"/>
<feBlend mode="normal" in2="BackgroundImageFix" result="effect1_dropShadow_1_2120"/>
<feBlend mode="normal" in="SourceGraphic" in2="effect1_dropShadow_1_2120" result="shape"/>
</filter>
<filter id="filter1_d_1_2120" x="104.368" y="65.4999" width="489.163" height="122.08" filterUnits="userSpaceOnUse" color-interpolation-filters="sRGB">
<feFlood flood-opacity="0" result="BackgroundImageFix"/>
<feColorMatrix in="SourceAlpha" type="matrix" values="0 0 0 0 0 0 0 0 0 0 0 0 0 0 0 0 0 0 127 0" result="hardAlpha"/>
<feOffset dy="4"/>
<feGaussianBlur stdDeviation="2"/>
<feComposite in2="hardAlpha" operator="out"/>
<feColorMatrix type="matrix" values="0 0 0 0 0 0 0 0 0 0 0 0 0 0 0 0 0 0 0.25 0"/>
<feBlend mode="normal" in2="BackgroundImageFix" result="effect1_dropShadow_1_2120"/>
<feBlend mode="normal" in="SourceGraphic" in2="effect1_dropShadow_1_2120" result="shape"/>
</filter>
<filter id="filter2_d_1_2120" x="269.934" y="314.539" width="159.481" height="31.7832" filterUnits="userSpaceOnUse" color-interpolation-filters="sRGB">
<feFlood flood-opacity="0" result="BackgroundImageFix"/>
<feColorMatrix in="SourceAlpha" type="matrix" values="0 0 0 0 0 0 0 0 0 0 0 0 0 0 0 0 0 0 127 0" result="hardAlpha"/>
<feOffset dy="4"/>
<feGaussianBlur stdDeviation="2"/>
<feComposite in2="hardAlpha" operator="out"/>
<feColorMatrix type="matrix" values="0 0 0 0 0 0 0 0 0 0 0 0 0 0 0 0 0 0 0.25 0"/>
<feBlend mode="normal" in2="BackgroundImageFix" result="effect1_dropShadow_1_2120"/>
<feBlend mode="normal" in="SourceGraphic" in2="effect1_dropShadow_1_2120" result="shape"/>
</filter>
<filter id="filter3_d_1_2120" x="72" y="98" width="20" height="20" filterUnits="userSpaceOnUse" color-interpolation-filters="sRGB">
<feFlood flood-opacity="0" result="BackgroundImageFix"/>
<feColorMatrix in="SourceAlpha" type="matrix" values="0 0 0 0 0 0 0 0 0 0 0 0 0 0 0 0 0 0 127 0" result="hardAlpha"/>
<feOffset dy="4"/>
<feGaussianBlur stdDeviation="2"/>
<feComposite in2="hardAlpha" operator="out"/>
<feColorMatrix type="matrix" values="0 0 0 0 1 0 0 0 0 1 0 0 0 0 1 0 0 0 0.25 0"/>
<feBlend mode="normal" in2="BackgroundImageFix" result="effect1_dropShadow_1_2120"/>
<feBlend mode="normal" in="SourceGraphic" in2="effect1_dropShadow_1_2120" result="shape"/>
</filter>
<filter id="filter4_d_1_2120" x="557" y="52" width="20" height="20" filterUnits="userSpaceOnUse" color-interpolation-filters="sRGB">
<feFlood flood-opacity="0" result="BackgroundImageFix"/>
<feColorMatrix in="SourceAlpha" type="matrix" values="0 0 0 0 0 0 0 0 0 0 0 0 0 0 0 0 0 0 127 0" result="hardAlpha"/>
<feOffset dy="4"/>
<feGaussianBlur stdDeviation="2"/>
<feComposite in2="hardAlpha" operator="out"/>
<feColorMatrix type="matrix" values="0 0 0 0 1 0 0 0 0 1 0 0 0 0 1 0 0 0 0.25 0"/>
<feBlend mode="normal" in2="BackgroundImageFix" result="effect1_dropShadow_1_2120"/>
<feBlend mode="normal" in="SourceGraphic" in2="effect1_dropShadow_1_2120" result="shape"/>
</filter>
<filter id="filter5_d_1_2120" x="572" y="461" width="20" height="20" filterUnits="userSpaceOnUse" color-interpolation-filters="sRGB">
<feFlood flood-opacity="0" result="BackgroundImageFix"/>
<feColorMatrix in="SourceAlpha" type="matrix" values="0 0 0 0 0 0 0 0 0 0 0 0 0 0 0 0 0 0 127 0" result="hardAlpha"/>
<feOffset dy="4"/>
<feGaussianBlur stdDeviation="2"/>
<feComposite in2="hardAlpha" operator="out"/>
<feColorMatrix type="matrix" values="0 0 0 0 1 0 0 0 0 1 0 0 0 0 1 0 0 0 0.25 0"/>
<feBlend mode="normal" in2="BackgroundImageFix" result="effect1_dropShadow_1_2120"/>
<feBlend mode="normal" in="SourceGraphic" in2="effect1_dropShadow_1_2120" result="shape"/>
</filter>
<filter id="filter6_d_1_2120" x="89" y="58" width="26" height="26" filterUnits="userSpaceOnUse" color-interpolation-filters="sRGB">
<feFlood flood-opacity="0" result="BackgroundImageFix"/>
<feColorMatrix in="SourceAlpha" type="matrix" values="0 0 0 0 0 0 0 0 0 0 0 0 0 0 0 0 0 0 127 0" result="hardAlpha"/>
<feOffset dy="4"/>
<feGaussianBlur stdDeviation="2"/>
<feComposite in2="hardAlpha" operator="out"/>
<feColorMatrix type="matrix" values="0 0 0 0 1 0 0 0 0 1 0 0 0 0 1 0 0 0 0.25 0"/>
<feBlend mode="normal" in2="BackgroundImageFix" result="effect1_dropShadow_1_2120"/>
<feBlend mode="normal" in="SourceGraphic" in2="effect1_dropShadow_1_2120" result="shape"/>
</filter>
<filter id="filter7_di_1_2120" x="188.109" y="187.472" width="75.7815" height="72.6616" filterUnits="userSpaceOnUse" color-interpolation-filters="sRGB">
<feFlood flood-opacity="0" result="BackgroundImageFix"/>
<feColorMatrix in="SourceAlpha" type="matrix" values="0 0 0 0 0 0 0 0 0 0 0 0 0 0 0 0 0 0 127 0" result="hardAlpha"/>
<feOffset dy="2"/>
<feGaussianBlur stdDeviation="2"/>
<feComposite in2="hardAlpha" operator="out"/>
<feColorMatrix type="matrix" values="0 0 0 0 0 0 0 0 0 0 0 0 0 0 0 0 0 0 0.25 0"/>
<feBlend mode="normal" in2="BackgroundImageFix" result="effect1_dropShadow_1_2120"/>
<feBlend mode="normal" in="SourceGraphic" in2="effect1_dropShadow_1_2120" result="shape"/>
<feColorMatrix in="SourceAlpha" type="matrix" values="0 0 0 0 0 0 0 0 0 0 0 0 0 0 0 0 0 0 127 0" result="hardAlpha"/>
<feOffset dy="4"/>
<feGaussianBlur stdDeviation="10"/>
<feComposite in2="hardAlpha" operator="arithmetic" k2="-1" k3="1"/>
<feColorMatrix type="matrix" values="0 0 0 0 1 0 0 0 0 1 0 0 0 0 1 0 0 0 0.2 0"/>
<feBlend mode="normal" in2="shape" result="effect2_innerShadow_1_2120"/>
</filter>
<filter id="filter8_di_1_2120" x="276.109" y="187.472" width="75.7815" height="72.6616" filterUnits="userSpaceOnUse" color-interpolation-filters="sRGB">
<feFlood flood-opacity="0" result="BackgroundImageFix"/>
<feColorMatrix in="SourceAlpha" type="matrix" values="0 0 0 0 0 0 0 0 0 0 0 0 0 0 0 0 0 0 127 0" result="hardAlpha"/>
<feOffset dy="2"/>
<feGaussianBlur stdDeviation="2"/>
<feComposite in2="hardAlpha" operator="out"/>
<feColorMatrix type="matrix" values="0 0 0 0 0 0 0 0 0 0 0 0 0 0 0 0 0 0 0.25 0"/>
<feBlend mode="normal" in2="BackgroundImageFix" result="effect1_dropShadow_1_2120"/>
<feBlend mode="normal" in="SourceGraphic" in2="effect1_dropShadow_1_2120" result="shape"/>
<feColorMatrix in="SourceAlpha" type="matrix" values="0 0 0 0 0 0 0 0 0 0 0 0 0 0 0 0 0 0 127 0" result="hardAlpha"/>
<feOffset dy="4"/>
<feGaussianBlur stdDeviation="10"/>
<feComposite in2="hardAlpha" operator="arithmetic" k2="-1" k3="1"/>
<feColorMatrix type="matrix" values="0 0 0 0 1 0 0 0 0 1 0 0 0 0 1 0 0 0 0.2 0"/>
<feBlend mode="normal" in2="shape" result="effect2_innerShadow_1_2120"/>
</filter>
<filter id="filter9_di_1_2120" x="356.109" y="187.472" width="75.7815" height="72.6616" filterUnits="userSpaceOnUse" color-interpolation-filters="sRGB">
<feFlood flood-opacity="0" result="BackgroundImageFix"/>
<feColorMatrix in="SourceAlpha" type="matrix" values="0 0 0 0 0 0 0 0 0 0 0 0 0 0 0 0 0 0 127 0" result="hardAlpha"/>
<feOffset dy="2"/>
<feGaussianBlur stdDeviation="2"/>
<feComposite in2="hardAlpha" operator="out"/>
<feColorMatrix type="matrix" values="0 0 0 0 0 0 0 0 0 0 0 0 0 0 0 0 0 0 0.25 0"/>
<feBlend mode="normal" in2="BackgroundImageFix" result="effect1_dropShadow_1_2120"/>
<feBlend mode="normal" in="SourceGraphic" in2="effect1_dropShadow_1_2120" result="shape"/>
<feColorMatrix in="SourceAlpha" type="matrix" values="0 0 0 0 0 0 0 0 0 0 0 0 0 0 0 0 0 0 127 0" result="hardAlpha"/>
<feOffset dy="4"/>
<feGaussianBlur stdDeviation="10"/>
<feComposite in2="hardAlpha" operator="arithmetic" k2="-1" k3="1"/>
<feColorMatrix type="matrix" values="0 0 0 0 1 0 0 0 0 1 0 0 0 0 1 0 0 0 0.2 0"/>
<feBlend mode="normal" in2="shape" result="effect2_innerShadow_1_2120"/>
</filter>
<filter id="filter10_di_1_2120" x="436.109" y="187.472" width="75.7815" height="72.6616" filterUnits="userSpaceOnUse" color-interpolation-filters="sRGB">
<feFlood flood-opacity="0" result="BackgroundImageFix"/>
<feColorMatrix in="SourceAlpha" type="matrix" values="0 0 0 0 0 0 0 0 0 0 0 0 0 0 0 0 0 0 127 0" result="hardAlpha"/>
<feOffset dy="2"/>
<feGaussianBlur stdDeviation="2"/>
<feComposite in2="hardAlpha" operator="out"/>
<feColorMatrix type="matrix" values="0 0 0 0 0 0 0 0 0 0 0 0 0 0 0 0 0 0 0.25 0"/>
<feBlend mode="normal" in2="BackgroundImageFix" result="effect1_dropShadow_1_2120"/>
<feBlend mode="normal" in="SourceGraphic" in2="effect1_dropShadow_1_2120" result="shape"/>
<feColorMatrix in="SourceAlpha" type="matrix" values="0 0 0 0 0 0 0 0 0 0 0 0 0 0 0 0 0 0 127 0" result="hardAlpha"/>
<feOffset dy="4"/>
<feGaussianBlur stdDeviation="10"/>
<feComposite in2="hardAlpha" operator="arithmetic" k2="-1" k3="1"/>
<feColorMatrix type="matrix" values="0 0 0 0 1 0 0 0 0 1 0 0 0 0 1 0 0 0 0.2 0"/>
<feBlend mode="normal" in2="shape" result="effect2_innerShadow_1_2120"/>
</filter>
</defs>
</svg>
