<svg width="258" height="48" viewBox="0 0 258 48" fill="none" xmlns="http://www.w3.org/2000/svg">
<g filter="url(#filter0_d_57_2967)">
<path d="M4 40C4 17.9086 21.9086 0 44 0H254C254 22.0914 236.091 40 214 40H4Z" fill="#FF3838"/>
</g>
<path d="M84.0913 13.0703V28H81.5176V13.0703H84.0913ZM90.1821 19.6021V21.6426H83.4351V19.6021H90.1821ZM91.0332 13.0703V15.1211H83.4351V13.0703H91.0332ZM95.4834 16.9053V28H93.002V16.9053H95.4834ZM92.8379 13.9932C92.8379 13.6172 92.9609 13.3062 93.207 13.0601C93.46 12.8071 93.8086 12.6807 94.2529 12.6807C94.6904 12.6807 95.0356 12.8071 95.2886 13.0601C95.5415 13.3062 95.668 13.6172 95.668 13.9932C95.668 14.3623 95.5415 14.6699 95.2886 14.916C95.0356 15.1621 94.6904 15.2852 94.2529 15.2852C93.8086 15.2852 93.46 15.1621 93.207 14.916C92.9609 14.6699 92.8379 14.3623 92.8379 13.9932ZM100.672 19.0176V28H98.2007V16.9053H100.559L100.672 19.0176ZM104.066 16.8335L104.045 19.1304C103.895 19.103 103.731 19.0825 103.553 19.0688C103.382 19.0552 103.211 19.0483 103.041 19.0483C102.617 19.0483 102.244 19.1099 101.923 19.2329C101.602 19.3491 101.332 19.52 101.113 19.7456C100.901 19.9644 100.737 20.231 100.621 20.5454C100.504 20.8599 100.436 21.2119 100.416 21.6016L99.8516 21.6426C99.8516 20.9453 99.9199 20.2993 100.057 19.7046C100.193 19.1099 100.398 18.5869 100.672 18.1357C100.952 17.6846 101.301 17.3325 101.718 17.0796C102.142 16.8267 102.63 16.7002 103.184 16.7002C103.334 16.7002 103.495 16.7139 103.666 16.7412C103.844 16.7686 103.977 16.7993 104.066 16.8335ZM111.838 24.9956C111.838 24.7495 111.777 24.5273 111.654 24.3291C111.531 24.124 111.295 23.9395 110.946 23.7754C110.604 23.6113 110.099 23.4609 109.429 23.3242C108.841 23.1943 108.301 23.0405 107.809 22.8628C107.323 22.6782 106.906 22.4561 106.558 22.1963C106.209 21.9365 105.939 21.6289 105.748 21.2734C105.556 20.918 105.46 20.5078 105.46 20.043C105.46 19.5918 105.56 19.1646 105.758 18.7612C105.956 18.3579 106.24 18.0024 106.609 17.6948C106.978 17.3872 107.426 17.1445 107.952 16.9668C108.485 16.7891 109.08 16.7002 109.736 16.7002C110.666 16.7002 111.462 16.8574 112.125 17.1719C112.795 17.4795 113.308 17.8999 113.664 18.4331C114.019 18.9595 114.197 19.5542 114.197 20.2173H111.726C111.726 19.9233 111.65 19.6499 111.5 19.397C111.356 19.1372 111.138 18.9287 110.844 18.7715C110.55 18.6074 110.181 18.5254 109.736 18.5254C109.312 18.5254 108.96 18.5938 108.68 18.7305C108.407 18.8604 108.202 19.0312 108.065 19.2432C107.935 19.4551 107.87 19.6875 107.87 19.9404C107.87 20.125 107.904 20.2925 107.973 20.4429C108.048 20.5864 108.171 20.7197 108.342 20.8428C108.513 20.959 108.745 21.0684 109.039 21.1709C109.34 21.2734 109.716 21.3726 110.167 21.4683C111.015 21.646 111.743 21.875 112.351 22.1553C112.966 22.4287 113.438 22.7842 113.766 23.2217C114.094 23.6523 114.258 24.1992 114.258 24.8623C114.258 25.3545 114.152 25.8057 113.94 26.2158C113.735 26.6191 113.435 26.9712 113.038 27.272C112.642 27.5659 112.167 27.7949 111.613 27.959C111.066 28.123 110.451 28.2051 109.767 28.2051C108.762 28.2051 107.911 28.0273 107.214 27.6719C106.517 27.3096 105.987 26.8481 105.625 26.2876C105.269 25.7202 105.091 25.1323 105.091 24.5239H107.48C107.508 24.9819 107.634 25.3477 107.86 25.6211C108.092 25.8877 108.379 26.0825 108.721 26.2056C109.07 26.3218 109.429 26.3799 109.798 26.3799C110.242 26.3799 110.615 26.3218 110.916 26.2056C111.216 26.0825 111.445 25.9185 111.603 25.7134C111.76 25.5015 111.838 25.2622 111.838 24.9956ZM121.508 16.9053V18.71H115.253V16.9053H121.508ZM117.058 14.188H119.529V24.9341C119.529 25.2759 119.577 25.5391 119.672 25.7236C119.775 25.9014 119.915 26.021 120.093 26.0825C120.271 26.144 120.479 26.1748 120.718 26.1748C120.889 26.1748 121.053 26.1646 121.21 26.144C121.368 26.1235 121.494 26.103 121.59 26.0825L121.6 27.9692C121.395 28.0308 121.156 28.0854 120.882 28.1333C120.616 28.1812 120.308 28.2051 119.959 28.2051C119.392 28.2051 118.89 28.106 118.452 27.9077C118.015 27.7026 117.673 27.3711 117.427 26.9131C117.181 26.4551 117.058 25.8467 117.058 25.0879V14.188ZM128.388 20.6377V22.6064H122.964V20.6377H128.388ZM135.084 26.2363C135.487 26.2363 135.85 26.1577 136.171 26.0005C136.499 25.8364 136.762 25.6108 136.96 25.3237C137.166 25.0366 137.278 24.7051 137.299 24.3291H139.626C139.613 25.0469 139.401 25.6997 138.991 26.2876C138.581 26.8755 138.037 27.3438 137.36 27.6924C136.684 28.0342 135.935 28.2051 135.115 28.2051C134.267 28.2051 133.529 28.0615 132.9 27.7744C132.271 27.4805 131.748 27.0771 131.331 26.5645C130.914 26.0518 130.6 25.4604 130.388 24.7905C130.183 24.1206 130.08 23.4028 130.08 22.6372V22.2783C130.08 21.5127 130.183 20.7949 130.388 20.125C130.6 19.4482 130.914 18.8535 131.331 18.3408C131.748 17.8281 132.271 17.4282 132.9 17.1411C133.529 16.8472 134.264 16.7002 135.104 16.7002C135.993 16.7002 136.772 16.8779 137.442 17.2334C138.112 17.582 138.639 18.0708 139.021 18.6997C139.411 19.3218 139.613 20.0464 139.626 20.8735H137.299C137.278 20.4634 137.176 20.0942 136.991 19.7661C136.813 19.4312 136.561 19.1646 136.232 18.9663C135.911 18.7681 135.525 18.6689 135.074 18.6689C134.575 18.6689 134.161 18.7715 133.833 18.9766C133.505 19.1748 133.249 19.4482 133.064 19.7969C132.879 20.1387 132.746 20.5249 132.664 20.9556C132.589 21.3794 132.551 21.8203 132.551 22.2783V22.6372C132.551 23.0952 132.589 23.5396 132.664 23.9702C132.739 24.4009 132.869 24.7871 133.054 25.1289C133.245 25.4639 133.505 25.7339 133.833 25.939C134.161 26.1372 134.578 26.2363 135.084 26.2363ZM144.169 12.25V28H141.688V12.25H144.169ZM153.131 25.7749V20.4839C153.131 20.0874 153.059 19.7456 152.916 19.4585C152.772 19.1714 152.553 18.9492 152.259 18.792C151.972 18.6348 151.61 18.5562 151.172 18.5562C150.769 18.5562 150.42 18.6245 150.126 18.7612C149.833 18.8979 149.604 19.0825 149.439 19.3149C149.275 19.5474 149.193 19.8105 149.193 20.1045H146.732C146.732 19.667 146.838 19.2432 147.05 18.833C147.262 18.4229 147.57 18.0571 147.973 17.7358C148.376 17.4146 148.858 17.1616 149.419 16.9771C149.979 16.7925 150.608 16.7002 151.306 16.7002C152.14 16.7002 152.878 16.8403 153.521 17.1206C154.17 17.4009 154.679 17.8247 155.048 18.3921C155.424 18.9526 155.612 19.6567 155.612 20.5044V25.4365C155.612 25.9424 155.646 26.397 155.715 26.8003C155.79 27.1968 155.896 27.542 156.033 27.8359V28H153.5C153.384 27.7334 153.292 27.395 153.223 26.9849C153.162 26.5679 153.131 26.1646 153.131 25.7749ZM153.49 21.2529L153.51 22.7808H151.736C151.278 22.7808 150.875 22.8252 150.526 22.9141C150.178 22.9961 149.887 23.1191 149.655 23.2832C149.422 23.4473 149.248 23.6455 149.132 23.8779C149.016 24.1104 148.958 24.3735 148.958 24.6675C148.958 24.9614 149.026 25.2314 149.163 25.4775C149.299 25.7168 149.498 25.9048 149.757 26.0415C150.024 26.1782 150.345 26.2466 150.721 26.2466C151.227 26.2466 151.668 26.144 152.044 25.939C152.427 25.7271 152.728 25.4707 152.946 25.1699C153.165 24.8623 153.281 24.5718 153.295 24.2983L154.095 25.3955C154.013 25.6758 153.873 25.9766 153.674 26.2979C153.476 26.6191 153.216 26.9268 152.895 27.2207C152.581 27.5078 152.201 27.7437 151.757 27.9282C151.319 28.1128 150.813 28.2051 150.239 28.2051C149.515 28.2051 148.869 28.0615 148.301 27.7744C147.734 27.4805 147.29 27.0874 146.968 26.5952C146.647 26.0962 146.486 25.5322 146.486 24.9033C146.486 24.3154 146.596 23.7959 146.814 23.3447C147.04 22.8867 147.368 22.5039 147.799 22.1963C148.236 21.8887 148.77 21.6562 149.398 21.499C150.027 21.335 150.745 21.2529 151.552 21.2529H153.49ZM164.42 24.9956C164.42 24.7495 164.359 24.5273 164.236 24.3291C164.113 24.124 163.877 23.9395 163.528 23.7754C163.187 23.6113 162.681 23.4609 162.011 23.3242C161.423 23.1943 160.883 23.0405 160.391 22.8628C159.905 22.6782 159.488 22.4561 159.14 22.1963C158.791 21.9365 158.521 21.6289 158.33 21.2734C158.138 20.918 158.042 20.5078 158.042 20.043C158.042 19.5918 158.142 19.1646 158.34 18.7612C158.538 18.3579 158.822 18.0024 159.191 17.6948C159.56 17.3872 160.008 17.1445 160.534 16.9668C161.067 16.7891 161.662 16.7002 162.318 16.7002C163.248 16.7002 164.044 16.8574 164.708 17.1719C165.377 17.4795 165.89 17.8999 166.246 18.4331C166.601 18.9595 166.779 19.5542 166.779 20.2173H164.308C164.308 19.9233 164.232 19.6499 164.082 19.397C163.938 19.1372 163.72 18.9287 163.426 18.7715C163.132 18.6074 162.763 18.5254 162.318 18.5254C161.895 18.5254 161.542 18.5938 161.262 18.7305C160.989 18.8604 160.784 19.0312 160.647 19.2432C160.517 19.4551 160.452 19.6875 160.452 19.9404C160.452 20.125 160.486 20.2925 160.555 20.4429C160.63 20.5864 160.753 20.7197 160.924 20.8428C161.095 20.959 161.327 21.0684 161.621 21.1709C161.922 21.2734 162.298 21.3726 162.749 21.4683C163.597 21.646 164.325 21.875 164.933 22.1553C165.548 22.4287 166.02 22.7842 166.348 23.2217C166.676 23.6523 166.84 24.1992 166.84 24.8623C166.84 25.3545 166.734 25.8057 166.522 26.2158C166.317 26.6191 166.017 26.9712 165.62 27.272C165.224 27.5659 164.749 27.7949 164.195 27.959C163.648 28.123 163.033 28.2051 162.349 28.2051C161.344 28.2051 160.493 28.0273 159.796 27.6719C159.099 27.3096 158.569 26.8481 158.207 26.2876C157.851 25.7202 157.673 25.1323 157.673 24.5239H160.062C160.09 24.9819 160.216 25.3477 160.442 25.6211C160.674 25.8877 160.961 26.0825 161.303 26.2056C161.652 26.3218 162.011 26.3799 162.38 26.3799C162.824 26.3799 163.197 26.3218 163.498 26.2056C163.798 26.0825 164.027 25.9185 164.185 25.7134C164.342 25.5015 164.42 25.2622 164.42 24.9956ZM175.228 24.9956C175.228 24.7495 175.167 24.5273 175.043 24.3291C174.92 24.124 174.685 23.9395 174.336 23.7754C173.994 23.6113 173.488 23.4609 172.818 23.3242C172.23 23.1943 171.69 23.0405 171.198 22.8628C170.713 22.6782 170.296 22.4561 169.947 22.1963C169.599 21.9365 169.329 21.6289 169.137 21.2734C168.946 20.918 168.85 20.5078 168.85 20.043C168.85 19.5918 168.949 19.1646 169.147 18.7612C169.346 18.3579 169.629 18.0024 169.999 17.6948C170.368 17.3872 170.815 17.1445 171.342 16.9668C171.875 16.7891 172.47 16.7002 173.126 16.7002C174.056 16.7002 174.852 16.8574 175.515 17.1719C176.185 17.4795 176.698 17.8999 177.053 18.4331C177.409 18.9595 177.586 19.5542 177.586 20.2173H175.115C175.115 19.9233 175.04 19.6499 174.89 19.397C174.746 19.1372 174.527 18.9287 174.233 18.7715C173.939 18.6074 173.57 18.5254 173.126 18.5254C172.702 18.5254 172.35 18.5938 172.07 18.7305C171.796 18.8604 171.591 19.0312 171.455 19.2432C171.325 19.4551 171.26 19.6875 171.26 19.9404C171.26 20.125 171.294 20.2925 171.362 20.4429C171.438 20.5864 171.561 20.7197 171.731 20.8428C171.902 20.959 172.135 21.0684 172.429 21.1709C172.729 21.2734 173.105 21.3726 173.557 21.4683C174.404 21.646 175.132 21.875 175.741 22.1553C176.356 22.4287 176.828 22.7842 177.156 23.2217C177.484 23.6523 177.648 24.1992 177.648 24.8623C177.648 25.3545 177.542 25.8057 177.33 26.2158C177.125 26.6191 176.824 26.9712 176.428 27.272C176.031 27.5659 175.556 27.7949 175.002 27.959C174.456 28.123 173.84 28.2051 173.157 28.2051C172.152 28.2051 171.301 28.0273 170.604 27.6719C169.906 27.3096 169.376 26.8481 169.014 26.2876C168.659 25.7202 168.481 25.1323 168.481 24.5239H170.87C170.897 24.9819 171.024 25.3477 171.25 25.6211C171.482 25.8877 171.769 26.0825 172.111 26.2056C172.459 26.3218 172.818 26.3799 173.188 26.3799C173.632 26.3799 174.004 26.3218 174.305 26.2056C174.606 26.0825 174.835 25.9185 174.992 25.7134C175.149 25.5015 175.228 25.2622 175.228 24.9956Z" fill="white"/>
<defs>
<filter id="filter0_d_57_2967" x="0" y="0" width="258" height="48" filterUnits="userSpaceOnUse" color-interpolation-filters="sRGB">
<feFlood flood-opacity="0" result="BackgroundImageFix"/>
<feColorMatrix in="SourceAlpha" type="matrix" values="0 0 0 0 0 0 0 0 0 0 0 0 0 0 0 0 0 0 127 0" result="hardAlpha"/>
<feOffset dy="4"/>
<feGaussianBlur stdDeviation="2"/>
<feComposite in2="hardAlpha" operator="out"/>
<feColorMatrix type="matrix" values="0 0 0 0 0 0 0 0 0 0 0 0 0 0 0 0 0 0 0.25 0"/>
<feBlend mode="normal" in2="BackgroundImageFix" result="effect1_dropShadow_57_2967"/>
<feBlend mode="normal" in="SourceGraphic" in2="effect1_dropShadow_57_2967" result="shape"/>
</filter>
</defs>
</svg>
