<svg width="188" height="48" viewBox="0 0 188 48" fill="none" xmlns="http://www.w3.org/2000/svg">
<g filter="url(#filter0_d_1_985)">
<rect x="4" width="180" height="40" rx="10" fill="#D0D5F7"/>
</g>
<g filter="url(#filter1_d_1_985)">
<path d="M65.0469 19.082V25.8438C64.7812 26.1641 64.3711 26.5117 63.8164 26.8867C63.2617 27.2539 62.5469 27.5703 61.6719 27.8359C60.7969 28.1016 59.7383 28.2344 58.4961 28.2344C57.3945 28.2344 56.3906 28.0547 55.4844 27.6953C54.5781 27.3281 53.7969 26.793 53.1406 26.0898C52.4922 25.3867 51.9922 24.5273 51.6406 23.5117C51.2891 22.4883 51.1133 21.3203 51.1133 20.0078V18.9414C51.1133 17.6289 51.2812 16.4609 51.6172 15.4375C51.9609 14.4141 52.4492 13.5508 53.082 12.8477C53.7148 12.1445 54.4688 11.6094 55.3438 11.2422C56.2188 10.875 57.1914 10.6914 58.2617 10.6914C59.7461 10.6914 60.9648 10.9336 61.918 11.418C62.8711 11.8945 63.5977 12.5586 64.0977 13.4102C64.6055 14.2539 64.918 15.2227 65.0352 16.3164H61.625C61.5391 15.7383 61.375 15.2344 61.1328 14.8047C60.8906 14.375 60.543 14.0391 60.0898 13.7969C59.6445 13.5547 59.0664 13.4336 58.3555 13.4336C57.7695 13.4336 57.2461 13.5547 56.7852 13.7969C56.332 14.0312 55.9492 14.3789 55.6367 14.8398C55.3242 15.3008 55.0859 15.8711 54.9219 16.5508C54.7578 17.2305 54.6758 18.0195 54.6758 18.918V20.0078C54.6758 20.8984 54.7617 21.6875 54.9336 22.375C55.1055 23.0547 55.3594 23.6289 55.6953 24.0977C56.0391 24.5586 56.4609 24.9062 56.9609 25.1406C57.4609 25.375 58.043 25.4922 58.707 25.4922C59.2617 25.4922 59.7227 25.4453 60.0898 25.3516C60.4648 25.2578 60.7656 25.1445 60.9922 25.0117C61.2266 24.8711 61.4062 24.7383 61.5312 24.6133V21.5898H58.3203V19.082H65.0469ZM67.1328 21.7891V21.543C67.1328 20.6133 67.2656 19.7578 67.5312 18.9766C67.7969 18.1875 68.1836 17.5039 68.6914 16.9258C69.1992 16.3477 69.8242 15.8984 70.5664 15.5781C71.3086 15.25 72.1602 15.0859 73.1211 15.0859C74.082 15.0859 74.9375 15.25 75.6875 15.5781C76.4375 15.8984 77.0664 16.3477 77.5742 16.9258C78.0898 17.5039 78.4805 18.1875 78.7461 18.9766C79.0117 19.7578 79.1445 20.6133 79.1445 21.543V21.7891C79.1445 22.7109 79.0117 23.5664 78.7461 24.3555C78.4805 25.1367 78.0898 25.8203 77.5742 26.4062C77.0664 26.9844 76.4414 27.4336 75.6992 27.7539C74.957 28.0742 74.1055 28.2344 73.1445 28.2344C72.1836 28.2344 71.3281 28.0742 70.5781 27.7539C69.8359 27.4336 69.207 26.9844 68.6914 26.4062C68.1836 25.8203 67.7969 25.1367 67.5312 24.3555C67.2656 23.5664 67.1328 22.7109 67.1328 21.7891ZM70.5078 21.543V21.7891C70.5078 22.3203 70.5547 22.8164 70.6484 23.2773C70.7422 23.7383 70.8906 24.1445 71.0938 24.4961C71.3047 24.8398 71.5781 25.1094 71.9141 25.3047C72.25 25.5 72.6602 25.5977 73.1445 25.5977C73.6133 25.5977 74.0156 25.5 74.3516 25.3047C74.6875 25.1094 74.957 24.8398 75.1602 24.4961C75.3633 24.1445 75.5117 23.7383 75.6055 23.2773C75.707 22.8164 75.7578 22.3203 75.7578 21.7891V21.543C75.7578 21.0273 75.707 20.543 75.6055 20.0898C75.5117 19.6289 75.3594 19.2227 75.1484 18.8711C74.9453 18.5117 74.6758 18.2305 74.3398 18.0273C74.0039 17.8242 73.5977 17.7227 73.1211 17.7227C72.6445 17.7227 72.2383 17.8242 71.9023 18.0273C71.5742 18.2305 71.3047 18.5117 71.0938 18.8711C70.8906 19.2227 70.7422 19.6289 70.6484 20.0898C70.5547 20.543 70.5078 21.0273 70.5078 21.543ZM87.1953 10H90.5703V25.0938L90.2305 28H87.1953V10ZM98.5977 21.5312V21.7773C98.5977 22.7227 98.4961 23.5898 98.293 24.3789C98.0977 25.168 97.793 25.8516 97.3789 26.4297C96.9648 27 96.4492 27.4453 95.832 27.7656C95.2227 28.0781 94.5039 28.2344 93.6758 28.2344C92.9023 28.2344 92.2305 28.0781 91.6602 27.7656C91.0977 27.4531 90.625 27.0117 90.2422 26.4414C89.8594 25.8711 89.5508 25.2031 89.3164 24.4375C89.082 23.6719 88.9062 22.8359 88.7891 21.9297V21.3906C88.9062 20.4844 89.082 19.6484 89.3164 18.8828C89.5508 18.1172 89.8594 17.4492 90.2422 16.8789C90.625 16.3086 91.0977 15.8672 91.6602 15.5547C92.2227 15.2422 92.8867 15.0859 93.6523 15.0859C94.4883 15.0859 95.2148 15.2461 95.832 15.5664C96.457 15.8789 96.9727 16.3242 97.3789 16.9023C97.793 17.4727 98.0977 18.1523 98.293 18.9414C98.4961 19.7227 98.5977 20.5859 98.5977 21.5312ZM95.2227 21.7773V21.5312C95.2227 21.0156 95.1836 20.5312 95.1055 20.0781C95.0352 19.6172 94.9102 19.2148 94.7305 18.8711C94.5508 18.5195 94.3047 18.2422 93.9922 18.0391C93.6875 17.8359 93.293 17.7344 92.8086 17.7344C92.3477 17.7344 91.957 17.8125 91.6367 17.9688C91.3164 18.125 91.0508 18.3438 90.8398 18.625C90.6367 18.9062 90.4844 19.2422 90.3828 19.6328C90.2812 20.0156 90.2188 20.4375 90.1953 20.8984V22.4336C90.2188 23.0508 90.3203 23.5977 90.5 24.0742C90.6875 24.543 90.9688 24.9141 91.3438 25.1875C91.7266 25.4531 92.2227 25.5859 92.832 25.5859C93.3086 25.5859 93.7031 25.4922 94.0156 25.3047C94.3281 25.1172 94.5703 24.8516 94.7422 24.5078C94.9219 24.1641 95.0469 23.7617 95.1172 23.3008C95.1875 22.832 95.2227 22.3242 95.2227 21.7773ZM107.539 25.1406V19.4922C107.539 19.0859 107.473 18.7383 107.34 18.4492C107.207 18.1523 107 17.9219 106.719 17.7578C106.445 17.5938 106.09 17.5117 105.652 17.5117C105.277 17.5117 104.953 17.5781 104.68 17.7109C104.406 17.8359 104.195 18.0195 104.047 18.2617C103.898 18.4961 103.824 18.7734 103.824 19.0938H100.449C100.449 18.5547 100.574 18.043 100.824 17.5586C101.074 17.0742 101.438 16.6484 101.914 16.2812C102.391 15.9062 102.957 15.6133 103.613 15.4023C104.277 15.1914 105.02 15.0859 105.84 15.0859C106.824 15.0859 107.699 15.25 108.465 15.5781C109.23 15.9062 109.832 16.3984 110.27 17.0547C110.715 17.7109 110.938 18.5312 110.938 19.5156V24.9414C110.938 25.6367 110.98 26.207 111.066 26.6523C111.152 27.0898 111.277 27.4727 111.441 27.8008V28H108.031C107.867 27.6562 107.742 27.2266 107.656 26.7109C107.578 26.1875 107.539 25.6641 107.539 25.1406ZM107.984 20.2773L108.008 22.1875H106.121C105.676 22.1875 105.289 22.2383 104.961 22.3398C104.633 22.4414 104.363 22.5859 104.152 22.7734C103.941 22.9531 103.785 23.1641 103.684 23.4062C103.59 23.6484 103.543 23.9141 103.543 24.2031C103.543 24.4922 103.609 24.7539 103.742 24.9883C103.875 25.2148 104.066 25.3945 104.316 25.5273C104.566 25.6523 104.859 25.7148 105.195 25.7148C105.703 25.7148 106.145 25.6133 106.52 25.4102C106.895 25.207 107.184 24.957 107.387 24.6602C107.598 24.3633 107.707 24.082 107.715 23.8164L108.605 25.2461C108.48 25.5664 108.309 25.8984 108.09 26.2422C107.879 26.5859 107.609 26.9102 107.281 27.2148C106.953 27.5117 106.559 27.7578 106.098 27.9531C105.637 28.1406 105.09 28.2344 104.457 28.2344C103.652 28.2344 102.922 28.0742 102.266 27.7539C101.617 27.4258 101.102 26.9766 100.719 26.4062C100.344 25.8281 100.156 25.1719 100.156 24.4375C100.156 23.7734 100.281 23.1836 100.531 22.668C100.781 22.1523 101.148 21.7188 101.633 21.3672C102.125 21.0078 102.738 20.7383 103.473 20.5586C104.207 20.3711 105.059 20.2773 106.027 20.2773H107.984ZM118.777 25.5977C119.191 25.5977 119.559 25.5195 119.879 25.3633C120.199 25.1992 120.449 24.9727 120.629 24.6836C120.816 24.3867 120.914 24.0391 120.922 23.6406H124.098C124.09 24.5312 123.852 25.3242 123.383 26.0195C122.914 26.707 122.285 27.25 121.496 27.6484C120.707 28.0391 119.824 28.2344 118.848 28.2344C117.863 28.2344 117.004 28.0703 116.27 27.7422C115.543 27.4141 114.938 26.9609 114.453 26.3828C113.969 25.7969 113.605 25.1172 113.363 24.3438C113.121 23.5625 113 22.7266 113 21.8359V21.4961C113 20.5977 113.121 19.7617 113.363 18.9883C113.605 18.207 113.969 17.5273 114.453 16.9492C114.938 16.3633 115.543 15.9062 116.27 15.5781C116.996 15.25 117.848 15.0859 118.824 15.0859C119.863 15.0859 120.773 15.2852 121.555 15.6836C122.344 16.082 122.961 16.6523 123.406 17.3945C123.859 18.1289 124.09 19 124.098 20.0078H120.922C120.914 19.5859 120.824 19.2031 120.652 18.8594C120.488 18.5156 120.246 18.2422 119.926 18.0391C119.613 17.8281 119.227 17.7227 118.766 17.7227C118.273 17.7227 117.871 17.8281 117.559 18.0391C117.246 18.2422 117.004 18.5234 116.832 18.8828C116.66 19.2344 116.539 19.6367 116.469 20.0898C116.406 20.5352 116.375 21.0039 116.375 21.4961V21.8359C116.375 22.3281 116.406 22.8008 116.469 23.2539C116.531 23.707 116.648 24.1094 116.82 24.4609C117 24.8125 117.246 25.0898 117.559 25.293C117.871 25.4961 118.277 25.5977 118.777 25.5977ZM129.43 9.98828V28H126.055V9.98828H129.43ZM137.422 15.3203L131.914 21.6016L128.961 24.5898L127.73 22.1523L130.074 19.1758L133.367 15.3203H137.422ZM133.918 28L130.168 22.1406L132.5 20.1016L137.809 28H133.918Z" fill="white"/>
</g>
<defs>
<filter id="filter0_d_1_985" x="0" y="0" width="188" height="48" filterUnits="userSpaceOnUse" color-interpolation-filters="sRGB">
<feFlood flood-opacity="0" result="BackgroundImageFix"/>
<feColorMatrix in="SourceAlpha" type="matrix" values="0 0 0 0 0 0 0 0 0 0 0 0 0 0 0 0 0 0 127 0" result="hardAlpha"/>
<feOffset dy="4"/>
<feGaussianBlur stdDeviation="2"/>
<feComposite in2="hardAlpha" operator="out"/>
<feColorMatrix type="matrix" values="0 0 0 0 0 0 0 0 0 0 0 0 0 0 0 0 0 0 0.25 0"/>
<feBlend mode="normal" in2="BackgroundImageFix" result="effect1_dropShadow_1_985"/>
<feBlend mode="normal" in="SourceGraphic" in2="effect1_dropShadow_1_985" result="shape"/>
</filter>
<filter id="filter1_d_1_985" x="47.1133" y="9.98828" width="94.6953" height="26.2461" filterUnits="userSpaceOnUse" color-interpolation-filters="sRGB">
<feFlood flood-opacity="0" result="BackgroundImageFix"/>
<feColorMatrix in="SourceAlpha" type="matrix" values="0 0 0 0 0 0 0 0 0 0 0 0 0 0 0 0 0 0 127 0" result="hardAlpha"/>
<feOffset dy="4"/>
<feGaussianBlur stdDeviation="2"/>
<feComposite in2="hardAlpha" operator="out"/>
<feColorMatrix type="matrix" values="0 0 0 0 0 0 0 0 0 0 0 0 0 0 0 0 0 0 0.25 0"/>
<feBlend mode="normal" in2="BackgroundImageFix" result="effect1_dropShadow_1_985"/>
<feBlend mode="normal" in="SourceGraphic" in2="effect1_dropShadow_1_985" result="shape"/>
</filter>
</defs>
</svg>
