<svg width="567" height="25" viewBox="0 0 567 25" fill="none" xmlns="http://www.w3.org/2000/svg">
<path d="M2.76562 1.9375L7.19531 10.5039L11.6367 1.9375H14.2031L8.32031 12.625V19H6.05859V12.625L0.175781 1.9375H2.76562ZM14.7188 12.8008V12.5312C14.7188 11.6172 14.8516 10.7695 15.1172 9.98828C15.3828 9.19922 15.7656 8.51562 16.2656 7.9375C16.7656 7.35156 17.3711 6.89844 18.082 6.57812C18.793 6.25 19.5898 6.08594 20.4727 6.08594C21.3633 6.08594 22.1641 6.25 22.875 6.57812C23.5938 6.89844 24.2031 7.35156 24.7031 7.9375C25.2109 8.51562 25.5977 9.19922 25.8633 9.98828C26.1289 10.7695 26.2617 11.6172 26.2617 12.5312V12.8008C26.2617 13.7148 26.1289 14.5625 25.8633 15.3438C25.5977 16.125 25.2109 16.8086 24.7031 17.3945C24.2031 17.9727 23.5977 18.4258 22.8867 18.7539C22.1836 19.0742 21.3867 19.2344 20.4961 19.2344C19.6055 19.2344 18.8047 19.0742 18.0938 18.7539C17.3828 18.4258 16.7734 17.9727 16.2656 17.3945C15.7656 16.8086 15.3828 16.125 15.1172 15.3438C14.8516 14.5625 14.7188 13.7148 14.7188 12.8008ZM16.8867 12.5312V12.8008C16.8867 13.4336 16.9609 14.0312 17.1094 14.5938C17.2578 15.1484 17.4805 15.6406 17.7773 16.0703C18.082 16.5 18.4609 16.8398 18.9141 17.0898C19.3672 17.332 19.8945 17.4531 20.4961 17.4531C21.0898 17.4531 21.6094 17.332 22.0547 17.0898C22.5078 16.8398 22.8828 16.5 23.1797 16.0703C23.4766 15.6406 23.6992 15.1484 23.8477 14.5938C24.0039 14.0312 24.082 13.4336 24.082 12.8008V12.5312C24.082 11.9062 24.0039 11.3164 23.8477 10.7617C23.6992 10.1992 23.4727 9.70312 23.168 9.27344C22.8711 8.83594 22.4961 8.49219 22.043 8.24219C21.5977 7.99219 21.0742 7.86719 20.4727 7.86719C19.8789 7.86719 19.3555 7.99219 18.9023 8.24219C18.457 8.49219 18.082 8.83594 17.7773 9.27344C17.4805 9.70312 17.2578 10.1992 17.1094 10.7617C16.9609 11.3164 16.8867 11.9062 16.8867 12.5312ZM36.7383 16.0703V6.32031H38.918V19H36.8438L36.7383 16.0703ZM37.1484 13.3984L38.0508 13.375C38.0508 14.2188 37.9609 15 37.7812 15.7188C37.6094 16.4297 37.3281 17.0469 36.9375 17.5703C36.5469 18.0938 36.0352 18.5039 35.4023 18.8008C34.7695 19.0898 34 19.2344 33.0938 19.2344C32.4766 19.2344 31.9102 19.1445 31.3945 18.9648C30.8867 18.7852 30.4492 18.5078 30.082 18.1328C29.7148 17.7578 29.4297 17.2695 29.2266 16.668C29.0312 16.0664 28.9336 15.3438 28.9336 14.5V6.32031H31.1016V14.5234C31.1016 15.0938 31.1641 15.5664 31.2891 15.9414C31.4219 16.3086 31.5977 16.6016 31.8164 16.8203C32.043 17.0312 32.293 17.1797 32.5664 17.2656C32.8477 17.3516 33.1367 17.3945 33.4336 17.3945C34.3555 17.3945 35.0859 17.2188 35.625 16.8672C36.1641 16.5078 36.5508 16.0273 36.7852 15.4258C37.0273 14.8164 37.1484 14.1406 37.1484 13.3984ZM44.4141 1V2.5C44.4141 2.96875 44.332 3.46484 44.168 3.98828C44.0117 4.50391 43.7812 5.00391 43.4766 5.48828C43.1719 5.96484 42.8047 6.38281 42.375 6.74219L41.1328 5.88672C41.5 5.37109 41.7773 4.84375 41.9648 4.30469C42.1602 3.75781 42.2578 3.16797 42.2578 2.53516V1H44.4141ZM49.1953 8.3125V19H47.0273V6.32031H49.1367L49.1953 8.3125ZM53.1562 6.25L53.1445 8.26562C52.9648 8.22656 52.793 8.20312 52.6289 8.19531C52.4727 8.17969 52.293 8.17188 52.0898 8.17188C51.5898 8.17188 51.1484 8.25 50.7656 8.40625C50.3828 8.5625 50.0586 8.78125 49.793 9.0625C49.5273 9.34375 49.3164 9.67969 49.1602 10.0703C49.0117 10.4531 48.9141 10.875 48.8672 11.3359L48.2578 11.6875C48.2578 10.9219 48.332 10.2031 48.4805 9.53125C48.6367 8.85938 48.875 8.26562 49.1953 7.75C49.5156 7.22656 49.9219 6.82031 50.4141 6.53125C50.9141 6.23438 51.5078 6.08594 52.1953 6.08594C52.3516 6.08594 52.5312 6.10547 52.7344 6.14453C52.9375 6.17578 53.0781 6.21094 53.1562 6.25ZM60.1875 19.2344C59.3047 19.2344 58.5039 19.0859 57.7852 18.7891C57.0742 18.4844 56.4609 18.0586 55.9453 17.5117C55.4375 16.9648 55.0469 16.3164 54.7734 15.5664C54.5 14.8164 54.3633 13.9961 54.3633 13.1055V12.6133C54.3633 11.582 54.5156 10.6641 54.8203 9.85938C55.125 9.04688 55.5391 8.35938 56.0625 7.79688C56.5859 7.23438 57.1797 6.80859 57.8438 6.51953C58.5078 6.23047 59.1953 6.08594 59.9062 6.08594C60.8125 6.08594 61.5938 6.24219 62.25 6.55469C62.9141 6.86719 63.457 7.30469 63.8789 7.86719C64.3008 8.42188 64.6133 9.07812 64.8164 9.83594C65.0195 10.5859 65.1211 11.4062 65.1211 12.2969V13.2695H55.6523V11.5H62.9531V11.3359C62.9219 10.7734 62.8047 10.2266 62.6016 9.69531C62.4062 9.16406 62.0938 8.72656 61.6641 8.38281C61.2344 8.03906 60.6484 7.86719 59.9062 7.86719C59.4141 7.86719 58.9609 7.97266 58.5469 8.18359C58.1328 8.38672 57.7773 8.69141 57.4805 9.09766C57.1836 9.50391 56.9531 10 56.7891 10.5859C56.625 11.1719 56.543 11.8477 56.543 12.6133V13.1055C56.543 13.707 56.625 14.2734 56.7891 14.8047C56.9609 15.3281 57.207 15.7891 57.5273 16.1875C57.8555 16.5859 58.25 16.8984 58.7109 17.125C59.1797 17.3516 59.7109 17.4648 60.3047 17.4648C61.0703 17.4648 61.7188 17.3086 62.25 16.9961C62.7812 16.6836 63.2461 16.2656 63.6445 15.7422L64.957 16.7852C64.6836 17.1992 64.3359 17.5938 63.9141 17.9688C63.4922 18.3438 62.9727 18.6484 62.3555 18.8828C61.7461 19.1172 61.0234 19.2344 60.1875 19.2344ZM74.6484 1.9375H76.8398L82.4297 15.8477L88.0078 1.9375H90.2109L83.2734 19H81.5625L74.6484 1.9375ZM73.9336 1.9375H75.8672L76.1836 12.3438V19H73.9336V1.9375ZM88.9805 1.9375H90.9141V19H88.6641V12.3438L88.9805 1.9375ZM96.9141 6.32031V19H94.7344V6.32031H96.9141ZM94.5703 2.95703C94.5703 2.60547 94.6758 2.30859 94.8867 2.06641C95.1055 1.82422 95.4258 1.70312 95.8477 1.70312C96.2617 1.70312 96.5781 1.82422 96.7969 2.06641C97.0234 2.30859 97.1367 2.60547 97.1367 2.95703C97.1367 3.29297 97.0234 3.58203 96.7969 3.82422C96.5781 4.05859 96.2617 4.17578 95.8477 4.17578C95.4258 4.17578 95.1055 4.05859 94.8867 3.82422C94.6758 3.58203 94.5703 3.29297 94.5703 2.95703ZM105.469 17.4531C105.984 17.4531 106.461 17.3477 106.898 17.1367C107.336 16.9258 107.695 16.6367 107.977 16.2695C108.258 15.8945 108.418 15.4688 108.457 14.9922H110.52C110.48 15.7422 110.227 16.4414 109.758 17.0898C109.297 17.7305 108.691 18.25 107.941 18.6484C107.191 19.0391 106.367 19.2344 105.469 19.2344C104.516 19.2344 103.684 19.0664 102.973 18.7305C102.27 18.3945 101.684 17.9336 101.215 17.3477C100.754 16.7617 100.406 16.0898 100.172 15.332C99.9453 14.5664 99.832 13.7578 99.832 12.9062V12.4141C99.832 11.5625 99.9453 10.7578 100.172 10C100.406 9.23438 100.754 8.55859 101.215 7.97266C101.684 7.38672 102.27 6.92578 102.973 6.58984C103.684 6.25391 104.516 6.08594 105.469 6.08594C106.461 6.08594 107.328 6.28906 108.07 6.69531C108.812 7.09375 109.395 7.64062 109.816 8.33594C110.246 9.02344 110.48 9.80469 110.52 10.6797H108.457C108.418 10.1562 108.27 9.68359 108.012 9.26172C107.762 8.83984 107.418 8.50391 106.98 8.25391C106.551 7.99609 106.047 7.86719 105.469 7.86719C104.805 7.86719 104.246 8 103.793 8.26562C103.348 8.52344 102.992 8.875 102.727 9.32031C102.469 9.75781 102.281 10.2461 102.164 10.7852C102.055 11.3164 102 11.8594 102 12.4141V12.9062C102 13.4609 102.055 14.0078 102.164 14.5469C102.273 15.0859 102.457 15.5742 102.715 16.0117C102.98 16.4492 103.336 16.8008 103.781 17.0664C104.234 17.3242 104.797 17.4531 105.469 17.4531ZM115.125 8.3125V19H112.957V6.32031H115.066L115.125 8.3125ZM119.086 6.25L119.074 8.26562C118.895 8.22656 118.723 8.20312 118.559 8.19531C118.402 8.17969 118.223 8.17188 118.02 8.17188C117.52 8.17188 117.078 8.25 116.695 8.40625C116.312 8.5625 115.988 8.78125 115.723 9.0625C115.457 9.34375 115.246 9.67969 115.09 10.0703C114.941 10.4531 114.844 10.875 114.797 11.3359L114.188 11.6875C114.188 10.9219 114.262 10.2031 114.41 9.53125C114.566 8.85938 114.805 8.26562 115.125 7.75C115.445 7.22656 115.852 6.82031 116.344 6.53125C116.844 6.23438 117.438 6.08594 118.125 6.08594C118.281 6.08594 118.461 6.10547 118.664 6.14453C118.867 6.17578 119.008 6.21094 119.086 6.25ZM120.281 12.8008V12.5312C120.281 11.6172 120.414 10.7695 120.68 9.98828C120.945 9.19922 121.328 8.51562 121.828 7.9375C122.328 7.35156 122.934 6.89844 123.645 6.57812C124.355 6.25 125.152 6.08594 126.035 6.08594C126.926 6.08594 127.727 6.25 128.438 6.57812C129.156 6.89844 129.766 7.35156 130.266 7.9375C130.773 8.51562 131.16 9.19922 131.426 9.98828C131.691 10.7695 131.824 11.6172 131.824 12.5312V12.8008C131.824 13.7148 131.691 14.5625 131.426 15.3438C131.16 16.125 130.773 16.8086 130.266 17.3945C129.766 17.9727 129.16 18.4258 128.449 18.7539C127.746 19.0742 126.949 19.2344 126.059 19.2344C125.168 19.2344 124.367 19.0742 123.656 18.7539C122.945 18.4258 122.336 17.9727 121.828 17.3945C121.328 16.8086 120.945 16.125 120.68 15.3438C120.414 14.5625 120.281 13.7148 120.281 12.8008ZM122.449 12.5312V12.8008C122.449 13.4336 122.523 14.0312 122.672 14.5938C122.82 15.1484 123.043 15.6406 123.34 16.0703C123.645 16.5 124.023 16.8398 124.477 17.0898C124.93 17.332 125.457 17.4531 126.059 17.4531C126.652 17.4531 127.172 17.332 127.617 17.0898C128.07 16.8398 128.445 16.5 128.742 16.0703C129.039 15.6406 129.262 15.1484 129.41 14.5938C129.566 14.0312 129.645 13.4336 129.645 12.8008V12.5312C129.645 11.9062 129.566 11.3164 129.41 10.7617C129.262 10.1992 129.035 9.70312 128.73 9.27344C128.434 8.83594 128.059 8.49219 127.605 8.24219C127.16 7.99219 126.637 7.86719 126.035 7.86719C125.441 7.86719 124.918 7.99219 124.465 8.24219C124.02 8.49219 123.645 8.83594 123.34 9.27344C123.043 9.70312 122.82 10.1992 122.672 10.7617C122.523 11.3164 122.449 11.9062 122.449 12.5312ZM136.711 8.75781V23.875H134.531V6.32031H136.523L136.711 8.75781ZM145.254 12.5547V12.8008C145.254 13.7227 145.145 14.5781 144.926 15.3672C144.707 16.1484 144.387 16.8281 143.965 17.4062C143.551 17.9844 143.039 18.4336 142.43 18.7539C141.82 19.0742 141.121 19.2344 140.332 19.2344C139.527 19.2344 138.816 19.1016 138.199 18.8359C137.582 18.5703 137.059 18.1836 136.629 17.6758C136.199 17.168 135.855 16.5586 135.598 15.8477C135.348 15.1367 135.176 14.3359 135.082 13.4453V12.1328C135.176 11.1953 135.352 10.3555 135.609 9.61328C135.867 8.87109 136.207 8.23828 136.629 7.71484C137.059 7.18359 137.578 6.78125 138.188 6.50781C138.797 6.22656 139.5 6.08594 140.297 6.08594C141.094 6.08594 141.801 6.24219 142.418 6.55469C143.035 6.85938 143.555 7.29688 143.977 7.86719C144.398 8.4375 144.715 9.12109 144.926 9.91797C145.145 10.707 145.254 11.5859 145.254 12.5547ZM143.074 12.8008V12.5547C143.074 11.9219 143.008 11.3281 142.875 10.7734C142.742 10.2109 142.535 9.71875 142.254 9.29688C141.98 8.86719 141.629 8.53125 141.199 8.28906C140.77 8.03906 140.258 7.91406 139.664 7.91406C139.117 7.91406 138.641 8.00781 138.234 8.19531C137.836 8.38281 137.496 8.63672 137.215 8.95703C136.934 9.26953 136.703 9.62891 136.523 10.0352C136.352 10.4336 136.223 10.8477 136.137 11.2773V14.3125C136.293 14.8594 136.512 15.375 136.793 15.8594C137.074 16.3359 137.449 16.7227 137.918 17.0195C138.387 17.3086 138.977 17.4531 139.688 17.4531C140.273 17.4531 140.777 17.332 141.199 17.0898C141.629 16.8398 141.98 16.5 142.254 16.0703C142.535 15.6406 142.742 15.1484 142.875 14.5938C143.008 14.0312 143.074 13.4336 143.074 12.8008ZM150.188 1V19H148.02V1H150.188ZM149.672 12.1797L148.77 12.1445C148.777 11.2773 148.906 10.4766 149.156 9.74219C149.406 9 149.758 8.35547 150.211 7.80859C150.664 7.26172 151.203 6.83984 151.828 6.54297C152.461 6.23828 153.16 6.08594 153.926 6.08594C154.551 6.08594 155.113 6.17188 155.613 6.34375C156.113 6.50781 156.539 6.77344 156.891 7.14062C157.25 7.50781 157.523 7.98438 157.711 8.57031C157.898 9.14844 157.992 9.85547 157.992 10.6914V19H155.812V10.668C155.812 10.0039 155.715 9.47266 155.52 9.07422C155.324 8.66797 155.039 8.375 154.664 8.19531C154.289 8.00781 153.828 7.91406 153.281 7.91406C152.742 7.91406 152.25 8.02734 151.805 8.25391C151.367 8.48047 150.988 8.79297 150.668 9.19141C150.355 9.58984 150.109 10.0469 149.93 10.5625C149.758 11.0703 149.672 11.6094 149.672 12.1797ZM160.664 12.8008V12.5312C160.664 11.6172 160.797 10.7695 161.062 9.98828C161.328 9.19922 161.711 8.51562 162.211 7.9375C162.711 7.35156 163.316 6.89844 164.027 6.57812C164.738 6.25 165.535 6.08594 166.418 6.08594C167.309 6.08594 168.109 6.25 168.82 6.57812C169.539 6.89844 170.148 7.35156 170.648 7.9375C171.156 8.51562 171.543 9.19922 171.809 9.98828C172.074 10.7695 172.207 11.6172 172.207 12.5312V12.8008C172.207 13.7148 172.074 14.5625 171.809 15.3438C171.543 16.125 171.156 16.8086 170.648 17.3945C170.148 17.9727 169.543 18.4258 168.832 18.7539C168.129 19.0742 167.332 19.2344 166.441 19.2344C165.551 19.2344 164.75 19.0742 164.039 18.7539C163.328 18.4258 162.719 17.9727 162.211 17.3945C161.711 16.8086 161.328 16.125 161.062 15.3438C160.797 14.5625 160.664 13.7148 160.664 12.8008ZM162.832 12.5312V12.8008C162.832 13.4336 162.906 14.0312 163.055 14.5938C163.203 15.1484 163.426 15.6406 163.723 16.0703C164.027 16.5 164.406 16.8398 164.859 17.0898C165.312 17.332 165.84 17.4531 166.441 17.4531C167.035 17.4531 167.555 17.332 168 17.0898C168.453 16.8398 168.828 16.5 169.125 16.0703C169.422 15.6406 169.645 15.1484 169.793 14.5938C169.949 14.0312 170.027 13.4336 170.027 12.8008V12.5312C170.027 11.9062 169.949 11.3164 169.793 10.7617C169.645 10.1992 169.418 9.70312 169.113 9.27344C168.816 8.83594 168.441 8.49219 167.988 8.24219C167.543 7.99219 167.02 7.86719 166.418 7.86719C165.824 7.86719 165.301 7.99219 164.848 8.24219C164.402 8.49219 164.027 8.83594 163.723 9.27344C163.426 9.70312 163.203 10.1992 163.055 10.7617C162.906 11.3164 162.832 11.9062 162.832 12.5312ZM177.094 9.02734V19H174.926V6.32031H176.977L177.094 9.02734ZM176.578 12.1797L175.676 12.1445C175.684 11.2773 175.812 10.4766 176.062 9.74219C176.312 9 176.664 8.35547 177.117 7.80859C177.57 7.26172 178.109 6.83984 178.734 6.54297C179.367 6.23828 180.066 6.08594 180.832 6.08594C181.457 6.08594 182.02 6.17188 182.52 6.34375C183.02 6.50781 183.445 6.77344 183.797 7.14062C184.156 7.50781 184.43 7.98438 184.617 8.57031C184.805 9.14844 184.898 9.85547 184.898 10.6914V19H182.719V10.668C182.719 10.0039 182.621 9.47266 182.426 9.07422C182.23 8.66797 181.945 8.375 181.57 8.19531C181.195 8.00781 180.734 7.91406 180.188 7.91406C179.648 7.91406 179.156 8.02734 178.711 8.25391C178.273 8.48047 177.895 8.79297 177.574 9.19141C177.262 9.58984 177.016 10.0469 176.836 10.5625C176.664 11.0703 176.578 11.6094 176.578 12.1797ZM193.453 19.2344C192.57 19.2344 191.77 19.0859 191.051 18.7891C190.34 18.4844 189.727 18.0586 189.211 17.5117C188.703 16.9648 188.312 16.3164 188.039 15.5664C187.766 14.8164 187.629 13.9961 187.629 13.1055V12.6133C187.629 11.582 187.781 10.6641 188.086 9.85938C188.391 9.04688 188.805 8.35938 189.328 7.79688C189.852 7.23438 190.445 6.80859 191.109 6.51953C191.773 6.23047 192.461 6.08594 193.172 6.08594C194.078 6.08594 194.859 6.24219 195.516 6.55469C196.18 6.86719 196.723 7.30469 197.145 7.86719C197.566 8.42188 197.879 9.07812 198.082 9.83594C198.285 10.5859 198.387 11.4062 198.387 12.2969V13.2695H188.918V11.5H196.219V11.3359C196.188 10.7734 196.07 10.2266 195.867 9.69531C195.672 9.16406 195.359 8.72656 194.93 8.38281C194.5 8.03906 193.914 7.86719 193.172 7.86719C192.68 7.86719 192.227 7.97266 191.812 8.18359C191.398 8.38672 191.043 8.69141 190.746 9.09766C190.449 9.50391 190.219 10 190.055 10.5859C189.891 11.1719 189.809 11.8477 189.809 12.6133V13.1055C189.809 13.707 189.891 14.2734 190.055 14.8047C190.227 15.3281 190.473 15.7891 190.793 16.1875C191.121 16.5859 191.516 16.8984 191.977 17.125C192.445 17.3516 192.977 17.4648 193.57 17.4648C194.336 17.4648 194.984 17.3086 195.516 16.9961C196.047 16.6836 196.512 16.2656 196.91 15.7422L198.223 16.7852C197.949 17.1992 197.602 17.5938 197.18 17.9688C196.758 18.3438 196.238 18.6484 195.621 18.8828C195.012 19.1172 194.289 19.2344 193.453 19.2344ZM209.227 6.32031V19H207.047V6.32031H209.227ZM206.883 2.95703C206.883 2.60547 206.988 2.30859 207.199 2.06641C207.418 1.82422 207.738 1.70312 208.16 1.70312C208.574 1.70312 208.891 1.82422 209.109 2.06641C209.336 2.30859 209.449 2.60547 209.449 2.95703C209.449 3.29297 209.336 3.58203 209.109 3.82422C208.891 4.05859 208.574 4.17578 208.16 4.17578C207.738 4.17578 207.418 4.05859 207.199 3.82422C206.988 3.58203 206.883 3.29297 206.883 2.95703ZM220.09 15.6367C220.09 15.3242 220.02 15.0352 219.879 14.7695C219.746 14.4961 219.469 14.25 219.047 14.0312C218.633 13.8047 218.008 13.6094 217.172 13.4453C216.469 13.2969 215.832 13.1211 215.262 12.918C214.699 12.7148 214.219 12.4688 213.82 12.1797C213.43 11.8906 213.129 11.5508 212.918 11.1602C212.707 10.7695 212.602 10.3125 212.602 9.78906C212.602 9.28906 212.711 8.81641 212.93 8.37109C213.156 7.92578 213.473 7.53125 213.879 7.1875C214.293 6.84375 214.789 6.57422 215.367 6.37891C215.945 6.18359 216.59 6.08594 217.301 6.08594C218.316 6.08594 219.184 6.26562 219.902 6.625C220.621 6.98438 221.172 7.46484 221.555 8.06641C221.938 8.66016 222.129 9.32031 222.129 10.0469H219.961C219.961 9.69531 219.855 9.35547 219.645 9.02734C219.441 8.69141 219.141 8.41406 218.742 8.19531C218.352 7.97656 217.871 7.86719 217.301 7.86719C216.699 7.86719 216.211 7.96094 215.836 8.14844C215.469 8.32812 215.199 8.55859 215.027 8.83984C214.863 9.12109 214.781 9.41797 214.781 9.73047C214.781 9.96484 214.82 10.1758 214.898 10.3633C214.984 10.543 215.133 10.7109 215.344 10.8672C215.555 11.0156 215.852 11.1562 216.234 11.2891C216.617 11.4219 217.105 11.5547 217.699 11.6875C218.738 11.9219 219.594 12.2031 220.266 12.5312C220.938 12.8594 221.438 13.2617 221.766 13.7383C222.094 14.2148 222.258 14.793 222.258 15.4727C222.258 16.0273 222.141 16.5352 221.906 16.9961C221.68 17.457 221.348 17.8555 220.91 18.1914C220.48 18.5195 219.965 18.7773 219.363 18.9648C218.77 19.1445 218.102 19.2344 217.359 19.2344C216.242 19.2344 215.297 19.0352 214.523 18.6367C213.75 18.2383 213.164 17.7227 212.766 17.0898C212.367 16.457 212.168 15.7891 212.168 15.0859H214.348C214.379 15.6797 214.551 16.1523 214.863 16.5039C215.176 16.8477 215.559 17.0938 216.012 17.2422C216.465 17.3828 216.914 17.4531 217.359 17.4531C217.953 17.4531 218.449 17.375 218.848 17.2188C219.254 17.0625 219.562 16.8477 219.773 16.5742C219.984 16.3008 220.09 15.9883 220.09 15.6367ZM233.227 8.75781V23.875H231.047V6.32031H233.039L233.227 8.75781ZM241.77 12.5547V12.8008C241.77 13.7227 241.66 14.5781 241.441 15.3672C241.223 16.1484 240.902 16.8281 240.48 17.4062C240.066 17.9844 239.555 18.4336 238.945 18.7539C238.336 19.0742 237.637 19.2344 236.848 19.2344C236.043 19.2344 235.332 19.1016 234.715 18.8359C234.098 18.5703 233.574 18.1836 233.145 17.6758C232.715 17.168 232.371 16.5586 232.113 15.8477C231.863 15.1367 231.691 14.3359 231.598 13.4453V12.1328C231.691 11.1953 231.867 10.3555 232.125 9.61328C232.383 8.87109 232.723 8.23828 233.145 7.71484C233.574 7.18359 234.094 6.78125 234.703 6.50781C235.312 6.22656 236.016 6.08594 236.812 6.08594C237.609 6.08594 238.316 6.24219 238.934 6.55469C239.551 6.85938 240.07 7.29688 240.492 7.86719C240.914 8.4375 241.23 9.12109 241.441 9.91797C241.66 10.707 241.77 11.5859 241.77 12.5547ZM239.59 12.8008V12.5547C239.59 11.9219 239.523 11.3281 239.391 10.7734C239.258 10.2109 239.051 9.71875 238.77 9.29688C238.496 8.86719 238.145 8.53125 237.715 8.28906C237.285 8.03906 236.773 7.91406 236.18 7.91406C235.633 7.91406 235.156 8.00781 234.75 8.19531C234.352 8.38281 234.012 8.63672 233.73 8.95703C233.449 9.26953 233.219 9.62891 233.039 10.0352C232.867 10.4336 232.738 10.8477 232.652 11.2773V14.3125C232.809 14.8594 233.027 15.375 233.309 15.8594C233.59 16.3359 233.965 16.7227 234.434 17.0195C234.902 17.3086 235.492 17.4531 236.203 17.4531C236.789 17.4531 237.293 17.332 237.715 17.0898C238.145 16.8398 238.496 16.5 238.77 16.0703C239.051 15.6406 239.258 15.1484 239.391 14.5938C239.523 14.0312 239.59 13.4336 239.59 12.8008ZM249.797 19.2344C248.914 19.2344 248.113 19.0859 247.395 18.7891C246.684 18.4844 246.07 18.0586 245.555 17.5117C245.047 16.9648 244.656 16.3164 244.383 15.5664C244.109 14.8164 243.973 13.9961 243.973 13.1055V12.6133C243.973 11.582 244.125 10.6641 244.43 9.85938C244.734 9.04688 245.148 8.35938 245.672 7.79688C246.195 7.23438 246.789 6.80859 247.453 6.51953C248.117 6.23047 248.805 6.08594 249.516 6.08594C250.422 6.08594 251.203 6.24219 251.859 6.55469C252.523 6.86719 253.066 7.30469 253.488 7.86719C253.91 8.42188 254.223 9.07812 254.426 9.83594C254.629 10.5859 254.73 11.4062 254.73 12.2969V13.2695H245.262V11.5H252.562V11.3359C252.531 10.7734 252.414 10.2266 252.211 9.69531C252.016 9.16406 251.703 8.72656 251.273 8.38281C250.844 8.03906 250.258 7.86719 249.516 7.86719C249.023 7.86719 248.57 7.97266 248.156 8.18359C247.742 8.38672 247.387 8.69141 247.09 9.09766C246.793 9.50391 246.562 10 246.398 10.5859C246.234 11.1719 246.152 11.8477 246.152 12.6133V13.1055C246.152 13.707 246.234 14.2734 246.398 14.8047C246.57 15.3281 246.816 15.7891 247.137 16.1875C247.465 16.5859 247.859 16.8984 248.32 17.125C248.789 17.3516 249.32 17.4648 249.914 17.4648C250.68 17.4648 251.328 17.3086 251.859 16.9961C252.391 16.6836 252.855 16.2656 253.254 15.7422L254.566 16.7852C254.293 17.1992 253.945 17.5938 253.523 17.9688C253.102 18.3438 252.582 18.6484 251.965 18.8828C251.355 19.1172 250.633 19.2344 249.797 19.2344ZM259.43 8.3125V19H257.262V6.32031H259.371L259.43 8.3125ZM263.391 6.25L263.379 8.26562C263.199 8.22656 263.027 8.20312 262.863 8.19531C262.707 8.17969 262.527 8.17188 262.324 8.17188C261.824 8.17188 261.383 8.25 261 8.40625C260.617 8.5625 260.293 8.78125 260.027 9.0625C259.762 9.34375 259.551 9.67969 259.395 10.0703C259.246 10.4531 259.148 10.875 259.102 11.3359L258.492 11.6875C258.492 10.9219 258.566 10.2031 258.715 9.53125C258.871 8.85938 259.109 8.26562 259.43 7.75C259.75 7.22656 260.156 6.82031 260.648 6.53125C261.148 6.23438 261.742 6.08594 262.43 6.08594C262.586 6.08594 262.766 6.10547 262.969 6.14453C263.172 6.17578 263.312 6.21094 263.391 6.25ZM268.816 19H266.648V4.98438C266.648 4.07031 266.812 3.30078 267.141 2.67578C267.477 2.04297 267.957 1.56641 268.582 1.24609C269.207 0.917969 269.949 0.753906 270.809 0.753906C271.059 0.753906 271.309 0.769531 271.559 0.800781C271.816 0.832031 272.066 0.878906 272.309 0.941406L272.191 2.71094C272.027 2.67188 271.84 2.64453 271.629 2.62891C271.426 2.61328 271.223 2.60547 271.02 2.60547C270.559 2.60547 270.16 2.69922 269.824 2.88672C269.496 3.06641 269.246 3.33203 269.074 3.68359C268.902 4.03516 268.816 4.46875 268.816 4.98438V19ZM271.512 6.32031V7.98438H264.645V6.32031H271.512ZM278.906 19.2344C278.023 19.2344 277.223 19.0859 276.504 18.7891C275.793 18.4844 275.18 18.0586 274.664 17.5117C274.156 16.9648 273.766 16.3164 273.492 15.5664C273.219 14.8164 273.082 13.9961 273.082 13.1055V12.6133C273.082 11.582 273.234 10.6641 273.539 9.85938C273.844 9.04688 274.258 8.35938 274.781 7.79688C275.305 7.23438 275.898 6.80859 276.562 6.51953C277.227 6.23047 277.914 6.08594 278.625 6.08594C279.531 6.08594 280.312 6.24219 280.969 6.55469C281.633 6.86719 282.176 7.30469 282.598 7.86719C283.02 8.42188 283.332 9.07812 283.535 9.83594C283.738 10.5859 283.84 11.4062 283.84 12.2969V13.2695H274.371V11.5H281.672V11.3359C281.641 10.7734 281.523 10.2266 281.32 9.69531C281.125 9.16406 280.812 8.72656 280.383 8.38281C279.953 8.03906 279.367 7.86719 278.625 7.86719C278.133 7.86719 277.68 7.97266 277.266 8.18359C276.852 8.38672 276.496 8.69141 276.199 9.09766C275.902 9.50391 275.672 10 275.508 10.5859C275.344 11.1719 275.262 11.8477 275.262 12.6133V13.1055C275.262 13.707 275.344 14.2734 275.508 14.8047C275.68 15.3281 275.926 15.7891 276.246 16.1875C276.574 16.5859 276.969 16.8984 277.43 17.125C277.898 17.3516 278.43 17.4648 279.023 17.4648C279.789 17.4648 280.438 17.3086 280.969 16.9961C281.5 16.6836 281.965 16.2656 282.363 15.7422L283.676 16.7852C283.402 17.1992 283.055 17.5938 282.633 17.9688C282.211 18.3438 281.691 18.6484 281.074 18.8828C280.465 19.1172 279.742 19.2344 278.906 19.2344ZM291.445 17.4531C291.961 17.4531 292.438 17.3477 292.875 17.1367C293.312 16.9258 293.672 16.6367 293.953 16.2695C294.234 15.8945 294.395 15.4688 294.434 14.9922H296.496C296.457 15.7422 296.203 16.4414 295.734 17.0898C295.273 17.7305 294.668 18.25 293.918 18.6484C293.168 19.0391 292.344 19.2344 291.445 19.2344C290.492 19.2344 289.66 19.0664 288.949 18.7305C288.246 18.3945 287.66 17.9336 287.191 17.3477C286.73 16.7617 286.383 16.0898 286.148 15.332C285.922 14.5664 285.809 13.7578 285.809 12.9062V12.4141C285.809 11.5625 285.922 10.7578 286.148 10C286.383 9.23438 286.73 8.55859 287.191 7.97266C287.66 7.38672 288.246 6.92578 288.949 6.58984C289.66 6.25391 290.492 6.08594 291.445 6.08594C292.438 6.08594 293.305 6.28906 294.047 6.69531C294.789 7.09375 295.371 7.64062 295.793 8.33594C296.223 9.02344 296.457 9.80469 296.496 10.6797H294.434C294.395 10.1562 294.246 9.68359 293.988 9.26172C293.738 8.83984 293.395 8.50391 292.957 8.25391C292.527 7.99609 292.023 7.86719 291.445 7.86719C290.781 7.86719 290.223 8 289.77 8.26562C289.324 8.52344 288.969 8.875 288.703 9.32031C288.445 9.75781 288.258 10.2461 288.141 10.7852C288.031 11.3164 287.977 11.8594 287.977 12.4141V12.9062C287.977 13.4609 288.031 14.0078 288.141 14.5469C288.25 15.0859 288.434 15.5742 288.691 16.0117C288.957 16.4492 289.312 16.8008 289.758 17.0664C290.211 17.3242 290.773 17.4531 291.445 17.4531ZM304.242 6.32031V7.98438H297.387V6.32031H304.242ZM299.707 3.23828H301.875V15.8594C301.875 16.2891 301.941 16.6133 302.074 16.832C302.207 17.0508 302.379 17.1953 302.59 17.2656C302.801 17.3359 303.027 17.3711 303.27 17.3711C303.449 17.3711 303.637 17.3555 303.832 17.3242C304.035 17.2852 304.188 17.2539 304.289 17.2305L304.301 19C304.129 19.0547 303.902 19.1055 303.621 19.1523C303.348 19.207 303.016 19.2344 302.625 19.2344C302.094 19.2344 301.605 19.1289 301.16 18.918C300.715 18.707 300.359 18.3555 300.094 17.8633C299.836 17.3633 299.707 16.6914 299.707 15.8477V3.23828ZM309.141 1V19H306.961V1H309.141ZM316.184 17.6875L319.711 6.32031H322.031L316.945 20.957C316.828 21.2695 316.672 21.6055 316.477 21.9648C316.289 22.332 316.047 22.6797 315.75 23.0078C315.453 23.3359 315.094 23.6016 314.672 23.8047C314.258 24.0156 313.762 24.1211 313.184 24.1211C313.012 24.1211 312.793 24.0977 312.527 24.0508C312.262 24.0039 312.074 23.9648 311.965 23.9336L311.953 22.1758C312.016 22.1836 312.113 22.1914 312.246 22.1992C312.387 22.2148 312.484 22.2227 312.539 22.2227C313.031 22.2227 313.449 22.1562 313.793 22.0234C314.137 21.8984 314.426 21.6836 314.66 21.3789C314.902 21.082 315.109 20.6719 315.281 20.1484L316.184 17.6875ZM313.594 6.32031L316.887 16.1641L317.449 18.4492L315.891 19.2461L311.227 6.32031H313.594ZM332.836 19H330.668V5.21875C330.668 4.25781 330.855 3.44531 331.23 2.78125C331.605 2.11719 332.141 1.61328 332.836 1.26953C333.531 0.925781 334.355 0.753906 335.309 0.753906C335.871 0.753906 336.422 0.824219 336.961 0.964844C337.5 1.09766 338.055 1.26563 338.625 1.46875L338.262 3.29688C337.902 3.15625 337.484 3.02344 337.008 2.89844C336.539 2.76563 336.023 2.69922 335.461 2.69922C334.531 2.69922 333.859 2.91016 333.445 3.33203C333.039 3.74609 332.836 4.375 332.836 5.21875V19ZM335.426 6.32031V7.98438H328.664V6.32031H335.426ZM339.691 6.32031V19H337.523V6.32031H339.691ZM345.422 9.02734V19H343.254V6.32031H345.305L345.422 9.02734ZM344.906 12.1797L344.004 12.1445C344.012 11.2773 344.141 10.4766 344.391 9.74219C344.641 9 344.992 8.35547 345.445 7.80859C345.898 7.26172 346.438 6.83984 347.062 6.54297C347.695 6.23828 348.395 6.08594 349.16 6.08594C349.785 6.08594 350.348 6.17188 350.848 6.34375C351.348 6.50781 351.773 6.77344 352.125 7.14062C352.484 7.50781 352.758 7.98438 352.945 8.57031C353.133 9.14844 353.227 9.85547 353.227 10.6914V19H351.047V10.668C351.047 10.0039 350.949 9.47266 350.754 9.07422C350.559 8.66797 350.273 8.375 349.898 8.19531C349.523 8.00781 349.062 7.91406 348.516 7.91406C347.977 7.91406 347.484 8.02734 347.039 8.25391C346.602 8.48047 346.223 8.79297 345.902 9.19141C345.59 9.58984 345.344 10.0469 345.164 10.5625C344.992 11.0703 344.906 11.6094 344.906 12.1797ZM361.781 19.2344C360.898 19.2344 360.098 19.0859 359.379 18.7891C358.668 18.4844 358.055 18.0586 357.539 17.5117C357.031 16.9648 356.641 16.3164 356.367 15.5664C356.094 14.8164 355.957 13.9961 355.957 13.1055V12.6133C355.957 11.582 356.109 10.6641 356.414 9.85938C356.719 9.04688 357.133 8.35938 357.656 7.79688C358.18 7.23438 358.773 6.80859 359.438 6.51953C360.102 6.23047 360.789 6.08594 361.5 6.08594C362.406 6.08594 363.188 6.24219 363.844 6.55469C364.508 6.86719 365.051 7.30469 365.473 7.86719C365.895 8.42188 366.207 9.07812 366.41 9.83594C366.613 10.5859 366.715 11.4062 366.715 12.2969V13.2695H357.246V11.5H364.547V11.3359C364.516 10.7734 364.398 10.2266 364.195 9.69531C364 9.16406 363.688 8.72656 363.258 8.38281C362.828 8.03906 362.242 7.86719 361.5 7.86719C361.008 7.86719 360.555 7.97266 360.141 8.18359C359.727 8.38672 359.371 8.69141 359.074 9.09766C358.777 9.50391 358.547 10 358.383 10.5859C358.219 11.1719 358.137 11.8477 358.137 12.6133V13.1055C358.137 13.707 358.219 14.2734 358.383 14.8047C358.555 15.3281 358.801 15.7891 359.121 16.1875C359.449 16.5859 359.844 16.8984 360.305 17.125C360.773 17.3516 361.305 17.4648 361.898 17.4648C362.664 17.4648 363.312 17.3086 363.844 16.9961C364.375 16.6836 364.84 16.2656 365.238 15.7422L366.551 16.7852C366.277 17.1992 365.93 17.5938 365.508 17.9688C365.086 18.3438 364.566 18.6484 363.949 18.8828C363.34 19.1172 362.617 19.2344 361.781 19.2344ZM371.215 16.4219V18.168C371.215 18.8789 371.035 19.6289 370.676 20.418C370.316 21.2148 369.812 21.8789 369.164 22.4102L367.934 21.5547C368.184 21.2109 368.395 20.8594 368.566 20.5C368.738 20.1484 368.867 19.7812 368.953 19.3984C369.047 19.0234 369.094 18.625 369.094 18.2031V16.4219H371.215ZM381.047 1.9375L385.477 10.5039L389.918 1.9375H392.484L386.602 12.625V19H384.34V12.625L378.457 1.9375H381.047ZM393 12.8008V12.5312C393 11.6172 393.133 10.7695 393.398 9.98828C393.664 9.19922 394.047 8.51562 394.547 7.9375C395.047 7.35156 395.652 6.89844 396.363 6.57812C397.074 6.25 397.871 6.08594 398.754 6.08594C399.645 6.08594 400.445 6.25 401.156 6.57812C401.875 6.89844 402.484 7.35156 402.984 7.9375C403.492 8.51562 403.879 9.19922 404.145 9.98828C404.41 10.7695 404.543 11.6172 404.543 12.5312V12.8008C404.543 13.7148 404.41 14.5625 404.145 15.3438C403.879 16.125 403.492 16.8086 402.984 17.3945C402.484 17.9727 401.879 18.4258 401.168 18.7539C400.465 19.0742 399.668 19.2344 398.777 19.2344C397.887 19.2344 397.086 19.0742 396.375 18.7539C395.664 18.4258 395.055 17.9727 394.547 17.3945C394.047 16.8086 393.664 16.125 393.398 15.3438C393.133 14.5625 393 13.7148 393 12.8008ZM395.168 12.5312V12.8008C395.168 13.4336 395.242 14.0312 395.391 14.5938C395.539 15.1484 395.762 15.6406 396.059 16.0703C396.363 16.5 396.742 16.8398 397.195 17.0898C397.648 17.332 398.176 17.4531 398.777 17.4531C399.371 17.4531 399.891 17.332 400.336 17.0898C400.789 16.8398 401.164 16.5 401.461 16.0703C401.758 15.6406 401.98 15.1484 402.129 14.5938C402.285 14.0312 402.363 13.4336 402.363 12.8008V12.5312C402.363 11.9062 402.285 11.3164 402.129 10.7617C401.98 10.1992 401.754 9.70312 401.449 9.27344C401.152 8.83594 400.777 8.49219 400.324 8.24219C399.879 7.99219 399.355 7.86719 398.754 7.86719C398.16 7.86719 397.637 7.99219 397.184 8.24219C396.738 8.49219 396.363 8.83594 396.059 9.27344C395.762 9.70312 395.539 10.1992 395.391 10.7617C395.242 11.3164 395.168 11.9062 395.168 12.5312ZM415.02 16.0703V6.32031H417.199V19H415.125L415.02 16.0703ZM415.43 13.3984L416.332 13.375C416.332 14.2188 416.242 15 416.062 15.7188C415.891 16.4297 415.609 17.0469 415.219 17.5703C414.828 18.0938 414.316 18.5039 413.684 18.8008C413.051 19.0898 412.281 19.2344 411.375 19.2344C410.758 19.2344 410.191 19.1445 409.676 18.9648C409.168 18.7852 408.73 18.5078 408.363 18.1328C407.996 17.7578 407.711 17.2695 407.508 16.668C407.312 16.0664 407.215 15.3438 407.215 14.5V6.32031H409.383V14.5234C409.383 15.0938 409.445 15.5664 409.57 15.9414C409.703 16.3086 409.879 16.6016 410.098 16.8203C410.324 17.0312 410.574 17.1797 410.848 17.2656C411.129 17.3516 411.418 17.3945 411.715 17.3945C412.637 17.3945 413.367 17.2188 413.906 16.8672C414.445 16.5078 414.832 16.0273 415.066 15.4258C415.309 14.8164 415.43 14.1406 415.43 13.3984ZM431.531 17.4531C432.047 17.4531 432.523 17.3477 432.961 17.1367C433.398 16.9258 433.758 16.6367 434.039 16.2695C434.32 15.8945 434.48 15.4688 434.52 14.9922H436.582C436.543 15.7422 436.289 16.4414 435.82 17.0898C435.359 17.7305 434.754 18.25 434.004 18.6484C433.254 19.0391 432.43 19.2344 431.531 19.2344C430.578 19.2344 429.746 19.0664 429.035 18.7305C428.332 18.3945 427.746 17.9336 427.277 17.3477C426.816 16.7617 426.469 16.0898 426.234 15.332C426.008 14.5664 425.895 13.7578 425.895 12.9062V12.4141C425.895 11.5625 426.008 10.7578 426.234 10C426.469 9.23438 426.816 8.55859 427.277 7.97266C427.746 7.38672 428.332 6.92578 429.035 6.58984C429.746 6.25391 430.578 6.08594 431.531 6.08594C432.523 6.08594 433.391 6.28906 434.133 6.69531C434.875 7.09375 435.457 7.64062 435.879 8.33594C436.309 9.02344 436.543 9.80469 436.582 10.6797H434.52C434.48 10.1562 434.332 9.68359 434.074 9.26172C433.824 8.83984 433.48 8.50391 433.043 8.25391C432.613 7.99609 432.109 7.86719 431.531 7.86719C430.867 7.86719 430.309 8 429.855 8.26562C429.41 8.52344 429.055 8.875 428.789 9.32031C428.531 9.75781 428.344 10.2461 428.227 10.7852C428.117 11.3164 428.062 11.8594 428.062 12.4141V12.9062C428.062 13.4609 428.117 14.0078 428.227 14.5469C428.336 15.0859 428.52 15.5742 428.777 16.0117C429.043 16.4492 429.398 16.8008 429.844 17.0664C430.297 17.3242 430.859 17.4531 431.531 17.4531ZM446.496 16.832V10.3047C446.496 9.80469 446.395 9.37109 446.191 9.00391C445.996 8.62891 445.699 8.33984 445.301 8.13672C444.902 7.93359 444.41 7.83203 443.824 7.83203C443.277 7.83203 442.797 7.92578 442.383 8.11328C441.977 8.30078 441.656 8.54688 441.422 8.85156C441.195 9.15625 441.082 9.48438 441.082 9.83594H438.914C438.914 9.38281 439.031 8.93359 439.266 8.48828C439.5 8.04297 439.836 7.64062 440.273 7.28125C440.719 6.91406 441.25 6.625 441.867 6.41406C442.492 6.19531 443.188 6.08594 443.953 6.08594C444.875 6.08594 445.688 6.24219 446.391 6.55469C447.102 6.86719 447.656 7.33984 448.055 7.97266C448.461 8.59766 448.664 9.38281 448.664 10.3281V16.2344C448.664 16.6562 448.699 17.1055 448.77 17.582C448.848 18.0586 448.961 18.4688 449.109 18.8125V19H446.848C446.738 18.75 446.652 18.418 446.59 18.0039C446.527 17.582 446.496 17.1914 446.496 16.832ZM446.871 11.3125L446.895 12.8359H444.703C444.086 12.8359 443.535 12.8867 443.051 12.9883C442.566 13.082 442.16 13.2266 441.832 13.4219C441.504 13.6172 441.254 13.8633 441.082 14.1602C440.91 14.4492 440.824 14.7891 440.824 15.1797C440.824 15.5781 440.914 15.9414 441.094 16.2695C441.273 16.5977 441.543 16.8594 441.902 17.0547C442.27 17.2422 442.719 17.3359 443.25 17.3359C443.914 17.3359 444.5 17.1953 445.008 16.9141C445.516 16.6328 445.918 16.2891 446.215 15.8828C446.52 15.4766 446.684 15.082 446.707 14.6992L447.633 15.7422C447.578 16.0703 447.43 16.4336 447.188 16.832C446.945 17.2305 446.621 17.6133 446.215 17.9805C445.816 18.3398 445.34 18.6406 444.785 18.8828C444.238 19.1172 443.621 19.2344 442.934 19.2344C442.074 19.2344 441.32 19.0664 440.672 18.7305C440.031 18.3945 439.531 17.9453 439.172 17.3828C438.82 16.8125 438.645 16.1758 438.645 15.4727C438.645 14.793 438.777 14.1953 439.043 13.6797C439.309 13.1562 439.691 12.7227 440.191 12.3789C440.691 12.0273 441.293 11.7617 441.996 11.582C442.699 11.4023 443.484 11.3125 444.352 11.3125H446.871ZM454.242 9.02734V19H452.074V6.32031H454.125L454.242 9.02734ZM453.727 12.1797L452.824 12.1445C452.832 11.2773 452.961 10.4766 453.211 9.74219C453.461 9 453.812 8.35547 454.266 7.80859C454.719 7.26172 455.258 6.83984 455.883 6.54297C456.516 6.23828 457.215 6.08594 457.98 6.08594C458.605 6.08594 459.168 6.17188 459.668 6.34375C460.168 6.50781 460.594 6.77344 460.945 7.14062C461.305 7.50781 461.578 7.98438 461.766 8.57031C461.953 9.14844 462.047 9.85547 462.047 10.6914V19H459.867V10.668C459.867 10.0039 459.77 9.47266 459.574 9.07422C459.379 8.66797 459.094 8.375 458.719 8.19531C458.344 8.00781 457.883 7.91406 457.336 7.91406C456.797 7.91406 456.305 8.02734 455.859 8.25391C455.422 8.48047 455.043 8.79297 454.723 9.19141C454.41 9.58984 454.164 10.0469 453.984 10.5625C453.812 11.0703 453.727 11.6094 453.727 12.1797ZM476.367 17.4531C476.883 17.4531 477.359 17.3477 477.797 17.1367C478.234 16.9258 478.594 16.6367 478.875 16.2695C479.156 15.8945 479.316 15.4688 479.355 14.9922H481.418C481.379 15.7422 481.125 16.4414 480.656 17.0898C480.195 17.7305 479.59 18.25 478.84 18.6484C478.09 19.0391 477.266 19.2344 476.367 19.2344C475.414 19.2344 474.582 19.0664 473.871 18.7305C473.168 18.3945 472.582 17.9336 472.113 17.3477C471.652 16.7617 471.305 16.0898 471.07 15.332C470.844 14.5664 470.73 13.7578 470.73 12.9062V12.4141C470.73 11.5625 470.844 10.7578 471.07 10C471.305 9.23438 471.652 8.55859 472.113 7.97266C472.582 7.38672 473.168 6.92578 473.871 6.58984C474.582 6.25391 475.414 6.08594 476.367 6.08594C477.359 6.08594 478.227 6.28906 478.969 6.69531C479.711 7.09375 480.293 7.64062 480.715 8.33594C481.145 9.02344 481.379 9.80469 481.418 10.6797H479.355C479.316 10.1562 479.168 9.68359 478.91 9.26172C478.66 8.83984 478.316 8.50391 477.879 8.25391C477.449 7.99609 476.945 7.86719 476.367 7.86719C475.703 7.86719 475.145 8 474.691 8.26562C474.246 8.52344 473.891 8.875 473.625 9.32031C473.367 9.75781 473.18 10.2461 473.062 10.7852C472.953 11.3164 472.898 11.8594 472.898 12.4141V12.9062C472.898 13.4609 472.953 14.0078 473.062 14.5469C473.172 15.0859 473.355 15.5742 473.613 16.0117C473.879 16.4492 474.234 16.8008 474.68 17.0664C475.133 17.3242 475.695 17.4531 476.367 17.4531ZM483.281 12.8008V12.5312C483.281 11.6172 483.414 10.7695 483.68 9.98828C483.945 9.19922 484.328 8.51562 484.828 7.9375C485.328 7.35156 485.934 6.89844 486.645 6.57812C487.355 6.25 488.152 6.08594 489.035 6.08594C489.926 6.08594 490.727 6.25 491.438 6.57812C492.156 6.89844 492.766 7.35156 493.266 7.9375C493.773 8.51562 494.16 9.19922 494.426 9.98828C494.691 10.7695 494.824 11.6172 494.824 12.5312V12.8008C494.824 13.7148 494.691 14.5625 494.426 15.3438C494.16 16.125 493.773 16.8086 493.266 17.3945C492.766 17.9727 492.16 18.4258 491.449 18.7539C490.746 19.0742 489.949 19.2344 489.059 19.2344C488.168 19.2344 487.367 19.0742 486.656 18.7539C485.945 18.4258 485.336 17.9727 484.828 17.3945C484.328 16.8086 483.945 16.125 483.68 15.3438C483.414 14.5625 483.281 13.7148 483.281 12.8008ZM485.449 12.5312V12.8008C485.449 13.4336 485.523 14.0312 485.672 14.5938C485.82 15.1484 486.043 15.6406 486.34 16.0703C486.645 16.5 487.023 16.8398 487.477 17.0898C487.93 17.332 488.457 17.4531 489.059 17.4531C489.652 17.4531 490.172 17.332 490.617 17.0898C491.07 16.8398 491.445 16.5 491.742 16.0703C492.039 15.6406 492.262 15.1484 492.41 14.5938C492.566 14.0312 492.645 13.4336 492.645 12.8008V12.5312C492.645 11.9062 492.566 11.3164 492.41 10.7617C492.262 10.1992 492.035 9.70312 491.73 9.27344C491.434 8.83594 491.059 8.49219 490.605 8.24219C490.16 7.99219 489.637 7.86719 489.035 7.86719C488.441 7.86719 487.918 7.99219 487.465 8.24219C487.02 8.49219 486.645 8.83594 486.34 9.27344C486.043 9.70312 485.82 10.1992 485.672 10.7617C485.523 11.3164 485.449 11.9062 485.449 12.5312ZM499.711 9.02734V19H497.543V6.32031H499.594L499.711 9.02734ZM499.195 12.1797L498.293 12.1445C498.301 11.2773 498.43 10.4766 498.68 9.74219C498.93 9 499.281 8.35547 499.734 7.80859C500.188 7.26172 500.727 6.83984 501.352 6.54297C501.984 6.23828 502.684 6.08594 503.449 6.08594C504.074 6.08594 504.637 6.17188 505.137 6.34375C505.637 6.50781 506.062 6.77344 506.414 7.14062C506.773 7.50781 507.047 7.98438 507.234 8.57031C507.422 9.14844 507.516 9.85547 507.516 10.6914V19H505.336V10.668C505.336 10.0039 505.238 9.47266 505.043 9.07422C504.848 8.66797 504.562 8.375 504.188 8.19531C503.812 8.00781 503.352 7.91406 502.805 7.91406C502.266 7.91406 501.773 8.02734 501.328 8.25391C500.891 8.48047 500.512 8.79297 500.191 9.19141C499.879 9.58984 499.633 10.0469 499.453 10.5625C499.281 11.0703 499.195 11.6094 499.195 12.1797ZM516.117 6.32031V7.98438H509.262V6.32031H516.117ZM511.582 3.23828H513.75V15.8594C513.75 16.2891 513.816 16.6133 513.949 16.832C514.082 17.0508 514.254 17.1953 514.465 17.2656C514.676 17.3359 514.902 17.3711 515.145 17.3711C515.324 17.3711 515.512 17.3555 515.707 17.3242C515.91 17.2852 516.062 17.2539 516.164 17.2305L516.176 19C516.004 19.0547 515.777 19.1055 515.496 19.1523C515.223 19.207 514.891 19.2344 514.5 19.2344C513.969 19.2344 513.48 19.1289 513.035 18.918C512.59 18.707 512.234 18.3555 511.969 17.8633C511.711 17.3633 511.582 16.6914 511.582 15.8477V3.23828ZM521.016 6.32031V19H518.836V6.32031H521.016ZM518.672 2.95703C518.672 2.60547 518.777 2.30859 518.988 2.06641C519.207 1.82422 519.527 1.70312 519.949 1.70312C520.363 1.70312 520.68 1.82422 520.898 2.06641C521.125 2.30859 521.238 2.60547 521.238 2.95703C521.238 3.29297 521.125 3.58203 520.898 3.82422C520.68 4.05859 520.363 4.17578 519.949 4.17578C519.527 4.17578 519.207 4.05859 518.988 3.82422C518.777 3.58203 518.672 3.29297 518.672 2.95703ZM526.664 9.02734V19H524.496V6.32031H526.547L526.664 9.02734ZM526.148 12.1797L525.246 12.1445C525.254 11.2773 525.383 10.4766 525.633 9.74219C525.883 9 526.234 8.35547 526.688 7.80859C527.141 7.26172 527.68 6.83984 528.305 6.54297C528.938 6.23828 529.637 6.08594 530.402 6.08594C531.027 6.08594 531.59 6.17188 532.09 6.34375C532.59 6.50781 533.016 6.77344 533.367 7.14062C533.727 7.50781 534 7.98438 534.188 8.57031C534.375 9.14844 534.469 9.85547 534.469 10.6914V19H532.289V10.668C532.289 10.0039 532.191 9.47266 531.996 9.07422C531.801 8.66797 531.516 8.375 531.141 8.19531C530.766 8.00781 530.305 7.91406 529.758 7.91406C529.219 7.91406 528.727 8.02734 528.281 8.25391C527.844 8.48047 527.465 8.79297 527.145 9.19141C526.832 9.58984 526.586 10.0469 526.406 10.5625C526.234 11.0703 526.148 11.6094 526.148 12.1797ZM545.52 16.0703V6.32031H547.699V19H545.625L545.52 16.0703ZM545.93 13.3984L546.832 13.375C546.832 14.2188 546.742 15 546.562 15.7188C546.391 16.4297 546.109 17.0469 545.719 17.5703C545.328 18.0938 544.816 18.5039 544.184 18.8008C543.551 19.0898 542.781 19.2344 541.875 19.2344C541.258 19.2344 540.691 19.1445 540.176 18.9648C539.668 18.7852 539.23 18.5078 538.863 18.1328C538.496 17.7578 538.211 17.2695 538.008 16.668C537.812 16.0664 537.715 15.3438 537.715 14.5V6.32031H539.883V14.5234C539.883 15.0938 539.945 15.5664 540.07 15.9414C540.203 16.3086 540.379 16.6016 540.598 16.8203C540.824 17.0312 541.074 17.1797 541.348 17.2656C541.629 17.3516 541.918 17.3945 542.215 17.3945C543.137 17.3945 543.867 17.2188 544.406 16.8672C544.945 16.5078 545.332 16.0273 545.566 15.4258C545.809 14.8164 545.93 14.1406 545.93 13.3984ZM556.266 19.2344C555.383 19.2344 554.582 19.0859 553.863 18.7891C553.152 18.4844 552.539 18.0586 552.023 17.5117C551.516 16.9648 551.125 16.3164 550.852 15.5664C550.578 14.8164 550.441 13.9961 550.441 13.1055V12.6133C550.441 11.582 550.594 10.6641 550.898 9.85938C551.203 9.04688 551.617 8.35938 552.141 7.79688C552.664 7.23438 553.258 6.80859 553.922 6.51953C554.586 6.23047 555.273 6.08594 555.984 6.08594C556.891 6.08594 557.672 6.24219 558.328 6.55469C558.992 6.86719 559.535 7.30469 559.957 7.86719C560.379 8.42188 560.691 9.07812 560.895 9.83594C561.098 10.5859 561.199 11.4062 561.199 12.2969V13.2695H551.73V11.5H559.031V11.3359C559 10.7734 558.883 10.2266 558.68 9.69531C558.484 9.16406 558.172 8.72656 557.742 8.38281C557.312 8.03906 556.727 7.86719 555.984 7.86719C555.492 7.86719 555.039 7.97266 554.625 8.18359C554.211 8.38672 553.855 8.69141 553.559 9.09766C553.262 9.50391 553.031 10 552.867 10.5859C552.703 11.1719 552.621 11.8477 552.621 12.6133V13.1055C552.621 13.707 552.703 14.2734 552.867 14.8047C553.039 15.3281 553.285 15.7891 553.605 16.1875C553.934 16.5859 554.328 16.8984 554.789 17.125C555.258 17.3516 555.789 17.4648 556.383 17.4648C557.148 17.4648 557.797 17.3086 558.328 16.9961C558.859 16.6836 559.324 16.2656 559.723 15.7422L561.035 16.7852C560.762 17.1992 560.414 17.5938 559.992 17.9688C559.57 18.3438 559.051 18.6484 558.434 18.8828C557.824 19.1172 557.102 19.2344 556.266 19.2344ZM563.766 17.8516C563.766 17.4844 563.879 17.1758 564.105 16.9258C564.34 16.668 564.676 16.5391 565.113 16.5391C565.551 16.5391 565.883 16.668 566.109 16.9258C566.344 17.1758 566.461 17.4844 566.461 17.8516C566.461 18.2109 566.344 18.5156 566.109 18.7656C565.883 19.0156 565.551 19.1406 565.113 19.1406C564.676 19.1406 564.34 19.0156 564.105 18.7656C563.879 18.5156 563.766 18.2109 563.766 17.8516Z" fill="black"/>
</svg>
