<svg width="161" height="23" viewBox="0 0 161 23" fill="none" xmlns="http://www.w3.org/2000/svg">
<path d="M2.03516 0.9375H4.82422L9.48828 13.7812L14.1406 0.9375H16.9414L10.6016 18H8.36328L2.03516 0.9375ZM0.628906 0.9375H3.35938L3.85156 12.7383V18H0.628906V0.9375ZM15.6055 0.9375H18.3477V18H15.125V12.7383L15.6055 0.9375ZM24.6758 5.32031V18H21.5703V5.32031H24.6758ZM21.3594 2.00391C21.3594 1.54297 21.5156 1.16016 21.8281 0.855469C22.1484 0.550781 22.5781 0.398438 23.1172 0.398438C23.6562 0.398438 24.082 0.550781 24.3945 0.855469C24.7148 1.16016 24.875 1.54297 24.875 2.00391C24.875 2.45703 24.7148 2.83594 24.3945 3.14062C24.082 3.44531 23.6562 3.59766 23.1172 3.59766C22.5781 3.59766 22.1484 3.44531 21.8281 3.14062C21.5156 2.83594 21.3594 2.45703 21.3594 2.00391ZM34.6016 14.5312C34.6016 14.2656 34.5312 14.0273 34.3906 13.8164C34.25 13.6055 33.9844 13.4141 33.5938 13.2422C33.2109 13.0625 32.6484 12.8945 31.9062 12.7383C31.25 12.5977 30.6445 12.4219 30.0898 12.2109C29.5352 12 29.0586 11.7461 28.6602 11.4492C28.2617 11.1445 27.9492 10.7891 27.7227 10.3828C27.5039 9.96875 27.3945 9.49219 27.3945 8.95312C27.3945 8.42969 27.5078 7.9375 27.7344 7.47656C27.9609 7.00781 28.2891 6.59766 28.7188 6.24609C29.1484 5.88672 29.6719 5.60547 30.2891 5.40234C30.9062 5.19141 31.6016 5.08594 32.375 5.08594C33.4531 5.08594 34.3789 5.26172 35.1523 5.61328C35.9336 5.96484 36.5312 6.44922 36.9453 7.06641C37.3594 7.67578 37.5664 8.36328 37.5664 9.12891H34.4727C34.4727 8.79297 34.3945 8.48828 34.2383 8.21484C34.0898 7.94141 33.8594 7.72266 33.5469 7.55859C33.2344 7.38672 32.8398 7.30078 32.3633 7.30078C31.9336 7.30078 31.5703 7.37109 31.2734 7.51172C30.9844 7.65234 30.7656 7.83594 30.6172 8.0625C30.4688 8.28906 30.3945 8.53906 30.3945 8.8125C30.3945 9.01562 30.4336 9.19922 30.5117 9.36328C30.5977 9.51953 30.7344 9.66406 30.9219 9.79688C31.1094 9.92969 31.3633 10.0508 31.6836 10.1602C32.0117 10.2695 32.4141 10.375 32.8906 10.4766C33.8359 10.6641 34.6602 10.9141 35.3633 11.2266C36.0742 11.5312 36.6289 11.9375 37.0273 12.4453C37.4258 12.9531 37.625 13.6016 37.625 14.3906C37.625 14.9531 37.5039 15.4688 37.2617 15.9375C37.0195 16.3984 36.668 16.8008 36.207 17.1445C35.7461 17.4883 35.1953 17.7578 34.5547 17.9531C33.9141 18.1406 33.1914 18.2344 32.3867 18.2344C31.2227 18.2344 30.2383 18.0273 29.4336 17.6133C28.6289 17.1914 28.0195 16.6602 27.6055 16.0195C27.1914 15.3711 26.9844 14.6992 26.9844 14.0039H29.9492C29.9727 14.4961 30.1055 14.8906 30.3477 15.1875C30.5898 15.4844 30.8945 15.6992 31.2617 15.832C31.6367 15.957 32.0312 16.0195 32.4453 16.0195C32.9141 16.0195 33.3086 15.957 33.6289 15.832C33.9492 15.6992 34.1914 15.5234 34.3555 15.3047C34.5195 15.0781 34.6016 14.8203 34.6016 14.5312ZM46.9531 14.5312C46.9531 14.2656 46.8828 14.0273 46.7422 13.8164C46.6016 13.6055 46.3359 13.4141 45.9453 13.2422C45.5625 13.0625 45 12.8945 44.2578 12.7383C43.6016 12.5977 42.9961 12.4219 42.4414 12.2109C41.8867 12 41.4102 11.7461 41.0117 11.4492C40.6133 11.1445 40.3008 10.7891 40.0742 10.3828C39.8555 9.96875 39.7461 9.49219 39.7461 8.95312C39.7461 8.42969 39.8594 7.9375 40.0859 7.47656C40.3125 7.00781 40.6406 6.59766 41.0703 6.24609C41.5 5.88672 42.0234 5.60547 42.6406 5.40234C43.2578 5.19141 43.9531 5.08594 44.7266 5.08594C45.8047 5.08594 46.7305 5.26172 47.5039 5.61328C48.2852 5.96484 48.8828 6.44922 49.2969 7.06641C49.7109 7.67578 49.918 8.36328 49.918 9.12891H46.8242C46.8242 8.79297 46.7461 8.48828 46.5898 8.21484C46.4414 7.94141 46.2109 7.72266 45.8984 7.55859C45.5859 7.38672 45.1914 7.30078 44.7148 7.30078C44.2852 7.30078 43.9219 7.37109 43.625 7.51172C43.3359 7.65234 43.1172 7.83594 42.9688 8.0625C42.8203 8.28906 42.7461 8.53906 42.7461 8.8125C42.7461 9.01562 42.7852 9.19922 42.8633 9.36328C42.9492 9.51953 43.0859 9.66406 43.2734 9.79688C43.4609 9.92969 43.7148 10.0508 44.0352 10.1602C44.3633 10.2695 44.7656 10.375 45.2422 10.4766C46.1875 10.6641 47.0117 10.9141 47.7148 11.2266C48.4258 11.5312 48.9805 11.9375 49.3789 12.4453C49.7773 12.9531 49.9766 13.6016 49.9766 14.3906C49.9766 14.9531 49.8555 15.4688 49.6133 15.9375C49.3711 16.3984 49.0195 16.8008 48.5586 17.1445C48.0977 17.4883 47.5469 17.7578 46.9062 17.9531C46.2656 18.1406 45.543 18.2344 44.7383 18.2344C43.5742 18.2344 42.5898 18.0273 41.7852 17.6133C40.9805 17.1914 40.3711 16.6602 39.957 16.0195C39.543 15.3711 39.3359 14.6992 39.3359 14.0039H42.3008C42.3242 14.4961 42.457 14.8906 42.6992 15.1875C42.9414 15.4844 43.2461 15.6992 43.6133 15.832C43.9883 15.957 44.3828 16.0195 44.7969 16.0195C45.2656 16.0195 45.6602 15.957 45.9805 15.832C46.3008 15.6992 46.543 15.5234 46.707 15.3047C46.8711 15.0781 46.9531 14.8203 46.9531 14.5312ZM55.6133 5.32031V18H52.5078V5.32031H55.6133ZM52.2969 2.00391C52.2969 1.54297 52.4531 1.16016 52.7656 0.855469C53.0859 0.550781 53.5156 0.398438 54.0547 0.398438C54.5938 0.398438 55.0195 0.550781 55.332 0.855469C55.6523 1.16016 55.8125 1.54297 55.8125 2.00391C55.8125 2.45703 55.6523 2.83594 55.332 3.14062C55.0195 3.44531 54.5938 3.59766 54.0547 3.59766C53.5156 3.59766 53.0859 3.44531 52.7656 3.14062C52.4531 2.83594 52.2969 2.45703 52.2969 2.00391ZM61.6016 8.02734V18H58.5078V5.32031H61.4141L61.6016 8.02734ZM61.1094 11.2031H60.1953C60.2031 10.2812 60.3281 9.44531 60.5703 8.69531C60.8125 7.94531 61.1523 7.30078 61.5898 6.76172C62.0352 6.22266 62.5625 5.80859 63.1719 5.51953C63.7812 5.23047 64.4609 5.08594 65.2109 5.08594C65.8203 5.08594 66.3711 5.17188 66.8633 5.34375C67.3555 5.51562 67.7773 5.78906 68.1289 6.16406C68.4883 6.53906 68.7617 7.03125 68.9492 7.64062C69.1445 8.24219 69.2422 8.98438 69.2422 9.86719V18H66.125V9.84375C66.125 9.26562 66.0391 8.80859 65.8672 8.47266C65.7031 8.13672 65.4609 7.89844 65.1406 7.75781C64.8281 7.61719 64.4414 7.54688 63.9805 7.54688C63.5039 7.54688 63.0859 7.64453 62.7266 7.83984C62.375 8.02734 62.0781 8.28906 61.8359 8.625C61.6016 8.96094 61.4219 9.34766 61.2969 9.78516C61.1719 10.2227 61.1094 10.6953 61.1094 11.2031ZM80.0352 5.32031H82.8477V17.6133C82.8477 18.7617 82.5977 19.7344 82.0977 20.5312C81.6055 21.3359 80.9141 21.9453 80.0234 22.3594C79.1328 22.7812 78.0977 22.9922 76.918 22.9922C76.4102 22.9922 75.8594 22.9219 75.2656 22.7812C74.6797 22.6406 74.1133 22.418 73.5664 22.1133C73.0273 21.8164 72.5781 21.4297 72.2188 20.9531L73.6133 19.125C74.0352 19.6172 74.5117 19.9883 75.043 20.2383C75.5742 20.4961 76.1484 20.625 76.7656 20.625C77.3906 20.625 77.9219 20.5078 78.3594 20.2734C78.8047 20.0469 79.1445 19.7109 79.3789 19.2656C79.6211 18.8281 79.7422 18.2891 79.7422 17.6484V8.21484L80.0352 5.32031ZM71.4688 11.8125V11.5664C71.4688 10.5977 71.5859 9.71875 71.8203 8.92969C72.0547 8.13281 72.3906 7.44922 72.8281 6.87891C73.2734 6.30859 73.8086 5.86719 74.4336 5.55469C75.0664 5.24219 75.7773 5.08594 76.5664 5.08594C77.4023 5.08594 78.1055 5.23828 78.6758 5.54297C79.2539 5.84766 79.7305 6.28125 80.1055 6.84375C80.4883 7.40625 80.7852 8.07422 80.9961 8.84766C81.2148 9.61328 81.3828 10.457 81.5 11.3789V12.0469C81.3906 12.9453 81.2148 13.7695 80.9727 14.5195C80.7383 15.2695 80.4258 15.9258 80.0352 16.4883C79.6445 17.043 79.1602 17.4727 78.582 17.7773C78.0039 18.082 77.3242 18.2344 76.543 18.2344C75.7617 18.2344 75.0586 18.0742 74.4336 17.7539C73.8086 17.4336 73.2734 16.9844 72.8281 16.4062C72.3906 15.8281 72.0547 15.1484 71.8203 14.3672C71.5859 13.5859 71.4688 12.7344 71.4688 11.8125ZM74.5625 11.5664V11.8125C74.5625 12.3594 74.6172 12.8711 74.7266 13.3477C74.8359 13.8242 75.0039 14.2461 75.2305 14.6133C75.457 14.9727 75.7422 15.2539 76.0859 15.457C76.4297 15.6602 76.8398 15.7617 77.3164 15.7617C77.957 15.7617 78.4805 15.6289 78.8867 15.3633C79.3008 15.0898 79.6133 14.7188 79.8242 14.25C80.043 13.7734 80.1836 13.2383 80.2461 12.6445V10.8047C80.207 10.3359 80.1211 9.90234 79.9883 9.50391C79.8633 9.10547 79.6875 8.76172 79.4609 8.47266C79.2344 8.18359 78.9453 7.95703 78.5938 7.79297C78.2422 7.62891 77.8242 7.54688 77.3398 7.54688C76.8711 7.54688 76.4609 7.65234 76.1094 7.86328C75.7578 8.06641 75.4688 8.35156 75.2422 8.71875C75.0156 9.08594 74.8438 9.51172 74.7266 9.99609C74.6172 10.4805 74.5625 11.0039 74.5625 11.5664ZM95.1406 14.9531L97.918 5.32031H99.8867L99.3008 8.64844L96.5 18H94.8008L95.1406 14.9531ZM93.6055 5.32031L95.6914 14.9766L95.8789 18H93.9219L90.5938 5.32031H93.6055ZM102.465 14.8359L104.504 5.32031H107.504L104.199 18H102.242L102.465 14.8359ZM100.191 5.32031L102.945 14.8594L103.309 18H101.609L98.7852 8.64844L98.2109 5.32031H100.191ZM108.781 11.7891V11.543C108.781 10.6133 108.914 9.75781 109.18 8.97656C109.445 8.1875 109.832 7.50391 110.34 6.92578C110.848 6.34766 111.469 5.89844 112.203 5.57812C112.938 5.25 113.773 5.08594 114.711 5.08594C115.664 5.08594 116.508 5.25 117.242 5.57812C117.984 5.89844 118.609 6.34766 119.117 6.92578C119.625 7.50391 120.012 8.1875 120.277 8.97656C120.543 9.75781 120.676 10.6133 120.676 11.543V11.7891C120.676 12.7109 120.543 13.5664 120.277 14.3555C120.012 15.1367 119.625 15.8203 119.117 16.4062C118.609 16.9844 117.988 17.4336 117.254 17.7539C116.52 18.0742 115.68 18.2344 114.734 18.2344C113.797 18.2344 112.957 18.0742 112.215 17.7539C111.473 17.4336 110.848 16.9844 110.34 16.4062C109.832 15.8203 109.445 15.1367 109.18 14.3555C108.914 13.5664 108.781 12.7109 108.781 11.7891ZM111.875 11.543V11.7891C111.875 12.3438 111.93 12.8633 112.039 13.3477C112.148 13.832 112.316 14.2578 112.543 14.625C112.77 14.9922 113.062 15.2812 113.422 15.4922C113.789 15.6953 114.227 15.7969 114.734 15.7969C115.234 15.7969 115.664 15.6953 116.023 15.4922C116.383 15.2812 116.676 14.9922 116.902 14.625C117.137 14.2578 117.309 13.832 117.418 13.3477C117.527 12.8633 117.582 12.3438 117.582 11.7891V11.543C117.582 10.9961 117.527 10.4844 117.418 10.0078C117.309 9.52344 117.137 9.09766 116.902 8.73047C116.676 8.35547 116.379 8.0625 116.012 7.85156C115.652 7.63281 115.219 7.52344 114.711 7.52344C114.211 7.52344 113.781 7.63281 113.422 7.85156C113.062 8.0625 112.77 8.35547 112.543 8.73047C112.316 9.09766 112.148 9.52344 112.039 10.0078C111.93 10.4844 111.875 10.9961 111.875 11.543ZM126.02 7.91016V18H122.926V5.32031H125.855L126.02 7.91016ZM129.875 5.23828L129.828 8.12109C129.656 8.08984 129.461 8.06641 129.242 8.05078C129.031 8.03516 128.832 8.02734 128.645 8.02734C128.168 8.02734 127.75 8.09375 127.391 8.22656C127.031 8.35156 126.73 8.53516 126.488 8.77734C126.254 9.01953 126.074 9.31641 125.949 9.66797C125.824 10.0117 125.754 10.4023 125.738 10.8398L125.07 10.7578C125.07 9.95312 125.152 9.20703 125.316 8.51953C125.48 7.83203 125.719 7.23047 126.031 6.71484C126.344 6.19922 126.734 5.80078 127.203 5.51953C127.68 5.23047 128.227 5.08594 128.844 5.08594C129.016 5.08594 129.199 5.10156 129.395 5.13281C129.598 5.15625 129.758 5.19141 129.875 5.23828ZM138.945 15.3047V0H142.062V18H139.25L138.945 15.3047ZM130.801 11.8125V11.5664C130.801 10.5977 130.91 9.71875 131.129 8.92969C131.355 8.13281 131.684 7.44922 132.113 6.87891C132.543 6.30859 133.062 5.86719 133.672 5.55469C134.289 5.24219 134.988 5.08594 135.77 5.08594C136.527 5.08594 137.188 5.23828 137.75 5.54297C138.32 5.84766 138.805 6.28125 139.203 6.84375C139.609 7.40625 139.934 8.07422 140.176 8.84766C140.418 9.61328 140.594 10.457 140.703 11.3789V12.0469C140.594 12.9453 140.418 13.7695 140.176 14.5195C139.934 15.2695 139.609 15.9258 139.203 16.4883C138.805 17.043 138.32 17.4727 137.75 17.7773C137.18 18.082 136.512 18.2344 135.746 18.2344C134.973 18.2344 134.277 18.0742 133.66 17.7539C133.051 17.4336 132.531 16.9844 132.102 16.4062C131.68 15.8281 131.355 15.1484 131.129 14.3672C130.91 13.5859 130.801 12.7344 130.801 11.8125ZM133.906 11.5664V11.8125C133.906 12.3594 133.953 12.8711 134.047 13.3477C134.141 13.8242 134.293 14.2461 134.504 14.6133C134.715 14.9727 134.984 15.2539 135.312 15.457C135.648 15.6602 136.055 15.7617 136.531 15.7617C137.141 15.7617 137.641 15.6289 138.031 15.3633C138.43 15.0898 138.738 14.7188 138.957 14.25C139.176 13.7734 139.316 13.2383 139.379 12.6445V10.8047C139.348 10.3359 139.266 9.90234 139.133 9.50391C139.008 9.10547 138.828 8.76172 138.594 8.47266C138.367 8.18359 138.086 7.95703 137.75 7.79297C137.414 7.62891 137.016 7.54688 136.555 7.54688C136.078 7.54688 135.672 7.65234 135.336 7.86328C135 8.06641 134.727 8.35156 134.516 8.71875C134.305 9.08594 134.148 9.51172 134.047 9.99609C133.953 10.4805 133.906 11.0039 133.906 11.5664ZM151.836 14.5312C151.836 14.2656 151.766 14.0273 151.625 13.8164C151.484 13.6055 151.219 13.4141 150.828 13.2422C150.445 13.0625 149.883 12.8945 149.141 12.7383C148.484 12.5977 147.879 12.4219 147.324 12.2109C146.77 12 146.293 11.7461 145.895 11.4492C145.496 11.1445 145.184 10.7891 144.957 10.3828C144.738 9.96875 144.629 9.49219 144.629 8.95312C144.629 8.42969 144.742 7.9375 144.969 7.47656C145.195 7.00781 145.523 6.59766 145.953 6.24609C146.383 5.88672 146.906 5.60547 147.523 5.40234C148.141 5.19141 148.836 5.08594 149.609 5.08594C150.688 5.08594 151.613 5.26172 152.387 5.61328C153.168 5.96484 153.766 6.44922 154.18 7.06641C154.594 7.67578 154.801 8.36328 154.801 9.12891H151.707C151.707 8.79297 151.629 8.48828 151.473 8.21484C151.324 7.94141 151.094 7.72266 150.781 7.55859C150.469 7.38672 150.074 7.30078 149.598 7.30078C149.168 7.30078 148.805 7.37109 148.508 7.51172C148.219 7.65234 148 7.83594 147.852 8.0625C147.703 8.28906 147.629 8.53906 147.629 8.8125C147.629 9.01562 147.668 9.19922 147.746 9.36328C147.832 9.51953 147.969 9.66406 148.156 9.79688C148.344 9.92969 148.598 10.0508 148.918 10.1602C149.246 10.2695 149.648 10.375 150.125 10.4766C151.07 10.6641 151.895 10.9141 152.598 11.2266C153.309 11.5312 153.863 11.9375 154.262 12.4453C154.66 12.9531 154.859 13.6016 154.859 14.3906C154.859 14.9531 154.738 15.4688 154.496 15.9375C154.254 16.3984 153.902 16.8008 153.441 17.1445C152.98 17.4883 152.43 17.7578 151.789 17.9531C151.148 18.1406 150.426 18.2344 149.621 18.2344C148.457 18.2344 147.473 18.0273 146.668 17.6133C145.863 17.1914 145.254 16.6602 144.84 16.0195C144.426 15.3711 144.219 14.6992 144.219 14.0039H147.184C147.207 14.4961 147.34 14.8906 147.582 15.1875C147.824 15.4844 148.129 15.6992 148.496 15.832C148.871 15.957 149.266 16.0195 149.68 16.0195C150.148 16.0195 150.543 15.957 150.863 15.832C151.184 15.6992 151.426 15.5234 151.59 15.3047C151.754 15.0781 151.836 14.8203 151.836 14.5312ZM157.285 16.4883C157.285 16.0195 157.445 15.625 157.766 15.3047C158.086 14.9844 158.52 14.8242 159.066 14.8242C159.613 14.8242 160.047 14.9844 160.367 15.3047C160.688 15.625 160.848 16.0195 160.848 16.4883C160.848 16.9492 160.688 17.3398 160.367 17.6602C160.047 17.9727 159.613 18.1289 159.066 18.1289C158.52 18.1289 158.086 17.9727 157.766 17.6602C157.445 17.3398 157.285 16.9492 157.285 16.4883ZM157.297 6.65625C157.297 6.1875 157.457 5.79297 157.777 5.47266C158.098 5.15234 158.531 4.99219 159.078 4.99219C159.625 4.99219 160.059 5.15234 160.379 5.47266C160.699 5.79297 160.859 6.1875 160.859 6.65625C160.859 7.11719 160.699 7.50781 160.379 7.82812C160.059 8.14062 159.625 8.29688 159.078 8.29688C158.531 8.29688 158.098 8.14062 157.777 7.82812C157.457 7.50781 157.297 7.11719 157.297 6.65625Z" fill="black"/>
</svg>
