<svg width="908" height="48" viewBox="0 0 908 48" fill="none" xmlns="http://www.w3.org/2000/svg">
<g filter="url(#filter0_d_66_3039)">
<path d="M4 0H864C886.091 0 904 17.9086 904 40V40H44C21.9086 40 4 22.0914 4 0V0Z" fill="#F6DAE4"/>
</g>
<path d="M311.27 11.9375V29H308.328L300.676 16.7773V29H297.734V11.9375H300.676L308.352 24.1836V11.9375H311.27ZM321.641 26.457V20.4102C321.641 19.957 321.559 19.5664 321.395 19.2383C321.23 18.9102 320.98 18.6562 320.645 18.4766C320.316 18.2969 319.902 18.207 319.402 18.207C318.941 18.207 318.543 18.2852 318.207 18.4414C317.871 18.5977 317.609 18.8086 317.422 19.0742C317.234 19.3398 317.141 19.6406 317.141 19.9766H314.328C314.328 19.4766 314.449 18.9922 314.691 18.5234C314.934 18.0547 315.285 17.6367 315.746 17.2695C316.207 16.9023 316.758 16.6133 317.398 16.4023C318.039 16.1914 318.758 16.0859 319.555 16.0859C320.508 16.0859 321.352 16.2461 322.086 16.5664C322.828 16.8867 323.41 17.3711 323.832 18.0195C324.262 18.6602 324.477 19.4648 324.477 20.4336V26.0703C324.477 26.6484 324.516 27.168 324.594 27.6289C324.68 28.082 324.801 28.4766 324.957 28.8125V29H322.062C321.93 28.6953 321.824 28.3086 321.746 27.8398C321.676 27.3633 321.641 26.9023 321.641 26.457ZM322.051 21.2891L322.074 23.0352H320.047C319.523 23.0352 319.062 23.0859 318.664 23.1875C318.266 23.2812 317.934 23.4219 317.668 23.6094C317.402 23.7969 317.203 24.0234 317.07 24.2891C316.938 24.5547 316.871 24.8555 316.871 25.1914C316.871 25.5273 316.949 25.8359 317.105 26.1172C317.262 26.3906 317.488 26.6055 317.785 26.7617C318.09 26.918 318.457 26.9961 318.887 26.9961C319.465 26.9961 319.969 26.8789 320.398 26.6445C320.836 26.4023 321.18 26.1094 321.43 25.7656C321.68 25.4141 321.812 25.082 321.828 24.7695L322.742 26.0234C322.648 26.3438 322.488 26.6875 322.262 27.0547C322.035 27.4219 321.738 27.7734 321.371 28.1094C321.012 28.4375 320.578 28.707 320.07 28.918C319.57 29.1289 318.992 29.2344 318.336 29.2344C317.508 29.2344 316.77 29.0703 316.121 28.7422C315.473 28.4062 314.965 27.957 314.598 27.3945C314.23 26.8242 314.047 26.1797 314.047 25.4609C314.047 24.7891 314.172 24.1953 314.422 23.6797C314.68 23.1562 315.055 22.7188 315.547 22.3672C316.047 22.0156 316.656 21.75 317.375 21.5703C318.094 21.3828 318.914 21.2891 319.836 21.2891H322.051ZM330.266 18.7344V29H327.441V16.3203H330.137L330.266 18.7344ZM334.145 16.2383L334.121 18.8633C333.949 18.832 333.762 18.8086 333.559 18.793C333.363 18.7773 333.168 18.7695 332.973 18.7695C332.488 18.7695 332.062 18.8398 331.695 18.9805C331.328 19.1133 331.02 19.3086 330.77 19.5664C330.527 19.8164 330.34 20.1211 330.207 20.4805C330.074 20.8398 329.996 21.2422 329.973 21.6875L329.328 21.7344C329.328 20.9375 329.406 20.1992 329.562 19.5195C329.719 18.8398 329.953 18.2422 330.266 17.7266C330.586 17.2109 330.984 16.8086 331.461 16.5195C331.945 16.2305 332.504 16.0859 333.137 16.0859C333.309 16.0859 333.492 16.1016 333.688 16.1328C333.891 16.1641 334.043 16.1992 334.145 16.2383ZM338.75 18.7344V29H335.926V16.3203H338.621L338.75 18.7344ZM342.629 16.2383L342.605 18.8633C342.434 18.832 342.246 18.8086 342.043 18.793C341.848 18.7773 341.652 18.7695 341.457 18.7695C340.973 18.7695 340.547 18.8398 340.18 18.9805C339.812 19.1133 339.504 19.3086 339.254 19.5664C339.012 19.8164 338.824 20.1211 338.691 20.4805C338.559 20.8398 338.48 21.2422 338.457 21.6875L337.812 21.7344C337.812 20.9375 337.891 20.1992 338.047 19.5195C338.203 18.8398 338.438 18.2422 338.75 17.7266C339.07 17.2109 339.469 16.8086 339.945 16.5195C340.43 16.2305 340.988 16.0859 341.621 16.0859C341.793 16.0859 341.977 16.1016 342.172 16.1328C342.375 16.1641 342.527 16.1992 342.629 16.2383ZM351.125 26.457V20.4102C351.125 19.957 351.043 19.5664 350.879 19.2383C350.715 18.9102 350.465 18.6562 350.129 18.4766C349.801 18.2969 349.387 18.207 348.887 18.207C348.426 18.207 348.027 18.2852 347.691 18.4414C347.355 18.5977 347.094 18.8086 346.906 19.0742C346.719 19.3398 346.625 19.6406 346.625 19.9766H343.812C343.812 19.4766 343.934 18.9922 344.176 18.5234C344.418 18.0547 344.77 17.6367 345.23 17.2695C345.691 16.9023 346.242 16.6133 346.883 16.4023C347.523 16.1914 348.242 16.0859 349.039 16.0859C349.992 16.0859 350.836 16.2461 351.57 16.5664C352.312 16.8867 352.895 17.3711 353.316 18.0195C353.746 18.6602 353.961 19.4648 353.961 20.4336V26.0703C353.961 26.6484 354 27.168 354.078 27.6289C354.164 28.082 354.285 28.4766 354.441 28.8125V29H351.547C351.414 28.6953 351.309 28.3086 351.23 27.8398C351.16 27.3633 351.125 26.9023 351.125 26.457ZM351.535 21.2891L351.559 23.0352H349.531C349.008 23.0352 348.547 23.0859 348.148 23.1875C347.75 23.2812 347.418 23.4219 347.152 23.6094C346.887 23.7969 346.688 24.0234 346.555 24.2891C346.422 24.5547 346.355 24.8555 346.355 25.1914C346.355 25.5273 346.434 25.8359 346.59 26.1172C346.746 26.3906 346.973 26.6055 347.27 26.7617C347.574 26.918 347.941 26.9961 348.371 26.9961C348.949 26.9961 349.453 26.8789 349.883 26.6445C350.32 26.4023 350.664 26.1094 350.914 25.7656C351.164 25.4141 351.297 25.082 351.312 24.7695L352.227 26.0234C352.133 26.3438 351.973 26.6875 351.746 27.0547C351.52 27.4219 351.223 27.7734 350.855 28.1094C350.496 28.4375 350.062 28.707 349.555 28.918C349.055 29.1289 348.477 29.2344 347.82 29.2344C346.992 29.2344 346.254 29.0703 345.605 28.7422C344.957 28.4062 344.449 27.957 344.082 27.3945C343.715 26.8242 343.531 26.1797 343.531 25.4609C343.531 24.7891 343.656 24.1953 343.906 23.6797C344.164 23.1562 344.539 22.7188 345.031 22.3672C345.531 22.0156 346.141 21.75 346.859 21.5703C347.578 21.3828 348.398 21.2891 349.32 21.2891H351.535ZM362.727 16.3203V18.3828H355.578V16.3203H362.727ZM357.641 13.2148H360.465V25.4961C360.465 25.8867 360.52 26.1875 360.629 26.3984C360.746 26.6016 360.906 26.7383 361.109 26.8086C361.312 26.8789 361.551 26.9141 361.824 26.9141C362.02 26.9141 362.207 26.9023 362.387 26.8789C362.566 26.8555 362.711 26.832 362.82 26.8086L362.832 28.9648C362.598 29.0352 362.324 29.0977 362.012 29.1523C361.707 29.207 361.355 29.2344 360.957 29.2344C360.309 29.2344 359.734 29.1211 359.234 28.8945C358.734 28.6602 358.344 28.2812 358.062 27.7578C357.781 27.2344 357.641 26.5391 357.641 25.6719V13.2148ZM370.496 29.2344C369.559 29.2344 368.711 29.082 367.953 28.7773C367.203 28.4648 366.562 28.0312 366.031 27.4766C365.508 26.9219 365.105 26.2695 364.824 25.5195C364.543 24.7695 364.402 23.9609 364.402 23.0938V22.625C364.402 21.6328 364.547 20.7344 364.836 19.9297C365.125 19.125 365.527 18.4375 366.043 17.8672C366.559 17.2891 367.168 16.8477 367.871 16.543C368.574 16.2383 369.336 16.0859 370.156 16.0859C371.062 16.0859 371.855 16.2383 372.535 16.543C373.215 16.8477 373.777 17.2773 374.223 17.832C374.676 18.3789 375.012 19.0312 375.23 19.7891C375.457 20.5469 375.57 21.3828 375.57 22.2969V23.5039H365.773V21.4766H372.781V21.2539C372.766 20.7461 372.664 20.2695 372.477 19.8242C372.297 19.3789 372.02 19.0195 371.645 18.7461C371.27 18.4727 370.77 18.3359 370.145 18.3359C369.676 18.3359 369.258 18.4375 368.891 18.6406C368.531 18.8359 368.23 19.1211 367.988 19.4961C367.746 19.8711 367.559 20.3242 367.426 20.8555C367.301 21.3789 367.238 21.9688 367.238 22.625V23.0938C367.238 23.6484 367.312 24.1641 367.461 24.6406C367.617 25.1094 367.844 25.5195 368.141 25.8711C368.438 26.2227 368.797 26.5 369.219 26.7031C369.641 26.8984 370.121 26.9961 370.66 26.9961C371.34 26.9961 371.945 26.8594 372.477 26.5859C373.008 26.3125 373.469 25.9258 373.859 25.4258L375.348 26.8672C375.074 27.2656 374.719 27.6484 374.281 28.0156C373.844 28.375 373.309 28.668 372.676 28.8945C372.051 29.1211 371.324 29.2344 370.496 29.2344ZM389.562 16.3203V18.3828H382.414V16.3203H389.562ZM384.477 13.2148H387.301V25.4961C387.301 25.8867 387.355 26.1875 387.465 26.3984C387.582 26.6016 387.742 26.7383 387.945 26.8086C388.148 26.8789 388.387 26.9141 388.66 26.9141C388.855 26.9141 389.043 26.9023 389.223 26.8789C389.402 26.8555 389.547 26.832 389.656 26.8086L389.668 28.9648C389.434 29.0352 389.16 29.0977 388.848 29.1523C388.543 29.207 388.191 29.2344 387.793 29.2344C387.145 29.2344 386.57 29.1211 386.07 28.8945C385.57 28.6602 385.18 28.2812 384.898 27.7578C384.617 27.2344 384.477 26.5391 384.477 25.6719V13.2148ZM394.531 11V29H391.719V11H394.531ZM394.039 22.1914L393.125 22.1797C393.133 21.3047 393.254 20.4961 393.488 19.7539C393.73 19.0117 394.066 18.3672 394.496 17.8203C394.934 17.2656 395.457 16.8398 396.066 16.543C396.676 16.2383 397.352 16.0859 398.094 16.0859C398.719 16.0859 399.281 16.1719 399.781 16.3438C400.289 16.5156 400.727 16.793 401.094 17.1758C401.461 17.5508 401.738 18.043 401.926 18.6523C402.121 19.2539 402.219 19.9883 402.219 20.8555V29H399.383V20.832C399.383 20.2227 399.293 19.7383 399.113 19.3789C398.941 19.0195 398.688 18.7617 398.352 18.6055C398.016 18.4414 397.605 18.3594 397.121 18.3594C396.613 18.3594 396.164 18.4609 395.773 18.6641C395.391 18.8672 395.07 19.1445 394.812 19.4961C394.555 19.8477 394.359 20.2539 394.227 20.7148C394.102 21.1758 394.039 21.668 394.039 22.1914ZM410.668 29.2344C409.73 29.2344 408.883 29.082 408.125 28.7773C407.375 28.4648 406.734 28.0312 406.203 27.4766C405.68 26.9219 405.277 26.2695 404.996 25.5195C404.715 24.7695 404.574 23.9609 404.574 23.0938V22.625C404.574 21.6328 404.719 20.7344 405.008 19.9297C405.297 19.125 405.699 18.4375 406.215 17.8672C406.73 17.2891 407.34 16.8477 408.043 16.543C408.746 16.2383 409.508 16.0859 410.328 16.0859C411.234 16.0859 412.027 16.2383 412.707 16.543C413.387 16.8477 413.949 17.2773 414.395 17.832C414.848 18.3789 415.184 19.0312 415.402 19.7891C415.629 20.5469 415.742 21.3828 415.742 22.2969V23.5039H405.945V21.4766H412.953V21.2539C412.938 20.7461 412.836 20.2695 412.648 19.8242C412.469 19.3789 412.191 19.0195 411.816 18.7461C411.441 18.4727 410.941 18.3359 410.316 18.3359C409.848 18.3359 409.43 18.4375 409.062 18.6406C408.703 18.8359 408.402 19.1211 408.16 19.4961C407.918 19.8711 407.73 20.3242 407.598 20.8555C407.473 21.3789 407.41 21.9688 407.41 22.625V23.0938C407.41 23.6484 407.484 24.1641 407.633 24.6406C407.789 25.1094 408.016 25.5195 408.312 25.8711C408.609 26.2227 408.969 26.5 409.391 26.7031C409.812 26.8984 410.293 26.9961 410.832 26.9961C411.512 26.9961 412.117 26.8594 412.648 26.5859C413.18 26.3125 413.641 25.9258 414.031 25.4258L415.52 26.8672C415.246 27.2656 414.891 27.6484 414.453 28.0156C414.016 28.375 413.48 28.668 412.848 28.8945C412.223 29.1211 411.496 29.2344 410.668 29.2344ZM428.047 26.7617L431.152 16.3203H434.082L429.676 29H427.848L428.047 26.7617ZM425.668 16.3203L428.832 26.8086L428.984 29H427.156L422.727 16.3203H425.668ZM438.852 16.3203V29H436.016V16.3203H438.852ZM435.828 12.9922C435.828 12.5625 435.969 12.207 436.25 11.9258C436.539 11.6367 436.938 11.4922 437.445 11.4922C437.945 11.4922 438.34 11.6367 438.629 11.9258C438.918 12.207 439.062 12.5625 439.062 12.9922C439.062 13.4141 438.918 13.7656 438.629 14.0469C438.34 14.3281 437.945 14.4688 437.445 14.4688C436.938 14.4688 436.539 14.3281 436.25 14.0469C435.969 13.7656 435.828 13.4141 435.828 12.9922ZM449.68 26.375V11H452.516V29H449.949L449.68 26.375ZM441.43 22.8008V22.5547C441.43 21.5938 441.543 20.7188 441.77 19.9297C441.996 19.1328 442.324 18.4492 442.754 17.8789C443.184 17.3008 443.707 16.8594 444.324 16.5547C444.941 16.2422 445.637 16.0859 446.41 16.0859C447.176 16.0859 447.848 16.2344 448.426 16.5312C449.004 16.8281 449.496 17.2539 449.902 17.8086C450.309 18.3555 450.633 19.0117 450.875 19.7773C451.117 20.5352 451.289 21.3789 451.391 22.3086V23.0938C451.289 24 451.117 24.8281 450.875 25.5781C450.633 26.3281 450.309 26.9766 449.902 27.5234C449.496 28.0703 449 28.4922 448.414 28.7891C447.836 29.0859 447.16 29.2344 446.387 29.2344C445.621 29.2344 444.93 29.0742 444.312 28.7539C443.703 28.4336 443.184 27.9844 442.754 27.4062C442.324 26.8281 441.996 26.1484 441.77 25.3672C441.543 24.5781 441.43 23.7227 441.43 22.8008ZM444.254 22.5547V22.8008C444.254 23.3789 444.305 23.918 444.406 24.418C444.516 24.918 444.684 25.3594 444.91 25.7422C445.137 26.1172 445.43 26.4141 445.789 26.6328C446.156 26.8438 446.594 26.9492 447.102 26.9492C447.742 26.9492 448.27 26.8086 448.684 26.5273C449.098 26.2461 449.422 25.8672 449.656 25.3906C449.898 24.9062 450.062 24.3672 450.148 23.7734V21.6523C450.102 21.1914 450.004 20.7617 449.855 20.3633C449.715 19.9648 449.523 19.6172 449.281 19.3203C449.039 19.0156 448.738 18.7812 448.379 18.6172C448.027 18.4453 447.609 18.3594 447.125 18.3594C446.609 18.3594 446.172 18.4688 445.812 18.6875C445.453 18.9062 445.156 19.207 444.922 19.5898C444.695 19.9727 444.527 20.418 444.418 20.9258C444.309 21.4336 444.254 21.9766 444.254 22.5547ZM461.059 29.2344C460.121 29.2344 459.273 29.082 458.516 28.7773C457.766 28.4648 457.125 28.0312 456.594 27.4766C456.07 26.9219 455.668 26.2695 455.387 25.5195C455.105 24.7695 454.965 23.9609 454.965 23.0938V22.625C454.965 21.6328 455.109 20.7344 455.398 19.9297C455.688 19.125 456.09 18.4375 456.605 17.8672C457.121 17.2891 457.73 16.8477 458.434 16.543C459.137 16.2383 459.898 16.0859 460.719 16.0859C461.625 16.0859 462.418 16.2383 463.098 16.543C463.777 16.8477 464.34 17.2773 464.785 17.832C465.238 18.3789 465.574 19.0312 465.793 19.7891C466.02 20.5469 466.133 21.3828 466.133 22.2969V23.5039H456.336V21.4766H463.344V21.2539C463.328 20.7461 463.227 20.2695 463.039 19.8242C462.859 19.3789 462.582 19.0195 462.207 18.7461C461.832 18.4727 461.332 18.3359 460.707 18.3359C460.238 18.3359 459.82 18.4375 459.453 18.6406C459.094 18.8359 458.793 19.1211 458.551 19.4961C458.309 19.8711 458.121 20.3242 457.988 20.8555C457.863 21.3789 457.801 21.9688 457.801 22.625V23.0938C457.801 23.6484 457.875 24.1641 458.023 24.6406C458.18 25.1094 458.406 25.5195 458.703 25.8711C459 26.2227 459.359 26.5 459.781 26.7031C460.203 26.8984 460.684 26.9961 461.223 26.9961C461.902 26.9961 462.508 26.8594 463.039 26.5859C463.57 26.3125 464.031 25.9258 464.422 25.4258L465.91 26.8672C465.637 27.2656 465.281 27.6484 464.844 28.0156C464.406 28.375 463.871 28.668 463.238 28.8945C462.613 29.1211 461.887 29.2344 461.059 29.2344ZM467.797 22.8008V22.5312C467.797 21.6172 467.93 20.7695 468.195 19.9883C468.461 19.1992 468.844 18.5156 469.344 17.9375C469.852 17.3516 470.469 16.8984 471.195 16.5781C471.93 16.25 472.758 16.0859 473.68 16.0859C474.609 16.0859 475.438 16.25 476.164 16.5781C476.898 16.8984 477.52 17.3516 478.027 17.9375C478.535 18.5156 478.922 19.1992 479.188 19.9883C479.453 20.7695 479.586 21.6172 479.586 22.5312V22.8008C479.586 23.7148 479.453 24.5625 479.188 25.3438C478.922 26.125 478.535 26.8086 478.027 27.3945C477.52 27.9727 476.902 28.4258 476.176 28.7539C475.449 29.0742 474.625 29.2344 473.703 29.2344C472.773 29.2344 471.941 29.0742 471.207 28.7539C470.48 28.4258 469.863 27.9727 469.355 27.3945C468.848 26.8086 468.461 26.125 468.195 25.3438C467.93 24.5625 467.797 23.7148 467.797 22.8008ZM470.621 22.5312V22.8008C470.621 23.3711 470.68 23.9102 470.797 24.418C470.914 24.9258 471.098 25.3711 471.348 25.7539C471.598 26.1367 471.918 26.4375 472.309 26.6562C472.699 26.875 473.164 26.9844 473.703 26.9844C474.227 26.9844 474.68 26.875 475.062 26.6562C475.453 26.4375 475.773 26.1367 476.023 25.7539C476.273 25.3711 476.457 24.9258 476.574 24.418C476.699 23.9102 476.762 23.3711 476.762 22.8008V22.5312C476.762 21.9688 476.699 21.4375 476.574 20.9375C476.457 20.4297 476.27 19.9805 476.012 19.5898C475.762 19.1992 475.441 18.8945 475.051 18.6758C474.668 18.4492 474.211 18.3359 473.68 18.3359C473.148 18.3359 472.688 18.4492 472.297 18.6758C471.914 18.8945 471.598 19.1992 471.348 19.5898C471.098 19.9805 470.914 20.4297 470.797 20.9375C470.68 21.4375 470.621 21.9688 470.621 22.5312ZM490.953 16.3203V29H488.117V16.3203H490.953ZM487.93 12.9922C487.93 12.5625 488.07 12.207 488.352 11.9258C488.641 11.6367 489.039 11.4922 489.547 11.4922C490.047 11.4922 490.441 11.6367 490.73 11.9258C491.02 12.207 491.164 12.5625 491.164 12.9922C491.164 13.4141 491.02 13.7656 490.73 14.0469C490.441 14.3281 490.047 14.4688 489.547 14.4688C489.039 14.4688 488.641 14.3281 488.352 14.0469C488.07 13.7656 487.93 13.4141 487.93 12.9922ZM496.848 19.0273V29H494.023V16.3203H496.684L496.848 19.0273ZM496.344 22.1914L495.43 22.1797C495.438 21.2812 495.562 20.457 495.805 19.707C496.055 18.957 496.398 18.3125 496.836 17.7734C497.281 17.2344 497.812 16.8203 498.43 16.5312C499.047 16.2344 499.734 16.0859 500.492 16.0859C501.102 16.0859 501.652 16.1719 502.145 16.3438C502.645 16.5078 503.07 16.7773 503.422 17.1523C503.781 17.5273 504.055 18.0156 504.242 18.6172C504.43 19.2109 504.523 19.9414 504.523 20.8086V29H501.688V20.7969C501.688 20.1875 501.598 19.707 501.418 19.3555C501.246 18.9961 500.992 18.7422 500.656 18.5938C500.328 18.4375 499.918 18.3594 499.426 18.3594C498.941 18.3594 498.508 18.4609 498.125 18.6641C497.742 18.8672 497.418 19.1445 497.152 19.4961C496.895 19.8477 496.695 20.2539 496.555 20.7148C496.414 21.1758 496.344 21.668 496.344 22.1914ZM524.656 26.75V29H513.219V27.0664L518.773 21.0078C519.383 20.3203 519.863 19.7266 520.215 19.2266C520.566 18.7266 520.812 18.2773 520.953 17.8789C521.102 17.4727 521.176 17.0781 521.176 16.6953C521.176 16.1562 521.074 15.6836 520.871 15.2773C520.676 14.8633 520.387 14.5391 520.004 14.3047C519.621 14.0625 519.156 13.9414 518.609 13.9414C517.977 13.9414 517.445 14.0781 517.016 14.3516C516.586 14.625 516.262 15.0039 516.043 15.4883C515.824 15.9648 515.715 16.5117 515.715 17.1289H512.891C512.891 16.1367 513.117 15.2305 513.57 14.4102C514.023 13.582 514.68 12.9258 515.539 12.4414C516.398 11.9492 517.434 11.7031 518.645 11.7031C519.785 11.7031 520.754 11.8945 521.551 12.2773C522.348 12.6602 522.953 13.2031 523.367 13.9062C523.789 14.6094 524 15.4414 524 16.4023C524 16.9336 523.914 17.4609 523.742 17.9844C523.57 18.5078 523.324 19.0312 523.004 19.5547C522.691 20.0703 522.32 20.5898 521.891 21.1133C521.461 21.6289 520.988 22.1523 520.473 22.6836L516.781 26.75H524.656ZM535.824 18.8984V29H533V16.3203H535.66L535.824 18.8984ZM535.367 22.1914L534.406 22.1797C534.406 21.3047 534.516 20.4961 534.734 19.7539C534.953 19.0117 535.273 18.3672 535.695 17.8203C536.117 17.2656 536.641 16.8398 537.266 16.543C537.898 16.2383 538.629 16.0859 539.457 16.0859C540.035 16.0859 540.562 16.1719 541.039 16.3438C541.523 16.5078 541.941 16.7695 542.293 17.1289C542.652 17.4883 542.926 17.9492 543.113 18.5117C543.309 19.0742 543.406 19.7539 543.406 20.5508V29H540.582V20.7969C540.582 20.1797 540.488 19.6953 540.301 19.3438C540.121 18.9922 539.859 18.7422 539.516 18.5938C539.18 18.4375 538.777 18.3594 538.309 18.3594C537.777 18.3594 537.324 18.4609 536.949 18.6641C536.582 18.8672 536.281 19.1445 536.047 19.4961C535.812 19.8477 535.641 20.2539 535.531 20.7148C535.422 21.1758 535.367 21.668 535.367 22.1914ZM543.23 21.4414L541.906 21.7344C541.906 20.9688 542.012 20.2461 542.223 19.5664C542.441 18.8789 542.758 18.2773 543.172 17.7617C543.594 17.2383 544.113 16.8281 544.73 16.5312C545.348 16.2344 546.055 16.0859 546.852 16.0859C547.5 16.0859 548.078 16.1758 548.586 16.3555C549.102 16.5273 549.539 16.8008 549.898 17.1758C550.258 17.5508 550.531 18.0391 550.719 18.6406C550.906 19.2344 551 19.9531 551 20.7969V29H548.164V20.7852C548.164 20.1445 548.07 19.6484 547.883 19.2969C547.703 18.9453 547.445 18.7031 547.109 18.5703C546.773 18.4297 546.371 18.3594 545.902 18.3594C545.465 18.3594 545.078 18.4414 544.742 18.6055C544.414 18.7617 544.137 18.9844 543.91 19.2734C543.684 19.5547 543.512 19.8789 543.395 20.2461C543.285 20.6133 543.23 21.0117 543.23 21.4414ZM556.93 16.3203V29H554.094V16.3203H556.93ZM553.906 12.9922C553.906 12.5625 554.047 12.207 554.328 11.9258C554.617 11.6367 555.016 11.4922 555.523 11.4922C556.023 11.4922 556.418 11.6367 556.707 11.9258C556.996 12.207 557.141 12.5625 557.141 12.9922C557.141 13.4141 556.996 13.7656 556.707 14.0469C556.418 14.3281 556.023 14.4688 555.523 14.4688C555.016 14.4688 554.617 14.3281 554.328 14.0469C554.047 13.7656 553.906 13.4141 553.906 12.9922ZM562.824 19.0273V29H560V16.3203H562.66L562.824 19.0273ZM562.32 22.1914L561.406 22.1797C561.414 21.2812 561.539 20.457 561.781 19.707C562.031 18.957 562.375 18.3125 562.812 17.7734C563.258 17.2344 563.789 16.8203 564.406 16.5312C565.023 16.2344 565.711 16.0859 566.469 16.0859C567.078 16.0859 567.629 16.1719 568.121 16.3438C568.621 16.5078 569.047 16.7773 569.398 17.1523C569.758 17.5273 570.031 18.0156 570.219 18.6172C570.406 19.2109 570.5 19.9414 570.5 20.8086V29H567.664V20.7969C567.664 20.1875 567.574 19.707 567.395 19.3555C567.223 18.9961 566.969 18.7422 566.633 18.5938C566.305 18.4375 565.895 18.3594 565.402 18.3594C564.918 18.3594 564.484 18.4609 564.102 18.6641C563.719 18.8672 563.395 19.1445 563.129 19.4961C562.871 19.8477 562.672 20.2539 562.531 20.7148C562.391 21.1758 562.32 21.668 562.32 22.1914ZM580.496 25.5664C580.496 25.2852 580.426 25.0312 580.285 24.8047C580.145 24.5703 579.875 24.3594 579.477 24.1719C579.086 23.9844 578.508 23.8125 577.742 23.6562C577.07 23.5078 576.453 23.332 575.891 23.1289C575.336 22.918 574.859 22.6641 574.461 22.3672C574.062 22.0703 573.754 21.7188 573.535 21.3125C573.316 20.9062 573.207 20.4375 573.207 19.9062C573.207 19.3906 573.32 18.9023 573.547 18.4414C573.773 17.9805 574.098 17.5742 574.52 17.2227C574.941 16.8711 575.453 16.5938 576.055 16.3906C576.664 16.1875 577.344 16.0859 578.094 16.0859C579.156 16.0859 580.066 16.2656 580.824 16.625C581.59 16.9766 582.176 17.457 582.582 18.0664C582.988 18.668 583.191 19.3477 583.191 20.1055H580.367C580.367 19.7695 580.281 19.457 580.109 19.168C579.945 18.8711 579.695 18.6328 579.359 18.4531C579.023 18.2656 578.602 18.1719 578.094 18.1719C577.609 18.1719 577.207 18.25 576.887 18.4062C576.574 18.5547 576.34 18.75 576.184 18.9922C576.035 19.2344 575.961 19.5 575.961 19.7891C575.961 20 576 20.1914 576.078 20.3633C576.164 20.5273 576.305 20.6797 576.5 20.8203C576.695 20.9531 576.961 21.0781 577.297 21.1953C577.641 21.3125 578.07 21.4258 578.586 21.5352C579.555 21.7383 580.387 22 581.082 22.3203C581.785 22.6328 582.324 23.0391 582.699 23.5391C583.074 24.0312 583.262 24.6562 583.262 25.4141C583.262 25.9766 583.141 26.4922 582.898 26.9609C582.664 27.4219 582.32 27.8242 581.867 28.168C581.414 28.5039 580.871 28.7656 580.238 28.9531C579.613 29.1406 578.91 29.2344 578.129 29.2344C576.98 29.2344 576.008 29.0312 575.211 28.625C574.414 28.2109 573.809 27.6836 573.395 27.043C572.988 26.3945 572.785 25.7227 572.785 25.0273H575.516C575.547 25.5508 575.691 25.9688 575.949 26.2812C576.215 26.5859 576.543 26.8086 576.934 26.9492C577.332 27.082 577.742 27.1484 578.164 27.1484C578.672 27.1484 579.098 27.082 579.441 26.9492C579.785 26.8086 580.047 26.6211 580.227 26.3867C580.406 26.1445 580.496 25.8711 580.496 25.5664Z" fill="black"/>
<defs>
<filter id="filter0_d_66_3039" x="0" y="0" width="908" height="48" filterUnits="userSpaceOnUse" color-interpolation-filters="sRGB">
<feFlood flood-opacity="0" result="BackgroundImageFix"/>
<feColorMatrix in="SourceAlpha" type="matrix" values="0 0 0 0 0 0 0 0 0 0 0 0 0 0 0 0 0 0 127 0" result="hardAlpha"/>
<feOffset dy="4"/>
<feGaussianBlur stdDeviation="2"/>
<feComposite in2="hardAlpha" operator="out"/>
<feColorMatrix type="matrix" values="0 0 0 0 0 0 0 0 0 0 0 0 0 0 0 0 0 0 0.25 0"/>
<feBlend mode="normal" in2="BackgroundImageFix" result="effect1_dropShadow_66_3039"/>
<feBlend mode="normal" in="SourceGraphic" in2="effect1_dropShadow_66_3039" result="shape"/>
</filter>
</defs>
</svg>
