<svg width="120" height="60" viewBox="0 0 120 60" fill="none" xmlns="http://www.w3.org/2000/svg">
<rect x="20.5" y="10.5" width="79" height="39" rx="4.5" fill="#FF9393" fill-opacity="0.5" stroke="#FF3838"/>
<circle cx="33" cy="30" r="10" fill="#FF3838"/>
<path d="M52.5176 22.0703H57.7983C58.9331 22.0703 59.9004 22.2412 60.7002 22.583C61.5 22.9248 62.1118 23.4307 62.5356 24.1006C62.9663 24.7637 63.1816 25.584 63.1816 26.5615C63.1816 27.3066 63.0449 27.9629 62.7715 28.5303C62.498 29.0977 62.1118 29.5762 61.6128 29.9658C61.1138 30.3486 60.519 30.646 59.8286 30.8579L59.0493 31.2373H54.3018L54.2812 29.1968H57.8394C58.4546 29.1968 58.9673 29.0874 59.3774 28.8687C59.7876 28.6499 60.0952 28.3525 60.3003 27.9766C60.5122 27.5938 60.6182 27.1631 60.6182 26.6846C60.6182 26.165 60.5156 25.7139 60.3105 25.3311C60.1123 24.9414 59.8047 24.644 59.3877 24.439C58.9707 24.2271 58.4409 24.1211 57.7983 24.1211H55.0913V37H52.5176V22.0703ZM61.0386 37L57.5317 30.2939L60.2285 30.2837L63.7866 36.8667V37H61.0386ZM70.3901 37.2051C69.5698 37.2051 68.8281 37.0718 68.165 36.8052C67.5088 36.5317 66.9482 36.1523 66.4834 35.667C66.0254 35.1816 65.6733 34.6108 65.4272 33.9546C65.1812 33.2983 65.0581 32.5908 65.0581 31.832V31.4219C65.0581 30.5537 65.1846 29.7676 65.4375 29.0635C65.6904 28.3594 66.0425 27.7578 66.4937 27.2588C66.9448 26.7529 67.478 26.3667 68.0933 26.1001C68.7085 25.8335 69.375 25.7002 70.0928 25.7002C70.8857 25.7002 71.5796 25.8335 72.1743 26.1001C72.769 26.3667 73.2612 26.7427 73.6509 27.228C74.0474 27.7065 74.3413 28.2773 74.5327 28.9404C74.731 29.6035 74.8301 30.335 74.8301 31.1348V32.1909H66.2578V30.417H72.3896V30.2222C72.376 29.7778 72.2871 29.3608 72.123 28.9712C71.9658 28.5815 71.7231 28.2671 71.395 28.0278C71.0669 27.7886 70.6294 27.6689 70.0825 27.6689C69.6724 27.6689 69.3066 27.7578 68.9854 27.9355C68.6709 28.1064 68.4077 28.356 68.1958 28.6841C67.9839 29.0122 67.8198 29.4087 67.7036 29.8735C67.5942 30.3315 67.5396 30.8477 67.5396 31.4219V31.832C67.5396 32.3174 67.6045 32.7686 67.7344 33.1855C67.8711 33.5957 68.0693 33.9546 68.3291 34.2622C68.5889 34.5698 68.9033 34.8125 69.2725 34.9902C69.6416 35.1611 70.062 35.2466 70.5337 35.2466C71.1284 35.2466 71.6582 35.127 72.123 34.8877C72.5879 34.6484 72.9912 34.3101 73.333 33.8726L74.6353 35.1338C74.396 35.4824 74.085 35.8174 73.7021 36.1387C73.3193 36.4531 72.8511 36.7095 72.2974 36.9077C71.7505 37.106 71.1147 37.2051 70.3901 37.2051ZM81.29 35.2363C81.6934 35.2363 82.0557 35.1577 82.377 35.0005C82.7051 34.8364 82.9683 34.6108 83.1665 34.3237C83.3716 34.0366 83.4844 33.7051 83.5049 33.3291H85.8325C85.8188 34.0469 85.6069 34.6997 85.1968 35.2876C84.7866 35.8755 84.2432 36.3438 83.5664 36.6924C82.8896 37.0342 82.1411 37.2051 81.3208 37.2051C80.4731 37.2051 79.7349 37.0615 79.106 36.7744C78.4771 36.4805 77.9541 36.0771 77.5371 35.5645C77.1201 35.0518 76.8057 34.4604 76.5938 33.7905C76.3887 33.1206 76.2861 32.4028 76.2861 31.6372V31.2783C76.2861 30.5127 76.3887 29.7949 76.5938 29.125C76.8057 28.4482 77.1201 27.8535 77.5371 27.3408C77.9541 26.8281 78.4771 26.4282 79.106 26.1411C79.7349 25.8472 80.4697 25.7002 81.3105 25.7002C82.1992 25.7002 82.9785 25.8779 83.6484 26.2334C84.3184 26.582 84.8447 27.0708 85.2275 27.6997C85.6172 28.3218 85.8188 29.0464 85.8325 29.8735H83.5049C83.4844 29.4634 83.3818 29.0942 83.1973 28.7661C83.0195 28.4312 82.7666 28.1646 82.4385 27.9663C82.1172 27.7681 81.731 27.6689 81.2798 27.6689C80.7808 27.6689 80.3672 27.7715 80.0391 27.9766C79.7109 28.1748 79.4546 28.4482 79.27 28.7969C79.0854 29.1387 78.9521 29.5249 78.8701 29.9556C78.7949 30.3794 78.7573 30.8203 78.7573 31.2783V31.6372C78.7573 32.0952 78.7949 32.5396 78.8701 32.9702C78.9453 33.4009 79.0752 33.7871 79.2598 34.1289C79.4512 34.4639 79.7109 34.7339 80.0391 34.939C80.3672 35.1372 80.7842 35.2363 81.29 35.2363Z" fill="#FF3838"/>
</svg>
