<svg width="258" height="48" viewBox="0 0 258 48" fill="none" xmlns="http://www.w3.org/2000/svg">
<g filter="url(#filter0_d_57_2924)">
<path d="M4 40C4 17.9086 21.9086 0 44 0H254C254 22.0914 236.091 40 214 40H4Z" fill="#FF3838"/>
</g>
<path d="M107.372 25.1548C107.372 24.8472 107.324 24.5737 107.229 24.3345C107.14 24.0952 106.979 23.8765 106.747 23.6782C106.514 23.48 106.186 23.2886 105.762 23.104C105.345 22.9126 104.812 22.7178 104.163 22.5195C103.452 22.3008 102.795 22.0581 102.194 21.7915C101.599 21.5181 101.08 21.2036 100.635 20.8481C100.191 20.4858 99.8457 20.0723 99.5996 19.6074C99.3535 19.1357 99.2305 18.5923 99.2305 17.9771C99.2305 17.3687 99.3569 16.8149 99.6099 16.3159C99.8696 15.8169 100.235 15.3862 100.707 15.0239C101.186 14.6548 101.75 14.3711 102.399 14.1729C103.048 13.9678 103.766 13.8652 104.552 13.8652C105.66 13.8652 106.613 14.0703 107.413 14.4805C108.22 14.8906 108.838 15.4409 109.269 16.1313C109.707 16.8218 109.925 17.584 109.925 18.418H107.372C107.372 17.9258 107.266 17.4917 107.054 17.1157C106.849 16.7329 106.535 16.4321 106.111 16.2134C105.694 15.9946 105.164 15.8853 104.521 15.8853C103.913 15.8853 103.407 15.9775 103.004 16.1621C102.601 16.3467 102.3 16.5962 102.102 16.9106C101.903 17.2251 101.804 17.5806 101.804 17.9771C101.804 18.2573 101.869 18.5137 101.999 18.7461C102.129 18.9717 102.327 19.1836 102.594 19.3818C102.86 19.5732 103.195 19.7544 103.599 19.9253C104.002 20.0962 104.477 20.2603 105.024 20.4175C105.851 20.6636 106.572 20.937 107.188 21.2378C107.803 21.5317 108.315 21.8667 108.726 22.2427C109.136 22.6187 109.443 23.0459 109.648 23.5244C109.854 23.9961 109.956 24.5327 109.956 25.1343C109.956 25.7632 109.83 26.3306 109.577 26.8364C109.324 27.3354 108.961 27.7627 108.49 28.1182C108.025 28.4668 107.464 28.7368 106.808 28.9282C106.159 29.1128 105.434 29.2051 104.634 29.2051C103.917 29.2051 103.209 29.1094 102.512 28.918C101.821 28.7266 101.192 28.436 100.625 28.0464C100.058 27.6499 99.6064 27.1577 99.2715 26.5698C98.9365 25.9751 98.769 25.2812 98.769 24.4883H101.343C101.343 24.9736 101.425 25.3872 101.589 25.729C101.76 26.0708 101.996 26.3511 102.296 26.5698C102.597 26.7817 102.946 26.939 103.342 27.0415C103.746 27.144 104.176 27.1953 104.634 27.1953C105.236 27.1953 105.738 27.1099 106.142 26.939C106.552 26.7681 106.859 26.5288 107.064 26.2212C107.27 25.9136 107.372 25.5581 107.372 25.1548ZM114.427 13.25V29H111.966V13.25H114.427ZM113.996 23.0425L113.196 23.0322C113.203 22.2666 113.309 21.5591 113.514 20.9097C113.726 20.2603 114.02 19.6963 114.396 19.2178C114.779 18.7324 115.237 18.3599 115.77 18.1001C116.303 17.8335 116.895 17.7002 117.544 17.7002C118.091 17.7002 118.583 17.7754 119.021 17.9258C119.465 18.0762 119.848 18.3188 120.169 18.6538C120.49 18.9819 120.733 19.4126 120.897 19.9458C121.068 20.4722 121.153 21.1147 121.153 21.8735V29H118.672V21.853C118.672 21.3198 118.593 20.896 118.436 20.5815C118.286 20.2671 118.063 20.0415 117.77 19.9048C117.476 19.7612 117.117 19.6895 116.693 19.6895C116.249 19.6895 115.855 19.7783 115.514 19.9561C115.179 20.1338 114.898 20.3765 114.673 20.6841C114.447 20.9917 114.276 21.3472 114.16 21.7505C114.051 22.1538 113.996 22.5845 113.996 23.0425ZM129.91 26.7749V21.4839C129.91 21.0874 129.838 20.7456 129.695 20.4585C129.551 20.1714 129.333 19.9492 129.039 19.792C128.751 19.6348 128.389 19.5562 127.952 19.5562C127.548 19.5562 127.2 19.6245 126.906 19.7612C126.612 19.8979 126.383 20.0825 126.219 20.3149C126.055 20.5474 125.973 20.8105 125.973 21.1045H123.512C123.512 20.667 123.618 20.2432 123.83 19.833C124.042 19.4229 124.349 19.0571 124.752 18.7358C125.156 18.4146 125.638 18.1616 126.198 17.9771C126.759 17.7925 127.388 17.7002 128.085 17.7002C128.919 17.7002 129.657 17.8403 130.3 18.1206C130.949 18.4009 131.458 18.8247 131.828 19.3921C132.204 19.9526 132.392 20.6567 132.392 21.5044V26.4365C132.392 26.9424 132.426 27.397 132.494 27.8003C132.569 28.1968 132.675 28.542 132.812 28.8359V29H130.279C130.163 28.7334 130.071 28.395 130.002 27.9849C129.941 27.5679 129.91 27.1646 129.91 26.7749ZM130.269 22.2529L130.29 23.7808H128.516C128.058 23.7808 127.654 23.8252 127.306 23.9141C126.957 23.9961 126.667 24.1191 126.434 24.2832C126.202 24.4473 126.027 24.6455 125.911 24.8779C125.795 25.1104 125.737 25.3735 125.737 25.6675C125.737 25.9614 125.805 26.2314 125.942 26.4775C126.079 26.7168 126.277 26.9048 126.537 27.0415C126.803 27.1782 127.125 27.2466 127.5 27.2466C128.006 27.2466 128.447 27.144 128.823 26.939C129.206 26.7271 129.507 26.4707 129.726 26.1699C129.944 25.8623 130.061 25.5718 130.074 25.2983L130.874 26.3955C130.792 26.6758 130.652 26.9766 130.454 27.2979C130.255 27.6191 129.996 27.9268 129.674 28.2207C129.36 28.5078 128.98 28.7437 128.536 28.9282C128.099 29.1128 127.593 29.2051 127.019 29.2051C126.294 29.2051 125.648 29.0615 125.081 28.7744C124.513 28.4805 124.069 28.0874 123.748 27.5952C123.426 27.0962 123.266 26.5322 123.266 25.9033C123.266 25.3154 123.375 24.7959 123.594 24.3447C123.819 23.8867 124.147 23.5039 124.578 23.1963C125.016 22.8887 125.549 22.6562 126.178 22.499C126.807 22.335 127.524 22.2529 128.331 22.2529H130.269ZM134.986 13.25H137.457V26.6313L137.221 29H134.986V13.25ZM144.696 23.3501V23.5654C144.696 24.3857 144.604 25.1411 144.419 25.8315C144.242 26.5151 143.968 27.1099 143.599 27.6157C143.237 28.1216 142.786 28.5146 142.246 28.7949C141.712 29.0684 141.094 29.2051 140.39 29.2051C139.699 29.2051 139.098 29.0752 138.585 28.8154C138.072 28.5557 137.642 28.1865 137.293 27.708C136.951 27.2295 136.674 26.6587 136.462 25.9956C136.25 25.3325 136.1 24.6011 136.011 23.8013V23.1143C136.1 22.3076 136.25 21.5762 136.462 20.9199C136.674 20.2568 136.951 19.686 137.293 19.2075C137.642 18.7222 138.069 18.3496 138.575 18.0898C139.087 17.8301 139.686 17.7002 140.369 17.7002C141.08 17.7002 141.706 17.8369 142.246 18.1104C142.792 18.3838 143.247 18.7734 143.609 19.2793C143.972 19.7783 144.242 20.373 144.419 21.0635C144.604 21.7539 144.696 22.5161 144.696 23.3501ZM142.225 23.5654V23.3501C142.225 22.8511 142.184 22.3828 142.102 21.9453C142.02 21.501 141.883 21.1113 141.692 20.7764C141.507 20.4414 141.254 20.1782 140.933 19.9868C140.619 19.7886 140.226 19.6895 139.754 19.6895C139.316 19.6895 138.94 19.7646 138.626 19.915C138.312 20.0654 138.048 20.2705 137.836 20.5303C137.625 20.79 137.457 21.0908 137.334 21.4326C137.218 21.7744 137.139 22.1436 137.098 22.54V24.396C137.16 24.9087 137.29 25.3804 137.488 25.811C137.693 26.2349 137.98 26.5767 138.349 26.8364C138.718 27.0894 139.193 27.2158 139.774 27.2158C140.232 27.2158 140.619 27.1235 140.933 26.939C141.248 26.7544 141.497 26.498 141.682 26.1699C141.873 25.835 142.01 25.4453 142.092 25.001C142.181 24.5566 142.225 24.0781 142.225 23.5654ZM146.798 13.25H149.27V26.6313L149.034 29H146.798V13.25ZM156.509 23.3501V23.5654C156.509 24.3857 156.417 25.1411 156.232 25.8315C156.054 26.5151 155.781 27.1099 155.412 27.6157C155.049 28.1216 154.598 28.5146 154.058 28.7949C153.525 29.0684 152.906 29.2051 152.202 29.2051C151.512 29.2051 150.91 29.0752 150.397 28.8154C149.885 28.5557 149.454 28.1865 149.105 27.708C148.764 27.2295 148.487 26.6587 148.275 25.9956C148.063 25.3325 147.913 24.6011 147.824 23.8013V23.1143C147.913 22.3076 148.063 21.5762 148.275 20.9199C148.487 20.2568 148.764 19.686 149.105 19.2075C149.454 18.7222 149.881 18.3496 150.387 18.0898C150.9 17.8301 151.498 17.7002 152.182 17.7002C152.893 17.7002 153.518 17.8369 154.058 18.1104C154.605 18.3838 155.06 18.7734 155.422 19.2793C155.784 19.7783 156.054 20.373 156.232 21.0635C156.417 21.7539 156.509 22.5161 156.509 23.3501ZM154.038 23.5654V23.3501C154.038 22.8511 153.997 22.3828 153.915 21.9453C153.833 21.501 153.696 21.1113 153.504 20.7764C153.32 20.4414 153.067 20.1782 152.746 19.9868C152.431 19.7886 152.038 19.6895 151.566 19.6895C151.129 19.6895 150.753 19.7646 150.438 19.915C150.124 20.0654 149.861 20.2705 149.649 20.5303C149.437 20.79 149.27 21.0908 149.146 21.4326C149.03 21.7744 148.952 22.1436 148.911 22.54V24.396C148.972 24.9087 149.102 25.3804 149.3 25.811C149.505 26.2349 149.792 26.5767 150.162 26.8364C150.531 27.0894 151.006 27.2158 151.587 27.2158C152.045 27.2158 152.431 27.1235 152.746 26.939C153.06 26.7544 153.31 26.498 153.494 26.1699C153.686 25.835 153.822 25.4453 153.904 25.001C153.993 24.5566 154.038 24.0781 154.038 23.5654ZM161.697 27.79L164.712 17.9053H167.357L162.907 30.6919C162.805 30.9653 162.671 31.2627 162.507 31.584C162.343 31.9053 162.128 32.2095 161.861 32.4966C161.602 32.7905 161.277 33.0264 160.887 33.2041C160.498 33.3887 160.026 33.481 159.472 33.481C159.253 33.481 159.042 33.4604 158.836 33.4194C158.638 33.3853 158.45 33.3477 158.272 33.3066L158.262 31.4199C158.331 31.4268 158.413 31.4336 158.508 31.4404C158.611 31.4473 158.693 31.4507 158.754 31.4507C159.165 31.4507 159.506 31.3994 159.78 31.2969C160.053 31.2012 160.275 31.0439 160.446 30.8252C160.624 30.6064 160.774 30.3125 160.897 29.9434L161.697 27.79ZM159.995 17.9053L162.63 26.2109L163.071 28.8154L161.359 29.2563L157.329 17.9053H159.995Z" fill="white"/>
<defs>
<filter id="filter0_d_57_2924" x="0" y="0" width="258" height="48" filterUnits="userSpaceOnUse" color-interpolation-filters="sRGB">
<feFlood flood-opacity="0" result="BackgroundImageFix"/>
<feColorMatrix in="SourceAlpha" type="matrix" values="0 0 0 0 0 0 0 0 0 0 0 0 0 0 0 0 0 0 127 0" result="hardAlpha"/>
<feOffset dy="4"/>
<feGaussianBlur stdDeviation="2"/>
<feComposite in2="hardAlpha" operator="out"/>
<feColorMatrix type="matrix" values="0 0 0 0 0 0 0 0 0 0 0 0 0 0 0 0 0 0 0.25 0"/>
<feBlend mode="normal" in2="BackgroundImageFix" result="effect1_dropShadow_57_2924"/>
<feBlend mode="normal" in="SourceGraphic" in2="effect1_dropShadow_57_2924" result="shape"/>
</filter>
</defs>
</svg>
