<svg width="527" height="25" viewBox="0 0 527 25" fill="none" xmlns="http://www.w3.org/2000/svg">
<path d="M2.40625 1.9375V19H0.144531V1.9375H2.40625ZM9.42578 19H7.25781V4.98438C7.25781 4.07031 7.42188 3.30078 7.75 2.67578C8.08594 2.04297 8.56641 1.56641 9.19141 1.24609C9.81641 0.917969 10.5586 0.753906 11.418 0.753906C11.668 0.753906 11.918 0.769531 12.168 0.800781C12.4258 0.832031 12.6758 0.878906 12.918 0.941406L12.8008 2.71094C12.6367 2.67188 12.4492 2.64453 12.2383 2.62891C12.0352 2.61328 11.832 2.60547 11.6289 2.60547C11.168 2.60547 10.7695 2.69922 10.4336 2.88672C10.1055 3.06641 9.85547 3.33203 9.68359 3.68359C9.51172 4.03516 9.42578 4.46875 9.42578 4.98438V19ZM12.1211 6.32031V7.98438H5.25391V6.32031H12.1211ZM24.0508 17.6875L27.5781 6.32031H29.8984L24.8125 20.957C24.6953 21.2695 24.5391 21.6055 24.3438 21.9648C24.1562 22.332 23.9141 22.6797 23.6172 23.0078C23.3203 23.3359 22.9609 23.6016 22.5391 23.8047C22.125 24.0156 21.6289 24.1211 21.0508 24.1211C20.8789 24.1211 20.6602 24.0977 20.3945 24.0508C20.1289 24.0039 19.9414 23.9648 19.832 23.9336L19.8203 22.1758C19.8828 22.1836 19.9805 22.1914 20.1133 22.1992C20.2539 22.2148 20.3516 22.2227 20.4062 22.2227C20.8984 22.2227 21.3164 22.1562 21.6602 22.0234C22.0039 21.8984 22.293 21.6836 22.5273 21.3789C22.7695 21.082 22.9766 20.6719 23.1484 20.1484L24.0508 17.6875ZM21.4609 6.32031L24.7539 16.1641L25.3164 18.4492L23.7578 19.2461L19.0938 6.32031H21.4609ZM31.0938 12.8008V12.5312C31.0938 11.6172 31.2266 10.7695 31.4922 9.98828C31.7578 9.19922 32.1406 8.51562 32.6406 7.9375C33.1406 7.35156 33.7461 6.89844 34.457 6.57812C35.168 6.25 35.9648 6.08594 36.8477 6.08594C37.7383 6.08594 38.5391 6.25 39.25 6.57812C39.9688 6.89844 40.5781 7.35156 41.0781 7.9375C41.5859 8.51562 41.9727 9.19922 42.2383 9.98828C42.5039 10.7695 42.6367 11.6172 42.6367 12.5312V12.8008C42.6367 13.7148 42.5039 14.5625 42.2383 15.3438C41.9727 16.125 41.5859 16.8086 41.0781 17.3945C40.5781 17.9727 39.9727 18.4258 39.2617 18.7539C38.5586 19.0742 37.7617 19.2344 36.8711 19.2344C35.9805 19.2344 35.1797 19.0742 34.4688 18.7539C33.7578 18.4258 33.1484 17.9727 32.6406 17.3945C32.1406 16.8086 31.7578 16.125 31.4922 15.3438C31.2266 14.5625 31.0938 13.7148 31.0938 12.8008ZM33.2617 12.5312V12.8008C33.2617 13.4336 33.3359 14.0312 33.4844 14.5938C33.6328 15.1484 33.8555 15.6406 34.1523 16.0703C34.457 16.5 34.8359 16.8398 35.2891 17.0898C35.7422 17.332 36.2695 17.4531 36.8711 17.4531C37.4648 17.4531 37.9844 17.332 38.4297 17.0898C38.8828 16.8398 39.2578 16.5 39.5547 16.0703C39.8516 15.6406 40.0742 15.1484 40.2227 14.5938C40.3789 14.0312 40.457 13.4336 40.457 12.8008V12.5312C40.457 11.9062 40.3789 11.3164 40.2227 10.7617C40.0742 10.1992 39.8477 9.70312 39.543 9.27344C39.2461 8.83594 38.8711 8.49219 38.418 8.24219C37.9727 7.99219 37.4492 7.86719 36.8477 7.86719C36.2539 7.86719 35.7305 7.99219 35.2773 8.24219C34.832 8.49219 34.457 8.83594 34.1523 9.27344C33.8555 9.70312 33.6328 10.1992 33.4844 10.7617C33.3359 11.3164 33.2617 11.9062 33.2617 12.5312ZM53.1133 16.0703V6.32031H55.293V19H53.2188L53.1133 16.0703ZM53.5234 13.3984L54.4258 13.375C54.4258 14.2188 54.3359 15 54.1562 15.7188C53.9844 16.4297 53.7031 17.0469 53.3125 17.5703C52.9219 18.0938 52.4102 18.5039 51.7773 18.8008C51.1445 19.0898 50.375 19.2344 49.4688 19.2344C48.8516 19.2344 48.2852 19.1445 47.7695 18.9648C47.2617 18.7852 46.8242 18.5078 46.457 18.1328C46.0898 17.7578 45.8047 17.2695 45.6016 16.668C45.4062 16.0664 45.3086 15.3438 45.3086 14.5V6.32031H47.4766V14.5234C47.4766 15.0938 47.5391 15.5664 47.6641 15.9414C47.7969 16.3086 47.9727 16.6016 48.1914 16.8203C48.418 17.0312 48.668 17.1797 48.9414 17.2656C49.2227 17.3516 49.5117 17.3945 49.8086 17.3945C50.7305 17.3945 51.4609 17.2188 52 16.8672C52.5391 16.5078 52.9258 16.0273 53.1602 15.4258C53.4023 14.8164 53.5234 14.1406 53.5234 13.3984ZM60.7891 1V2.5C60.7891 2.96875 60.707 3.46484 60.543 3.98828C60.3867 4.50391 60.1562 5.00391 59.8516 5.48828C59.5469 5.96484 59.1797 6.38281 58.75 6.74219L57.5078 5.88672C57.875 5.37109 58.1523 4.84375 58.3398 4.30469C58.5352 3.75781 58.6328 3.16797 58.6328 2.53516V1H60.7891ZM65.5703 8.3125V19H63.4023V6.32031H65.5117L65.5703 8.3125ZM69.5312 6.25L69.5195 8.26562C69.3398 8.22656 69.168 8.20312 69.0039 8.19531C68.8477 8.17969 68.668 8.17188 68.4648 8.17188C67.9648 8.17188 67.5234 8.25 67.1406 8.40625C66.7578 8.5625 66.4336 8.78125 66.168 9.0625C65.9023 9.34375 65.6914 9.67969 65.5352 10.0703C65.3867 10.4531 65.2891 10.875 65.2422 11.3359L64.6328 11.6875C64.6328 10.9219 64.707 10.2031 64.8555 9.53125C65.0117 8.85938 65.25 8.26562 65.5703 7.75C65.8906 7.22656 66.2969 6.82031 66.7891 6.53125C67.2891 6.23438 67.8828 6.08594 68.5703 6.08594C68.7266 6.08594 68.9062 6.10547 69.1094 6.14453C69.3125 6.17578 69.4531 6.21094 69.5312 6.25ZM76.5625 19.2344C75.6797 19.2344 74.8789 19.0859 74.1602 18.7891C73.4492 18.4844 72.8359 18.0586 72.3203 17.5117C71.8125 16.9648 71.4219 16.3164 71.1484 15.5664C70.875 14.8164 70.7383 13.9961 70.7383 13.1055V12.6133C70.7383 11.582 70.8906 10.6641 71.1953 9.85938C71.5 9.04688 71.9141 8.35938 72.4375 7.79688C72.9609 7.23438 73.5547 6.80859 74.2188 6.51953C74.8828 6.23047 75.5703 6.08594 76.2812 6.08594C77.1875 6.08594 77.9688 6.24219 78.625 6.55469C79.2891 6.86719 79.832 7.30469 80.2539 7.86719C80.6758 8.42188 80.9883 9.07812 81.1914 9.83594C81.3945 10.5859 81.4961 11.4062 81.4961 12.2969V13.2695H72.0273V11.5H79.3281V11.3359C79.2969 10.7734 79.1797 10.2266 78.9766 9.69531C78.7812 9.16406 78.4688 8.72656 78.0391 8.38281C77.6094 8.03906 77.0234 7.86719 76.2812 7.86719C75.7891 7.86719 75.3359 7.97266 74.9219 8.18359C74.5078 8.38672 74.1523 8.69141 73.8555 9.09766C73.5586 9.50391 73.3281 10 73.1641 10.5859C73 11.1719 72.918 11.8477 72.918 12.6133V13.1055C72.918 13.707 73 14.2734 73.1641 14.8047C73.3359 15.3281 73.582 15.7891 73.9023 16.1875C74.2305 16.5859 74.625 16.8984 75.0859 17.125C75.5547 17.3516 76.0859 17.4648 76.6797 17.4648C77.4453 17.4648 78.0938 17.3086 78.625 16.9961C79.1562 16.6836 79.6211 16.2656 80.0195 15.7422L81.332 16.7852C81.0586 17.1992 80.7109 17.5938 80.2891 17.9688C79.8672 18.3438 79.3477 18.6484 78.7305 18.8828C78.1211 19.1172 77.3984 19.2344 76.5625 19.2344ZM97.457 16.832V10.3047C97.457 9.80469 97.3555 9.37109 97.1523 9.00391C96.957 8.62891 96.6602 8.33984 96.2617 8.13672C95.8633 7.93359 95.3711 7.83203 94.7852 7.83203C94.2383 7.83203 93.7578 7.92578 93.3438 8.11328C92.9375 8.30078 92.6172 8.54688 92.3828 8.85156C92.1562 9.15625 92.043 9.48438 92.043 9.83594H89.875C89.875 9.38281 89.9922 8.93359 90.2266 8.48828C90.4609 8.04297 90.7969 7.64062 91.2344 7.28125C91.6797 6.91406 92.2109 6.625 92.8281 6.41406C93.4531 6.19531 94.1484 6.08594 94.9141 6.08594C95.8359 6.08594 96.6484 6.24219 97.3516 6.55469C98.0625 6.86719 98.6172 7.33984 99.0156 7.97266C99.4219 8.59766 99.625 9.38281 99.625 10.3281V16.2344C99.625 16.6562 99.6602 17.1055 99.7305 17.582C99.8086 18.0586 99.9219 18.4688 100.07 18.8125V19H97.8086C97.6992 18.75 97.6133 18.418 97.5508 18.0039C97.4883 17.582 97.457 17.1914 97.457 16.832ZM97.832 11.3125L97.8555 12.8359H95.6641C95.0469 12.8359 94.4961 12.8867 94.0117 12.9883C93.5273 13.082 93.1211 13.2266 92.793 13.4219C92.4648 13.6172 92.2148 13.8633 92.043 14.1602C91.8711 14.4492 91.7852 14.7891 91.7852 15.1797C91.7852 15.5781 91.875 15.9414 92.0547 16.2695C92.2344 16.5977 92.5039 16.8594 92.8633 17.0547C93.2305 17.2422 93.6797 17.3359 94.2109 17.3359C94.875 17.3359 95.4609 17.1953 95.9688 16.9141C96.4766 16.6328 96.8789 16.2891 97.1758 15.8828C97.4805 15.4766 97.6445 15.082 97.668 14.6992L98.5938 15.7422C98.5391 16.0703 98.3906 16.4336 98.1484 16.832C97.9062 17.2305 97.582 17.6133 97.1758 17.9805C96.7773 18.3398 96.3008 18.6406 95.7461 18.8828C95.1992 19.1172 94.582 19.2344 93.8945 19.2344C93.0352 19.2344 92.2812 19.0664 91.6328 18.7305C90.9922 18.3945 90.4922 17.9453 90.1328 17.3828C89.7812 16.8125 89.6055 16.1758 89.6055 15.4727C89.6055 14.793 89.7383 14.1953 90.0039 13.6797C90.2695 13.1562 90.6523 12.7227 91.1523 12.3789C91.6523 12.0273 92.2539 11.7617 92.957 11.582C93.6602 11.4023 94.4453 11.3125 95.3125 11.3125H97.832ZM103.023 1H105.203V16.5391L105.016 19H103.023V1ZM113.77 12.5547V12.8008C113.77 13.7227 113.66 14.5781 113.441 15.3672C113.223 16.1484 112.902 16.8281 112.48 17.4062C112.059 17.9844 111.543 18.4336 110.934 18.7539C110.324 19.0742 109.625 19.2344 108.836 19.2344C108.031 19.2344 107.324 19.0977 106.715 18.8242C106.113 18.543 105.605 18.1406 105.191 17.6172C104.777 17.0938 104.445 16.4609 104.195 15.7188C103.953 14.9766 103.785 14.1406 103.691 13.2109V12.1328C103.785 11.1953 103.953 10.3555 104.195 9.61328C104.445 8.87109 104.777 8.23828 105.191 7.71484C105.605 7.18359 106.113 6.78125 106.715 6.50781C107.316 6.22656 108.016 6.08594 108.812 6.08594C109.609 6.08594 110.316 6.24219 110.934 6.55469C111.551 6.85938 112.066 7.29688 112.48 7.86719C112.902 8.4375 113.223 9.12109 113.441 9.91797C113.66 10.707 113.77 11.5859 113.77 12.5547ZM111.59 12.8008V12.5547C111.59 11.9219 111.531 11.3281 111.414 10.7734C111.297 10.2109 111.109 9.71875 110.852 9.29688C110.594 8.86719 110.254 8.53125 109.832 8.28906C109.41 8.03906 108.891 7.91406 108.273 7.91406C107.727 7.91406 107.25 8.00781 106.844 8.19531C106.445 8.38281 106.105 8.63672 105.824 8.95703C105.543 9.26953 105.312 9.62891 105.133 10.0352C104.961 10.4336 104.832 10.8477 104.746 11.2773V14.1016C104.871 14.6484 105.074 15.1758 105.355 15.6836C105.645 16.1836 106.027 16.5938 106.504 16.9141C106.988 17.2344 107.586 17.3945 108.297 17.3945C108.883 17.3945 109.383 17.2773 109.797 17.043C110.219 16.8008 110.559 16.4688 110.816 16.0469C111.082 15.625 111.277 15.1367 111.402 14.582C111.527 14.0273 111.59 13.4336 111.59 12.8008ZM118.867 1V19H116.688V1H118.867ZM127.609 19.2344C126.727 19.2344 125.926 19.0859 125.207 18.7891C124.496 18.4844 123.883 18.0586 123.367 17.5117C122.859 16.9648 122.469 16.3164 122.195 15.5664C121.922 14.8164 121.785 13.9961 121.785 13.1055V12.6133C121.785 11.582 121.938 10.6641 122.242 9.85938C122.547 9.04688 122.961 8.35938 123.484 7.79688C124.008 7.23438 124.602 6.80859 125.266 6.51953C125.93 6.23047 126.617 6.08594 127.328 6.08594C128.234 6.08594 129.016 6.24219 129.672 6.55469C130.336 6.86719 130.879 7.30469 131.301 7.86719C131.723 8.42188 132.035 9.07812 132.238 9.83594C132.441 10.5859 132.543 11.4062 132.543 12.2969V13.2695H123.074V11.5H130.375V11.3359C130.344 10.7734 130.227 10.2266 130.023 9.69531C129.828 9.16406 129.516 8.72656 129.086 8.38281C128.656 8.03906 128.07 7.86719 127.328 7.86719C126.836 7.86719 126.383 7.97266 125.969 8.18359C125.555 8.38672 125.199 8.69141 124.902 9.09766C124.605 9.50391 124.375 10 124.211 10.5859C124.047 11.1719 123.965 11.8477 123.965 12.6133V13.1055C123.965 13.707 124.047 14.2734 124.211 14.8047C124.383 15.3281 124.629 15.7891 124.949 16.1875C125.277 16.5859 125.672 16.8984 126.133 17.125C126.602 17.3516 127.133 17.4648 127.727 17.4648C128.492 17.4648 129.141 17.3086 129.672 16.9961C130.203 16.6836 130.668 16.2656 131.066 15.7422L132.379 16.7852C132.105 17.1992 131.758 17.5938 131.336 17.9688C130.914 18.3438 130.395 18.6484 129.777 18.8828C129.168 19.1172 128.445 19.2344 127.609 19.2344ZM146.336 6.32031V7.98438H139.48V6.32031H146.336ZM141.801 3.23828H143.969V15.8594C143.969 16.2891 144.035 16.6133 144.168 16.832C144.301 17.0508 144.473 17.1953 144.684 17.2656C144.895 17.3359 145.121 17.3711 145.363 17.3711C145.543 17.3711 145.73 17.3555 145.926 17.3242C146.129 17.2852 146.281 17.2539 146.383 17.2305L146.395 19C146.223 19.0547 145.996 19.1055 145.715 19.1523C145.441 19.207 145.109 19.2344 144.719 19.2344C144.188 19.2344 143.699 19.1289 143.254 18.918C142.809 18.707 142.453 18.3555 142.188 17.8633C141.93 17.3633 141.801 16.6914 141.801 15.8477V3.23828ZM148.07 12.8008V12.5312C148.07 11.6172 148.203 10.7695 148.469 9.98828C148.734 9.19922 149.117 8.51562 149.617 7.9375C150.117 7.35156 150.723 6.89844 151.434 6.57812C152.145 6.25 152.941 6.08594 153.824 6.08594C154.715 6.08594 155.516 6.25 156.227 6.57812C156.945 6.89844 157.555 7.35156 158.055 7.9375C158.562 8.51562 158.949 9.19922 159.215 9.98828C159.48 10.7695 159.613 11.6172 159.613 12.5312V12.8008C159.613 13.7148 159.48 14.5625 159.215 15.3438C158.949 16.125 158.562 16.8086 158.055 17.3945C157.555 17.9727 156.949 18.4258 156.238 18.7539C155.535 19.0742 154.738 19.2344 153.848 19.2344C152.957 19.2344 152.156 19.0742 151.445 18.7539C150.734 18.4258 150.125 17.9727 149.617 17.3945C149.117 16.8086 148.734 16.125 148.469 15.3438C148.203 14.5625 148.07 13.7148 148.07 12.8008ZM150.238 12.5312V12.8008C150.238 13.4336 150.312 14.0312 150.461 14.5938C150.609 15.1484 150.832 15.6406 151.129 16.0703C151.434 16.5 151.812 16.8398 152.266 17.0898C152.719 17.332 153.246 17.4531 153.848 17.4531C154.441 17.4531 154.961 17.332 155.406 17.0898C155.859 16.8398 156.234 16.5 156.531 16.0703C156.828 15.6406 157.051 15.1484 157.199 14.5938C157.355 14.0312 157.434 13.4336 157.434 12.8008V12.5312C157.434 11.9062 157.355 11.3164 157.199 10.7617C157.051 10.1992 156.824 9.70312 156.52 9.27344C156.223 8.83594 155.848 8.49219 155.395 8.24219C154.949 7.99219 154.426 7.86719 153.824 7.86719C153.23 7.86719 152.707 7.99219 152.254 8.24219C151.809 8.49219 151.434 8.83594 151.129 9.27344C150.832 9.70312 150.609 10.1992 150.461 10.7617C150.312 11.3164 150.238 11.9062 150.238 12.5312ZM170.453 1V19H168.285V1H170.453ZM169.938 12.1797L169.035 12.1445C169.043 11.2773 169.172 10.4766 169.422 9.74219C169.672 9 170.023 8.35547 170.477 7.80859C170.93 7.26172 171.469 6.83984 172.094 6.54297C172.727 6.23828 173.426 6.08594 174.191 6.08594C174.816 6.08594 175.379 6.17188 175.879 6.34375C176.379 6.50781 176.805 6.77344 177.156 7.14062C177.516 7.50781 177.789 7.98438 177.977 8.57031C178.164 9.14844 178.258 9.85547 178.258 10.6914V19H176.078V10.668C176.078 10.0039 175.98 9.47266 175.785 9.07422C175.59 8.66797 175.305 8.375 174.93 8.19531C174.555 8.00781 174.094 7.91406 173.547 7.91406C173.008 7.91406 172.516 8.02734 172.07 8.25391C171.633 8.48047 171.254 8.79297 170.934 9.19141C170.621 9.58984 170.375 10.0469 170.195 10.5625C170.023 11.0703 169.938 11.6094 169.938 12.1797ZM186.766 19.2344C185.883 19.2344 185.082 19.0859 184.363 18.7891C183.652 18.4844 183.039 18.0586 182.523 17.5117C182.016 16.9648 181.625 16.3164 181.352 15.5664C181.078 14.8164 180.941 13.9961 180.941 13.1055V12.6133C180.941 11.582 181.094 10.6641 181.398 9.85938C181.703 9.04688 182.117 8.35938 182.641 7.79688C183.164 7.23438 183.758 6.80859 184.422 6.51953C185.086 6.23047 185.773 6.08594 186.484 6.08594C187.391 6.08594 188.172 6.24219 188.828 6.55469C189.492 6.86719 190.035 7.30469 190.457 7.86719C190.879 8.42188 191.191 9.07812 191.395 9.83594C191.598 10.5859 191.699 11.4062 191.699 12.2969V13.2695H182.23V11.5H189.531V11.3359C189.5 10.7734 189.383 10.2266 189.18 9.69531C188.984 9.16406 188.672 8.72656 188.242 8.38281C187.812 8.03906 187.227 7.86719 186.484 7.86719C185.992 7.86719 185.539 7.97266 185.125 8.18359C184.711 8.38672 184.355 8.69141 184.059 9.09766C183.762 9.50391 183.531 10 183.367 10.5859C183.203 11.1719 183.121 11.8477 183.121 12.6133V13.1055C183.121 13.707 183.203 14.2734 183.367 14.8047C183.539 15.3281 183.785 15.7891 184.105 16.1875C184.434 16.5859 184.828 16.8984 185.289 17.125C185.758 17.3516 186.289 17.4648 186.883 17.4648C187.648 17.4648 188.297 17.3086 188.828 16.9961C189.359 16.6836 189.824 16.2656 190.223 15.7422L191.535 16.7852C191.262 17.1992 190.914 17.5938 190.492 17.9688C190.07 18.3438 189.551 18.6484 188.934 18.8828C188.324 19.1172 187.602 19.2344 186.766 19.2344ZM201.707 16.832V10.3047C201.707 9.80469 201.605 9.37109 201.402 9.00391C201.207 8.62891 200.91 8.33984 200.512 8.13672C200.113 7.93359 199.621 7.83203 199.035 7.83203C198.488 7.83203 198.008 7.92578 197.594 8.11328C197.188 8.30078 196.867 8.54688 196.633 8.85156C196.406 9.15625 196.293 9.48438 196.293 9.83594H194.125C194.125 9.38281 194.242 8.93359 194.477 8.48828C194.711 8.04297 195.047 7.64062 195.484 7.28125C195.93 6.91406 196.461 6.625 197.078 6.41406C197.703 6.19531 198.398 6.08594 199.164 6.08594C200.086 6.08594 200.898 6.24219 201.602 6.55469C202.312 6.86719 202.867 7.33984 203.266 7.97266C203.672 8.59766 203.875 9.38281 203.875 10.3281V16.2344C203.875 16.6562 203.91 17.1055 203.98 17.582C204.059 18.0586 204.172 18.4688 204.32 18.8125V19H202.059C201.949 18.75 201.863 18.418 201.801 18.0039C201.738 17.582 201.707 17.1914 201.707 16.832ZM202.082 11.3125L202.105 12.8359H199.914C199.297 12.8359 198.746 12.8867 198.262 12.9883C197.777 13.082 197.371 13.2266 197.043 13.4219C196.715 13.6172 196.465 13.8633 196.293 14.1602C196.121 14.4492 196.035 14.7891 196.035 15.1797C196.035 15.5781 196.125 15.9414 196.305 16.2695C196.484 16.5977 196.754 16.8594 197.113 17.0547C197.48 17.2422 197.93 17.3359 198.461 17.3359C199.125 17.3359 199.711 17.1953 200.219 16.9141C200.727 16.6328 201.129 16.2891 201.426 15.8828C201.73 15.4766 201.895 15.082 201.918 14.6992L202.844 15.7422C202.789 16.0703 202.641 16.4336 202.398 16.832C202.156 17.2305 201.832 17.6133 201.426 17.9805C201.027 18.3398 200.551 18.6406 199.996 18.8828C199.449 19.1172 198.832 19.2344 198.145 19.2344C197.285 19.2344 196.531 19.0664 195.883 18.7305C195.242 18.3945 194.742 17.9453 194.383 17.3828C194.031 16.8125 193.855 16.1758 193.855 15.4727C193.855 14.793 193.988 14.1953 194.254 13.6797C194.52 13.1562 194.902 12.7227 195.402 12.3789C195.902 12.0273 196.504 11.7617 197.207 11.582C197.91 11.4023 198.695 11.3125 199.562 11.3125H202.082ZM209.453 8.3125V19H207.285V6.32031H209.395L209.453 8.3125ZM213.414 6.25L213.402 8.26562C213.223 8.22656 213.051 8.20312 212.887 8.19531C212.73 8.17969 212.551 8.17188 212.348 8.17188C211.848 8.17188 211.406 8.25 211.023 8.40625C210.641 8.5625 210.316 8.78125 210.051 9.0625C209.785 9.34375 209.574 9.67969 209.418 10.0703C209.27 10.4531 209.172 10.875 209.125 11.3359L208.516 11.6875C208.516 10.9219 208.59 10.2031 208.738 9.53125C208.895 8.85938 209.133 8.26562 209.453 7.75C209.773 7.22656 210.18 6.82031 210.672 6.53125C211.172 6.23438 211.766 6.08594 212.453 6.08594C212.609 6.08594 212.789 6.10547 212.992 6.14453C213.195 6.17578 213.336 6.21094 213.414 6.25ZM226.68 6.32031V7.98438H219.824V6.32031H226.68ZM222.145 3.23828H224.312V15.8594C224.312 16.2891 224.379 16.6133 224.512 16.832C224.645 17.0508 224.816 17.1953 225.027 17.2656C225.238 17.3359 225.465 17.3711 225.707 17.3711C225.887 17.3711 226.074 17.3555 226.27 17.3242C226.473 17.2852 226.625 17.2539 226.727 17.2305L226.738 19C226.566 19.0547 226.34 19.1055 226.059 19.1523C225.785 19.207 225.453 19.2344 225.062 19.2344C224.531 19.2344 224.043 19.1289 223.598 18.918C223.152 18.707 222.797 18.3555 222.531 17.8633C222.273 17.3633 222.145 16.6914 222.145 15.8477V3.23828ZM231.391 1V19H229.223V1H231.391ZM230.875 12.1797L229.973 12.1445C229.98 11.2773 230.109 10.4766 230.359 9.74219C230.609 9 230.961 8.35547 231.414 7.80859C231.867 7.26172 232.406 6.83984 233.031 6.54297C233.664 6.23828 234.363 6.08594 235.129 6.08594C235.754 6.08594 236.316 6.17188 236.816 6.34375C237.316 6.50781 237.742 6.77344 238.094 7.14062C238.453 7.50781 238.727 7.98438 238.914 8.57031C239.102 9.14844 239.195 9.85547 239.195 10.6914V19H237.016V10.668C237.016 10.0039 236.918 9.47266 236.723 9.07422C236.527 8.66797 236.242 8.375 235.867 8.19531C235.492 8.00781 235.031 7.91406 234.484 7.91406C233.945 7.91406 233.453 8.02734 233.008 8.25391C232.57 8.48047 232.191 8.79297 231.871 9.19141C231.559 9.58984 231.312 10.0469 231.133 10.5625C230.961 11.0703 230.875 11.6094 230.875 12.1797ZM247.703 19.2344C246.82 19.2344 246.02 19.0859 245.301 18.7891C244.59 18.4844 243.977 18.0586 243.461 17.5117C242.953 16.9648 242.562 16.3164 242.289 15.5664C242.016 14.8164 241.879 13.9961 241.879 13.1055V12.6133C241.879 11.582 242.031 10.6641 242.336 9.85938C242.641 9.04688 243.055 8.35938 243.578 7.79688C244.102 7.23438 244.695 6.80859 245.359 6.51953C246.023 6.23047 246.711 6.08594 247.422 6.08594C248.328 6.08594 249.109 6.24219 249.766 6.55469C250.43 6.86719 250.973 7.30469 251.395 7.86719C251.816 8.42188 252.129 9.07812 252.332 9.83594C252.535 10.5859 252.637 11.4062 252.637 12.2969V13.2695H243.168V11.5H250.469V11.3359C250.438 10.7734 250.32 10.2266 250.117 9.69531C249.922 9.16406 249.609 8.72656 249.18 8.38281C248.75 8.03906 248.164 7.86719 247.422 7.86719C246.93 7.86719 246.477 7.97266 246.062 8.18359C245.648 8.38672 245.293 8.69141 244.996 9.09766C244.699 9.50391 244.469 10 244.305 10.5859C244.141 11.1719 244.059 11.8477 244.059 12.6133V13.1055C244.059 13.707 244.141 14.2734 244.305 14.8047C244.477 15.3281 244.723 15.7891 245.043 16.1875C245.371 16.5859 245.766 16.8984 246.227 17.125C246.695 17.3516 247.227 17.4648 247.82 17.4648C248.586 17.4648 249.234 17.3086 249.766 16.9961C250.297 16.6836 250.762 16.2656 251.16 15.7422L252.473 16.7852C252.199 17.1992 251.852 17.5938 251.43 17.9688C251.008 18.3438 250.488 18.6484 249.871 18.8828C249.262 19.1172 248.539 19.2344 247.703 19.2344ZM268.598 16.832V10.3047C268.598 9.80469 268.496 9.37109 268.293 9.00391C268.098 8.62891 267.801 8.33984 267.402 8.13672C267.004 7.93359 266.512 7.83203 265.926 7.83203C265.379 7.83203 264.898 7.92578 264.484 8.11328C264.078 8.30078 263.758 8.54688 263.523 8.85156C263.297 9.15625 263.184 9.48438 263.184 9.83594H261.016C261.016 9.38281 261.133 8.93359 261.367 8.48828C261.602 8.04297 261.938 7.64062 262.375 7.28125C262.82 6.91406 263.352 6.625 263.969 6.41406C264.594 6.19531 265.289 6.08594 266.055 6.08594C266.977 6.08594 267.789 6.24219 268.492 6.55469C269.203 6.86719 269.758 7.33984 270.156 7.97266C270.562 8.59766 270.766 9.38281 270.766 10.3281V16.2344C270.766 16.6562 270.801 17.1055 270.871 17.582C270.949 18.0586 271.062 18.4688 271.211 18.8125V19H268.949C268.84 18.75 268.754 18.418 268.691 18.0039C268.629 17.582 268.598 17.1914 268.598 16.832ZM268.973 11.3125L268.996 12.8359H266.805C266.188 12.8359 265.637 12.8867 265.152 12.9883C264.668 13.082 264.262 13.2266 263.934 13.4219C263.605 13.6172 263.355 13.8633 263.184 14.1602C263.012 14.4492 262.926 14.7891 262.926 15.1797C262.926 15.5781 263.016 15.9414 263.195 16.2695C263.375 16.5977 263.645 16.8594 264.004 17.0547C264.371 17.2422 264.82 17.3359 265.352 17.3359C266.016 17.3359 266.602 17.1953 267.109 16.9141C267.617 16.6328 268.02 16.2891 268.316 15.8828C268.621 15.4766 268.785 15.082 268.809 14.6992L269.734 15.7422C269.68 16.0703 269.531 16.4336 269.289 16.832C269.047 17.2305 268.723 17.6133 268.316 17.9805C267.918 18.3398 267.441 18.6406 266.887 18.8828C266.34 19.1172 265.723 19.2344 265.035 19.2344C264.176 19.2344 263.422 19.0664 262.773 18.7305C262.133 18.3945 261.633 17.9453 261.273 17.3828C260.922 16.8125 260.746 16.1758 260.746 15.4727C260.746 14.793 260.879 14.1953 261.145 13.6797C261.41 13.1562 261.793 12.7227 262.293 12.3789C262.793 12.0273 263.395 11.7617 264.098 11.582C264.801 11.4023 265.586 11.3125 266.453 11.3125H268.973ZM281.934 16.0703V6.32031H284.113V19H282.039L281.934 16.0703ZM282.344 13.3984L283.246 13.375C283.246 14.2188 283.156 15 282.977 15.7188C282.805 16.4297 282.523 17.0469 282.133 17.5703C281.742 18.0938 281.23 18.5039 280.598 18.8008C279.965 19.0898 279.195 19.2344 278.289 19.2344C277.672 19.2344 277.105 19.1445 276.59 18.9648C276.082 18.7852 275.645 18.5078 275.277 18.1328C274.91 17.7578 274.625 17.2695 274.422 16.668C274.227 16.0664 274.129 15.3438 274.129 14.5V6.32031H276.297V14.5234C276.297 15.0938 276.359 15.5664 276.484 15.9414C276.617 16.3086 276.793 16.6016 277.012 16.8203C277.238 17.0312 277.488 17.1797 277.762 17.2656C278.043 17.3516 278.332 17.3945 278.629 17.3945C279.551 17.3945 280.281 17.2188 280.82 16.8672C281.359 16.5078 281.746 16.0273 281.98 15.4258C282.223 14.8164 282.344 14.1406 282.344 13.3984ZM295.41 16.5391V1H297.59V19H295.598L295.41 16.5391ZM286.879 12.8008V12.5547C286.879 11.5859 286.996 10.707 287.23 9.91797C287.473 9.12109 287.812 8.4375 288.25 7.86719C288.695 7.29688 289.223 6.85938 289.832 6.55469C290.449 6.24219 291.137 6.08594 291.895 6.08594C292.691 6.08594 293.387 6.22656 293.98 6.50781C294.582 6.78125 295.09 7.18359 295.504 7.71484C295.926 8.23828 296.258 8.87109 296.5 9.61328C296.742 10.3555 296.91 11.1953 297.004 12.1328V13.2109C296.918 14.1406 296.75 14.9766 296.5 15.7188C296.258 16.4609 295.926 17.0938 295.504 17.6172C295.09 18.1406 294.582 18.543 293.98 18.8242C293.379 19.0977 292.676 19.2344 291.871 19.2344C291.129 19.2344 290.449 19.0742 289.832 18.7539C289.223 18.4336 288.695 17.9844 288.25 17.4062C287.812 16.8281 287.473 16.1484 287.23 15.3672C286.996 14.5781 286.879 13.7227 286.879 12.8008ZM289.059 12.5547V12.8008C289.059 13.4336 289.121 14.0273 289.246 14.582C289.379 15.1367 289.582 15.625 289.855 16.0469C290.129 16.4688 290.477 16.8008 290.898 17.043C291.32 17.2773 291.824 17.3945 292.41 17.3945C293.129 17.3945 293.719 17.2422 294.18 16.9375C294.648 16.6328 295.023 16.2305 295.305 15.7305C295.586 15.2305 295.805 14.6875 295.961 14.1016V11.2773C295.867 10.8477 295.73 10.4336 295.551 10.0352C295.379 9.62891 295.152 9.26953 294.871 8.95703C294.598 8.63672 294.258 8.38281 293.852 8.19531C293.453 8.00781 292.98 7.91406 292.434 7.91406C291.84 7.91406 291.328 8.03906 290.898 8.28906C290.477 8.53125 290.129 8.86719 289.855 9.29688C289.582 9.71875 289.379 10.2109 289.246 10.7734C289.121 11.3281 289.059 11.9219 289.059 12.5547ZM303.32 6.32031V19H301.141V6.32031H303.32ZM300.977 2.95703C300.977 2.60547 301.082 2.30859 301.293 2.06641C301.512 1.82422 301.832 1.70312 302.254 1.70312C302.668 1.70312 302.984 1.82422 303.203 2.06641C303.43 2.30859 303.543 2.60547 303.543 2.95703C303.543 3.29297 303.43 3.58203 303.203 3.82422C302.984 4.05859 302.668 4.17578 302.254 4.17578C301.832 4.17578 301.512 4.05859 301.293 3.82422C301.082 3.58203 300.977 3.29297 300.977 2.95703ZM306.227 12.8008V12.5312C306.227 11.6172 306.359 10.7695 306.625 9.98828C306.891 9.19922 307.273 8.51562 307.773 7.9375C308.273 7.35156 308.879 6.89844 309.59 6.57812C310.301 6.25 311.098 6.08594 311.98 6.08594C312.871 6.08594 313.672 6.25 314.383 6.57812C315.102 6.89844 315.711 7.35156 316.211 7.9375C316.719 8.51562 317.105 9.19922 317.371 9.98828C317.637 10.7695 317.77 11.6172 317.77 12.5312V12.8008C317.77 13.7148 317.637 14.5625 317.371 15.3438C317.105 16.125 316.719 16.8086 316.211 17.3945C315.711 17.9727 315.105 18.4258 314.395 18.7539C313.691 19.0742 312.895 19.2344 312.004 19.2344C311.113 19.2344 310.312 19.0742 309.602 18.7539C308.891 18.4258 308.281 17.9727 307.773 17.3945C307.273 16.8086 306.891 16.125 306.625 15.3438C306.359 14.5625 306.227 13.7148 306.227 12.8008ZM308.395 12.5312V12.8008C308.395 13.4336 308.469 14.0312 308.617 14.5938C308.766 15.1484 308.988 15.6406 309.285 16.0703C309.59 16.5 309.969 16.8398 310.422 17.0898C310.875 17.332 311.402 17.4531 312.004 17.4531C312.598 17.4531 313.117 17.332 313.562 17.0898C314.016 16.8398 314.391 16.5 314.688 16.0703C314.984 15.6406 315.207 15.1484 315.355 14.5938C315.512 14.0312 315.59 13.4336 315.59 12.8008V12.5312C315.59 11.9062 315.512 11.3164 315.355 10.7617C315.207 10.1992 314.98 9.70312 314.676 9.27344C314.379 8.83594 314.004 8.49219 313.551 8.24219C313.105 7.99219 312.582 7.86719 311.98 7.86719C311.387 7.86719 310.863 7.99219 310.41 8.24219C309.965 8.49219 309.59 8.83594 309.285 9.27344C308.988 9.70312 308.766 10.1992 308.617 10.7617C308.469 11.3164 308.395 11.9062 308.395 12.5312ZM330.004 17.6875L333.531 6.32031H335.852L330.766 20.957C330.648 21.2695 330.492 21.6055 330.297 21.9648C330.109 22.332 329.867 22.6797 329.57 23.0078C329.273 23.3359 328.914 23.6016 328.492 23.8047C328.078 24.0156 327.582 24.1211 327.004 24.1211C326.832 24.1211 326.613 24.0977 326.348 24.0508C326.082 24.0039 325.895 23.9648 325.785 23.9336L325.773 22.1758C325.836 22.1836 325.934 22.1914 326.066 22.1992C326.207 22.2148 326.305 22.2227 326.359 22.2227C326.852 22.2227 327.27 22.1562 327.613 22.0234C327.957 21.8984 328.246 21.6836 328.48 21.3789C328.723 21.082 328.93 20.6719 329.102 20.1484L330.004 17.6875ZM327.414 6.32031L330.707 16.1641L331.27 18.4492L329.711 19.2461L325.047 6.32031H327.414ZM337.047 12.8008V12.5312C337.047 11.6172 337.18 10.7695 337.445 9.98828C337.711 9.19922 338.094 8.51562 338.594 7.9375C339.094 7.35156 339.699 6.89844 340.41 6.57812C341.121 6.25 341.918 6.08594 342.801 6.08594C343.691 6.08594 344.492 6.25 345.203 6.57812C345.922 6.89844 346.531 7.35156 347.031 7.9375C347.539 8.51562 347.926 9.19922 348.191 9.98828C348.457 10.7695 348.59 11.6172 348.59 12.5312V12.8008C348.59 13.7148 348.457 14.5625 348.191 15.3438C347.926 16.125 347.539 16.8086 347.031 17.3945C346.531 17.9727 345.926 18.4258 345.215 18.7539C344.512 19.0742 343.715 19.2344 342.824 19.2344C341.934 19.2344 341.133 19.0742 340.422 18.7539C339.711 18.4258 339.102 17.9727 338.594 17.3945C338.094 16.8086 337.711 16.125 337.445 15.3438C337.18 14.5625 337.047 13.7148 337.047 12.8008ZM339.215 12.5312V12.8008C339.215 13.4336 339.289 14.0312 339.438 14.5938C339.586 15.1484 339.809 15.6406 340.105 16.0703C340.41 16.5 340.789 16.8398 341.242 17.0898C341.695 17.332 342.223 17.4531 342.824 17.4531C343.418 17.4531 343.938 17.332 344.383 17.0898C344.836 16.8398 345.211 16.5 345.508 16.0703C345.805 15.6406 346.027 15.1484 346.176 14.5938C346.332 14.0312 346.41 13.4336 346.41 12.8008V12.5312C346.41 11.9062 346.332 11.3164 346.176 10.7617C346.027 10.1992 345.801 9.70312 345.496 9.27344C345.199 8.83594 344.824 8.49219 344.371 8.24219C343.926 7.99219 343.402 7.86719 342.801 7.86719C342.207 7.86719 341.684 7.99219 341.23 8.24219C340.785 8.49219 340.41 8.83594 340.105 9.27344C339.809 9.70312 339.586 10.1992 339.438 10.7617C339.289 11.3164 339.215 11.9062 339.215 12.5312ZM359.066 16.0703V6.32031H361.246V19H359.172L359.066 16.0703ZM359.477 13.3984L360.379 13.375C360.379 14.2188 360.289 15 360.109 15.7188C359.938 16.4297 359.656 17.0469 359.266 17.5703C358.875 18.0938 358.363 18.5039 357.73 18.8008C357.098 19.0898 356.328 19.2344 355.422 19.2344C354.805 19.2344 354.238 19.1445 353.723 18.9648C353.215 18.7852 352.777 18.5078 352.41 18.1328C352.043 17.7578 351.758 17.2695 351.555 16.668C351.359 16.0664 351.262 15.3438 351.262 14.5V6.32031H353.43V14.5234C353.43 15.0938 353.492 15.5664 353.617 15.9414C353.75 16.3086 353.926 16.6016 354.145 16.8203C354.371 17.0312 354.621 17.1797 354.895 17.2656C355.176 17.3516 355.465 17.3945 355.762 17.3945C356.684 17.3945 357.414 17.2188 357.953 16.8672C358.492 16.5078 358.879 16.0273 359.113 15.4258C359.355 14.8164 359.477 14.1406 359.477 13.3984ZM366.742 1V2.5C366.742 2.96875 366.66 3.46484 366.496 3.98828C366.34 4.50391 366.109 5.00391 365.805 5.48828C365.5 5.96484 365.133 6.38281 364.703 6.74219L363.461 5.88672C363.828 5.37109 364.105 4.84375 364.293 4.30469C364.488 3.75781 364.586 3.16797 364.586 2.53516V1H366.742ZM371.523 8.3125V19H369.355V6.32031H371.465L371.523 8.3125ZM375.484 6.25L375.473 8.26562C375.293 8.22656 375.121 8.20312 374.957 8.19531C374.801 8.17969 374.621 8.17188 374.418 8.17188C373.918 8.17188 373.477 8.25 373.094 8.40625C372.711 8.5625 372.387 8.78125 372.121 9.0625C371.855 9.34375 371.645 9.67969 371.488 10.0703C371.34 10.4531 371.242 10.875 371.195 11.3359L370.586 11.6875C370.586 10.9219 370.66 10.2031 370.809 9.53125C370.965 8.85938 371.203 8.26562 371.523 7.75C371.844 7.22656 372.25 6.82031 372.742 6.53125C373.242 6.23438 373.836 6.08594 374.523 6.08594C374.68 6.08594 374.859 6.10547 375.062 6.14453C375.266 6.17578 375.406 6.21094 375.484 6.25ZM382.516 19.2344C381.633 19.2344 380.832 19.0859 380.113 18.7891C379.402 18.4844 378.789 18.0586 378.273 17.5117C377.766 16.9648 377.375 16.3164 377.102 15.5664C376.828 14.8164 376.691 13.9961 376.691 13.1055V12.6133C376.691 11.582 376.844 10.6641 377.148 9.85938C377.453 9.04688 377.867 8.35938 378.391 7.79688C378.914 7.23438 379.508 6.80859 380.172 6.51953C380.836 6.23047 381.523 6.08594 382.234 6.08594C383.141 6.08594 383.922 6.24219 384.578 6.55469C385.242 6.86719 385.785 7.30469 386.207 7.86719C386.629 8.42188 386.941 9.07812 387.145 9.83594C387.348 10.5859 387.449 11.4062 387.449 12.2969V13.2695H377.98V11.5H385.281V11.3359C385.25 10.7734 385.133 10.2266 384.93 9.69531C384.734 9.16406 384.422 8.72656 383.992 8.38281C383.562 8.03906 382.977 7.86719 382.234 7.86719C381.742 7.86719 381.289 7.97266 380.875 8.18359C380.461 8.38672 380.105 8.69141 379.809 9.09766C379.512 9.50391 379.281 10 379.117 10.5859C378.953 11.1719 378.871 11.8477 378.871 12.6133V13.1055C378.871 13.707 378.953 14.2734 379.117 14.8047C379.289 15.3281 379.535 15.7891 379.855 16.1875C380.184 16.5859 380.578 16.8984 381.039 17.125C381.508 17.3516 382.039 17.4648 382.633 17.4648C383.398 17.4648 384.047 17.3086 384.578 16.9961C385.109 16.6836 385.574 16.2656 385.973 15.7422L387.285 16.7852C387.012 17.1992 386.664 17.5938 386.242 17.9688C385.82 18.3438 385.301 18.6484 384.684 18.8828C384.074 19.1172 383.352 19.2344 382.516 19.2344ZM404.148 6.32031H406.117V18.7305C406.117 19.8477 405.891 20.8008 405.438 21.5898C404.984 22.3789 404.352 22.9766 403.539 23.3828C402.734 23.7969 401.805 24.0039 400.75 24.0039C400.312 24.0039 399.797 23.9336 399.203 23.793C398.617 23.6602 398.039 23.4297 397.469 23.1016C396.906 22.7812 396.434 22.3477 396.051 21.8008L397.188 20.5117C397.719 21.1523 398.273 21.5977 398.852 21.8477C399.438 22.0977 400.016 22.2227 400.586 22.2227C401.273 22.2227 401.867 22.0938 402.367 21.8359C402.867 21.5781 403.254 21.1953 403.527 20.6875C403.809 20.1875 403.949 19.5703 403.949 18.8359V9.10938L404.148 6.32031ZM395.418 12.8008V12.5547C395.418 11.5859 395.531 10.707 395.758 9.91797C395.992 9.12109 396.324 8.4375 396.754 7.86719C397.191 7.29688 397.719 6.85938 398.336 6.55469C398.953 6.24219 399.648 6.08594 400.422 6.08594C401.219 6.08594 401.914 6.22656 402.508 6.50781C403.109 6.78125 403.617 7.18359 404.031 7.71484C404.453 8.23828 404.785 8.87109 405.027 9.61328C405.27 10.3555 405.438 11.1953 405.531 12.1328V13.2109C405.445 14.1406 405.277 14.9766 405.027 15.7188C404.785 16.4609 404.453 17.0938 404.031 17.6172C403.617 18.1406 403.109 18.543 402.508 18.8242C401.906 19.0977 401.203 19.2344 400.398 19.2344C399.641 19.2344 398.953 19.0742 398.336 18.7539C397.727 18.4336 397.203 17.9844 396.766 17.4062C396.328 16.8281 395.992 16.1484 395.758 15.3672C395.531 14.5781 395.418 13.7227 395.418 12.8008ZM397.586 12.5547V12.8008C397.586 13.4336 397.648 14.0273 397.773 14.582C397.906 15.1367 398.105 15.625 398.371 16.0469C398.645 16.4688 398.992 16.8008 399.414 17.043C399.836 17.2773 400.34 17.3945 400.926 17.3945C401.645 17.3945 402.238 17.2422 402.707 16.9375C403.176 16.6328 403.547 16.2305 403.82 15.7305C404.102 15.2305 404.32 14.6875 404.477 14.1016V11.2773C404.391 10.8477 404.258 10.4336 404.078 10.0352C403.906 9.62891 403.68 9.26953 403.398 8.95703C403.125 8.63672 402.785 8.38281 402.379 8.19531C401.973 8.00781 401.496 7.91406 400.949 7.91406C400.355 7.91406 399.844 8.03906 399.414 8.28906C398.992 8.53125 398.645 8.86719 398.371 9.29688C398.105 9.71875 397.906 10.2109 397.773 10.7734C397.648 11.3281 397.586 11.9219 397.586 12.5547ZM408.836 12.8008V12.5312C408.836 11.6172 408.969 10.7695 409.234 9.98828C409.5 9.19922 409.883 8.51562 410.383 7.9375C410.883 7.35156 411.488 6.89844 412.199 6.57812C412.91 6.25 413.707 6.08594 414.59 6.08594C415.48 6.08594 416.281 6.25 416.992 6.57812C417.711 6.89844 418.32 7.35156 418.82 7.9375C419.328 8.51562 419.715 9.19922 419.98 9.98828C420.246 10.7695 420.379 11.6172 420.379 12.5312V12.8008C420.379 13.7148 420.246 14.5625 419.98 15.3438C419.715 16.125 419.328 16.8086 418.82 17.3945C418.32 17.9727 417.715 18.4258 417.004 18.7539C416.301 19.0742 415.504 19.2344 414.613 19.2344C413.723 19.2344 412.922 19.0742 412.211 18.7539C411.5 18.4258 410.891 17.9727 410.383 17.3945C409.883 16.8086 409.5 16.125 409.234 15.3438C408.969 14.5625 408.836 13.7148 408.836 12.8008ZM411.004 12.5312V12.8008C411.004 13.4336 411.078 14.0312 411.227 14.5938C411.375 15.1484 411.598 15.6406 411.895 16.0703C412.199 16.5 412.578 16.8398 413.031 17.0898C413.484 17.332 414.012 17.4531 414.613 17.4531C415.207 17.4531 415.727 17.332 416.172 17.0898C416.625 16.8398 417 16.5 417.297 16.0703C417.594 15.6406 417.816 15.1484 417.965 14.5938C418.121 14.0312 418.199 13.4336 418.199 12.8008V12.5312C418.199 11.9062 418.121 11.3164 417.965 10.7617C417.816 10.1992 417.59 9.70312 417.285 9.27344C416.988 8.83594 416.613 8.49219 416.16 8.24219C415.715 7.99219 415.191 7.86719 414.59 7.86719C413.996 7.86719 413.473 7.99219 413.02 8.24219C412.574 8.49219 412.199 8.83594 411.895 9.27344C411.598 9.70312 411.375 10.1992 411.227 10.7617C411.078 11.3164 411.004 11.9062 411.004 12.5312ZM422.523 12.8008V12.5312C422.523 11.6172 422.656 10.7695 422.922 9.98828C423.188 9.19922 423.57 8.51562 424.07 7.9375C424.57 7.35156 425.176 6.89844 425.887 6.57812C426.598 6.25 427.395 6.08594 428.277 6.08594C429.168 6.08594 429.969 6.25 430.68 6.57812C431.398 6.89844 432.008 7.35156 432.508 7.9375C433.016 8.51562 433.402 9.19922 433.668 9.98828C433.934 10.7695 434.066 11.6172 434.066 12.5312V12.8008C434.066 13.7148 433.934 14.5625 433.668 15.3438C433.402 16.125 433.016 16.8086 432.508 17.3945C432.008 17.9727 431.402 18.4258 430.691 18.7539C429.988 19.0742 429.191 19.2344 428.301 19.2344C427.41 19.2344 426.609 19.0742 425.898 18.7539C425.188 18.4258 424.578 17.9727 424.07 17.3945C423.57 16.8086 423.188 16.125 422.922 15.3438C422.656 14.5625 422.523 13.7148 422.523 12.8008ZM424.691 12.5312V12.8008C424.691 13.4336 424.766 14.0312 424.914 14.5938C425.062 15.1484 425.285 15.6406 425.582 16.0703C425.887 16.5 426.266 16.8398 426.719 17.0898C427.172 17.332 427.699 17.4531 428.301 17.4531C428.895 17.4531 429.414 17.332 429.859 17.0898C430.312 16.8398 430.688 16.5 430.984 16.0703C431.281 15.6406 431.504 15.1484 431.652 14.5938C431.809 14.0312 431.887 13.4336 431.887 12.8008V12.5312C431.887 11.9062 431.809 11.3164 431.652 10.7617C431.504 10.1992 431.277 9.70312 430.973 9.27344C430.676 8.83594 430.301 8.49219 429.848 8.24219C429.402 7.99219 428.879 7.86719 428.277 7.86719C427.684 7.86719 427.16 7.99219 426.707 8.24219C426.262 8.49219 425.887 8.83594 425.582 9.27344C425.285 9.70312 425.062 10.1992 424.914 10.7617C424.766 11.3164 424.691 11.9062 424.691 12.5312ZM444.777 16.5391V1H446.957V19H444.965L444.777 16.5391ZM436.246 12.8008V12.5547C436.246 11.5859 436.363 10.707 436.598 9.91797C436.84 9.12109 437.18 8.4375 437.617 7.86719C438.062 7.29688 438.59 6.85938 439.199 6.55469C439.816 6.24219 440.504 6.08594 441.262 6.08594C442.059 6.08594 442.754 6.22656 443.348 6.50781C443.949 6.78125 444.457 7.18359 444.871 7.71484C445.293 8.23828 445.625 8.87109 445.867 9.61328C446.109 10.3555 446.277 11.1953 446.371 12.1328V13.2109C446.285 14.1406 446.117 14.9766 445.867 15.7188C445.625 16.4609 445.293 17.0938 444.871 17.6172C444.457 18.1406 443.949 18.543 443.348 18.8242C442.746 19.0977 442.043 19.2344 441.238 19.2344C440.496 19.2344 439.816 19.0742 439.199 18.7539C438.59 18.4336 438.062 17.9844 437.617 17.4062C437.18 16.8281 436.84 16.1484 436.598 15.3672C436.363 14.5781 436.246 13.7227 436.246 12.8008ZM438.426 12.5547V12.8008C438.426 13.4336 438.488 14.0273 438.613 14.582C438.746 15.1367 438.949 15.625 439.223 16.0469C439.496 16.4688 439.844 16.8008 440.266 17.043C440.688 17.2773 441.191 17.3945 441.777 17.3945C442.496 17.3945 443.086 17.2422 443.547 16.9375C444.016 16.6328 444.391 16.2305 444.672 15.7305C444.953 15.2305 445.172 14.6875 445.328 14.1016V11.2773C445.234 10.8477 445.098 10.4336 444.918 10.0352C444.746 9.62891 444.52 9.26953 444.238 8.95703C443.965 8.63672 443.625 8.38281 443.219 8.19531C442.82 8.00781 442.348 7.91406 441.801 7.91406C441.207 7.91406 440.695 8.03906 440.266 8.28906C439.844 8.53125 439.496 8.86719 439.223 9.29688C438.949 9.71875 438.746 10.2109 438.613 10.7734C438.488 11.3281 438.426 11.9219 438.426 12.5547ZM461.594 6.32031V7.98438H454.738V6.32031H461.594ZM457.059 3.23828H459.227V15.8594C459.227 16.2891 459.293 16.6133 459.426 16.832C459.559 17.0508 459.73 17.1953 459.941 17.2656C460.152 17.3359 460.379 17.3711 460.621 17.3711C460.801 17.3711 460.988 17.3555 461.184 17.3242C461.387 17.2852 461.539 17.2539 461.641 17.2305L461.652 19C461.48 19.0547 461.254 19.1055 460.973 19.1523C460.699 19.207 460.367 19.2344 459.977 19.2344C459.445 19.2344 458.957 19.1289 458.512 18.918C458.066 18.707 457.711 18.3555 457.445 17.8633C457.188 17.3633 457.059 16.6914 457.059 15.8477V3.23828ZM463.328 12.8008V12.5312C463.328 11.6172 463.461 10.7695 463.727 9.98828C463.992 9.19922 464.375 8.51562 464.875 7.9375C465.375 7.35156 465.98 6.89844 466.691 6.57812C467.402 6.25 468.199 6.08594 469.082 6.08594C469.973 6.08594 470.773 6.25 471.484 6.57812C472.203 6.89844 472.812 7.35156 473.312 7.9375C473.82 8.51562 474.207 9.19922 474.473 9.98828C474.738 10.7695 474.871 11.6172 474.871 12.5312V12.8008C474.871 13.7148 474.738 14.5625 474.473 15.3438C474.207 16.125 473.82 16.8086 473.312 17.3945C472.812 17.9727 472.207 18.4258 471.496 18.7539C470.793 19.0742 469.996 19.2344 469.105 19.2344C468.215 19.2344 467.414 19.0742 466.703 18.7539C465.992 18.4258 465.383 17.9727 464.875 17.3945C464.375 16.8086 463.992 16.125 463.727 15.3438C463.461 14.5625 463.328 13.7148 463.328 12.8008ZM465.496 12.5312V12.8008C465.496 13.4336 465.57 14.0312 465.719 14.5938C465.867 15.1484 466.09 15.6406 466.387 16.0703C466.691 16.5 467.07 16.8398 467.523 17.0898C467.977 17.332 468.504 17.4531 469.105 17.4531C469.699 17.4531 470.219 17.332 470.664 17.0898C471.117 16.8398 471.492 16.5 471.789 16.0703C472.086 15.6406 472.309 15.1484 472.457 14.5938C472.613 14.0312 472.691 13.4336 472.691 12.8008V12.5312C472.691 11.9062 472.613 11.3164 472.457 10.7617C472.309 10.1992 472.082 9.70312 471.777 9.27344C471.48 8.83594 471.105 8.49219 470.652 8.24219C470.207 7.99219 469.684 7.86719 469.082 7.86719C468.488 7.86719 467.965 7.99219 467.512 8.24219C467.066 8.49219 466.691 8.83594 466.387 9.27344C466.09 9.70312 465.867 10.1992 465.719 10.7617C465.57 11.3164 465.496 11.9062 465.496 12.5312ZM491.758 6.32031H493.727V18.7305C493.727 19.8477 493.5 20.8008 493.047 21.5898C492.594 22.3789 491.961 22.9766 491.148 23.3828C490.344 23.7969 489.414 24.0039 488.359 24.0039C487.922 24.0039 487.406 23.9336 486.812 23.793C486.227 23.6602 485.648 23.4297 485.078 23.1016C484.516 22.7812 484.043 22.3477 483.66 21.8008L484.797 20.5117C485.328 21.1523 485.883 21.5977 486.461 21.8477C487.047 22.0977 487.625 22.2227 488.195 22.2227C488.883 22.2227 489.477 22.0938 489.977 21.8359C490.477 21.5781 490.863 21.1953 491.137 20.6875C491.418 20.1875 491.559 19.5703 491.559 18.8359V9.10938L491.758 6.32031ZM483.027 12.8008V12.5547C483.027 11.5859 483.141 10.707 483.367 9.91797C483.602 9.12109 483.934 8.4375 484.363 7.86719C484.801 7.29688 485.328 6.85938 485.945 6.55469C486.562 6.24219 487.258 6.08594 488.031 6.08594C488.828 6.08594 489.523 6.22656 490.117 6.50781C490.719 6.78125 491.227 7.18359 491.641 7.71484C492.062 8.23828 492.395 8.87109 492.637 9.61328C492.879 10.3555 493.047 11.1953 493.141 12.1328V13.2109C493.055 14.1406 492.887 14.9766 492.637 15.7188C492.395 16.4609 492.062 17.0938 491.641 17.6172C491.227 18.1406 490.719 18.543 490.117 18.8242C489.516 19.0977 488.812 19.2344 488.008 19.2344C487.25 19.2344 486.562 19.0742 485.945 18.7539C485.336 18.4336 484.812 17.9844 484.375 17.4062C483.938 16.8281 483.602 16.1484 483.367 15.3672C483.141 14.5781 483.027 13.7227 483.027 12.8008ZM485.195 12.5547V12.8008C485.195 13.4336 485.258 14.0273 485.383 14.582C485.516 15.1367 485.715 15.625 485.98 16.0469C486.254 16.4688 486.602 16.8008 487.023 17.043C487.445 17.2773 487.949 17.3945 488.535 17.3945C489.254 17.3945 489.848 17.2422 490.316 16.9375C490.785 16.6328 491.156 16.2305 491.43 15.7305C491.711 15.2305 491.93 14.6875 492.086 14.1016V11.2773C492 10.8477 491.867 10.4336 491.688 10.0352C491.516 9.62891 491.289 9.26953 491.008 8.95703C490.734 8.63672 490.395 8.38281 489.988 8.19531C489.582 8.00781 489.105 7.91406 488.559 7.91406C487.965 7.91406 487.453 8.03906 487.023 8.28906C486.602 8.53125 486.254 8.86719 485.98 9.29688C485.715 9.71875 485.516 10.2109 485.383 10.7734C485.258 11.3281 485.195 11.9219 485.195 12.5547ZM496.445 12.8008V12.5312C496.445 11.6172 496.578 10.7695 496.844 9.98828C497.109 9.19922 497.492 8.51562 497.992 7.9375C498.492 7.35156 499.098 6.89844 499.809 6.57812C500.52 6.25 501.316 6.08594 502.199 6.08594C503.09 6.08594 503.891 6.25 504.602 6.57812C505.32 6.89844 505.93 7.35156 506.43 7.9375C506.938 8.51562 507.324 9.19922 507.59 9.98828C507.855 10.7695 507.988 11.6172 507.988 12.5312V12.8008C507.988 13.7148 507.855 14.5625 507.59 15.3438C507.324 16.125 506.938 16.8086 506.43 17.3945C505.93 17.9727 505.324 18.4258 504.613 18.7539C503.91 19.0742 503.113 19.2344 502.223 19.2344C501.332 19.2344 500.531 19.0742 499.82 18.7539C499.109 18.4258 498.5 17.9727 497.992 17.3945C497.492 16.8086 497.109 16.125 496.844 15.3438C496.578 14.5625 496.445 13.7148 496.445 12.8008ZM498.613 12.5312V12.8008C498.613 13.4336 498.688 14.0312 498.836 14.5938C498.984 15.1484 499.207 15.6406 499.504 16.0703C499.809 16.5 500.188 16.8398 500.641 17.0898C501.094 17.332 501.621 17.4531 502.223 17.4531C502.816 17.4531 503.336 17.332 503.781 17.0898C504.234 16.8398 504.609 16.5 504.906 16.0703C505.203 15.6406 505.426 15.1484 505.574 14.5938C505.73 14.0312 505.809 13.4336 505.809 12.8008V12.5312C505.809 11.9062 505.73 11.3164 505.574 10.7617C505.426 10.1992 505.199 9.70312 504.895 9.27344C504.598 8.83594 504.223 8.49219 503.77 8.24219C503.324 7.99219 502.801 7.86719 502.199 7.86719C501.605 7.86719 501.082 7.99219 500.629 8.24219C500.184 8.49219 499.809 8.83594 499.504 9.27344C499.207 9.70312 498.984 10.1992 498.836 10.7617C498.688 11.3164 498.613 11.9062 498.613 12.5312ZM510.742 17.8516C510.742 17.4844 510.855 17.1758 511.082 16.9258C511.316 16.668 511.652 16.5391 512.09 16.5391C512.527 16.5391 512.859 16.668 513.086 16.9258C513.32 17.1758 513.438 17.4844 513.438 17.8516C513.438 18.2109 513.32 18.5156 513.086 18.7656C512.859 19.0156 512.527 19.1406 512.09 19.1406C511.652 19.1406 511.316 19.0156 511.082 18.7656C510.855 18.5156 510.742 18.2109 510.742 17.8516ZM517.07 17.8516C517.07 17.4844 517.184 17.1758 517.41 16.9258C517.645 16.668 517.98 16.5391 518.418 16.5391C518.855 16.5391 519.188 16.668 519.414 16.9258C519.648 17.1758 519.766 17.4844 519.766 17.8516C519.766 18.2109 519.648 18.5156 519.414 18.7656C519.188 19.0156 518.855 19.1406 518.418 19.1406C517.98 19.1406 517.645 19.0156 517.41 18.7656C517.184 18.5156 517.07 18.2109 517.07 17.8516ZM523.398 17.8516C523.398 17.4844 523.512 17.1758 523.738 16.9258C523.973 16.668 524.309 16.5391 524.746 16.5391C525.184 16.5391 525.516 16.668 525.742 16.9258C525.977 17.1758 526.094 17.4844 526.094 17.8516C526.094 18.2109 525.977 18.5156 525.742 18.7656C525.516 19.0156 525.184 19.1406 524.746 19.1406C524.309 19.1406 523.973 19.0156 523.738 18.7656C523.512 18.5156 523.398 18.2109 523.398 17.8516Z" fill="black"/>
</svg>
