<svg width="130" height="148" viewBox="0 0 130 148" fill="none" xmlns="http://www.w3.org/2000/svg">
<circle cx="65" cy="83" r="60" fill="#F6DAE4"/>
<ellipse cx="65" cy="23" rx="28" ry="5" fill="#F6DAE4"/>
<ellipse cx="64.5" cy="11.5" rx="24.5" ry="11.5" fill="#F6DAE4"/>
<g filter="url(#filter0_d_51_2856)">
<path d="M45.9258 79.3379C45.9258 79.0449 45.8802 78.7845 45.7891 78.5566C45.7044 78.3288 45.5514 78.1204 45.3301 77.9316C45.1087 77.7428 44.7962 77.5605 44.3926 77.3848C43.9954 77.2025 43.4876 77.0169 42.8691 76.8281C42.1921 76.6198 41.5671 76.3887 40.9941 76.1348C40.4277 75.8743 39.9329 75.5749 39.5098 75.2363C39.0866 74.8913 38.7578 74.4974 38.5234 74.0547C38.2891 73.6055 38.1719 73.0879 38.1719 72.502C38.1719 71.9225 38.2923 71.3952 38.5332 70.9199C38.7806 70.4447 39.1289 70.0345 39.5781 69.6895C40.0339 69.3379 40.571 69.0677 41.1895 68.8789C41.8079 68.6836 42.4915 68.5859 43.2402 68.5859C44.2949 68.5859 45.2031 68.7812 45.9648 69.1719C46.7331 69.5625 47.3223 70.0866 47.7324 70.7441C48.1491 71.4017 48.3574 72.1276 48.3574 72.9219H45.9258C45.9258 72.4531 45.8249 72.0397 45.623 71.6816C45.4277 71.3171 45.1283 71.0306 44.7246 70.8223C44.3275 70.6139 43.8229 70.5098 43.2109 70.5098C42.6315 70.5098 42.1497 70.5977 41.7656 70.7734C41.3815 70.9492 41.0951 71.1868 40.9062 71.4863C40.7174 71.7858 40.623 72.1243 40.623 72.502C40.623 72.7689 40.6849 73.013 40.8086 73.2344C40.9323 73.4492 41.1211 73.651 41.375 73.8398C41.6289 74.0221 41.9479 74.1947 42.332 74.3574C42.7161 74.5202 43.1686 74.6764 43.6895 74.8262C44.4772 75.0605 45.1641 75.321 45.75 75.6074C46.3359 75.8874 46.8242 76.2064 47.2148 76.5645C47.6055 76.9225 47.8984 77.3294 48.0938 77.7852C48.2891 78.2344 48.3867 78.7454 48.3867 79.3184C48.3867 79.9173 48.2663 80.4577 48.0254 80.9395C47.7845 81.4147 47.4395 81.8216 46.9902 82.1602C46.5475 82.4922 46.0137 82.7493 45.3887 82.9316C44.7702 83.1074 44.0801 83.1953 43.3184 83.1953C42.6348 83.1953 41.9609 83.1042 41.2969 82.9219C40.6393 82.7396 40.0404 82.4629 39.5 82.0918C38.9596 81.7142 38.5299 81.2454 38.2109 80.6855C37.8919 80.1191 37.7324 79.4583 37.7324 78.7031H40.1836C40.1836 79.1654 40.2617 79.5592 40.418 79.8848C40.5807 80.2103 40.8053 80.4772 41.0918 80.6855C41.3783 80.8874 41.7103 81.0371 42.0879 81.1348C42.472 81.2324 42.8822 81.2812 43.3184 81.2812C43.8913 81.2812 44.3698 81.1999 44.7539 81.0371C45.1445 80.8743 45.4375 80.6465 45.6328 80.3535C45.8281 80.0605 45.9258 79.722 45.9258 79.3379ZM52.6836 74.4648V87.0625H50.3301V72.4336H52.498L52.6836 74.4648ZM59.5684 77.6191V77.8242C59.5684 78.5924 59.4772 79.3053 59.2949 79.9629C59.1191 80.6139 58.8555 81.1836 58.5039 81.6719C58.1589 82.1536 57.7324 82.528 57.2246 82.7949C56.7168 83.0618 56.1309 83.1953 55.4668 83.1953C54.8092 83.1953 54.2331 83.0749 53.7383 82.834C53.25 82.5866 52.8366 82.2383 52.498 81.7891C52.1595 81.3398 51.8861 80.8125 51.6777 80.207C51.4759 79.5951 51.3327 78.9245 51.248 78.1953V77.4043C51.3327 76.6296 51.4759 75.9264 51.6777 75.2949C51.8861 74.6634 52.1595 74.1198 52.498 73.6641C52.8366 73.2083 53.25 72.8568 53.7383 72.6094C54.2266 72.362 54.7962 72.2383 55.4473 72.2383C56.1113 72.2383 56.7005 72.3685 57.2148 72.6289C57.7292 72.8828 58.1621 73.2474 58.5137 73.7227C58.8652 74.1914 59.1289 74.7578 59.3047 75.4219C59.4805 76.0794 59.5684 76.8118 59.5684 77.6191ZM57.2148 77.8242V77.6191C57.2148 77.1309 57.1693 76.6784 57.0781 76.2617C56.987 75.8385 56.8438 75.4674 56.6484 75.1484C56.4531 74.8294 56.2025 74.582 55.8965 74.4062C55.597 74.224 55.2357 74.1328 54.8125 74.1328C54.3958 74.1328 54.0378 74.2044 53.7383 74.3477C53.4388 74.4844 53.1882 74.6764 52.9863 74.9238C52.7845 75.1712 52.6283 75.4609 52.5176 75.793C52.4069 76.1185 52.3288 76.4733 52.2832 76.8574V78.752C52.3613 79.2207 52.4948 79.6504 52.6836 80.041C52.8724 80.4316 53.1393 80.7441 53.4844 80.9785C53.8359 81.2064 54.2852 81.3203 54.832 81.3203C55.2552 81.3203 55.6165 81.2292 55.916 81.0469C56.2155 80.8646 56.4596 80.6139 56.6484 80.2949C56.8438 79.9694 56.987 79.5951 57.0781 79.1719C57.1693 78.7487 57.2148 78.2995 57.2148 77.8242ZM66.2285 83.1953C65.4473 83.1953 64.7409 83.0684 64.1094 82.8145C63.4844 82.554 62.9505 82.1927 62.5078 81.7305C62.0716 81.2682 61.7363 80.7246 61.502 80.0996C61.2676 79.4746 61.1504 78.8008 61.1504 78.0781V77.6875C61.1504 76.8607 61.2708 76.112 61.5117 75.4414C61.7526 74.7708 62.0879 74.1979 62.5176 73.7227C62.9473 73.2409 63.4551 72.873 64.041 72.6191C64.627 72.3652 65.2617 72.2383 65.9453 72.2383C66.7005 72.2383 67.3613 72.3652 67.9277 72.6191C68.4941 72.873 68.9629 73.2311 69.334 73.6934C69.7116 74.1491 69.9915 74.6927 70.1738 75.3242C70.3626 75.9557 70.457 76.6523 70.457 77.4141V78.4199H62.293V76.7305H68.1328V76.5449C68.1198 76.1217 68.0352 75.7246 67.8789 75.3535C67.7292 74.9824 67.498 74.6829 67.1855 74.4551C66.873 74.2272 66.4564 74.1133 65.9355 74.1133C65.5449 74.1133 65.1966 74.1979 64.8906 74.3672C64.5911 74.5299 64.3405 74.7676 64.1387 75.0801C63.9368 75.3926 63.7806 75.7702 63.6699 76.2129C63.5658 76.6491 63.5137 77.1406 63.5137 77.6875V78.0781C63.5137 78.5404 63.5755 78.9701 63.6992 79.3672C63.8294 79.7578 64.0182 80.0996 64.2656 80.3926C64.513 80.6855 64.8125 80.9167 65.1641 81.0859C65.5156 81.2487 65.916 81.3301 66.3652 81.3301C66.9316 81.3301 67.4362 81.2161 67.8789 80.9883C68.3216 80.7604 68.7057 80.4382 69.0312 80.0215L70.2715 81.2227C70.0436 81.5547 69.7474 81.8737 69.3828 82.1797C69.0182 82.4792 68.5723 82.7233 68.0449 82.9121C67.5241 83.1009 66.9186 83.1953 66.2285 83.1953ZM78.25 80.8809V75.8418C78.25 75.4642 78.1816 75.1387 78.0449 74.8652C77.9082 74.5918 77.6999 74.3802 77.4199 74.2305C77.1465 74.0807 76.8014 74.0059 76.3848 74.0059C76.0007 74.0059 75.6686 74.071 75.3887 74.2012C75.1087 74.3314 74.8906 74.5072 74.7344 74.7285C74.5781 74.9499 74.5 75.2005 74.5 75.4805H72.1562C72.1562 75.0638 72.2572 74.6602 72.459 74.2695C72.6608 73.8789 72.9538 73.5306 73.3379 73.2246C73.722 72.9186 74.181 72.6777 74.7148 72.502C75.2487 72.3262 75.8477 72.2383 76.5117 72.2383C77.306 72.2383 78.0091 72.3717 78.6211 72.6387C79.2396 72.9056 79.7246 73.3092 80.0762 73.8496C80.4342 74.3835 80.6133 75.054 80.6133 75.8613V80.5586C80.6133 81.0404 80.6458 81.4733 80.7109 81.8574C80.7826 82.235 80.8835 82.5638 81.0137 82.8438V83H78.6016C78.4909 82.7461 78.403 82.4238 78.3379 82.0332C78.2793 81.6361 78.25 81.252 78.25 80.8809ZM78.5918 76.5742L78.6113 78.0293H76.9219C76.4857 78.0293 76.1016 78.0716 75.7695 78.1562C75.4375 78.2344 75.1608 78.3516 74.9395 78.5078C74.7181 78.6641 74.5521 78.8529 74.4414 79.0742C74.3307 79.2956 74.2754 79.5462 74.2754 79.8262C74.2754 80.1061 74.3405 80.3633 74.4707 80.5977C74.6009 80.8255 74.7897 81.0046 75.0371 81.1348C75.291 81.265 75.597 81.3301 75.9551 81.3301C76.4368 81.3301 76.8568 81.2324 77.2148 81.0371C77.5794 80.8353 77.8659 80.5911 78.0742 80.3047C78.2826 80.0117 78.3932 79.735 78.4062 79.4746L79.168 80.5195C79.0898 80.7865 78.9564 81.0729 78.7676 81.3789C78.5788 81.6849 78.3314 81.9779 78.0254 82.2578C77.7259 82.5312 77.3646 82.7559 76.9414 82.9316C76.5247 83.1074 76.043 83.1953 75.4961 83.1953C74.806 83.1953 74.1908 83.0586 73.6504 82.7852C73.11 82.5052 72.6868 82.1309 72.3809 81.6621C72.0749 81.1868 71.9219 80.6497 71.9219 80.0508C71.9219 79.4909 72.026 78.9961 72.2344 78.5664C72.4492 78.1302 72.7617 77.7656 73.1719 77.4727C73.5885 77.1797 74.0964 76.9583 74.6953 76.8086C75.2943 76.6523 75.9779 76.5742 76.7461 76.5742H78.5918ZM85.4473 68V83H83.084V68H85.4473ZM92.0098 72.4336L87.4102 77.5312L84.8906 80.1094L84.2754 78.1172L86.1797 75.7637L89.168 72.4336H92.0098ZM89.6758 83L86.248 78.0391L87.7324 76.3887L92.4004 83H89.6758ZM60.6523 95.4336V106H58.2891V95.4336H60.6523ZM58.1328 92.6602C58.1328 92.3021 58.25 92.0059 58.4844 91.7715C58.7253 91.5306 59.0573 91.4102 59.4805 91.4102C59.8971 91.4102 60.2259 91.5306 60.4668 91.7715C60.7077 92.0059 60.8281 92.3021 60.8281 92.6602C60.8281 93.0117 60.7077 93.3047 60.4668 93.5391C60.2259 93.7734 59.8971 93.8906 59.4805 93.8906C59.0573 93.8906 58.7253 93.7734 58.4844 93.5391C58.25 93.3047 58.1328 93.0117 58.1328 92.6602ZM65.5645 97.6895V106H63.2109V95.4336H65.4277L65.5645 97.6895ZM65.1445 100.326L64.3828 100.316C64.3893 99.5677 64.4935 98.8809 64.6953 98.2559C64.9036 97.6309 65.1901 97.0938 65.5547 96.6445C65.9258 96.1953 66.3685 95.8503 66.8828 95.6094C67.3971 95.362 67.9701 95.2383 68.6016 95.2383C69.1094 95.2383 69.5684 95.3099 69.9785 95.4531C70.3952 95.5898 70.75 95.8145 71.043 96.127C71.3424 96.4395 71.5703 96.8464 71.7266 97.3477C71.8828 97.8424 71.9609 98.4512 71.9609 99.1738V106H69.5977V99.1641C69.5977 98.6562 69.5228 98.2559 69.373 97.9629C69.2298 97.6634 69.0182 97.4518 68.7383 97.3281C68.4648 97.1979 68.123 97.1328 67.7129 97.1328C67.3092 97.1328 66.9479 97.2174 66.6289 97.3867C66.3099 97.556 66.0397 97.7871 65.8184 98.0801C65.6035 98.373 65.4375 98.7116 65.3203 99.0957C65.2031 99.4798 65.1445 99.89 65.1445 100.326Z" fill="black"/>
</g>
<defs>
<filter id="filter0_d_51_2856" x="33.7324" y="68" width="62.668" height="46" filterUnits="userSpaceOnUse" color-interpolation-filters="sRGB">
<feFlood flood-opacity="0" result="BackgroundImageFix"/>
<feColorMatrix in="SourceAlpha" type="matrix" values="0 0 0 0 0 0 0 0 0 0 0 0 0 0 0 0 0 0 127 0" result="hardAlpha"/>
<feOffset dy="4"/>
<feGaussianBlur stdDeviation="2"/>
<feComposite in2="hardAlpha" operator="out"/>
<feColorMatrix type="matrix" values="0 0 0 0 0 0 0 0 0 0 0 0 0 0 0 0 0 0 0.25 0"/>
<feBlend mode="normal" in2="BackgroundImageFix" result="effect1_dropShadow_51_2856"/>
<feBlend mode="normal" in="SourceGraphic" in2="effect1_dropShadow_51_2856" result="shape"/>
</filter>
</defs>
</svg>
