<svg width="250" height="250" viewBox="0 0 250 250" fill="none" xmlns="http://www.w3.org/2000/svg">
<circle cx="125" cy="125" r="125" fill="#D0D5F7"/>
<path d="M101.389 119.507C101.389 119.067 101.32 118.677 101.184 118.335C101.057 117.993 100.827 117.681 100.495 117.397C100.163 117.114 99.6943 116.841 99.0889 116.577C98.4932 116.304 97.7314 116.025 96.8037 115.742C95.7881 115.43 94.8506 115.083 93.9912 114.702C93.1416 114.312 92.3994 113.862 91.7646 113.354C91.1299 112.837 90.6367 112.246 90.2852 111.582C89.9336 110.908 89.7578 110.132 89.7578 109.253C89.7578 108.384 89.9385 107.593 90.2998 106.88C90.6709 106.167 91.1934 105.552 91.8672 105.034C92.5508 104.507 93.3564 104.102 94.2842 103.818C95.2119 103.525 96.2373 103.379 97.3604 103.379C98.9424 103.379 100.305 103.672 101.447 104.258C102.6 104.844 103.483 105.63 104.099 106.616C104.724 107.603 105.036 108.691 105.036 109.883H101.389C101.389 109.18 101.237 108.56 100.935 108.022C100.642 107.476 100.192 107.046 99.5869 106.733C98.9912 106.421 98.2344 106.265 97.3164 106.265C96.4473 106.265 95.7246 106.396 95.1484 106.66C94.5723 106.924 94.1426 107.28 93.8594 107.729C93.5762 108.179 93.4346 108.687 93.4346 109.253C93.4346 109.653 93.5273 110.02 93.7129 110.352C93.8984 110.674 94.1816 110.977 94.5625 111.26C94.9434 111.533 95.4219 111.792 95.998 112.036C96.5742 112.28 97.2529 112.515 98.0342 112.739C99.2158 113.091 100.246 113.481 101.125 113.911C102.004 114.331 102.736 114.81 103.322 115.347C103.908 115.884 104.348 116.494 104.641 117.178C104.934 117.852 105.08 118.618 105.08 119.478C105.08 120.376 104.899 121.187 104.538 121.909C104.177 122.622 103.659 123.232 102.985 123.74C102.321 124.238 101.521 124.624 100.583 124.897C99.6553 125.161 98.6201 125.293 97.4775 125.293C96.4521 125.293 95.4414 125.156 94.4453 124.883C93.459 124.609 92.5605 124.194 91.75 123.638C90.9395 123.071 90.2949 122.368 89.8164 121.528C89.3379 120.679 89.0986 119.688 89.0986 118.555H92.7754C92.7754 119.248 92.8926 119.839 93.127 120.327C93.3711 120.815 93.708 121.216 94.1377 121.528C94.5674 121.831 95.0654 122.056 95.6318 122.202C96.208 122.349 96.8232 122.422 97.4775 122.422C98.3369 122.422 99.0547 122.3 99.6309 122.056C100.217 121.812 100.656 121.47 100.949 121.03C101.242 120.591 101.389 120.083 101.389 119.507ZM111.525 112.197V131.094H107.995V109.15H111.247L111.525 112.197ZM121.853 116.929V117.236C121.853 118.389 121.716 119.458 121.442 120.444C121.179 121.421 120.783 122.275 120.256 123.008C119.738 123.73 119.099 124.292 118.337 124.692C117.575 125.093 116.696 125.293 115.7 125.293C114.714 125.293 113.85 125.112 113.107 124.751C112.375 124.38 111.755 123.857 111.247 123.184C110.739 122.51 110.329 121.719 110.017 120.811C109.714 119.893 109.499 118.887 109.372 117.793V116.606C109.499 115.444 109.714 114.39 110.017 113.442C110.329 112.495 110.739 111.68 111.247 110.996C111.755 110.312 112.375 109.785 113.107 109.414C113.84 109.043 114.694 108.857 115.671 108.857C116.667 108.857 117.551 109.053 118.322 109.443C119.094 109.824 119.743 110.371 120.271 111.084C120.798 111.787 121.193 112.637 121.457 113.633C121.721 114.619 121.853 115.718 121.853 116.929ZM118.322 117.236V116.929C118.322 116.196 118.254 115.518 118.117 114.893C117.98 114.258 117.766 113.701 117.473 113.223C117.18 112.744 116.804 112.373 116.345 112.109C115.896 111.836 115.354 111.699 114.719 111.699C114.094 111.699 113.557 111.807 113.107 112.021C112.658 112.227 112.282 112.515 111.979 112.886C111.677 113.257 111.442 113.691 111.276 114.189C111.11 114.678 110.993 115.21 110.925 115.786V118.628C111.042 119.331 111.242 119.976 111.525 120.562C111.809 121.147 112.209 121.616 112.727 121.968C113.254 122.31 113.928 122.48 114.748 122.48C115.383 122.48 115.925 122.344 116.374 122.07C116.823 121.797 117.189 121.421 117.473 120.942C117.766 120.454 117.98 119.893 118.117 119.258C118.254 118.623 118.322 117.949 118.322 117.236ZM131.843 125.293C130.671 125.293 129.611 125.103 128.664 124.722C127.727 124.331 126.926 123.789 126.262 123.096C125.607 122.402 125.104 121.587 124.753 120.649C124.401 119.712 124.226 118.701 124.226 117.617V117.031C124.226 115.791 124.406 114.668 124.768 113.662C125.129 112.656 125.632 111.797 126.276 111.084C126.921 110.361 127.683 109.81 128.562 109.429C129.44 109.048 130.393 108.857 131.418 108.857C132.551 108.857 133.542 109.048 134.392 109.429C135.241 109.81 135.944 110.347 136.501 111.04C137.067 111.724 137.487 112.539 137.761 113.486C138.044 114.434 138.186 115.479 138.186 116.621V118.13H125.939V115.596H134.699V115.317C134.68 114.683 134.553 114.087 134.318 113.53C134.094 112.974 133.747 112.524 133.278 112.183C132.81 111.841 132.185 111.67 131.403 111.67C130.817 111.67 130.295 111.797 129.836 112.051C129.387 112.295 129.011 112.651 128.708 113.12C128.405 113.589 128.171 114.155 128.005 114.819C127.849 115.474 127.771 116.211 127.771 117.031V117.617C127.771 118.311 127.863 118.955 128.049 119.551C128.244 120.137 128.527 120.649 128.898 121.089C129.27 121.528 129.719 121.875 130.246 122.129C130.773 122.373 131.374 122.495 132.048 122.495C132.897 122.495 133.654 122.324 134.318 121.982C134.982 121.641 135.559 121.157 136.047 120.532L137.907 122.334C137.565 122.832 137.121 123.311 136.574 123.77C136.027 124.219 135.358 124.585 134.567 124.868C133.786 125.151 132.878 125.293 131.843 125.293ZM149.875 121.821V114.263C149.875 113.696 149.772 113.208 149.567 112.798C149.362 112.388 149.05 112.07 148.63 111.846C148.22 111.621 147.702 111.509 147.077 111.509C146.501 111.509 146.003 111.606 145.583 111.802C145.163 111.997 144.836 112.261 144.602 112.593C144.367 112.925 144.25 113.301 144.25 113.721H140.734C140.734 113.096 140.886 112.49 141.188 111.904C141.491 111.318 141.931 110.796 142.507 110.337C143.083 109.878 143.771 109.517 144.572 109.253C145.373 108.989 146.271 108.857 147.268 108.857C148.459 108.857 149.514 109.058 150.432 109.458C151.359 109.858 152.087 110.464 152.614 111.274C153.151 112.075 153.42 113.081 153.42 114.292V121.338C153.42 122.061 153.469 122.71 153.566 123.286C153.674 123.853 153.825 124.346 154.021 124.766V125H150.402C150.236 124.619 150.104 124.136 150.007 123.55C149.919 122.954 149.875 122.378 149.875 121.821ZM150.388 115.361L150.417 117.544H147.883C147.229 117.544 146.652 117.607 146.154 117.734C145.656 117.852 145.241 118.027 144.909 118.262C144.577 118.496 144.328 118.779 144.162 119.111C143.996 119.443 143.913 119.819 143.913 120.239C143.913 120.659 144.011 121.045 144.206 121.396C144.401 121.738 144.685 122.007 145.056 122.202C145.437 122.397 145.896 122.495 146.433 122.495C147.155 122.495 147.785 122.349 148.322 122.056C148.869 121.753 149.299 121.387 149.611 120.957C149.924 120.518 150.09 120.103 150.109 119.712L151.252 121.279C151.135 121.68 150.935 122.109 150.651 122.568C150.368 123.027 149.997 123.467 149.538 123.887C149.089 124.297 148.547 124.634 147.912 124.897C147.287 125.161 146.564 125.293 145.744 125.293C144.709 125.293 143.786 125.088 142.976 124.678C142.165 124.258 141.53 123.696 141.071 122.993C140.612 122.28 140.383 121.475 140.383 120.576C140.383 119.736 140.539 118.994 140.852 118.35C141.174 117.695 141.643 117.148 142.258 116.709C142.883 116.27 143.645 115.938 144.543 115.713C145.441 115.479 146.467 115.361 147.619 115.361H150.388ZM160.671 102.5V125H157.126V102.5H160.671ZM170.515 109.15L163.615 116.797L159.836 120.664L158.913 117.676L161.77 114.146L166.252 109.15H170.515ZM167.014 125L161.872 117.559L164.099 115.083L171.101 125H167.014ZM114.558 138.672V160H110.881L101.315 144.722V160H97.6387V138.672H101.315L110.91 153.979V138.672H114.558ZM117.912 152.251V151.914C117.912 150.771 118.078 149.712 118.41 148.735C118.742 147.749 119.221 146.895 119.846 146.172C120.48 145.439 121.252 144.873 122.16 144.473C123.078 144.062 124.113 143.857 125.266 143.857C126.428 143.857 127.463 144.062 128.371 144.473C129.289 144.873 130.065 145.439 130.7 146.172C131.335 146.895 131.818 147.749 132.15 148.735C132.482 149.712 132.648 150.771 132.648 151.914V152.251C132.648 153.394 132.482 154.453 132.15 155.43C131.818 156.406 131.335 157.261 130.7 157.993C130.065 158.716 129.294 159.282 128.386 159.692C127.478 160.093 126.447 160.293 125.295 160.293C124.133 160.293 123.093 160.093 122.175 159.692C121.267 159.282 120.495 158.716 119.86 157.993C119.226 157.261 118.742 156.406 118.41 155.43C118.078 154.453 117.912 153.394 117.912 152.251ZM121.442 151.914V152.251C121.442 152.964 121.516 153.638 121.662 154.272C121.809 154.907 122.038 155.464 122.351 155.942C122.663 156.421 123.063 156.797 123.552 157.07C124.04 157.344 124.621 157.48 125.295 157.48C125.949 157.48 126.516 157.344 126.994 157.07C127.482 156.797 127.883 156.421 128.195 155.942C128.508 155.464 128.737 154.907 128.884 154.272C129.04 153.638 129.118 152.964 129.118 152.251V151.914C129.118 151.211 129.04 150.547 128.884 149.922C128.737 149.287 128.503 148.726 128.181 148.237C127.868 147.749 127.468 147.368 126.979 147.095C126.501 146.812 125.93 146.67 125.266 146.67C124.602 146.67 124.025 146.812 123.537 147.095C123.059 147.368 122.663 147.749 122.351 148.237C122.038 148.726 121.809 149.287 121.662 149.922C121.516 150.547 121.442 151.211 121.442 151.914ZM139.914 156.484L143.576 144.15H145.832L145.217 147.842L141.525 160H139.504L139.914 156.484ZM137.761 144.15L140.617 156.543L140.852 160H138.596L134.304 144.15H137.761ZM149.26 156.396L152.028 144.15H155.471L151.193 160H148.938L149.26 156.396ZM146.213 144.15L149.831 156.338L150.285 160H148.264L144.528 147.827L143.913 144.15H146.213Z" fill="black"/>
</svg>
