<svg width="59" height="41" viewBox="0 0 59 41" fill="none" xmlns="http://www.w3.org/2000/svg">
<path d="M9.37207 12.1548C9.37207 11.8472 9.32422 11.5737 9.22852 11.3345C9.13965 11.0952 8.979 10.8765 8.74658 10.6782C8.51416 10.48 8.18604 10.2886 7.76221 10.104C7.34521 9.9126 6.81201 9.71777 6.1626 9.51953C5.45166 9.30078 4.79541 9.05811 4.19385 8.7915C3.59912 8.51807 3.07959 8.20361 2.63525 7.84814C2.19092 7.48584 1.8457 7.07227 1.59961 6.60742C1.35352 6.13574 1.23047 5.59229 1.23047 4.97705C1.23047 4.36865 1.35693 3.81494 1.60986 3.31592C1.86963 2.81689 2.23535 2.38623 2.70703 2.02393C3.18555 1.65479 3.74951 1.37109 4.39893 1.17285C5.04834 0.967773 5.76611 0.865234 6.55225 0.865234C7.65967 0.865234 8.61328 1.07031 9.41309 1.48047C10.2197 1.89062 10.8384 2.44092 11.269 3.13135C11.7065 3.82178 11.9253 4.58398 11.9253 5.41797H9.37207C9.37207 4.92578 9.26611 4.4917 9.0542 4.11572C8.84912 3.73291 8.53467 3.43213 8.11084 3.21338C7.69385 2.99463 7.16406 2.88525 6.52148 2.88525C5.91309 2.88525 5.40723 2.97754 5.00391 3.16211C4.60059 3.34668 4.2998 3.59619 4.10156 3.91064C3.90332 4.2251 3.8042 4.58057 3.8042 4.97705C3.8042 5.25732 3.86914 5.51367 3.99902 5.74609C4.12891 5.97168 4.32715 6.18359 4.59375 6.38184C4.86035 6.57324 5.19531 6.75439 5.59863 6.92529C6.00195 7.09619 6.47705 7.26025 7.02393 7.41748C7.85107 7.66357 8.57227 7.93701 9.1875 8.23779C9.80273 8.53174 10.3154 8.8667 10.7256 9.24268C11.1357 9.61865 11.4434 10.0459 11.6484 10.5244C11.8535 10.9961 11.9561 11.5327 11.9561 12.1343C11.9561 12.7632 11.8296 13.3306 11.5767 13.8364C11.3237 14.3354 10.9614 14.7627 10.4897 15.1182C10.0249 15.4668 9.46436 15.7368 8.80811 15.9282C8.15869 16.1128 7.43408 16.2051 6.63428 16.2051C5.9165 16.2051 5.20898 16.1094 4.51172 15.918C3.82129 15.7266 3.19238 15.436 2.625 15.0464C2.05762 14.6499 1.60645 14.1577 1.27148 13.5698C0.936523 12.9751 0.769043 12.2812 0.769043 11.4883H3.34277C3.34277 11.9736 3.4248 12.3872 3.58887 12.729C3.75977 13.0708 3.99561 13.3511 4.29639 13.5698C4.59717 13.7817 4.9458 13.939 5.34229 14.0415C5.74561 14.144 6.17627 14.1953 6.63428 14.1953C7.23584 14.1953 7.73828 14.1099 8.1416 13.939C8.55176 13.7681 8.85938 13.5288 9.06445 13.2212C9.26953 12.9136 9.37207 12.5581 9.37207 12.1548ZM16.4678 7.03809V20.2656H13.9966V4.90527H16.2729L16.4678 7.03809ZM23.6968 10.3501V10.5654C23.6968 11.3721 23.6011 12.1206 23.4097 12.811C23.2251 13.4946 22.9482 14.0928 22.5791 14.6055C22.2168 15.1113 21.769 15.5044 21.2358 15.7847C20.7026 16.0649 20.0874 16.2051 19.3901 16.2051C18.6997 16.2051 18.0947 16.0786 17.5752 15.8257C17.0625 15.5659 16.6284 15.2002 16.2729 14.7285C15.9175 14.2568 15.6304 13.7031 15.4116 13.0674C15.1997 12.4248 15.0493 11.7207 14.9604 10.9551V10.1245C15.0493 9.31104 15.1997 8.57275 15.4116 7.90967C15.6304 7.24658 15.9175 6.67578 16.2729 6.19727C16.6284 5.71875 17.0625 5.34961 17.5752 5.08984C18.0879 4.83008 18.686 4.7002 19.3696 4.7002C20.0669 4.7002 20.6855 4.83691 21.2256 5.11035C21.7656 5.37695 22.2202 5.75977 22.5894 6.25879C22.9585 6.75098 23.2354 7.3457 23.4199 8.04297C23.6045 8.7334 23.6968 9.50244 23.6968 10.3501ZM21.2256 10.5654V10.3501C21.2256 9.8374 21.1777 9.3623 21.082 8.9248C20.9863 8.48047 20.8359 8.09082 20.6309 7.75586C20.4258 7.4209 20.1626 7.16113 19.8413 6.97656C19.5269 6.78516 19.1475 6.68945 18.7031 6.68945C18.2656 6.68945 17.8896 6.76465 17.5752 6.91504C17.2607 7.05859 16.9976 7.26025 16.7856 7.52002C16.5737 7.77979 16.4097 8.08398 16.2935 8.43262C16.1772 8.77441 16.0952 9.14697 16.0474 9.55029V11.5396C16.1294 12.0317 16.2695 12.4829 16.4678 12.8931C16.666 13.3032 16.9463 13.6313 17.3086 13.8774C17.6777 14.1167 18.1494 14.2363 18.7236 14.2363C19.168 14.2363 19.5474 14.1406 19.8618 13.9492C20.1763 13.7578 20.4326 13.4946 20.6309 13.1597C20.8359 12.8179 20.9863 12.4248 21.082 11.9805C21.1777 11.5361 21.2256 11.0645 21.2256 10.5654ZM30.6899 16.2051C29.8696 16.2051 29.1279 16.0718 28.4648 15.8052C27.8086 15.5317 27.248 15.1523 26.7832 14.667C26.3252 14.1816 25.9731 13.6108 25.7271 12.9546C25.481 12.2983 25.3579 11.5908 25.3579 10.832V10.4219C25.3579 9.55371 25.4844 8.76758 25.7373 8.06348C25.9902 7.35938 26.3423 6.75781 26.7935 6.25879C27.2446 5.75293 27.7778 5.3667 28.3931 5.1001C29.0083 4.8335 29.6748 4.7002 30.3926 4.7002C31.1855 4.7002 31.8794 4.8335 32.4741 5.1001C33.0688 5.3667 33.561 5.74268 33.9507 6.22803C34.3472 6.70654 34.6411 7.27734 34.8325 7.94043C35.0308 8.60352 35.1299 9.33496 35.1299 10.1348V11.1909H26.5576V9.41699H32.6895V9.22217C32.6758 8.77783 32.5869 8.36084 32.4229 7.97119C32.2656 7.58154 32.0229 7.26709 31.6948 7.02783C31.3667 6.78857 30.9292 6.66895 30.3823 6.66895C29.9722 6.66895 29.6064 6.75781 29.2852 6.93555C28.9707 7.10645 28.7075 7.35596 28.4956 7.68408C28.2837 8.01221 28.1196 8.40869 28.0034 8.87354C27.894 9.33154 27.8394 9.84766 27.8394 10.4219V10.832C27.8394 11.3174 27.9043 11.7686 28.0342 12.1855C28.1709 12.5957 28.3691 12.9546 28.6289 13.2622C28.8887 13.5698 29.2031 13.8125 29.5723 13.9902C29.9414 14.1611 30.3618 14.2466 30.8335 14.2466C31.4282 14.2466 31.958 14.127 32.4229 13.8877C32.8877 13.6484 33.291 13.3101 33.6328 12.8726L34.9351 14.1338C34.6958 14.4824 34.3848 14.8174 34.002 15.1387C33.6191 15.4531 33.1509 15.7095 32.5972 15.9077C32.0503 16.106 31.4146 16.2051 30.6899 16.2051ZM43.3125 13.7749V8.48389C43.3125 8.0874 43.2407 7.74561 43.0972 7.4585C42.9536 7.17139 42.7349 6.94922 42.4409 6.79199C42.1538 6.63477 41.7915 6.55615 41.354 6.55615C40.9507 6.55615 40.6021 6.62451 40.3081 6.76123C40.0142 6.89795 39.7852 7.08252 39.6211 7.31494C39.457 7.54736 39.375 7.81055 39.375 8.10449H36.9141C36.9141 7.66699 37.02 7.24316 37.2319 6.83301C37.4438 6.42285 37.7515 6.05713 38.1548 5.73584C38.5581 5.41455 39.04 5.16162 39.6006 4.97705C40.1611 4.79248 40.79 4.7002 41.4873 4.7002C42.3213 4.7002 43.0596 4.84033 43.7021 5.12061C44.3516 5.40088 44.8608 5.82471 45.23 6.39209C45.606 6.95264 45.7939 7.65674 45.7939 8.50439V13.4365C45.7939 13.9424 45.8281 14.397 45.8965 14.8003C45.9717 15.1968 46.0776 15.542 46.2144 15.8359V16H43.6816C43.5654 15.7334 43.4731 15.395 43.4048 14.9849C43.3433 14.5679 43.3125 14.1646 43.3125 13.7749ZM43.6714 9.25293L43.6919 10.7808H41.918C41.46 10.7808 41.0566 10.8252 40.708 10.9141C40.3594 10.9961 40.0688 11.1191 39.8364 11.2832C39.604 11.4473 39.4297 11.6455 39.3135 11.8779C39.1973 12.1104 39.1392 12.3735 39.1392 12.6675C39.1392 12.9614 39.2075 13.2314 39.3442 13.4775C39.481 13.7168 39.6792 13.9048 39.939 14.0415C40.2056 14.1782 40.5269 14.2466 40.9028 14.2466C41.4087 14.2466 41.8496 14.144 42.2256 13.939C42.6084 13.7271 42.9092 13.4707 43.1279 13.1699C43.3467 12.8623 43.4629 12.5718 43.4766 12.2983L44.2764 13.3955C44.1943 13.6758 44.0542 13.9766 43.856 14.2979C43.6577 14.6191 43.3979 14.9268 43.0767 15.2207C42.7622 15.5078 42.3828 15.7437 41.9385 15.9282C41.501 16.1128 40.9951 16.2051 40.4209 16.2051C39.6963 16.2051 39.0503 16.0615 38.4829 15.7744C37.9155 15.4805 37.4712 15.0874 37.1499 14.5952C36.8286 14.0962 36.668 13.5322 36.668 12.9033C36.668 12.3154 36.7773 11.7959 36.9961 11.3447C37.2217 10.8867 37.5498 10.5039 37.9805 10.1963C38.418 9.88867 38.9512 9.65625 39.5801 9.49902C40.209 9.33496 40.9268 9.25293 41.7334 9.25293H43.6714ZM50.8696 0.25V16H48.3882V0.25H50.8696ZM57.7603 4.90527L52.9307 10.2578L50.2852 12.9648L49.6392 10.873L51.6387 8.40186L54.7764 4.90527H57.7603ZM55.3096 16L51.7104 10.791L53.269 9.05811L58.1704 16H55.3096ZM25.1836 26.0703V41H22.6099V26.0703H25.1836ZM30.5874 32.2739V41H28.1162V29.9053H30.4438L30.5874 32.2739ZM30.1465 35.0425L29.3467 35.0322C29.3535 34.2461 29.4629 33.5249 29.6748 32.8687C29.8936 32.2124 30.1943 31.6484 30.5771 31.1768C30.9668 30.7051 31.4316 30.3428 31.9717 30.0898C32.5117 29.8301 33.1133 29.7002 33.7764 29.7002C34.3096 29.7002 34.7915 29.7754 35.2222 29.9258C35.6597 30.0693 36.0322 30.3052 36.3398 30.6333C36.6543 30.9614 36.8936 31.3887 37.0576 31.915C37.2217 32.4346 37.3037 33.0737 37.3037 33.8325V41H34.8223V33.8223C34.8223 33.2891 34.7437 32.8687 34.5864 32.561C34.436 32.2466 34.2139 32.0244 33.9199 31.8945C33.6328 31.7578 33.2739 31.6895 32.8433 31.6895C32.4194 31.6895 32.04 31.7783 31.7051 31.9561C31.3701 32.1338 31.0864 32.3765 30.854 32.6841C30.6284 32.9917 30.4541 33.3472 30.3311 33.7505C30.208 34.1538 30.1465 34.5845 30.1465 35.0425Z" fill="black"/>
</svg>
