<svg width="217" height="96" viewBox="0 0 217 96" fill="none" xmlns="http://www.w3.org/2000/svg">
<g filter="url(#filter0_d_1_1084)">
<path d="M4 0L14 25H213V96H4V0Z" fill="#FF3838" fill-opacity="0.3" shape-rendering="crispEdges"/>
</g>
<path d="M16.7998 52.5757V52.3398C16.7998 51.54 16.916 50.7983 17.1484 50.1147C17.3809 49.4243 17.7158 48.8262 18.1533 48.3203C18.5977 47.8076 19.1377 47.4111 19.7734 47.1309C20.416 46.8438 21.1406 46.7002 21.9473 46.7002C22.7607 46.7002 23.4854 46.8438 24.1211 47.1309C24.7637 47.4111 25.3071 47.8076 25.7515 48.3203C26.1958 48.8262 26.5342 49.4243 26.7666 50.1147C26.999 50.7983 27.1152 51.54 27.1152 52.3398V52.5757C27.1152 53.3755 26.999 54.1172 26.7666 54.8008C26.5342 55.4844 26.1958 56.0825 25.7515 56.5952C25.3071 57.1011 24.7671 57.4976 24.1313 57.7847C23.4956 58.0649 22.7744 58.2051 21.9678 58.2051C21.1543 58.2051 20.4263 58.0649 19.7837 57.7847C19.1479 57.4976 18.6079 57.1011 18.1636 56.5952C17.7192 56.0825 17.3809 55.4844 17.1484 54.8008C16.916 54.1172 16.7998 53.3755 16.7998 52.5757ZM19.271 52.3398V52.5757C19.271 53.0747 19.3223 53.5464 19.4248 53.9907C19.5273 54.4351 19.688 54.8247 19.9067 55.1597C20.1255 55.4946 20.4058 55.7578 20.7476 55.9492C21.0894 56.1406 21.4961 56.2363 21.9678 56.2363C22.4258 56.2363 22.8223 56.1406 23.1572 55.9492C23.499 55.7578 23.7793 55.4946 23.998 55.1597C24.2168 54.8247 24.3774 54.4351 24.48 53.9907C24.5894 53.5464 24.644 53.0747 24.644 52.5757V52.3398C24.644 51.8477 24.5894 51.3828 24.48 50.9453C24.3774 50.501 24.2134 50.1079 23.9878 49.7661C23.769 49.4243 23.4888 49.1577 23.147 48.9663C22.812 48.7681 22.4121 48.6689 21.9473 48.6689C21.4824 48.6689 21.0791 48.7681 20.7373 48.9663C20.4023 49.1577 20.1255 49.4243 19.9067 49.7661C19.688 50.1079 19.5273 50.501 19.4248 50.9453C19.3223 51.3828 19.271 51.8477 19.271 52.3398ZM32.5293 58H30.0581V45.8389C30.0581 45.0117 30.2119 44.3179 30.5195 43.7573C30.834 43.1899 31.2817 42.7627 31.8628 42.4756C32.4438 42.1816 33.1309 42.0347 33.9238 42.0347C34.1699 42.0347 34.4126 42.0518 34.6519 42.0859C34.8911 42.1133 35.1235 42.1577 35.3491 42.2192L35.2876 44.1265C35.1509 44.0923 35.0005 44.0684 34.8364 44.0547C34.6792 44.041 34.5083 44.0342 34.3237 44.0342C33.9478 44.0342 33.623 44.106 33.3496 44.2495C33.083 44.3862 32.8779 44.5879 32.7344 44.8545C32.5977 45.1211 32.5293 45.4492 32.5293 45.8389V58ZM34.8159 46.9053V48.71H28.356V46.9053H34.8159ZM46.9258 46.9053V48.71H40.6709V46.9053H46.9258ZM42.4756 44.188H44.9468V54.9341C44.9468 55.2759 44.9946 55.5391 45.0903 55.7236C45.1929 55.9014 45.333 56.021 45.5107 56.0825C45.6885 56.144 45.897 56.1748 46.1362 56.1748C46.3071 56.1748 46.4712 56.1646 46.6284 56.144C46.7856 56.1235 46.9121 56.103 47.0078 56.0825L47.0181 57.9692C46.813 58.0308 46.5737 58.0854 46.3003 58.1333C46.0337 58.1812 45.7261 58.2051 45.3774 58.2051C44.8101 58.2051 44.3076 58.106 43.8701 57.9077C43.4326 57.7026 43.0908 57.3711 42.8447 56.9131C42.5986 56.4551 42.4756 55.8467 42.4756 55.0879V44.188ZM51.2734 42.25V58H48.8125V42.25H51.2734ZM50.8428 52.0425L50.043 52.0322C50.0498 51.2666 50.1558 50.5591 50.3608 49.9097C50.5728 49.2603 50.8667 48.6963 51.2427 48.2178C51.6255 47.7324 52.0835 47.3599 52.6167 47.1001C53.1499 46.8335 53.7412 46.7002 54.3906 46.7002C54.9375 46.7002 55.4297 46.7754 55.8672 46.9258C56.3115 47.0762 56.6943 47.3188 57.0156 47.6538C57.3369 47.9819 57.5796 48.4126 57.7437 48.9458C57.9146 49.4722 58 50.1147 58 50.8735V58H55.5186V50.853C55.5186 50.3198 55.4399 49.896 55.2827 49.5815C55.1323 49.2671 54.9102 49.0415 54.6162 48.9048C54.3223 48.7612 53.9634 48.6895 53.5396 48.6895C53.0952 48.6895 52.7021 48.7783 52.3604 48.9561C52.0254 49.1338 51.7451 49.3765 51.5195 49.6841C51.2939 49.9917 51.123 50.3472 51.0068 50.7505C50.8975 51.1538 50.8428 51.5845 50.8428 52.0425ZM65.3931 58.2051C64.5728 58.2051 63.8311 58.0718 63.168 57.8052C62.5117 57.5317 61.9512 57.1523 61.4863 56.667C61.0283 56.1816 60.6763 55.6108 60.4302 54.9546C60.1841 54.2983 60.061 53.5908 60.061 52.832V52.4219C60.061 51.5537 60.1875 50.7676 60.4404 50.0635C60.6934 49.3594 61.0454 48.7578 61.4966 48.2588C61.9478 47.7529 62.481 47.3667 63.0962 47.1001C63.7114 46.8335 64.3779 46.7002 65.0957 46.7002C65.8887 46.7002 66.5825 46.8335 67.1772 47.1001C67.772 47.3667 68.2642 47.7427 68.6538 48.228C69.0503 48.7065 69.3442 49.2773 69.5356 49.9404C69.7339 50.6035 69.833 51.335 69.833 52.1348V53.1909H61.2607V51.417H67.3926V51.2222C67.3789 50.7778 67.29 50.3608 67.126 49.9712C66.9688 49.5815 66.7261 49.2671 66.3979 49.0278C66.0698 48.7886 65.6323 48.6689 65.0854 48.6689C64.6753 48.6689 64.3096 48.7578 63.9883 48.9355C63.6738 49.1064 63.4106 49.356 63.1987 49.6841C62.9868 50.0122 62.8228 50.4087 62.7065 50.8735C62.5972 51.3315 62.5425 51.8477 62.5425 52.4219V52.832C62.5425 53.3174 62.6074 53.7686 62.7373 54.1855C62.874 54.5957 63.0723 54.9546 63.332 55.2622C63.5918 55.5698 63.9062 55.8125 64.2754 55.9902C64.6445 56.1611 65.0649 56.2466 65.5366 56.2466C66.1313 56.2466 66.6611 56.127 67.126 55.8877C67.5908 55.6484 67.9941 55.3101 68.3359 54.8726L69.6382 56.1338C69.3989 56.4824 69.0879 56.8174 68.7051 57.1387C68.3223 57.4531 67.854 57.7095 67.3003 57.9077C66.7534 58.106 66.1177 58.2051 65.3931 58.2051ZM77.0005 42.25H79.4717V55.6313L79.2358 58H77.0005V42.25ZM86.7109 52.3501V52.5654C86.7109 53.3857 86.6187 54.1411 86.4341 54.8315C86.2563 55.5151 85.9829 56.1099 85.6138 56.6157C85.2515 57.1216 84.8003 57.5146 84.2603 57.7949C83.7271 58.0684 83.1084 58.2051 82.4043 58.2051C81.7139 58.2051 81.1123 58.0752 80.5996 57.8154C80.0869 57.5557 79.6562 57.1865 79.3076 56.708C78.9658 56.2295 78.689 55.6587 78.4771 54.9956C78.2651 54.3325 78.1147 53.6011 78.0259 52.8013V52.1143C78.1147 51.3076 78.2651 50.5762 78.4771 49.9199C78.689 49.2568 78.9658 48.686 79.3076 48.2075C79.6562 47.7222 80.0835 47.3496 80.5894 47.0898C81.1021 46.8301 81.7002 46.7002 82.3838 46.7002C83.0947 46.7002 83.7202 46.8369 84.2603 47.1104C84.8071 47.3838 85.2617 47.7734 85.624 48.2793C85.9863 48.7783 86.2563 49.373 86.4341 50.0635C86.6187 50.7539 86.7109 51.5161 86.7109 52.3501ZM84.2397 52.5654V52.3501C84.2397 51.8511 84.1987 51.3828 84.1167 50.9453C84.0347 50.501 83.8979 50.1113 83.7065 49.7764C83.522 49.4414 83.269 49.1782 82.9478 48.9868C82.6333 48.7886 82.2402 48.6895 81.7686 48.6895C81.3311 48.6895 80.9551 48.7646 80.6406 48.915C80.3262 49.0654 80.063 49.2705 79.8511 49.5303C79.6392 49.79 79.4717 50.0908 79.3486 50.4326C79.2324 50.7744 79.1538 51.1436 79.1128 51.54V53.396C79.1743 53.9087 79.3042 54.3804 79.5024 54.811C79.7075 55.2349 79.9946 55.5767 80.3638 55.8364C80.7329 56.0894 81.208 56.2158 81.7891 56.2158C82.2471 56.2158 82.6333 56.1235 82.9478 55.939C83.2622 55.7544 83.5117 55.498 83.6963 55.1699C83.8877 54.835 84.0244 54.4453 84.1064 54.001C84.1953 53.5566 84.2397 53.0781 84.2397 52.5654ZM93.6938 58.2051C92.8735 58.2051 92.1318 58.0718 91.4688 57.8052C90.8125 57.5317 90.252 57.1523 89.7871 56.667C89.3291 56.1816 88.9771 55.6108 88.731 54.9546C88.4849 54.2983 88.3618 53.5908 88.3618 52.832V52.4219C88.3618 51.5537 88.4883 50.7676 88.7412 50.0635C88.9941 49.3594 89.3462 48.7578 89.7974 48.2588C90.2485 47.7529 90.7817 47.3667 91.397 47.1001C92.0122 46.8335 92.6787 46.7002 93.3965 46.7002C94.1895 46.7002 94.8833 46.8335 95.478 47.1001C96.0728 47.3667 96.5649 47.7427 96.9546 48.228C97.3511 48.7065 97.645 49.2773 97.8364 49.9404C98.0347 50.6035 98.1338 51.335 98.1338 52.1348V53.1909H89.5615V51.417H95.6934V51.2222C95.6797 50.7778 95.5908 50.3608 95.4268 49.9712C95.2695 49.5815 95.0269 49.2671 94.6987 49.0278C94.3706 48.7886 93.9331 48.6689 93.3862 48.6689C92.9761 48.6689 92.6104 48.7578 92.2891 48.9355C91.9746 49.1064 91.7114 49.356 91.4995 49.6841C91.2876 50.0122 91.1235 50.4087 91.0073 50.8735C90.8979 51.3315 90.8433 51.8477 90.8433 52.4219V52.832C90.8433 53.3174 90.9082 53.7686 91.0381 54.1855C91.1748 54.5957 91.373 54.9546 91.6328 55.2622C91.8926 55.5698 92.207 55.8125 92.5762 55.9902C92.9453 56.1611 93.3657 56.2466 93.8374 56.2466C94.4321 56.2466 94.9619 56.127 95.4268 55.8877C95.8916 55.6484 96.2949 55.3101 96.6367 54.8726L97.939 56.1338C97.6997 56.4824 97.3887 56.8174 97.0059 57.1387C96.623 57.4531 96.1548 57.7095 95.6011 57.9077C95.0542 58.106 94.4185 58.2051 93.6938 58.2051ZM106.286 54.9956C106.286 54.7495 106.224 54.5273 106.101 54.3291C105.978 54.124 105.742 53.9395 105.394 53.7754C105.052 53.6113 104.546 53.4609 103.876 53.3242C103.288 53.1943 102.748 53.0405 102.256 52.8628C101.771 52.6782 101.354 52.4561 101.005 52.1963C100.656 51.9365 100.386 51.6289 100.195 51.2734C100.003 50.918 99.9077 50.5078 99.9077 50.043C99.9077 49.5918 100.007 49.1646 100.205 48.7612C100.403 48.3579 100.687 48.0024 101.056 47.6948C101.425 47.3872 101.873 47.1445 102.399 46.9668C102.933 46.7891 103.527 46.7002 104.184 46.7002C105.113 46.7002 105.91 46.8574 106.573 47.1719C107.243 47.4795 107.755 47.8999 108.111 48.4331C108.466 48.9595 108.644 49.5542 108.644 50.2173H106.173C106.173 49.9233 106.098 49.6499 105.947 49.397C105.804 49.1372 105.585 48.9287 105.291 48.7715C104.997 48.6074 104.628 48.5254 104.184 48.5254C103.76 48.5254 103.408 48.5938 103.127 48.7305C102.854 48.8604 102.649 49.0312 102.512 49.2432C102.382 49.4551 102.317 49.6875 102.317 49.9404C102.317 50.125 102.352 50.2925 102.42 50.4429C102.495 50.5864 102.618 50.7197 102.789 50.8428C102.96 50.959 103.192 51.0684 103.486 51.1709C103.787 51.2734 104.163 51.3726 104.614 51.4683C105.462 51.646 106.19 51.875 106.798 52.1553C107.414 52.4287 107.885 52.7842 108.213 53.2217C108.542 53.6523 108.706 54.1992 108.706 54.8623C108.706 55.3545 108.6 55.8057 108.388 56.2158C108.183 56.6191 107.882 56.9712 107.485 57.272C107.089 57.5659 106.614 57.7949 106.06 57.959C105.513 58.123 104.898 58.2051 104.214 58.2051C103.209 58.2051 102.358 58.0273 101.661 57.6719C100.964 57.3096 100.434 56.8481 100.072 56.2876C99.7163 55.7202 99.5386 55.1323 99.5386 54.5239H101.928C101.955 54.9819 102.082 55.3477 102.307 55.6211C102.54 55.8877 102.827 56.0825 103.168 56.2056C103.517 56.3218 103.876 56.3799 104.245 56.3799C104.689 56.3799 105.062 56.3218 105.363 56.2056C105.664 56.0825 105.893 55.9185 106.05 55.7134C106.207 55.5015 106.286 55.2622 106.286 54.9956ZM115.955 46.9053V48.71H109.7V46.9053H115.955ZM111.505 44.188H113.976V54.9341C113.976 55.2759 114.024 55.5391 114.12 55.7236C114.222 55.9014 114.362 56.021 114.54 56.0825C114.718 56.144 114.926 56.1748 115.166 56.1748C115.336 56.1748 115.5 56.1646 115.658 56.144C115.815 56.1235 115.941 56.103 116.037 56.0825L116.047 57.9692C115.842 58.0308 115.603 58.0854 115.33 58.1333C115.063 58.1812 114.755 58.2051 114.407 58.2051C113.839 58.2051 113.337 58.106 112.899 57.9077C112.462 57.7026 112.12 57.3711 111.874 56.9131C111.628 56.4551 111.505 55.8467 111.505 55.0879V44.188ZM129.849 62.2656V49.1099L130.136 46.9053H132.341V62.2656H129.849ZM122.641 52.5654V52.3501C122.641 51.5093 122.736 50.7437 122.928 50.0532C123.119 49.356 123.403 48.7578 123.779 48.2588C124.155 47.7598 124.613 47.377 125.153 47.1104C125.693 46.8369 126.315 46.7002 127.019 46.7002C127.703 46.7002 128.297 46.8301 128.803 47.0898C129.316 47.3496 129.747 47.7222 130.095 48.2075C130.451 48.686 130.734 49.2568 130.946 49.9199C131.158 50.583 131.312 51.3213 131.408 52.1348V52.8218C131.319 53.6147 131.168 54.3394 130.957 54.9956C130.745 55.6519 130.461 56.2192 130.105 56.6978C129.75 57.1763 129.316 57.5488 128.803 57.8154C128.291 58.0752 127.689 58.2051 126.999 58.2051C126.308 58.2051 125.693 58.0649 125.153 57.7847C124.613 57.5044 124.155 57.1113 123.779 56.6055C123.41 56.0928 123.126 55.4946 122.928 54.811C122.736 54.1206 122.641 53.3721 122.641 52.5654ZM125.112 52.3501V52.5654C125.112 53.0713 125.156 53.5464 125.245 53.9907C125.341 54.4282 125.491 54.8179 125.696 55.1597C125.901 55.4946 126.161 55.7578 126.476 55.9492C126.79 56.1406 127.169 56.2363 127.614 56.2363C128.195 56.2363 128.67 56.1099 129.039 55.8569C129.415 55.604 129.702 55.2656 129.9 54.8418C130.105 54.4111 130.249 53.936 130.331 53.4165V51.5605C130.283 51.1572 130.198 50.7812 130.075 50.4326C129.952 50.0771 129.781 49.7695 129.562 49.5098C129.35 49.2432 129.083 49.0381 128.762 48.8945C128.448 48.7441 128.072 48.6689 127.634 48.6689C127.19 48.6689 126.807 48.7646 126.486 48.9561C126.165 49.1475 125.901 49.4141 125.696 49.7559C125.498 50.0908 125.351 50.4805 125.255 50.9248C125.16 51.3691 125.112 51.8442 125.112 52.3501ZM141.662 55.3853V46.9053H144.143V58H141.805L141.662 55.3853ZM142.01 53.0781L142.841 53.0576C142.841 53.8027 142.759 54.4897 142.595 55.1187C142.431 55.7407 142.178 56.2842 141.836 56.749C141.494 57.207 141.057 57.5659 140.523 57.8257C139.99 58.0786 139.351 58.2051 138.606 58.2051C138.066 58.2051 137.57 58.1265 137.119 57.9692C136.668 57.812 136.278 57.5693 135.95 57.2412C135.629 56.9131 135.379 56.4858 135.202 55.9595C135.024 55.4331 134.935 54.8042 134.935 54.0728V46.9053H137.406V54.0933C137.406 54.4966 137.454 54.835 137.55 55.1084C137.646 55.375 137.775 55.5903 137.939 55.7544C138.104 55.9185 138.295 56.0347 138.514 56.103C138.732 56.1714 138.965 56.2056 139.211 56.2056C139.915 56.2056 140.469 56.0688 140.872 55.7954C141.282 55.5151 141.573 55.1392 141.744 54.6675C141.921 54.1958 142.01 53.666 142.01 53.0781ZM152.931 55.7749V50.4839C152.931 50.0874 152.859 49.7456 152.715 49.4585C152.572 49.1714 152.353 48.9492 152.059 48.792C151.772 48.6348 151.41 48.5562 150.972 48.5562C150.569 48.5562 150.22 48.6245 149.926 48.7612C149.632 48.8979 149.403 49.0825 149.239 49.3149C149.075 49.5474 148.993 49.8105 148.993 50.1045H146.532C146.532 49.667 146.638 49.2432 146.85 48.833C147.062 48.4229 147.37 48.0571 147.773 47.7358C148.176 47.4146 148.658 47.1616 149.219 46.9771C149.779 46.7925 150.408 46.7002 151.105 46.7002C151.939 46.7002 152.678 46.8403 153.32 47.1206C153.97 47.4009 154.479 47.8247 154.848 48.3921C155.224 48.9526 155.412 49.6567 155.412 50.5044V55.4365C155.412 55.9424 155.446 56.397 155.515 56.8003C155.59 57.1968 155.696 57.542 155.833 57.8359V58H153.3C153.184 57.7334 153.091 57.395 153.023 56.9849C152.961 56.5679 152.931 56.1646 152.931 55.7749ZM153.29 51.2529L153.31 52.7808H151.536C151.078 52.7808 150.675 52.8252 150.326 52.9141C149.978 52.9961 149.687 53.1191 149.455 53.2832C149.222 53.4473 149.048 53.6455 148.932 53.8779C148.815 54.1104 148.757 54.3735 148.757 54.6675C148.757 54.9614 148.826 55.2314 148.962 55.4775C149.099 55.7168 149.297 55.9048 149.557 56.0415C149.824 56.1782 150.145 56.2466 150.521 56.2466C151.027 56.2466 151.468 56.144 151.844 55.939C152.227 55.7271 152.527 55.4707 152.746 55.1699C152.965 54.8623 153.081 54.5718 153.095 54.2983L153.895 55.3955C153.812 55.6758 153.672 55.9766 153.474 56.2979C153.276 56.6191 153.016 56.9268 152.695 57.2207C152.38 57.5078 152.001 57.7437 151.557 57.9282C151.119 58.1128 150.613 58.2051 150.039 58.2051C149.314 58.2051 148.668 58.0615 148.101 57.7744C147.534 57.4805 147.089 57.0874 146.768 56.5952C146.447 56.0962 146.286 55.5322 146.286 54.9033C146.286 54.3154 146.396 53.7959 146.614 53.3447C146.84 52.8867 147.168 52.5039 147.599 52.1963C148.036 51.8887 148.569 51.6562 149.198 51.499C149.827 51.335 150.545 51.2529 151.352 51.2529H153.29ZM160.642 42.25V58H158.16V42.25H160.642ZM165.994 46.9053V58H163.513V46.9053H165.994ZM163.349 43.9932C163.349 43.6172 163.472 43.3062 163.718 43.0601C163.971 42.8071 164.319 42.6807 164.764 42.6807C165.201 42.6807 165.546 42.8071 165.799 43.0601C166.052 43.3062 166.179 43.6172 166.179 43.9932C166.179 44.3623 166.052 44.6699 165.799 44.916C165.546 45.1621 165.201 45.2852 164.764 45.2852C164.319 45.2852 163.971 45.1621 163.718 44.916C163.472 44.6699 163.349 44.3623 163.349 43.9932ZM173.787 46.9053V48.71H167.532V46.9053H173.787ZM169.337 44.188H171.808V54.9341C171.808 55.2759 171.856 55.5391 171.952 55.7236C172.054 55.9014 172.194 56.021 172.372 56.0825C172.55 56.144 172.758 56.1748 172.998 56.1748C173.168 56.1748 173.333 56.1646 173.49 56.144C173.647 56.1235 173.773 56.103 173.869 56.0825L173.879 57.9692C173.674 58.0308 173.435 58.0854 173.162 58.1333C172.895 58.1812 172.587 58.2051 172.239 58.2051C171.671 58.2051 171.169 58.106 170.731 57.9077C170.294 57.7026 169.952 57.3711 169.706 56.9131C169.46 56.4551 169.337 55.8467 169.337 55.0879V44.188ZM178.914 56.79L181.929 46.9053H184.574L180.124 59.6919C180.021 59.9653 179.888 60.2627 179.724 60.584C179.56 60.9053 179.345 61.2095 179.078 61.4966C178.818 61.7905 178.494 62.0264 178.104 62.2041C177.714 62.3887 177.243 62.481 176.689 62.481C176.47 62.481 176.258 62.4604 176.053 62.4194C175.855 62.3853 175.667 62.3477 175.489 62.3066L175.479 60.4199C175.547 60.4268 175.629 60.4336 175.725 60.4404C175.828 60.4473 175.91 60.4507 175.971 60.4507C176.381 60.4507 176.723 60.3994 176.997 60.2969C177.27 60.2012 177.492 60.0439 177.663 59.8252C177.841 59.6064 177.991 59.3125 178.114 58.9434L178.914 56.79ZM177.212 46.9053L179.847 55.2109L180.288 57.8154L178.576 58.2563L174.546 46.9053H177.212ZM192.48 43.0703L186.666 59.2817H184.728L190.552 43.0703H192.48ZM19.917 71.9053V83H17.4355V71.9053H19.917ZM17.2715 68.9932C17.2715 68.6172 17.3945 68.3062 17.6406 68.0601C17.8936 67.8071 18.2422 67.6807 18.6865 67.6807C19.124 67.6807 19.4692 67.8071 19.7222 68.0601C19.9751 68.3062 20.1016 68.6172 20.1016 68.9932C20.1016 69.3623 19.9751 69.6699 19.7222 69.916C19.4692 70.1621 19.124 70.2852 18.6865 70.2852C18.2422 70.2852 17.8936 70.1621 17.6406 69.916C17.3945 69.6699 17.2715 69.3623 17.2715 68.9932ZM25.0747 74.2739V83H22.6035V71.9053H24.9312L25.0747 74.2739ZM24.6338 77.0425L23.834 77.0322C23.8408 76.2461 23.9502 75.5249 24.1621 74.8687C24.3809 74.2124 24.6816 73.6484 25.0645 73.1768C25.4541 72.7051 25.9189 72.3428 26.459 72.0898C26.999 71.8301 27.6006 71.7002 28.2637 71.7002C28.7969 71.7002 29.2788 71.7754 29.7095 71.9258C30.147 72.0693 30.5195 72.3052 30.8271 72.6333C31.1416 72.9614 31.3809 73.3887 31.5449 73.915C31.709 74.4346 31.791 75.0737 31.791 75.8325V83H29.3096V75.8223C29.3096 75.2891 29.231 74.8687 29.0737 74.561C28.9233 74.2466 28.7012 74.0244 28.4072 73.8945C28.1201 73.7578 27.7612 73.6895 27.3306 73.6895C26.9067 73.6895 26.5273 73.7783 26.1924 73.9561C25.8574 74.1338 25.5737 74.3765 25.3413 74.6841C25.1157 74.9917 24.9414 75.3472 24.8184 75.7505C24.6953 76.1538 24.6338 76.5845 24.6338 77.0425ZM44.6289 71.9053V73.71H38.374V71.9053H44.6289ZM40.1787 69.188H42.6499V79.9341C42.6499 80.2759 42.6978 80.5391 42.7935 80.7236C42.896 80.9014 43.0361 81.021 43.2139 81.0825C43.3916 81.144 43.6001 81.1748 43.8394 81.1748C44.0103 81.1748 44.1743 81.1646 44.3315 81.144C44.4888 81.1235 44.6152 81.103 44.7109 81.0825L44.7212 82.9692C44.5161 83.0308 44.2769 83.0854 44.0034 83.1333C43.7368 83.1812 43.4292 83.2051 43.0806 83.2051C42.5132 83.2051 42.0107 83.106 41.5732 82.9077C41.1357 82.7026 40.7939 82.3711 40.5479 81.9131C40.3018 81.4551 40.1787 80.8467 40.1787 80.0879V69.188ZM48.9766 67.25V83H46.5156V67.25H48.9766ZM48.5459 77.0425L47.7461 77.0322C47.7529 76.2666 47.8589 75.5591 48.064 74.9097C48.2759 74.2603 48.5698 73.6963 48.9458 73.2178C49.3286 72.7324 49.7866 72.3599 50.3198 72.1001C50.853 71.8335 51.4443 71.7002 52.0938 71.7002C52.6406 71.7002 53.1328 71.7754 53.5703 71.9258C54.0146 72.0762 54.3975 72.3188 54.7188 72.6538C55.04 72.9819 55.2827 73.4126 55.4468 73.9458C55.6177 74.4722 55.7031 75.1147 55.7031 75.8735V83H53.2217V75.853C53.2217 75.3198 53.1431 74.896 52.9858 74.5815C52.8354 74.2671 52.6133 74.0415 52.3193 73.9048C52.0254 73.7612 51.6665 73.6895 51.2427 73.6895C50.7983 73.6895 50.4053 73.7783 50.0635 73.9561C49.7285 74.1338 49.4482 74.3765 49.2227 74.6841C48.9971 74.9917 48.8262 75.3472 48.71 75.7505C48.6006 76.1538 48.5459 76.5845 48.5459 77.0425ZM63.0962 83.2051C62.2759 83.2051 61.5342 83.0718 60.8711 82.8052C60.2148 82.5317 59.6543 82.1523 59.1895 81.667C58.7314 81.1816 58.3794 80.6108 58.1333 79.9546C57.8872 79.2983 57.7642 78.5908 57.7642 77.832V77.4219C57.7642 76.5537 57.8906 75.7676 58.1436 75.0635C58.3965 74.3594 58.7485 73.7578 59.1997 73.2588C59.6509 72.7529 60.1841 72.3667 60.7993 72.1001C61.4146 71.8335 62.0811 71.7002 62.7988 71.7002C63.5918 71.7002 64.2856 71.8335 64.8804 72.1001C65.4751 72.3667 65.9673 72.7427 66.3569 73.228C66.7534 73.7065 67.0474 74.2773 67.2388 74.9404C67.437 75.6035 67.5361 76.335 67.5361 77.1348V78.1909H58.9639V76.417H65.0957V76.2222C65.082 75.7778 64.9932 75.3608 64.8291 74.9712C64.6719 74.5815 64.4292 74.2671 64.1011 74.0278C63.7729 73.7886 63.3354 73.6689 62.7886 73.6689C62.3784 73.6689 62.0127 73.7578 61.6914 73.9355C61.377 74.1064 61.1138 74.356 60.9019 74.6841C60.6899 75.0122 60.5259 75.4087 60.4097 75.8735C60.3003 76.3315 60.2456 76.8477 60.2456 77.4219V77.832C60.2456 78.3174 60.3105 78.7686 60.4404 79.1855C60.5771 79.5957 60.7754 79.9546 61.0352 80.2622C61.2949 80.5698 61.6094 80.8125 61.9785 80.9902C62.3477 81.1611 62.7681 81.2466 63.2397 81.2466C63.8345 81.2466 64.3643 81.127 64.8291 80.8877C65.2939 80.6484 65.6973 80.3101 66.0391 79.8726L67.3413 81.1338C67.1021 81.4824 66.791 81.8174 66.4082 82.1387C66.0254 82.4531 65.5571 82.7095 65.0034 82.9077C64.4565 83.106 63.8208 83.2051 63.0962 83.2051ZM77.1338 67.25V83H74.6729V67.25H77.1338ZM76.7031 77.0425L75.9033 77.0322C75.9102 76.2666 76.0161 75.5591 76.2212 74.9097C76.4331 74.2603 76.7271 73.6963 77.103 73.2178C77.4858 72.7324 77.9438 72.3599 78.4771 72.1001C79.0103 71.8335 79.6016 71.7002 80.251 71.7002C80.7979 71.7002 81.29 71.7754 81.7275 71.9258C82.1719 72.0762 82.5547 72.3188 82.876 72.6538C83.1973 72.9819 83.4399 73.4126 83.604 73.9458C83.7749 74.4722 83.8604 75.1147 83.8604 75.8735V83H81.3789V75.853C81.3789 75.3198 81.3003 74.896 81.1431 74.5815C80.9927 74.2671 80.7705 74.0415 80.4766 73.9048C80.1826 73.7612 79.8237 73.6895 79.3999 73.6895C78.9556 73.6895 78.5625 73.7783 78.2207 73.9561C77.8857 74.1338 77.6055 74.3765 77.3799 74.6841C77.1543 74.9917 76.9834 75.3472 76.8672 75.7505C76.7578 76.1538 76.7031 76.5845 76.7031 77.0425ZM89.0078 71.9053V83H86.5264V71.9053H89.0078ZM86.3623 68.9932C86.3623 68.6172 86.4854 68.3062 86.7314 68.0601C86.9844 67.8071 87.333 67.6807 87.7773 67.6807C88.2148 67.6807 88.5601 67.8071 88.813 68.0601C89.0659 68.3062 89.1924 68.6172 89.1924 68.9932C89.1924 69.3623 89.0659 69.6699 88.813 69.916C88.5601 70.1621 88.2148 70.2852 87.7773 70.2852C87.333 70.2852 86.9844 70.1621 86.7314 69.916C86.4854 69.6699 86.3623 69.3623 86.3623 68.9932ZM98.8208 71.9053H101.066V82.6924C101.066 83.6904 100.854 84.5381 100.431 85.2354C100.007 85.9326 99.4155 86.4624 98.6567 86.8247C97.8979 87.1938 97.0195 87.3784 96.0215 87.3784C95.5977 87.3784 95.126 87.3169 94.6064 87.1938C94.0938 87.0708 93.5947 86.8726 93.1094 86.5991C92.6309 86.3325 92.231 85.9805 91.9097 85.543L93.0684 84.0869C93.4648 84.5586 93.9023 84.9038 94.3809 85.1226C94.8594 85.3413 95.3618 85.4507 95.8882 85.4507C96.4556 85.4507 96.9375 85.3447 97.334 85.1328C97.7373 84.9277 98.0483 84.6235 98.2671 84.2202C98.4858 83.8169 98.5952 83.3247 98.5952 82.7437V74.4175L98.8208 71.9053ZM91.2842 77.5757V77.3604C91.2842 76.5195 91.3867 75.7539 91.5918 75.0635C91.7969 74.3662 92.0908 73.7681 92.4736 73.269C92.8564 72.7632 93.3213 72.377 93.8682 72.1104C94.415 71.8369 95.0337 71.7002 95.7241 71.7002C96.4419 71.7002 97.0537 71.8301 97.5596 72.0898C98.0723 72.3496 98.4995 72.7222 98.8413 73.2075C99.1831 73.686 99.4497 74.2603 99.6411 74.9302C99.8394 75.5933 99.9863 76.3315 100.082 77.145V77.832C99.9932 78.625 99.8428 79.3496 99.6309 80.0059C99.4189 80.6621 99.1387 81.2295 98.79 81.708C98.4414 82.1865 98.0107 82.5557 97.498 82.8154C96.9922 83.0752 96.394 83.2051 95.7036 83.2051C95.0269 83.2051 94.415 83.0649 93.8682 82.7847C93.3281 82.5044 92.8633 82.1113 92.4736 81.6055C92.0908 81.0996 91.7969 80.5049 91.5918 79.8213C91.3867 79.1309 91.2842 78.3823 91.2842 77.5757ZM93.7554 77.3604V77.5757C93.7554 78.0815 93.8032 78.5532 93.8989 78.9907C94.0015 79.4282 94.1553 79.8145 94.3604 80.1494C94.5723 80.4775 94.8389 80.7373 95.1602 80.9287C95.4883 81.1133 95.8745 81.2056 96.3188 81.2056C96.8999 81.2056 97.375 81.0825 97.7441 80.8364C98.1201 80.5903 98.4072 80.2588 98.6055 79.8418C98.8105 79.418 98.9541 78.9463 99.0361 78.4268V76.5708C98.9951 76.1675 98.9097 75.7915 98.7798 75.4429C98.6567 75.0942 98.4893 74.79 98.2773 74.5303C98.0654 74.2637 97.7988 74.0586 97.4775 73.915C97.1562 73.7646 96.7769 73.6895 96.3394 73.6895C95.895 73.6895 95.5088 73.7852 95.1807 73.9766C94.8525 74.168 94.5825 74.4312 94.3706 74.7661C94.1655 75.1011 94.0117 75.4907 93.9092 75.9351C93.8066 76.3794 93.7554 76.8545 93.7554 77.3604ZM106.07 67.25V83H103.609V67.25H106.07ZM105.64 77.0425L104.84 77.0322C104.847 76.2666 104.953 75.5591 105.158 74.9097C105.37 74.2603 105.664 73.6963 106.04 73.2178C106.422 72.7324 106.88 72.3599 107.414 72.1001C107.947 71.8335 108.538 71.7002 109.188 71.7002C109.734 71.7002 110.227 71.7754 110.664 71.9258C111.108 72.0762 111.491 72.3188 111.812 72.6538C112.134 72.9819 112.376 73.4126 112.541 73.9458C112.711 74.4722 112.797 75.1147 112.797 75.8735V83H110.315V75.853C110.315 75.3198 110.237 74.896 110.08 74.5815C109.929 74.2671 109.707 74.0415 109.413 73.9048C109.119 73.7612 108.76 73.6895 108.336 73.6895C107.892 73.6895 107.499 73.7783 107.157 73.9561C106.822 74.1338 106.542 74.3765 106.316 74.6841C106.091 74.9917 105.92 75.3472 105.804 75.7505C105.694 76.1538 105.64 76.5845 105.64 77.0425ZM120.19 83.2051C119.37 83.2051 118.628 83.0718 117.965 82.8052C117.309 82.5317 116.748 82.1523 116.283 81.667C115.825 81.1816 115.473 80.6108 115.227 79.9546C114.981 79.2983 114.858 78.5908 114.858 77.832V77.4219C114.858 76.5537 114.984 75.7676 115.237 75.0635C115.49 74.3594 115.842 73.7578 116.293 73.2588C116.745 72.7529 117.278 72.3667 117.893 72.1001C118.508 71.8335 119.175 71.7002 119.893 71.7002C120.686 71.7002 121.379 71.8335 121.974 72.1001C122.569 72.3667 123.061 72.7427 123.451 73.228C123.847 73.7065 124.141 74.2773 124.333 74.9404C124.531 75.6035 124.63 76.335 124.63 77.1348V78.1909H116.058V76.417H122.189V76.2222C122.176 75.7778 122.087 75.3608 121.923 74.9712C121.766 74.5815 121.523 74.2671 121.195 74.0278C120.867 73.7886 120.429 73.6689 119.882 73.6689C119.472 73.6689 119.106 73.7578 118.785 73.9355C118.471 74.1064 118.208 74.356 117.996 74.6841C117.784 75.0122 117.62 75.4087 117.503 75.8735C117.394 76.3315 117.339 76.8477 117.339 77.4219V77.832C117.339 78.3174 117.404 78.7686 117.534 79.1855C117.671 79.5957 117.869 79.9546 118.129 80.2622C118.389 80.5698 118.703 80.8125 119.072 80.9902C119.441 81.1611 119.862 81.2466 120.333 81.2466C120.928 81.2466 121.458 81.127 121.923 80.8877C122.388 80.6484 122.791 80.3101 123.133 79.8726L124.435 81.1338C124.196 81.4824 123.885 81.8174 123.502 82.1387C123.119 82.4531 122.651 82.7095 122.097 82.9077C121.55 83.106 120.915 83.2051 120.19 83.2051ZM132.782 79.9956C132.782 79.7495 132.72 79.5273 132.597 79.3291C132.474 79.124 132.238 78.9395 131.89 78.7754C131.548 78.6113 131.042 78.4609 130.372 78.3242C129.784 78.1943 129.244 78.0405 128.752 77.8628C128.267 77.6782 127.85 77.4561 127.501 77.1963C127.152 76.9365 126.882 76.6289 126.691 76.2734C126.5 75.918 126.404 75.5078 126.404 75.043C126.404 74.5918 126.503 74.1646 126.701 73.7612C126.899 73.3579 127.183 73.0024 127.552 72.6948C127.921 72.3872 128.369 72.1445 128.896 71.9668C129.429 71.7891 130.023 71.7002 130.68 71.7002C131.609 71.7002 132.406 71.8574 133.069 72.1719C133.739 72.4795 134.251 72.8999 134.607 73.4331C134.962 73.9595 135.14 74.5542 135.14 75.2173H132.669C132.669 74.9233 132.594 74.6499 132.443 74.397C132.3 74.1372 132.081 73.9287 131.787 73.7715C131.493 73.6074 131.124 73.5254 130.68 73.5254C130.256 73.5254 129.904 73.5938 129.624 73.7305C129.35 73.8604 129.145 74.0312 129.008 74.2432C128.878 74.4551 128.813 74.6875 128.813 74.9404C128.813 75.125 128.848 75.2925 128.916 75.4429C128.991 75.5864 129.114 75.7197 129.285 75.8428C129.456 75.959 129.688 76.0684 129.982 76.1709C130.283 76.2734 130.659 76.3726 131.11 76.4683C131.958 76.646 132.686 76.875 133.294 77.1553C133.91 77.4287 134.381 77.7842 134.709 78.2217C135.038 78.6523 135.202 79.1992 135.202 79.8623C135.202 80.3545 135.096 80.8057 134.884 81.2158C134.679 81.6191 134.378 81.9712 133.981 82.272C133.585 82.5659 133.11 82.7949 132.556 82.959C132.009 83.123 131.394 83.2051 130.71 83.2051C129.706 83.2051 128.854 83.0273 128.157 82.6719C127.46 82.3096 126.93 81.8481 126.568 81.2876C126.212 80.7202 126.035 80.1323 126.035 79.5239H128.424C128.451 79.9819 128.578 80.3477 128.803 80.6211C129.036 80.8877 129.323 81.0825 129.665 81.2056C130.013 81.3218 130.372 81.3799 130.741 81.3799C131.186 81.3799 131.558 81.3218 131.859 81.2056C132.16 81.0825 132.389 80.9185 132.546 80.7134C132.703 80.5015 132.782 80.2622 132.782 79.9956ZM142.451 71.9053V73.71H136.196V71.9053H142.451ZM138.001 69.188H140.472V79.9341C140.472 80.2759 140.52 80.5391 140.616 80.7236C140.718 80.9014 140.858 81.021 141.036 81.0825C141.214 81.144 141.422 81.1748 141.662 81.1748C141.833 81.1748 141.997 81.1646 142.154 81.144C142.311 81.1235 142.438 81.103 142.533 81.0825L142.543 82.9692C142.338 83.0308 142.099 83.0854 141.826 83.1333C141.559 83.1812 141.251 83.2051 140.903 83.2051C140.335 83.2051 139.833 83.106 139.396 82.9077C138.958 82.7026 138.616 82.3711 138.37 81.9131C138.124 81.4551 138.001 80.8467 138.001 80.0879V69.188ZM156.694 71.9053H158.939V82.6924C158.939 83.6904 158.728 84.5381 158.304 85.2354C157.88 85.9326 157.289 86.4624 156.53 86.8247C155.771 87.1938 154.893 87.3784 153.895 87.3784C153.471 87.3784 152.999 87.3169 152.479 87.1938C151.967 87.0708 151.468 86.8726 150.982 86.5991C150.504 86.3325 150.104 85.9805 149.783 85.543L150.941 84.0869C151.338 84.5586 151.775 84.9038 152.254 85.1226C152.732 85.3413 153.235 85.4507 153.761 85.4507C154.329 85.4507 154.811 85.3447 155.207 85.1328C155.61 84.9277 155.921 84.6235 156.14 84.2202C156.359 83.8169 156.468 83.3247 156.468 82.7437V74.4175L156.694 71.9053ZM149.157 77.5757V77.3604C149.157 76.5195 149.26 75.7539 149.465 75.0635C149.67 74.3662 149.964 73.7681 150.347 73.269C150.729 72.7632 151.194 72.377 151.741 72.1104C152.288 71.8369 152.907 71.7002 153.597 71.7002C154.315 71.7002 154.927 71.8301 155.433 72.0898C155.945 72.3496 156.373 72.7222 156.714 73.2075C157.056 73.686 157.323 74.2603 157.514 74.9302C157.712 75.5933 157.859 76.3315 157.955 77.145V77.832C157.866 78.625 157.716 79.3496 157.504 80.0059C157.292 80.6621 157.012 81.2295 156.663 81.708C156.314 82.1865 155.884 82.5557 155.371 82.8154C154.865 83.0752 154.267 83.2051 153.577 83.2051C152.9 83.2051 152.288 83.0649 151.741 82.7847C151.201 82.5044 150.736 82.1113 150.347 81.6055C149.964 81.0996 149.67 80.5049 149.465 79.8213C149.26 79.1309 149.157 78.3823 149.157 77.5757ZM151.628 77.3604V77.5757C151.628 78.0815 151.676 78.5532 151.772 78.9907C151.875 79.4282 152.028 79.8145 152.233 80.1494C152.445 80.4775 152.712 80.7373 153.033 80.9287C153.361 81.1133 153.748 81.2056 154.192 81.2056C154.773 81.2056 155.248 81.0825 155.617 80.8364C155.993 80.5903 156.28 80.2588 156.479 79.8418C156.684 79.418 156.827 78.9463 156.909 78.4268V76.5708C156.868 76.1675 156.783 75.7915 156.653 75.4429C156.53 75.0942 156.362 74.79 156.15 74.5303C155.938 74.2637 155.672 74.0586 155.351 73.915C155.029 73.7646 154.65 73.6895 154.212 73.6895C153.768 73.6895 153.382 73.7852 153.054 73.9766C152.726 74.168 152.456 74.4312 152.244 74.7661C152.039 75.1011 151.885 75.4907 151.782 75.9351C151.68 76.3794 151.628 76.8545 151.628 77.3604ZM163.984 74.0176V83H161.513V71.9053H163.872L163.984 74.0176ZM167.378 71.8335L167.358 74.1304C167.208 74.103 167.043 74.0825 166.866 74.0688C166.695 74.0552 166.524 74.0483 166.353 74.0483C165.929 74.0483 165.557 74.1099 165.235 74.2329C164.914 74.3491 164.644 74.52 164.425 74.7456C164.213 74.9644 164.049 75.231 163.933 75.5454C163.817 75.8599 163.749 76.2119 163.728 76.6016L163.164 76.6426C163.164 75.9453 163.232 75.2993 163.369 74.7046C163.506 74.1099 163.711 73.5869 163.984 73.1357C164.265 72.6846 164.613 72.3325 165.03 72.0796C165.454 71.8267 165.943 71.7002 166.497 71.7002C166.647 71.7002 166.808 71.7139 166.979 71.7412C167.156 71.7686 167.29 71.7993 167.378 71.8335ZM174.812 80.7749V75.4839C174.812 75.0874 174.741 74.7456 174.597 74.4585C174.454 74.1714 174.235 73.9492 173.941 73.792C173.654 73.6348 173.292 73.5562 172.854 73.5562C172.451 73.5562 172.102 73.6245 171.808 73.7612C171.514 73.8979 171.285 74.0825 171.121 74.3149C170.957 74.5474 170.875 74.8105 170.875 75.1045H168.414C168.414 74.667 168.52 74.2432 168.732 73.833C168.944 73.4229 169.251 73.0571 169.655 72.7358C170.058 72.4146 170.54 72.1616 171.101 71.9771C171.661 71.7925 172.29 71.7002 172.987 71.7002C173.821 71.7002 174.56 71.8403 175.202 72.1206C175.852 72.4009 176.361 72.8247 176.73 73.3921C177.106 73.9526 177.294 74.6567 177.294 75.5044V80.4365C177.294 80.9424 177.328 81.397 177.396 81.8003C177.472 82.1968 177.578 82.542 177.714 82.8359V83H175.182C175.065 82.7334 174.973 82.395 174.905 81.9849C174.843 81.5679 174.812 81.1646 174.812 80.7749ZM175.171 76.2529L175.192 77.7808H173.418C172.96 77.7808 172.557 77.8252 172.208 77.9141C171.859 77.9961 171.569 78.1191 171.336 78.2832C171.104 78.4473 170.93 78.6455 170.813 78.8779C170.697 79.1104 170.639 79.3735 170.639 79.6675C170.639 79.9614 170.708 80.2314 170.844 80.4775C170.981 80.7168 171.179 80.9048 171.439 81.0415C171.706 81.1782 172.027 81.2466 172.403 81.2466C172.909 81.2466 173.35 81.144 173.726 80.939C174.108 80.7271 174.409 80.4707 174.628 80.1699C174.847 79.8623 174.963 79.5718 174.977 79.2983L175.776 80.3955C175.694 80.6758 175.554 80.9766 175.356 81.2979C175.158 81.6191 174.898 81.9268 174.577 82.2207C174.262 82.5078 173.883 82.7437 173.438 82.9282C173.001 83.1128 172.495 83.2051 171.921 83.2051C171.196 83.2051 170.55 83.0615 169.983 82.7744C169.416 82.4805 168.971 82.0874 168.65 81.5952C168.329 81.0962 168.168 80.5322 168.168 79.9033C168.168 79.3154 168.277 78.7959 168.496 78.3447C168.722 77.8867 169.05 77.5039 169.48 77.1963C169.918 76.8887 170.451 76.6562 171.08 76.499C171.709 76.335 172.427 76.2529 173.233 76.2529H175.171ZM186.646 80.7031V67.25H189.127V83H186.881L186.646 80.7031ZM179.427 77.5757V77.3604C179.427 76.5195 179.526 75.7539 179.724 75.0635C179.922 74.3662 180.209 73.7681 180.585 73.269C180.961 72.7632 181.419 72.377 181.959 72.1104C182.5 71.8369 183.108 71.7002 183.785 71.7002C184.455 71.7002 185.042 71.8301 185.548 72.0898C186.054 72.3496 186.485 72.7222 186.84 73.2075C187.196 73.686 187.479 74.2603 187.691 74.9302C187.903 75.5933 188.054 76.3315 188.143 77.145V77.832C188.054 78.625 187.903 79.3496 187.691 80.0059C187.479 80.6621 187.196 81.2295 186.84 81.708C186.485 82.1865 186.051 82.5557 185.538 82.8154C185.032 83.0752 184.441 83.2051 183.764 83.2051C183.094 83.2051 182.489 83.0649 181.949 82.7847C181.416 82.5044 180.961 82.1113 180.585 81.6055C180.209 81.0996 179.922 80.5049 179.724 79.8213C179.526 79.1309 179.427 78.3823 179.427 77.5757ZM181.898 77.3604V77.5757C181.898 78.0815 181.942 78.5532 182.031 78.9907C182.127 79.4282 182.274 79.8145 182.472 80.1494C182.67 80.4775 182.927 80.7373 183.241 80.9287C183.562 81.1133 183.945 81.2056 184.39 81.2056C184.95 81.2056 185.412 81.0825 185.774 80.8364C186.136 80.5903 186.42 80.2588 186.625 79.8418C186.837 79.418 186.98 78.9463 187.056 78.4268V76.5708C187.015 76.1675 186.929 75.7915 186.799 75.4429C186.676 75.0942 186.509 74.79 186.297 74.5303C186.085 74.2637 185.822 74.0586 185.507 73.915C185.2 73.7646 184.834 73.6895 184.41 73.6895C183.959 73.6895 183.576 73.7852 183.262 73.9766C182.947 74.168 182.688 74.4312 182.482 74.7661C182.284 75.1011 182.137 75.4907 182.042 75.9351C181.946 76.3794 181.898 76.8545 181.898 77.3604ZM196.602 83.2051C195.782 83.2051 195.04 83.0718 194.377 82.8052C193.721 82.5317 193.16 82.1523 192.695 81.667C192.237 81.1816 191.885 80.6108 191.639 79.9546C191.393 79.2983 191.27 78.5908 191.27 77.832V77.4219C191.27 76.5537 191.396 75.7676 191.649 75.0635C191.902 74.3594 192.254 73.7578 192.706 73.2588C193.157 72.7529 193.69 72.3667 194.305 72.1001C194.92 71.8335 195.587 71.7002 196.305 71.7002C197.098 71.7002 197.792 71.8335 198.386 72.1001C198.981 72.3667 199.473 72.7427 199.863 73.228C200.259 73.7065 200.553 74.2773 200.745 74.9404C200.943 75.6035 201.042 76.335 201.042 77.1348V78.1909H192.47V76.417H198.602V76.2222C198.588 75.7778 198.499 75.3608 198.335 74.9712C198.178 74.5815 197.935 74.2671 197.607 74.0278C197.279 73.7886 196.841 73.6689 196.294 73.6689C195.884 73.6689 195.519 73.7578 195.197 73.9355C194.883 74.1064 194.62 74.356 194.408 74.6841C194.196 75.0122 194.032 75.4087 193.916 75.8735C193.806 76.3315 193.751 76.8477 193.751 77.4219V77.832C193.751 78.3174 193.816 78.7686 193.946 79.1855C194.083 79.5957 194.281 79.9546 194.541 80.2622C194.801 80.5698 195.115 80.8125 195.484 80.9902C195.854 81.1611 196.274 81.2466 196.746 81.2466C197.34 81.2466 197.87 81.127 198.335 80.8877C198.8 80.6484 199.203 80.3101 199.545 79.8726L200.847 81.1338C200.608 81.4824 200.297 81.8174 199.914 82.1387C199.531 82.4531 199.063 82.7095 198.509 82.9077C197.962 83.106 197.327 83.2051 196.602 83.2051Z" fill="black"/>
<defs>
<filter id="filter0_d_1_1084" x="0" y="0" width="217" height="104" filterUnits="userSpaceOnUse" color-interpolation-filters="sRGB">
<feFlood flood-opacity="0" result="BackgroundImageFix"/>
<feColorMatrix in="SourceAlpha" type="matrix" values="0 0 0 0 0 0 0 0 0 0 0 0 0 0 0 0 0 0 127 0" result="hardAlpha"/>
<feOffset dy="4"/>
<feGaussianBlur stdDeviation="2"/>
<feComposite in2="hardAlpha" operator="out"/>
<feColorMatrix type="matrix" values="0 0 0 0 0 0 0 0 0 0 0 0 0 0 0 0 0 0 0.25 0"/>
<feBlend mode="normal" in2="BackgroundImageFix" result="effect1_dropShadow_1_1084"/>
<feBlend mode="normal" in="SourceGraphic" in2="effect1_dropShadow_1_1084" result="shape"/>
</filter>
</defs>
</svg>
