<svg width="217" height="91" viewBox="0 0 217 91" fill="none" xmlns="http://www.w3.org/2000/svg">
<g filter="url(#filter0_d_1_1093)">
<path d="M4 0L14 25H213V96H4V0Z" fill="#FF3838" fill-opacity="0.3" shape-rendering="crispEdges"/>
</g>
<path d="M45.8691 60.9595V63H38.3735V60.9595H45.8691ZM39.0913 48.0703V63H36.5176V48.0703H39.0913ZM53.8672 60.7749V55.4839C53.8672 55.0874 53.7954 54.7456 53.6519 54.4585C53.5083 54.1714 53.2896 53.9492 52.9956 53.792C52.7085 53.6348 52.3462 53.5562 51.9087 53.5562C51.5054 53.5562 51.1567 53.6245 50.8628 53.7612C50.5688 53.8979 50.3398 54.0825 50.1758 54.3149C50.0117 54.5474 49.9297 54.8105 49.9297 55.1045H47.4688C47.4688 54.667 47.5747 54.2432 47.7866 53.833C47.9985 53.4229 48.3062 53.0571 48.7095 52.7358C49.1128 52.4146 49.5947 52.1616 50.1553 51.9771C50.7158 51.7925 51.3447 51.7002 52.042 51.7002C52.876 51.7002 53.6143 51.8403 54.2568 52.1206C54.9062 52.4009 55.4155 52.8247 55.7847 53.3921C56.1606 53.9526 56.3486 54.6567 56.3486 55.5044V60.4365C56.3486 60.9424 56.3828 61.397 56.4512 61.8003C56.5264 62.1968 56.6323 62.542 56.769 62.8359V63H54.2363C54.1201 62.7334 54.0278 62.395 53.9595 61.9849C53.8979 61.5679 53.8672 61.1646 53.8672 60.7749ZM54.2261 56.2529L54.2466 57.7808H52.4727C52.0146 57.7808 51.6113 57.8252 51.2627 57.9141C50.9141 57.9961 50.6235 58.1191 50.3911 58.2832C50.1587 58.4473 49.9844 58.6455 49.8682 58.8779C49.752 59.1104 49.6938 59.3735 49.6938 59.6675C49.6938 59.9614 49.7622 60.2314 49.8989 60.4775C50.0356 60.7168 50.2339 60.9048 50.4937 61.0415C50.7603 61.1782 51.0815 61.2466 51.4575 61.2466C51.9634 61.2466 52.4043 61.144 52.7803 60.939C53.1631 60.7271 53.4639 60.4707 53.6826 60.1699C53.9014 59.8623 54.0176 59.5718 54.0312 59.2983L54.8311 60.3955C54.749 60.6758 54.6089 60.9766 54.4106 61.2979C54.2124 61.6191 53.9526 61.9268 53.6313 62.2207C53.3169 62.5078 52.9375 62.7437 52.4932 62.9282C52.0557 63.1128 51.5498 63.2051 50.9756 63.2051C50.251 63.2051 49.605 63.0615 49.0376 62.7744C48.4702 62.4805 48.0259 62.0874 47.7046 61.5952C47.3833 61.0962 47.2227 60.5322 47.2227 59.9033C47.2227 59.3154 47.332 58.7959 47.5508 58.3447C47.7764 57.8867 48.1045 57.5039 48.5352 57.1963C48.9727 56.8887 49.5059 56.6562 50.1348 56.499C50.7637 56.335 51.4814 56.2529 52.2881 56.2529H54.2261ZM63.4648 61.2363C63.8682 61.2363 64.2305 61.1577 64.5518 61.0005C64.8799 60.8364 65.1431 60.6108 65.3413 60.3237C65.5464 60.0366 65.6592 59.7051 65.6797 59.3291H68.0073C67.9937 60.0469 67.7817 60.6997 67.3716 61.2876C66.9614 61.8755 66.418 62.3438 65.7412 62.6924C65.0645 63.0342 64.3159 63.2051 63.4956 63.2051C62.6479 63.2051 61.9097 63.0615 61.2808 62.7744C60.6519 62.4805 60.1289 62.0771 59.7119 61.5645C59.2949 61.0518 58.9805 60.4604 58.7686 59.7905C58.5635 59.1206 58.4609 58.4028 58.4609 57.6372V57.2783C58.4609 56.5127 58.5635 55.7949 58.7686 55.125C58.9805 54.4482 59.2949 53.8535 59.7119 53.3408C60.1289 52.8281 60.6519 52.4282 61.2808 52.1411C61.9097 51.8472 62.6445 51.7002 63.4854 51.7002C64.374 51.7002 65.1533 51.8779 65.8232 52.2334C66.4932 52.582 67.0195 53.0708 67.4023 53.6997C67.792 54.3218 67.9937 55.0464 68.0073 55.8735H65.6797C65.6592 55.4634 65.5566 55.0942 65.3721 54.7661C65.1943 54.4312 64.9414 54.1646 64.6133 53.9663C64.292 53.7681 63.9058 53.6689 63.4546 53.6689C62.9556 53.6689 62.542 53.7715 62.2139 53.9766C61.8857 54.1748 61.6294 54.4482 61.4448 54.7969C61.2603 55.1387 61.127 55.5249 61.0449 55.9556C60.9697 56.3794 60.9321 56.8203 60.9321 57.2783V57.6372C60.9321 58.0952 60.9697 58.5396 61.0449 58.9702C61.1201 59.4009 61.25 59.7871 61.4346 60.1289C61.626 60.4639 61.8857 60.7339 62.2139 60.939C62.542 61.1372 62.959 61.2363 63.4648 61.2363ZM72.396 47.25V63H69.9146V47.25H72.396ZM79.2866 51.9053L74.457 57.2578L71.8115 59.9648L71.1655 57.873L73.165 55.4019L76.3027 51.9053H79.2866ZM76.8359 63L73.2368 57.791L74.7954 56.0581L79.6968 63H76.8359ZM85.6133 57.5757V57.3398C85.6133 56.54 85.7295 55.7983 85.9619 55.1147C86.1943 54.4243 86.5293 53.8262 86.9668 53.3203C87.4111 52.8076 87.9512 52.4111 88.5869 52.1309C89.2295 51.8438 89.9541 51.7002 90.7607 51.7002C91.5742 51.7002 92.2988 51.8438 92.9346 52.1309C93.5771 52.4111 94.1206 52.8076 94.5649 53.3203C95.0093 53.8262 95.3477 54.4243 95.5801 55.1147C95.8125 55.7983 95.9287 56.54 95.9287 57.3398V57.5757C95.9287 58.3755 95.8125 59.1172 95.5801 59.8008C95.3477 60.4844 95.0093 61.0825 94.5649 61.5952C94.1206 62.1011 93.5806 62.4976 92.9448 62.7847C92.3091 63.0649 91.5879 63.2051 90.7812 63.2051C89.9678 63.2051 89.2397 63.0649 88.5972 62.7847C87.9614 62.4976 87.4214 62.1011 86.9771 61.5952C86.5327 61.0825 86.1943 60.4844 85.9619 59.8008C85.7295 59.1172 85.6133 58.3755 85.6133 57.5757ZM88.0845 57.3398V57.5757C88.0845 58.0747 88.1357 58.5464 88.2383 58.9907C88.3408 59.4351 88.5015 59.8247 88.7202 60.1597C88.939 60.4946 89.2192 60.7578 89.561 60.9492C89.9028 61.1406 90.3096 61.2363 90.7812 61.2363C91.2393 61.2363 91.6357 61.1406 91.9707 60.9492C92.3125 60.7578 92.5928 60.4946 92.8115 60.1597C93.0303 59.8247 93.1909 59.4351 93.2935 58.9907C93.4028 58.5464 93.4575 58.0747 93.4575 57.5757V57.3398C93.4575 56.8477 93.4028 56.3828 93.2935 55.9453C93.1909 55.501 93.0269 55.1079 92.8013 54.7661C92.5825 54.4243 92.3022 54.1577 91.9604 53.9663C91.6255 53.7681 91.2256 53.6689 90.7607 53.6689C90.2959 53.6689 89.8926 53.7681 89.5508 53.9663C89.2158 54.1577 88.939 54.4243 88.7202 54.7661C88.5015 55.1079 88.3408 55.501 88.2383 55.9453C88.1357 56.3828 88.0845 56.8477 88.0845 57.3398ZM101.343 63H98.8716V50.8389C98.8716 50.0117 99.0254 49.3179 99.333 48.7573C99.6475 48.1899 100.095 47.7627 100.676 47.4756C101.257 47.1816 101.944 47.0347 102.737 47.0347C102.983 47.0347 103.226 47.0518 103.465 47.0859C103.705 47.1133 103.937 47.1577 104.163 47.2192L104.101 49.1265C103.964 49.0923 103.814 49.0684 103.65 49.0547C103.493 49.041 103.322 49.0342 103.137 49.0342C102.761 49.0342 102.437 49.106 102.163 49.2495C101.896 49.3862 101.691 49.5879 101.548 49.8545C101.411 50.1211 101.343 50.4492 101.343 50.8389V63ZM103.629 51.9053V53.71H97.1694V51.9053H103.629ZM115.186 61.2363C115.589 61.2363 115.951 61.1577 116.272 61.0005C116.601 60.8364 116.864 60.6108 117.062 60.3237C117.267 60.0366 117.38 59.7051 117.4 59.3291H119.728C119.714 60.0469 119.502 60.6997 119.092 61.2876C118.682 61.8755 118.139 62.3438 117.462 62.6924C116.785 63.0342 116.037 63.2051 115.216 63.2051C114.369 63.2051 113.63 63.0615 113.001 62.7744C112.373 62.4805 111.85 62.0771 111.433 61.5645C111.016 61.0518 110.701 60.4604 110.489 59.7905C110.284 59.1206 110.182 58.4028 110.182 57.6372V57.2783C110.182 56.5127 110.284 55.7949 110.489 55.125C110.701 54.4482 111.016 53.8535 111.433 53.3408C111.85 52.8281 112.373 52.4282 113.001 52.1411C113.63 51.8472 114.365 51.7002 115.206 51.7002C116.095 51.7002 116.874 51.8779 117.544 52.2334C118.214 52.582 118.74 53.0708 119.123 53.6997C119.513 54.3218 119.714 55.0464 119.728 55.8735H117.4C117.38 55.4634 117.277 55.0942 117.093 54.7661C116.915 54.4312 116.662 54.1646 116.334 53.9663C116.013 53.7681 115.626 53.6689 115.175 53.6689C114.676 53.6689 114.263 53.7715 113.935 53.9766C113.606 54.1748 113.35 54.4482 113.166 54.7969C112.981 55.1387 112.848 55.5249 112.766 55.9556C112.69 56.3794 112.653 56.8203 112.653 57.2783V57.6372C112.653 58.0952 112.69 58.5396 112.766 58.9702C112.841 59.4009 112.971 59.7871 113.155 60.1289C113.347 60.4639 113.606 60.7339 113.935 60.939C114.263 61.1372 114.68 61.2363 115.186 61.2363ZM127.88 60.7749V55.4839C127.88 55.0874 127.808 54.7456 127.665 54.4585C127.521 54.1714 127.302 53.9492 127.008 53.792C126.721 53.6348 126.359 53.5562 125.921 53.5562C125.518 53.5562 125.169 53.6245 124.875 53.7612C124.582 53.8979 124.353 54.0825 124.188 54.3149C124.024 54.5474 123.942 54.8105 123.942 55.1045H121.481C121.481 54.667 121.587 54.2432 121.799 53.833C122.011 53.4229 122.319 53.0571 122.722 52.7358C123.125 52.4146 123.607 52.1616 124.168 51.9771C124.729 51.7925 125.357 51.7002 126.055 51.7002C126.889 51.7002 127.627 51.8403 128.27 52.1206C128.919 52.4009 129.428 52.8247 129.797 53.3921C130.173 53.9526 130.361 54.6567 130.361 55.5044V60.4365C130.361 60.9424 130.396 61.397 130.464 61.8003C130.539 62.1968 130.645 62.542 130.782 62.8359V63H128.249C128.133 62.7334 128.041 62.395 127.972 61.9849C127.911 61.5679 127.88 61.1646 127.88 60.7749ZM128.239 56.2529L128.259 57.7808H126.485C126.027 57.7808 125.624 57.8252 125.275 57.9141C124.927 57.9961 124.636 58.1191 124.404 58.2832C124.171 58.4473 123.997 58.6455 123.881 58.8779C123.765 59.1104 123.707 59.3735 123.707 59.6675C123.707 59.9614 123.775 60.2314 123.912 60.4775C124.048 60.7168 124.247 60.9048 124.506 61.0415C124.773 61.1782 125.094 61.2466 125.47 61.2466C125.976 61.2466 126.417 61.144 126.793 60.939C127.176 60.7271 127.477 60.4707 127.695 60.1699C127.914 59.8623 128.03 59.5718 128.044 59.2983L128.844 60.3955C128.762 60.6758 128.622 60.9766 128.423 61.2979C128.225 61.6191 127.965 61.9268 127.644 62.2207C127.33 62.5078 126.95 62.7437 126.506 62.9282C126.068 63.1128 125.562 63.2051 124.988 63.2051C124.264 63.2051 123.618 63.0615 123.05 62.7744C122.483 62.4805 122.039 62.0874 121.717 61.5952C121.396 61.0962 121.235 60.5322 121.235 59.9033C121.235 59.3154 121.345 58.7959 121.563 58.3447C121.789 57.8867 122.117 57.5039 122.548 57.1963C122.985 56.8887 123.519 56.6562 124.147 56.499C124.776 56.335 125.494 56.2529 126.301 56.2529H128.239ZM135.427 54.0176V63H132.956V51.9053H135.314L135.427 54.0176ZM138.821 51.8335L138.8 54.1304C138.65 54.103 138.486 54.0825 138.308 54.0688C138.137 54.0552 137.966 54.0483 137.795 54.0483C137.372 54.0483 136.999 54.1099 136.678 54.2329C136.356 54.3491 136.086 54.52 135.868 54.7456C135.656 54.9644 135.492 55.231 135.375 55.5454C135.259 55.8599 135.191 56.2119 135.17 56.6016L134.606 56.6426C134.606 55.9453 134.675 55.2993 134.812 54.7046C134.948 54.1099 135.153 53.5869 135.427 53.1357C135.707 52.6846 136.056 52.3325 136.473 52.0796C136.896 51.8267 137.385 51.7002 137.939 51.7002C138.089 51.7002 138.25 51.7139 138.421 51.7412C138.599 51.7686 138.732 51.7993 138.821 51.8335ZM145.055 63.2051C144.235 63.2051 143.493 63.0718 142.83 62.8052C142.174 62.5317 141.613 62.1523 141.148 61.667C140.69 61.1816 140.338 60.6108 140.092 59.9546C139.846 59.2983 139.723 58.5908 139.723 57.832V57.4219C139.723 56.5537 139.85 55.7676 140.103 55.0635C140.355 54.3594 140.708 53.7578 141.159 53.2588C141.61 52.7529 142.143 52.3667 142.758 52.1001C143.374 51.8335 144.04 51.7002 144.758 51.7002C145.551 51.7002 146.245 51.8335 146.839 52.1001C147.434 52.3667 147.926 52.7427 148.316 53.228C148.712 53.7065 149.006 54.2773 149.198 54.9404C149.396 55.6035 149.495 56.335 149.495 57.1348V58.1909H140.923V56.417H147.055V56.2222C147.041 55.7778 146.952 55.3608 146.788 54.9712C146.631 54.5815 146.388 54.2671 146.06 54.0278C145.732 53.7886 145.294 53.6689 144.748 53.6689C144.337 53.6689 143.972 53.7578 143.65 53.9355C143.336 54.1064 143.073 54.356 142.861 54.6841C142.649 55.0122 142.485 55.4087 142.369 55.8735C142.259 56.3315 142.205 56.8477 142.205 57.4219V57.832C142.205 58.3174 142.27 58.7686 142.399 59.1855C142.536 59.5957 142.734 59.9546 142.994 60.2622C143.254 60.5698 143.568 60.8125 143.938 60.9902C144.307 61.1611 144.727 61.2466 145.199 61.2466C145.793 61.2466 146.323 61.127 146.788 60.8877C147.253 60.6484 147.656 60.3101 147.998 59.8726L149.3 61.1338C149.061 61.4824 148.75 61.8174 148.367 62.1387C147.984 62.4531 147.516 62.7095 146.962 62.9077C146.416 63.106 145.78 63.2051 145.055 63.2051Z" fill="black"/>
<defs>
<filter id="filter0_d_1_1093" x="0" y="0" width="217" height="104" filterUnits="userSpaceOnUse" color-interpolation-filters="sRGB">
<feFlood flood-opacity="0" result="BackgroundImageFix"/>
<feColorMatrix in="SourceAlpha" type="matrix" values="0 0 0 0 0 0 0 0 0 0 0 0 0 0 0 0 0 0 127 0" result="hardAlpha"/>
<feOffset dy="4"/>
<feGaussianBlur stdDeviation="2"/>
<feComposite in2="hardAlpha" operator="out"/>
<feColorMatrix type="matrix" values="0 0 0 0 0 0 0 0 0 0 0 0 0 0 0 0 0 0 0.25 0"/>
<feBlend mode="normal" in2="BackgroundImageFix" result="effect1_dropShadow_1_1093"/>
<feBlend mode="normal" in="SourceGraphic" in2="effect1_dropShadow_1_1093" result="shape"/>
</filter>
</defs>
</svg>
