<svg width="408" height="48" viewBox="0 0 408 48" fill="none" xmlns="http://www.w3.org/2000/svg">
<g filter="url(#filter0_d_1_1674)">
<path d="M4 40C4 17.9086 21.9086 0 44 0H404C404 22.0914 386.091 40 364 40H4Z" fill="#F6DAE4"/>
</g>
<path d="M63.895 12.0703H66.4585V22.0474C66.4585 23.1821 66.2124 24.1323 65.7202 24.8979C65.228 25.6636 64.5581 26.2412 63.7104 26.6309C62.8696 27.0137 61.9297 27.2051 60.8906 27.2051C59.8174 27.2051 58.8604 27.0137 58.0195 26.6309C57.1787 26.2412 56.5156 25.6636 56.0303 24.8979C55.5518 24.1323 55.3125 23.1821 55.3125 22.0474V12.0703H57.876V22.0474C57.876 22.7651 57.999 23.3564 58.2451 23.8213C58.4912 24.2793 58.8398 24.6177 59.291 24.8364C59.7422 25.0552 60.2754 25.1646 60.8906 25.1646C61.5059 25.1646 62.0356 25.0552 62.48 24.8364C62.9312 24.6177 63.2798 24.2793 63.5259 23.8213C63.772 23.3564 63.895 22.7651 63.895 22.0474V12.0703ZM75.2358 23.9956C75.2358 23.7495 75.1743 23.5273 75.0513 23.3291C74.9282 23.124 74.6924 22.9395 74.3438 22.7754C74.002 22.6113 73.4961 22.4609 72.8262 22.3242C72.2383 22.1943 71.6982 22.0405 71.2061 21.8628C70.7207 21.6782 70.3037 21.4561 69.9551 21.1963C69.6064 20.9365 69.3364 20.6289 69.145 20.2734C68.9536 19.918 68.8579 19.5078 68.8579 19.043C68.8579 18.5918 68.957 18.1646 69.1553 17.7612C69.3535 17.3579 69.6372 17.0024 70.0063 16.6948C70.3755 16.3872 70.8232 16.1445 71.3496 15.9668C71.8828 15.7891 72.4775 15.7002 73.1338 15.7002C74.0635 15.7002 74.8599 15.8574 75.5229 16.1719C76.1929 16.4795 76.7056 16.8999 77.061 17.4331C77.4165 17.9595 77.5942 18.5542 77.5942 19.2173H75.123C75.123 18.9233 75.0479 18.6499 74.8975 18.397C74.7539 18.1372 74.5352 17.9287 74.2412 17.7715C73.9473 17.6074 73.5781 17.5254 73.1338 17.5254C72.71 17.5254 72.3579 17.5938 72.0776 17.7305C71.8042 17.8604 71.5991 18.0312 71.4624 18.2432C71.3325 18.4551 71.2676 18.6875 71.2676 18.9404C71.2676 19.125 71.3018 19.2925 71.3701 19.4429C71.4453 19.5864 71.5684 19.7197 71.7393 19.8428C71.9102 19.959 72.1426 20.0684 72.4365 20.1709C72.7373 20.2734 73.1133 20.3726 73.5645 20.4683C74.4121 20.646 75.1401 20.875 75.7485 21.1553C76.3638 21.4287 76.8354 21.7842 77.1636 22.2217C77.4917 22.6523 77.6558 23.1992 77.6558 23.8623C77.6558 24.3545 77.5498 24.8057 77.3379 25.2158C77.1328 25.6191 76.832 25.9712 76.4355 26.272C76.0391 26.5659 75.564 26.7949 75.0103 26.959C74.4634 27.123 73.8481 27.2051 73.1646 27.2051C72.1597 27.2051 71.3086 27.0273 70.6113 26.6719C69.9141 26.3096 69.3843 25.8481 69.022 25.2876C68.6665 24.7202 68.4888 24.1323 68.4888 23.5239H70.8779C70.9053 23.9819 71.0317 24.3477 71.2573 24.6211C71.4897 24.8877 71.7769 25.0825 72.1187 25.2056C72.4673 25.3218 72.8262 25.3799 73.1953 25.3799C73.6396 25.3799 74.0122 25.3218 74.313 25.2056C74.6138 25.0825 74.8428 24.9185 75 24.7134C75.1572 24.5015 75.2358 24.2622 75.2358 23.9956ZM84.7104 27.2051C83.8901 27.2051 83.1484 27.0718 82.4854 26.8052C81.8291 26.5317 81.2686 26.1523 80.8037 25.667C80.3457 25.1816 79.9937 24.6108 79.7476 23.9546C79.5015 23.2983 79.3784 22.5908 79.3784 21.832V21.4219C79.3784 20.5537 79.5049 19.7676 79.7578 19.0635C80.0107 18.3594 80.3628 17.7578 80.814 17.2588C81.2651 16.7529 81.7983 16.3667 82.4136 16.1001C83.0288 15.8335 83.6953 15.7002 84.4131 15.7002C85.2061 15.7002 85.8999 15.8335 86.4946 16.1001C87.0894 16.3667 87.5815 16.7427 87.9712 17.228C88.3677 17.7065 88.6616 18.2773 88.853 18.9404C89.0513 19.6035 89.1504 20.335 89.1504 21.1348V22.1909H80.5781V20.417H86.71V20.2222C86.6963 19.7778 86.6074 19.3608 86.4434 18.9712C86.2861 18.5815 86.0435 18.2671 85.7153 18.0278C85.3872 17.7886 84.9497 17.6689 84.4028 17.6689C83.9927 17.6689 83.627 17.7578 83.3057 17.9355C82.9912 18.1064 82.728 18.356 82.5161 18.6841C82.3042 19.0122 82.1401 19.4087 82.0239 19.8735C81.9146 20.3315 81.8599 20.8477 81.8599 21.4219V21.832C81.8599 22.3174 81.9248 22.7686 82.0547 23.1855C82.1914 23.5957 82.3896 23.9546 82.6494 24.2622C82.9092 24.5698 83.2236 24.8125 83.5928 24.9902C83.9619 25.1611 84.3823 25.2466 84.854 25.2466C85.4487 25.2466 85.9785 25.127 86.4434 24.8877C86.9082 24.6484 87.3115 24.3101 87.6533 23.8726L88.9556 25.1338C88.7163 25.4824 88.4053 25.8174 88.0225 26.1387C87.6396 26.4531 87.1714 26.7095 86.6177 26.9077C86.0708 27.106 85.4351 27.2051 84.7104 27.2051ZM101.394 15.9053V17.71H95.1387V15.9053H101.394ZM96.9434 13.188H99.4146V23.9341C99.4146 24.2759 99.4624 24.5391 99.5581 24.7236C99.6606 24.9014 99.8008 25.021 99.9785 25.0825C100.156 25.144 100.365 25.1748 100.604 25.1748C100.775 25.1748 100.939 25.1646 101.096 25.144C101.253 25.1235 101.38 25.103 101.476 25.0825L101.486 26.9692C101.281 27.0308 101.042 27.0854 100.768 27.1333C100.501 27.1812 100.194 27.2051 99.8452 27.2051C99.2778 27.2051 98.7754 27.106 98.3379 26.9077C97.9004 26.7026 97.5586 26.3711 97.3125 25.9131C97.0664 25.4551 96.9434 24.8467 96.9434 24.0879V13.188ZM105.741 11.25V27H103.28V11.25H105.741ZM105.311 21.0425L104.511 21.0322C104.518 20.2666 104.624 19.5591 104.829 18.9097C105.041 18.2603 105.334 17.6963 105.71 17.2178C106.093 16.7324 106.551 16.3599 107.084 16.1001C107.618 15.8335 108.209 15.7002 108.858 15.7002C109.405 15.7002 109.897 15.7754 110.335 15.9258C110.779 16.0762 111.162 16.3188 111.483 16.6538C111.805 16.9819 112.047 17.4126 112.211 17.9458C112.382 18.4722 112.468 19.1147 112.468 19.8735V27H109.986V19.853C109.986 19.3198 109.908 18.896 109.75 18.5815C109.6 18.2671 109.378 18.0415 109.084 17.9048C108.79 17.7612 108.431 17.6895 108.007 17.6895C107.563 17.6895 107.17 17.7783 106.828 17.9561C106.493 18.1338 106.213 18.3765 105.987 18.6841C105.762 18.9917 105.591 19.3472 105.475 19.7505C105.365 20.1538 105.311 20.5845 105.311 21.0425ZM119.861 27.2051C119.041 27.2051 118.299 27.0718 117.636 26.8052C116.979 26.5317 116.419 26.1523 115.954 25.667C115.496 25.1816 115.144 24.6108 114.898 23.9546C114.652 23.2983 114.529 22.5908 114.529 21.832V21.4219C114.529 20.5537 114.655 19.7676 114.908 19.0635C115.161 18.3594 115.513 17.7578 115.964 17.2588C116.416 16.7529 116.949 16.3667 117.564 16.1001C118.179 15.8335 118.846 15.7002 119.563 15.7002C120.356 15.7002 121.05 15.8335 121.645 16.1001C122.24 16.3667 122.732 16.7427 123.122 17.228C123.518 17.7065 123.812 18.2773 124.003 18.9404C124.202 19.6035 124.301 20.335 124.301 21.1348V22.1909H115.729V20.417H121.86V20.2222C121.847 19.7778 121.758 19.3608 121.594 18.9712C121.437 18.5815 121.194 18.2671 120.866 18.0278C120.538 17.7886 120.1 17.6689 119.553 17.6689C119.143 17.6689 118.777 17.7578 118.456 17.9355C118.142 18.1064 117.878 18.356 117.667 18.6841C117.455 19.0122 117.291 19.4087 117.174 19.8735C117.065 20.3315 117.01 20.8477 117.01 21.4219V21.832C117.01 22.3174 117.075 22.7686 117.205 23.1855C117.342 23.5957 117.54 23.9546 117.8 24.2622C118.06 24.5698 118.374 24.8125 118.743 24.9902C119.112 25.1611 119.533 25.2466 120.004 25.2466C120.599 25.2466 121.129 25.127 121.594 24.8877C122.059 24.6484 122.462 24.3101 122.804 23.8726L124.106 25.1338C123.867 25.4824 123.556 25.8174 123.173 26.1387C122.79 26.4531 122.322 26.7095 121.768 26.9077C121.221 27.106 120.585 27.2051 119.861 27.2051ZM132.453 23.9956C132.453 23.7495 132.391 23.5273 132.268 23.3291C132.145 23.124 131.909 22.9395 131.561 22.7754C131.219 22.6113 130.713 22.4609 130.043 22.3242C129.455 22.1943 128.915 22.0405 128.423 21.8628C127.938 21.6782 127.521 21.4561 127.172 21.1963C126.823 20.9365 126.553 20.6289 126.362 20.2734C126.17 19.918 126.075 19.5078 126.075 19.043C126.075 18.5918 126.174 18.1646 126.372 17.7612C126.57 17.3579 126.854 17.0024 127.223 16.6948C127.592 16.3872 128.04 16.1445 128.566 15.9668C129.1 15.7891 129.694 15.7002 130.351 15.7002C131.28 15.7002 132.077 15.8574 132.74 16.1719C133.41 16.4795 133.922 16.8999 134.278 17.4331C134.633 17.9595 134.811 18.5542 134.811 19.2173H132.34C132.34 18.9233 132.265 18.6499 132.114 18.397C131.971 18.1372 131.752 17.9287 131.458 17.7715C131.164 17.6074 130.795 17.5254 130.351 17.5254C129.927 17.5254 129.575 17.5938 129.294 17.7305C129.021 17.8604 128.816 18.0312 128.679 18.2432C128.549 18.4551 128.484 18.6875 128.484 18.9404C128.484 19.125 128.519 19.2925 128.587 19.4429C128.662 19.5864 128.785 19.7197 128.956 19.8428C129.127 19.959 129.359 20.0684 129.653 20.1709C129.954 20.2734 130.33 20.3726 130.781 20.4683C131.629 20.646 132.357 20.875 132.965 21.1553C133.581 21.4287 134.052 21.7842 134.38 22.2217C134.708 22.6523 134.873 23.1992 134.873 23.8623C134.873 24.3545 134.767 24.8057 134.555 25.2158C134.35 25.6191 134.049 25.9712 133.652 26.272C133.256 26.5659 132.781 26.7949 132.227 26.959C131.68 27.123 131.065 27.2051 130.381 27.2051C129.376 27.2051 128.525 27.0273 127.828 26.6719C127.131 26.3096 126.601 25.8481 126.239 25.2876C125.883 24.7202 125.706 24.1323 125.706 23.5239H128.095C128.122 23.9819 128.249 24.3477 128.474 24.6211C128.707 24.8877 128.994 25.0825 129.335 25.2056C129.684 25.3218 130.043 25.3799 130.412 25.3799C130.856 25.3799 131.229 25.3218 131.53 25.2056C131.831 25.0825 132.06 24.9185 132.217 24.7134C132.374 24.5015 132.453 24.2622 132.453 23.9956ZM141.927 27.2051C141.107 27.2051 140.365 27.0718 139.702 26.8052C139.046 26.5317 138.485 26.1523 138.021 25.667C137.562 25.1816 137.21 24.6108 136.964 23.9546C136.718 23.2983 136.595 22.5908 136.595 21.832V21.4219C136.595 20.5537 136.722 19.7676 136.975 19.0635C137.228 18.3594 137.58 17.7578 138.031 17.2588C138.482 16.7529 139.015 16.3667 139.63 16.1001C140.246 15.8335 140.912 15.7002 141.63 15.7002C142.423 15.7002 143.117 15.8335 143.711 16.1001C144.306 16.3667 144.798 16.7427 145.188 17.228C145.584 17.7065 145.878 18.2773 146.07 18.9404C146.268 19.6035 146.367 20.335 146.367 21.1348V22.1909H137.795V20.417H143.927V20.2222C143.913 19.7778 143.824 19.3608 143.66 18.9712C143.503 18.5815 143.26 18.2671 142.932 18.0278C142.604 17.7886 142.167 17.6689 141.62 17.6689C141.209 17.6689 140.844 17.7578 140.522 17.9355C140.208 18.1064 139.945 18.356 139.733 18.6841C139.521 19.0122 139.357 19.4087 139.241 19.8735C139.131 20.3315 139.077 20.8477 139.077 21.4219V21.832C139.077 22.3174 139.142 22.7686 139.271 23.1855C139.408 23.5957 139.606 23.9546 139.866 24.2622C140.126 24.5698 140.44 24.8125 140.81 24.9902C141.179 25.1611 141.599 25.2466 142.071 25.2466C142.666 25.2466 143.195 25.127 143.66 24.8877C144.125 24.6484 144.528 24.3101 144.87 23.8726L146.172 25.1338C145.933 25.4824 145.622 25.8174 145.239 26.1387C144.856 26.4531 144.388 26.7095 143.834 26.9077C143.288 27.106 142.652 27.2051 141.927 27.2051ZM156.539 24.5391L159.103 15.9053H160.682L160.251 18.4893L157.667 27H156.252L156.539 24.5391ZM155.032 15.9053L157.031 24.5801L157.195 27H155.616L152.612 15.9053H155.032ZM163.081 24.4775L165.019 15.9053H167.429L164.435 27H162.855L163.081 24.4775ZM160.948 15.9053L163.481 24.4365L163.799 27H162.384L159.769 18.479L159.338 15.9053H160.948ZM168.639 21.5757V21.3398C168.639 20.54 168.755 19.7983 168.987 19.1147C169.22 18.4243 169.555 17.8262 169.992 17.3203C170.437 16.8076 170.977 16.4111 171.612 16.1309C172.255 15.8438 172.979 15.7002 173.786 15.7002C174.6 15.7002 175.324 15.8438 175.96 16.1309C176.603 16.4111 177.146 16.8076 177.59 17.3203C178.035 17.8262 178.373 18.4243 178.605 19.1147C178.838 19.7983 178.954 20.54 178.954 21.3398V21.5757C178.954 22.3755 178.838 23.1172 178.605 23.8008C178.373 24.4844 178.035 25.0825 177.59 25.5952C177.146 26.1011 176.606 26.4976 175.97 26.7847C175.334 27.0649 174.613 27.2051 173.807 27.2051C172.993 27.2051 172.265 27.0649 171.623 26.7847C170.987 26.4976 170.447 26.1011 170.002 25.5952C169.558 25.0825 169.22 24.4844 168.987 23.8008C168.755 23.1172 168.639 22.3755 168.639 21.5757ZM171.11 21.3398V21.5757C171.11 22.0747 171.161 22.5464 171.264 22.9907C171.366 23.4351 171.527 23.8247 171.746 24.1597C171.964 24.4946 172.245 24.7578 172.586 24.9492C172.928 25.1406 173.335 25.2363 173.807 25.2363C174.265 25.2363 174.661 25.1406 174.996 24.9492C175.338 24.7578 175.618 24.4946 175.837 24.1597C176.056 23.8247 176.216 23.4351 176.319 22.9907C176.428 22.5464 176.483 22.0747 176.483 21.5757V21.3398C176.483 20.8477 176.428 20.3828 176.319 19.9453C176.216 19.501 176.052 19.1079 175.827 18.7661C175.608 18.4243 175.328 18.1577 174.986 17.9663C174.651 17.7681 174.251 17.6689 173.786 17.6689C173.321 17.6689 172.918 17.7681 172.576 17.9663C172.241 18.1577 171.964 18.4243 171.746 18.7661C171.527 19.1079 171.366 19.501 171.264 19.9453C171.161 20.3828 171.11 20.8477 171.11 21.3398ZM183.507 18.0176V27H181.036V15.9053H183.394L183.507 18.0176ZM186.901 15.8335L186.88 18.1304C186.73 18.103 186.566 18.0825 186.388 18.0688C186.217 18.0552 186.046 18.0483 185.875 18.0483C185.452 18.0483 185.079 18.1099 184.758 18.2329C184.437 18.3491 184.167 18.52 183.948 18.7456C183.736 18.9644 183.572 19.231 183.456 19.5454C183.339 19.8599 183.271 20.2119 183.25 20.6016L182.687 20.6426C182.687 19.9453 182.755 19.2993 182.892 18.7046C183.028 18.1099 183.233 17.5869 183.507 17.1357C183.787 16.6846 184.136 16.3325 184.553 16.0796C184.977 15.8267 185.465 15.7002 186.019 15.7002C186.169 15.7002 186.33 15.7139 186.501 15.7412C186.679 15.7686 186.812 15.7993 186.901 15.8335ZM195.012 24.7031V11.25H197.493V27H195.248L195.012 24.7031ZM187.793 21.5757V21.3604C187.793 20.5195 187.892 19.7539 188.09 19.0635C188.289 18.3662 188.576 17.7681 188.952 17.269C189.328 16.7632 189.786 16.377 190.326 16.1104C190.866 15.8369 191.474 15.7002 192.151 15.7002C192.821 15.7002 193.409 15.8301 193.915 16.0898C194.42 16.3496 194.851 16.7222 195.207 17.2075C195.562 17.686 195.846 18.2603 196.058 18.9302C196.27 19.5933 196.42 20.3315 196.509 21.145V21.832C196.42 22.625 196.27 23.3496 196.058 24.0059C195.846 24.6621 195.562 25.2295 195.207 25.708C194.851 26.1865 194.417 26.5557 193.904 26.8154C193.398 27.0752 192.807 27.2051 192.13 27.2051C191.46 27.2051 190.855 27.0649 190.315 26.7847C189.782 26.5044 189.328 26.1113 188.952 25.6055C188.576 25.0996 188.289 24.5049 188.09 23.8213C187.892 23.1309 187.793 22.3823 187.793 21.5757ZM190.264 21.3604V21.5757C190.264 22.0815 190.309 22.5532 190.397 22.9907C190.493 23.4282 190.64 23.8145 190.838 24.1494C191.037 24.4775 191.293 24.7373 191.607 24.9287C191.929 25.1133 192.312 25.2056 192.756 25.2056C193.316 25.2056 193.778 25.0825 194.14 24.8364C194.502 24.5903 194.786 24.2588 194.991 23.8418C195.203 23.418 195.347 22.9463 195.422 22.4268V20.5708C195.381 20.1675 195.295 19.7915 195.166 19.4429C195.042 19.0942 194.875 18.79 194.663 18.5303C194.451 18.2637 194.188 18.0586 193.874 17.915C193.566 17.7646 193.2 17.6895 192.776 17.6895C192.325 17.6895 191.942 17.7852 191.628 17.9766C191.313 18.168 191.054 18.4312 190.849 18.7661C190.65 19.1011 190.503 19.4907 190.408 19.9351C190.312 20.3794 190.264 20.8545 190.264 21.3604ZM206.301 23.9956C206.301 23.7495 206.24 23.5273 206.117 23.3291C205.994 23.124 205.758 22.9395 205.409 22.7754C205.067 22.6113 204.562 22.4609 203.892 22.3242C203.304 22.1943 202.764 22.0405 202.271 21.8628C201.786 21.6782 201.369 21.4561 201.021 21.1963C200.672 20.9365 200.402 20.6289 200.21 20.2734C200.019 19.918 199.923 19.5078 199.923 19.043C199.923 18.5918 200.022 18.1646 200.221 17.7612C200.419 17.3579 200.703 17.0024 201.072 16.6948C201.441 16.3872 201.889 16.1445 202.415 15.9668C202.948 15.7891 203.543 15.7002 204.199 15.7002C205.129 15.7002 205.925 15.8574 206.588 16.1719C207.258 16.4795 207.771 16.8999 208.126 17.4331C208.482 17.9595 208.66 18.5542 208.66 19.2173H206.188C206.188 18.9233 206.113 18.6499 205.963 18.397C205.819 18.1372 205.601 17.9287 205.307 17.7715C205.013 17.6074 204.644 17.5254 204.199 17.5254C203.775 17.5254 203.423 17.5938 203.143 17.7305C202.87 17.8604 202.665 18.0312 202.528 18.2432C202.398 18.4551 202.333 18.6875 202.333 18.9404C202.333 19.125 202.367 19.2925 202.436 19.4429C202.511 19.5864 202.634 19.7197 202.805 19.8428C202.976 19.959 203.208 20.0684 203.502 20.1709C203.803 20.2734 204.179 20.3726 204.63 20.4683C205.478 20.646 206.206 20.875 206.814 21.1553C207.429 21.4287 207.901 21.7842 208.229 22.2217C208.557 22.6523 208.721 23.1992 208.721 23.8623C208.721 24.3545 208.615 24.8057 208.403 25.2158C208.198 25.6191 207.897 25.9712 207.501 26.272C207.104 26.5659 206.629 26.7949 206.076 26.959C205.529 27.123 204.914 27.2051 204.23 27.2051C203.225 27.2051 202.374 27.0273 201.677 26.6719C200.979 26.3096 200.45 25.8481 200.087 25.2876C199.732 24.7202 199.554 24.1323 199.554 23.5239H201.943C201.971 23.9819 202.097 24.3477 202.323 24.6211C202.555 24.8877 202.842 25.0825 203.184 25.2056C203.533 25.3218 203.892 25.3799 204.261 25.3799C204.705 25.3799 205.078 25.3218 205.378 25.2056C205.679 25.0825 205.908 24.9185 206.065 24.7134C206.223 24.5015 206.301 24.2622 206.301 23.9956ZM218.76 15.9053V27H216.278V15.9053H218.76ZM216.114 12.9932C216.114 12.6172 216.237 12.3062 216.483 12.0601C216.736 11.8071 217.085 11.6807 217.529 11.6807C217.967 11.6807 218.312 11.8071 218.565 12.0601C218.818 12.3062 218.944 12.6172 218.944 12.9932C218.944 13.3623 218.818 13.6699 218.565 13.916C218.312 14.1621 217.967 14.2852 217.529 14.2852C217.085 14.2852 216.736 14.1621 216.483 13.916C216.237 13.6699 216.114 13.3623 216.114 12.9932ZM223.917 18.2739V27H221.446V15.9053H223.774L223.917 18.2739ZM223.477 21.0425L222.677 21.0322C222.684 20.2461 222.793 19.5249 223.005 18.8687C223.224 18.2124 223.524 17.6484 223.907 17.1768C224.297 16.7051 224.762 16.3428 225.302 16.0898C225.842 15.8301 226.443 15.7002 227.106 15.7002C227.64 15.7002 228.122 15.7754 228.552 15.9258C228.99 16.0693 229.362 16.3052 229.67 16.6333C229.984 16.9614 230.224 17.3887 230.388 17.915C230.552 18.4346 230.634 19.0737 230.634 19.8325V27H228.152V19.8223C228.152 19.2891 228.074 18.8687 227.917 18.561C227.766 18.2466 227.544 18.0244 227.25 17.8945C226.963 17.7578 226.604 17.6895 226.173 17.6895C225.75 17.6895 225.37 17.7783 225.035 17.9561C224.7 18.1338 224.417 18.3765 224.184 18.6841C223.958 18.9917 223.784 19.3472 223.661 19.7505C223.538 20.1538 223.477 20.5845 223.477 21.0425ZM241.605 25.79L244.62 15.9053H247.266L242.815 28.6919C242.713 28.9653 242.58 29.2627 242.416 29.584C242.251 29.9053 242.036 30.2095 241.77 30.4966C241.51 30.7905 241.185 31.0264 240.795 31.2041C240.406 31.3887 239.934 31.481 239.38 31.481C239.162 31.481 238.95 31.4604 238.745 31.4194C238.546 31.3853 238.358 31.3477 238.181 31.3066L238.17 29.4199C238.239 29.4268 238.321 29.4336 238.417 29.4404C238.519 29.4473 238.601 29.4507 238.663 29.4507C239.073 29.4507 239.415 29.3994 239.688 29.2969C239.961 29.2012 240.184 29.0439 240.354 28.8252C240.532 28.6064 240.683 28.3125 240.806 27.9434L241.605 25.79ZM239.903 15.9053L242.539 24.2109L242.979 26.8154L241.267 27.2563L237.237 15.9053H239.903ZM248.045 21.5757V21.3398C248.045 20.54 248.161 19.7983 248.394 19.1147C248.626 18.4243 248.961 17.8262 249.398 17.3203C249.843 16.8076 250.383 16.4111 251.019 16.1309C251.661 15.8438 252.386 15.7002 253.192 15.7002C254.006 15.7002 254.73 15.8438 255.366 16.1309C256.009 16.4111 256.552 16.8076 256.997 17.3203C257.441 17.8262 257.779 18.4243 258.012 19.1147C258.244 19.7983 258.36 20.54 258.36 21.3398V21.5757C258.36 22.3755 258.244 23.1172 258.012 23.8008C257.779 24.4844 257.441 25.0825 256.997 25.5952C256.552 26.1011 256.012 26.4976 255.376 26.7847C254.741 27.0649 254.02 27.2051 253.213 27.2051C252.399 27.2051 251.671 27.0649 251.029 26.7847C250.393 26.4976 249.853 26.1011 249.409 25.5952C248.964 25.0825 248.626 24.4844 248.394 23.8008C248.161 23.1172 248.045 22.3755 248.045 21.5757ZM250.516 21.3398V21.5757C250.516 22.0747 250.567 22.5464 250.67 22.9907C250.772 23.4351 250.933 23.8247 251.152 24.1597C251.371 24.4946 251.651 24.7578 251.993 24.9492C252.334 25.1406 252.741 25.2363 253.213 25.2363C253.671 25.2363 254.067 25.1406 254.402 24.9492C254.744 24.7578 255.024 24.4946 255.243 24.1597C255.462 23.8247 255.623 23.4351 255.725 22.9907C255.834 22.5464 255.889 22.0747 255.889 21.5757V21.3398C255.889 20.8477 255.834 20.3828 255.725 19.9453C255.623 19.501 255.458 19.1079 255.233 18.7661C255.014 18.4243 254.734 18.1577 254.392 17.9663C254.057 17.7681 253.657 17.6689 253.192 17.6689C252.728 17.6689 252.324 17.7681 251.982 17.9663C251.647 18.1577 251.371 18.4243 251.152 18.7661C250.933 19.1079 250.772 19.501 250.67 19.9453C250.567 20.3828 250.516 20.8477 250.516 21.3398ZM267.107 24.3853V15.9053H269.588V27H267.25L267.107 24.3853ZM267.456 22.0781L268.286 22.0576C268.286 22.8027 268.204 23.4897 268.04 24.1187C267.876 24.7407 267.623 25.2842 267.281 25.749C266.939 26.207 266.502 26.5659 265.969 26.8257C265.436 27.0786 264.796 27.2051 264.051 27.2051C263.511 27.2051 263.016 27.1265 262.564 26.9692C262.113 26.812 261.724 26.5693 261.396 26.2412C261.074 25.9131 260.825 25.4858 260.647 24.9595C260.469 24.4331 260.38 23.8042 260.38 23.0728V15.9053H262.852V23.0933C262.852 23.4966 262.899 23.835 262.995 24.1084C263.091 24.375 263.221 24.5903 263.385 24.7544C263.549 24.9185 263.74 25.0347 263.959 25.103C264.178 25.1714 264.41 25.2056 264.656 25.2056C265.36 25.2056 265.914 25.0688 266.317 24.7954C266.728 24.5151 267.018 24.1392 267.189 23.6675C267.367 23.1958 267.456 22.666 267.456 22.0781ZM274.603 18.0176V27H272.131V15.9053H274.49L274.603 18.0176ZM277.997 15.8335L277.976 18.1304C277.826 18.103 277.662 18.0825 277.484 18.0688C277.313 18.0552 277.142 18.0483 276.971 18.0483C276.547 18.0483 276.175 18.1099 275.854 18.2329C275.532 18.3491 275.262 18.52 275.043 18.7456C274.832 18.9644 274.667 19.231 274.551 19.5454C274.435 19.8599 274.367 20.2119 274.346 20.6016L273.782 20.6426C273.782 19.9453 273.851 19.2993 273.987 18.7046C274.124 18.1099 274.329 17.5869 274.603 17.1357C274.883 16.6846 275.231 16.3325 275.648 16.0796C276.072 15.8267 276.561 15.7002 277.115 15.7002C277.265 15.7002 277.426 15.7139 277.597 15.7412C277.774 15.7686 277.908 15.7993 277.997 15.8335ZM290.999 23.9956C290.999 23.7495 290.937 23.5273 290.814 23.3291C290.691 23.124 290.455 22.9395 290.106 22.7754C289.765 22.6113 289.259 22.4609 288.589 22.3242C288.001 22.1943 287.461 22.0405 286.969 21.8628C286.483 21.6782 286.066 21.4561 285.718 21.1963C285.369 20.9365 285.099 20.6289 284.908 20.2734C284.716 19.918 284.621 19.5078 284.621 19.043C284.621 18.5918 284.72 18.1646 284.918 17.7612C285.116 17.3579 285.4 17.0024 285.769 16.6948C286.138 16.3872 286.586 16.1445 287.112 15.9668C287.646 15.7891 288.24 15.7002 288.896 15.7002C289.826 15.7002 290.623 15.8574 291.286 16.1719C291.956 16.4795 292.468 16.8999 292.824 17.4331C293.179 17.9595 293.357 18.5542 293.357 19.2173H290.886C290.886 18.9233 290.811 18.6499 290.66 18.397C290.517 18.1372 290.298 17.9287 290.004 17.7715C289.71 17.6074 289.341 17.5254 288.896 17.5254C288.473 17.5254 288.121 17.5938 287.84 17.7305C287.567 17.8604 287.362 18.0312 287.225 18.2432C287.095 18.4551 287.03 18.6875 287.03 18.9404C287.03 19.125 287.064 19.2925 287.133 19.4429C287.208 19.5864 287.331 19.7197 287.502 19.8428C287.673 19.959 287.905 20.0684 288.199 20.1709C288.5 20.2734 288.876 20.3726 289.327 20.4683C290.175 20.646 290.903 20.875 291.511 21.1553C292.126 21.4287 292.598 21.7842 292.926 22.2217C293.254 22.6523 293.418 23.1992 293.418 23.8623C293.418 24.3545 293.312 24.8057 293.101 25.2158C292.896 25.6191 292.595 25.9712 292.198 26.272C291.802 26.5659 291.327 26.7949 290.773 26.959C290.226 27.123 289.611 27.2051 288.927 27.2051C287.922 27.2051 287.071 27.0273 286.374 26.6719C285.677 26.3096 285.147 25.8481 284.785 25.2876C284.429 24.7202 284.251 24.1323 284.251 23.5239H286.641C286.668 23.9819 286.794 24.3477 287.02 24.6211C287.252 24.8877 287.54 25.0825 287.881 25.2056C288.23 25.3218 288.589 25.3799 288.958 25.3799C289.402 25.3799 289.775 25.3218 290.076 25.2056C290.376 25.0825 290.605 24.9185 290.763 24.7134C290.92 24.5015 290.999 24.2622 290.999 23.9956ZM298.063 18.0381V31.2656H295.592V15.9053H297.869L298.063 18.0381ZM305.292 21.3501V21.5654C305.292 22.3721 305.197 23.1206 305.005 23.811C304.821 24.4946 304.544 25.0928 304.175 25.6055C303.812 26.1113 303.365 26.5044 302.832 26.7847C302.298 27.0649 301.683 27.2051 300.986 27.2051C300.295 27.2051 299.69 27.0786 299.171 26.8257C298.658 26.5659 298.224 26.2002 297.869 25.7285C297.513 25.2568 297.226 24.7031 297.007 24.0674C296.795 23.4248 296.645 22.7207 296.556 21.9551V21.1245C296.645 20.311 296.795 19.5728 297.007 18.9097C297.226 18.2466 297.513 17.6758 297.869 17.1973C298.224 16.7188 298.658 16.3496 299.171 16.0898C299.684 15.8301 300.282 15.7002 300.965 15.7002C301.663 15.7002 302.281 15.8369 302.821 16.1104C303.361 16.377 303.816 16.7598 304.185 17.2588C304.554 17.751 304.831 18.3457 305.016 19.043C305.2 19.7334 305.292 20.5024 305.292 21.3501ZM302.821 21.5654V21.3501C302.821 20.8374 302.773 20.3623 302.678 19.9248C302.582 19.4805 302.432 19.0908 302.227 18.7559C302.021 18.4209 301.758 18.1611 301.437 17.9766C301.123 17.7852 300.743 17.6895 300.299 17.6895C299.861 17.6895 299.485 17.7646 299.171 17.915C298.856 18.0586 298.593 18.2603 298.381 18.52C298.169 18.7798 298.005 19.084 297.889 19.4326C297.773 19.7744 297.691 20.147 297.643 20.5503V22.5396C297.725 23.0317 297.865 23.4829 298.063 23.8931C298.262 24.3032 298.542 24.6313 298.904 24.8774C299.273 25.1167 299.745 25.2363 300.319 25.2363C300.764 25.2363 301.143 25.1406 301.458 24.9492C301.772 24.7578 302.028 24.4946 302.227 24.1597C302.432 23.8179 302.582 23.4248 302.678 22.9805C302.773 22.5361 302.821 22.0645 302.821 21.5654ZM312.286 27.2051C311.465 27.2051 310.724 27.0718 310.061 26.8052C309.404 26.5317 308.844 26.1523 308.379 25.667C307.921 25.1816 307.569 24.6108 307.323 23.9546C307.077 23.2983 306.954 22.5908 306.954 21.832V21.4219C306.954 20.5537 307.08 19.7676 307.333 19.0635C307.586 18.3594 307.938 17.7578 308.389 17.2588C308.84 16.7529 309.374 16.3667 309.989 16.1001C310.604 15.8335 311.271 15.7002 311.988 15.7002C312.781 15.7002 313.475 15.8335 314.07 16.1001C314.665 16.3667 315.157 16.7427 315.546 17.228C315.943 17.7065 316.237 18.2773 316.428 18.9404C316.626 19.6035 316.726 20.335 316.726 21.1348V22.1909H308.153V20.417H314.285V20.2222C314.271 19.7778 314.183 19.3608 314.019 18.9712C313.861 18.5815 313.619 18.2671 313.291 18.0278C312.962 17.7886 312.525 17.6689 311.978 17.6689C311.568 17.6689 311.202 17.7578 310.881 17.9355C310.566 18.1064 310.303 18.356 310.091 18.6841C309.879 19.0122 309.715 19.4087 309.599 19.8735C309.49 20.3315 309.435 20.8477 309.435 21.4219V21.832C309.435 22.3174 309.5 22.7686 309.63 23.1855C309.767 23.5957 309.965 23.9546 310.225 24.2622C310.484 24.5698 310.799 24.8125 311.168 24.9902C311.537 25.1611 311.958 25.2466 312.429 25.2466C313.024 25.2466 313.554 25.127 314.019 24.8877C314.483 24.6484 314.887 24.3101 315.229 23.8726L316.531 25.1338C316.292 25.4824 315.98 25.8174 315.598 26.1387C315.215 26.4531 314.747 26.7095 314.193 26.9077C313.646 27.106 313.01 27.2051 312.286 27.2051ZM323.544 27.2051C322.724 27.2051 321.982 27.0718 321.319 26.8052C320.663 26.5317 320.103 26.1523 319.638 25.667C319.18 25.1816 318.828 24.6108 318.582 23.9546C318.335 23.2983 318.212 22.5908 318.212 21.832V21.4219C318.212 20.5537 318.339 19.7676 318.592 19.0635C318.845 18.3594 319.197 17.7578 319.648 17.2588C320.099 16.7529 320.632 16.3667 321.248 16.1001C321.863 15.8335 322.529 15.7002 323.247 15.7002C324.04 15.7002 324.734 15.8335 325.329 16.1001C325.923 16.3667 326.416 16.7427 326.805 17.228C327.202 17.7065 327.496 18.2773 327.687 18.9404C327.885 19.6035 327.984 20.335 327.984 21.1348V22.1909H319.412V20.417H325.544V20.2222C325.53 19.7778 325.441 19.3608 325.277 18.9712C325.12 18.5815 324.877 18.2671 324.549 18.0278C324.221 17.7886 323.784 17.6689 323.237 17.6689C322.827 17.6689 322.461 17.7578 322.14 17.9355C321.825 18.1064 321.562 18.356 321.35 18.6841C321.138 19.0122 320.974 19.4087 320.858 19.8735C320.749 20.3315 320.694 20.8477 320.694 21.4219V21.832C320.694 22.3174 320.759 22.7686 320.889 23.1855C321.025 23.5957 321.224 23.9546 321.483 24.2622C321.743 24.5698 322.058 24.8125 322.427 24.9902C322.796 25.1611 323.216 25.2466 323.688 25.2466C324.283 25.2466 324.812 25.127 325.277 24.8877C325.742 24.6484 326.146 24.3101 326.487 23.8726L327.79 25.1338C327.55 25.4824 327.239 25.8174 326.856 26.1387C326.474 26.4531 326.005 26.7095 325.452 26.9077C324.905 27.106 324.269 27.2051 323.544 27.2051ZM334.444 25.2363C334.848 25.2363 335.21 25.1577 335.531 25.0005C335.859 24.8364 336.123 24.6108 336.321 24.3237C336.526 24.0366 336.639 23.7051 336.659 23.3291H338.987C338.973 24.0469 338.761 24.6997 338.351 25.2876C337.941 25.8755 337.397 26.3438 336.721 26.6924C336.044 27.0342 335.295 27.2051 334.475 27.2051C333.627 27.2051 332.889 27.0615 332.26 26.7744C331.631 26.4805 331.108 26.0771 330.691 25.5645C330.274 25.0518 329.96 24.4604 329.748 23.7905C329.543 23.1206 329.44 22.4028 329.44 21.6372V21.2783C329.44 20.5127 329.543 19.7949 329.748 19.125C329.96 18.4482 330.274 17.8535 330.691 17.3408C331.108 16.8281 331.631 16.4282 332.26 16.1411C332.889 15.8472 333.624 15.7002 334.465 15.7002C335.354 15.7002 336.133 15.8779 336.803 16.2334C337.473 16.582 337.999 17.0708 338.382 17.6997C338.771 18.3218 338.973 19.0464 338.987 19.8735H336.659C336.639 19.4634 336.536 19.0942 336.352 18.7661C336.174 18.4312 335.921 18.1646 335.593 17.9663C335.271 17.7681 334.885 17.6689 334.434 17.6689C333.935 17.6689 333.521 17.7715 333.193 17.9766C332.865 18.1748 332.609 18.4482 332.424 18.7969C332.24 19.1387 332.106 19.5249 332.024 19.9556C331.949 20.3794 331.912 20.8203 331.912 21.2783V21.6372C331.912 22.0952 331.949 22.5396 332.024 22.9702C332.1 23.4009 332.229 23.7871 332.414 24.1289C332.605 24.4639 332.865 24.7339 333.193 24.939C333.521 25.1372 333.938 25.2363 334.444 25.2363ZM343.324 11.25V27H340.863V11.25H343.324ZM342.894 21.0425L342.094 21.0322C342.101 20.2666 342.207 19.5591 342.412 18.9097C342.624 18.2603 342.917 17.6963 343.293 17.2178C343.676 16.7324 344.134 16.3599 344.667 16.1001C345.201 15.8335 345.792 15.7002 346.441 15.7002C346.988 15.7002 347.48 15.7754 347.918 15.9258C348.362 16.0762 348.745 16.3188 349.066 16.6538C349.388 16.9819 349.63 17.4126 349.794 17.9458C349.965 18.4722 350.051 19.1147 350.051 19.8735V27H347.569V19.853C347.569 19.3198 347.491 18.896 347.333 18.5815C347.183 18.2671 346.961 18.0415 346.667 17.9048C346.373 17.7612 346.014 17.6895 345.59 17.6895C345.146 17.6895 344.753 17.7783 344.411 17.9561C344.076 18.1338 343.796 18.3765 343.57 18.6841C343.345 18.9917 343.174 19.3472 343.058 19.7505C342.948 20.1538 342.894 20.5845 342.894 21.0425Z" fill="black"/>
<defs>
<filter id="filter0_d_1_1674" x="0" y="0" width="408" height="48" filterUnits="userSpaceOnUse" color-interpolation-filters="sRGB">
<feFlood flood-opacity="0" result="BackgroundImageFix"/>
<feColorMatrix in="SourceAlpha" type="matrix" values="0 0 0 0 0 0 0 0 0 0 0 0 0 0 0 0 0 0 127 0" result="hardAlpha"/>
<feOffset dy="4"/>
<feGaussianBlur stdDeviation="2"/>
<feComposite in2="hardAlpha" operator="out"/>
<feColorMatrix type="matrix" values="0 0 0 0 0 0 0 0 0 0 0 0 0 0 0 0 0 0 0.25 0"/>
<feBlend mode="normal" in2="BackgroundImageFix" result="effect1_dropShadow_1_1674"/>
<feBlend mode="normal" in="SourceGraphic" in2="effect1_dropShadow_1_1674" result="shape"/>
</filter>
</defs>
</svg>
