<svg width="309" height="107" viewBox="0 0 309 107" fill="none" xmlns="http://www.w3.org/2000/svg">
<g filter="url(#filter0_d_45_3466)">
<path d="M55 99C55 76.9086 72.9086 59 95 59H305C305 81.0914 287.091 99 265 99H55Z" fill="#F6DAE4"/>
</g>
<g filter="url(#filter1_d_45_3466)">
<path d="M4 40C4 17.9086 21.9086 0 44 0H254C254 22.0914 236.091 40 214 40H4Z" fill="#F6DAE4"/>
</g>
<path d="M154.372 84.1548C154.372 83.8472 154.324 83.5737 154.229 83.3345C154.14 83.0952 153.979 82.8765 153.747 82.6782C153.514 82.48 153.186 82.2886 152.762 82.104C152.345 81.9126 151.812 81.7178 151.163 81.5195C150.452 81.3008 149.795 81.0581 149.194 80.7915C148.599 80.5181 148.08 80.2036 147.635 79.8481C147.191 79.4858 146.846 79.0723 146.6 78.6074C146.354 78.1357 146.23 77.5923 146.23 76.9771C146.23 76.3687 146.357 75.8149 146.61 75.3159C146.87 74.8169 147.235 74.3862 147.707 74.0239C148.186 73.6548 148.75 73.3711 149.399 73.1729C150.048 72.9678 150.766 72.8652 151.552 72.8652C152.66 72.8652 153.613 73.0703 154.413 73.4805C155.22 73.8906 155.838 74.4409 156.269 75.1313C156.707 75.8218 156.925 76.584 156.925 77.418H154.372C154.372 76.9258 154.266 76.4917 154.054 76.1157C153.849 75.7329 153.535 75.4321 153.111 75.2134C152.694 74.9946 152.164 74.8853 151.521 74.8853C150.913 74.8853 150.407 74.9775 150.004 75.1621C149.601 75.3467 149.3 75.5962 149.102 75.9106C148.903 76.2251 148.804 76.5806 148.804 76.9771C148.804 77.2573 148.869 77.5137 148.999 77.7461C149.129 77.9717 149.327 78.1836 149.594 78.3818C149.86 78.5732 150.195 78.7544 150.599 78.9253C151.002 79.0962 151.477 79.2603 152.024 79.4175C152.851 79.6636 153.572 79.937 154.188 80.2378C154.803 80.5317 155.315 80.8667 155.726 81.2427C156.136 81.6187 156.443 82.0459 156.648 82.5244C156.854 82.9961 156.956 83.5327 156.956 84.1343C156.956 84.7632 156.83 85.3306 156.577 85.8364C156.324 86.3354 155.961 86.7627 155.49 87.1182C155.025 87.4668 154.464 87.7368 153.808 87.9282C153.159 88.1128 152.434 88.2051 151.634 88.2051C150.917 88.2051 150.209 88.1094 149.512 87.918C148.821 87.7266 148.192 87.436 147.625 87.0464C147.058 86.6499 146.606 86.1577 146.271 85.5698C145.937 84.9751 145.769 84.2812 145.769 83.4883H148.343C148.343 83.9736 148.425 84.3872 148.589 84.729C148.76 85.0708 148.996 85.3511 149.296 85.5698C149.597 85.7817 149.946 85.939 150.342 86.0415C150.746 86.144 151.176 86.1953 151.634 86.1953C152.236 86.1953 152.738 86.1099 153.142 85.939C153.552 85.7681 153.859 85.5288 154.064 85.2212C154.27 84.9136 154.372 84.5581 154.372 84.1548ZM161.427 72.25V88H158.966V72.25H161.427ZM160.996 82.0425L160.196 82.0322C160.203 81.2666 160.309 80.5591 160.514 79.9097C160.726 79.2603 161.02 78.6963 161.396 78.2178C161.779 77.7324 162.237 77.3599 162.77 77.1001C163.303 76.8335 163.895 76.7002 164.544 76.7002C165.091 76.7002 165.583 76.7754 166.021 76.9258C166.465 77.0762 166.848 77.3188 167.169 77.6538C167.49 77.9819 167.733 78.4126 167.897 78.9458C168.068 79.4722 168.153 80.1147 168.153 80.8735V88H165.672V80.853C165.672 80.3198 165.593 79.896 165.436 79.5815C165.286 79.2671 165.063 79.0415 164.77 78.9048C164.476 78.7612 164.117 78.6895 163.693 78.6895C163.249 78.6895 162.855 78.7783 162.514 78.9561C162.179 79.1338 161.898 79.3765 161.673 79.6841C161.447 79.9917 161.276 80.3472 161.16 80.7505C161.051 81.1538 160.996 81.5845 160.996 82.0425ZM176.91 85.7749V80.4839C176.91 80.0874 176.838 79.7456 176.695 79.4585C176.551 79.1714 176.333 78.9492 176.039 78.792C175.751 78.6348 175.389 78.5562 174.952 78.5562C174.548 78.5562 174.2 78.6245 173.906 78.7612C173.612 78.8979 173.383 79.0825 173.219 79.3149C173.055 79.5474 172.973 79.8105 172.973 80.1045H170.512C170.512 79.667 170.618 79.2432 170.83 78.833C171.042 78.4229 171.349 78.0571 171.752 77.7358C172.156 77.4146 172.638 77.1616 173.198 76.9771C173.759 76.7925 174.388 76.7002 175.085 76.7002C175.919 76.7002 176.657 76.8403 177.3 77.1206C177.949 77.4009 178.458 77.8247 178.828 78.3921C179.204 78.9526 179.392 79.6567 179.392 80.5044V85.4365C179.392 85.9424 179.426 86.397 179.494 86.8003C179.569 87.1968 179.675 87.542 179.812 87.8359V88H177.279C177.163 87.7334 177.071 87.395 177.002 86.9849C176.941 86.5679 176.91 86.1646 176.91 85.7749ZM177.269 81.2529L177.29 82.7808H175.516C175.058 82.7808 174.654 82.8252 174.306 82.9141C173.957 82.9961 173.667 83.1191 173.434 83.2832C173.202 83.4473 173.027 83.6455 172.911 83.8779C172.795 84.1104 172.737 84.3735 172.737 84.6675C172.737 84.9614 172.805 85.2314 172.942 85.4775C173.079 85.7168 173.277 85.9048 173.537 86.0415C173.803 86.1782 174.125 86.2466 174.5 86.2466C175.006 86.2466 175.447 86.144 175.823 85.939C176.206 85.7271 176.507 85.4707 176.726 85.1699C176.944 84.8623 177.061 84.5718 177.074 84.2983L177.874 85.3955C177.792 85.6758 177.652 85.9766 177.454 86.2979C177.255 86.6191 176.996 86.9268 176.674 87.2207C176.36 87.5078 175.98 87.7437 175.536 87.9282C175.099 88.1128 174.593 88.2051 174.019 88.2051C173.294 88.2051 172.648 88.0615 172.081 87.7744C171.513 87.4805 171.069 87.0874 170.748 86.5952C170.426 86.0962 170.266 85.5322 170.266 84.9033C170.266 84.3154 170.375 83.7959 170.594 83.3447C170.819 82.8867 171.147 82.5039 171.578 82.1963C172.016 81.8887 172.549 81.6562 173.178 81.499C173.807 81.335 174.524 81.2529 175.331 81.2529H177.269ZM181.986 72.25H184.457V85.6313L184.221 88H181.986V72.25ZM191.696 82.3501V82.5654C191.696 83.3857 191.604 84.1411 191.419 84.8315C191.242 85.5151 190.968 86.1099 190.599 86.6157C190.237 87.1216 189.786 87.5146 189.246 87.7949C188.712 88.0684 188.094 88.2051 187.39 88.2051C186.699 88.2051 186.098 88.0752 185.585 87.8154C185.072 87.5557 184.642 87.1865 184.293 86.708C183.951 86.2295 183.674 85.6587 183.462 84.9956C183.25 84.3325 183.1 83.6011 183.011 82.8013V82.1143C183.1 81.3076 183.25 80.5762 183.462 79.9199C183.674 79.2568 183.951 78.686 184.293 78.2075C184.642 77.7222 185.069 77.3496 185.575 77.0898C186.087 76.8301 186.686 76.7002 187.369 76.7002C188.08 76.7002 188.706 76.8369 189.246 77.1104C189.792 77.3838 190.247 77.7734 190.609 78.2793C190.972 78.7783 191.242 79.373 191.419 80.0635C191.604 80.7539 191.696 81.5161 191.696 82.3501ZM189.225 82.5654V82.3501C189.225 81.8511 189.184 81.3828 189.102 80.9453C189.02 80.501 188.883 80.1113 188.692 79.7764C188.507 79.4414 188.254 79.1782 187.933 78.9868C187.619 78.7886 187.226 78.6895 186.754 78.6895C186.316 78.6895 185.94 78.7646 185.626 78.915C185.312 79.0654 185.048 79.2705 184.836 79.5303C184.625 79.79 184.457 80.0908 184.334 80.4326C184.218 80.7744 184.139 81.1436 184.098 81.54V83.396C184.16 83.9087 184.29 84.3804 184.488 84.811C184.693 85.2349 184.98 85.5767 185.349 85.8364C185.718 86.0894 186.193 86.2158 186.774 86.2158C187.232 86.2158 187.619 86.1235 187.933 85.939C188.248 85.7544 188.497 85.498 188.682 85.1699C188.873 84.835 189.01 84.4453 189.092 84.001C189.181 83.5566 189.225 83.0781 189.225 82.5654ZM193.798 72.25H196.27V85.6313L196.034 88H193.798V72.25ZM203.509 82.3501V82.5654C203.509 83.3857 203.417 84.1411 203.232 84.8315C203.054 85.5151 202.781 86.1099 202.412 86.6157C202.049 87.1216 201.598 87.5146 201.058 87.7949C200.525 88.0684 199.906 88.2051 199.202 88.2051C198.512 88.2051 197.91 88.0752 197.397 87.8154C196.885 87.5557 196.454 87.1865 196.105 86.708C195.764 86.2295 195.487 85.6587 195.275 84.9956C195.063 84.3325 194.913 83.6011 194.824 82.8013V82.1143C194.913 81.3076 195.063 80.5762 195.275 79.9199C195.487 79.2568 195.764 78.686 196.105 78.2075C196.454 77.7222 196.881 77.3496 197.387 77.0898C197.9 76.8301 198.498 76.7002 199.182 76.7002C199.893 76.7002 200.518 76.8369 201.058 77.1104C201.605 77.3838 202.06 77.7734 202.422 78.2793C202.784 78.7783 203.054 79.373 203.232 80.0635C203.417 80.7539 203.509 81.5161 203.509 82.3501ZM201.038 82.5654V82.3501C201.038 81.8511 200.997 81.3828 200.915 80.9453C200.833 80.501 200.696 80.1113 200.504 79.7764C200.32 79.4414 200.067 79.1782 199.746 78.9868C199.431 78.7886 199.038 78.6895 198.566 78.6895C198.129 78.6895 197.753 78.7646 197.438 78.915C197.124 79.0654 196.861 79.2705 196.649 79.5303C196.437 79.79 196.27 80.0908 196.146 80.4326C196.03 80.7744 195.952 81.1436 195.911 81.54V83.396C195.972 83.9087 196.102 84.3804 196.3 84.811C196.505 85.2349 196.792 85.5767 197.162 85.8364C197.531 86.0894 198.006 86.2158 198.587 86.2158C199.045 86.2158 199.431 86.1235 199.746 85.939C200.06 85.7544 200.31 85.498 200.494 85.1699C200.686 84.835 200.822 84.4453 200.904 84.001C200.993 83.5566 201.038 83.0781 201.038 82.5654ZM208.697 86.79L211.712 76.9053H214.357L209.907 89.6919C209.805 89.9653 209.671 90.2627 209.507 90.584C209.343 90.9053 209.128 91.2095 208.861 91.4966C208.602 91.7905 208.277 92.0264 207.887 92.2041C207.498 92.3887 207.026 92.481 206.472 92.481C206.253 92.481 206.042 92.4604 205.836 92.4194C205.638 92.3853 205.45 92.3477 205.272 92.3066L205.262 90.4199C205.331 90.4268 205.413 90.4336 205.508 90.4404C205.611 90.4473 205.693 90.4507 205.754 90.4507C206.165 90.4507 206.506 90.3994 206.78 90.2969C207.053 90.2012 207.275 90.0439 207.446 89.8252C207.624 89.6064 207.774 89.3125 207.897 88.9434L208.697 86.79ZM206.995 76.9053L209.63 85.2109L210.071 87.8154L208.359 88.2563L204.329 76.9053H206.995Z" fill="black"/>
<path d="M91.0913 12.0703V27H88.5176V12.0703H91.0913ZM97.1821 18.6021V20.6426H90.4351V18.6021H97.1821ZM98.0332 12.0703V14.1211H90.4351V12.0703H98.0332ZM102.483 15.9053V27H100.002V15.9053H102.483ZM99.8379 12.9932C99.8379 12.6172 99.9609 12.3062 100.207 12.0601C100.46 11.8071 100.809 11.6807 101.253 11.6807C101.69 11.6807 102.036 11.8071 102.289 12.0601C102.542 12.3062 102.668 12.6172 102.668 12.9932C102.668 13.3623 102.542 13.6699 102.289 13.916C102.036 14.1621 101.69 14.2852 101.253 14.2852C100.809 14.2852 100.46 14.1621 100.207 13.916C99.9609 13.6699 99.8379 13.3623 99.8379 12.9932ZM107.672 18.0176V27H105.201V15.9053H107.559L107.672 18.0176ZM111.066 15.8335L111.045 18.1304C110.895 18.103 110.731 18.0825 110.553 18.0688C110.382 18.0552 110.211 18.0483 110.041 18.0483C109.617 18.0483 109.244 18.1099 108.923 18.2329C108.602 18.3491 108.332 18.52 108.113 18.7456C107.901 18.9644 107.737 19.231 107.621 19.5454C107.504 19.8599 107.436 20.2119 107.416 20.6016L106.852 20.6426C106.852 19.9453 106.92 19.2993 107.057 18.7046C107.193 18.1099 107.398 17.5869 107.672 17.1357C107.952 16.6846 108.301 16.3325 108.718 16.0796C109.142 15.8267 109.63 15.7002 110.184 15.7002C110.334 15.7002 110.495 15.7139 110.666 15.7412C110.844 15.7686 110.977 15.7993 111.066 15.8335ZM118.838 23.9956C118.838 23.7495 118.777 23.5273 118.654 23.3291C118.531 23.124 118.295 22.9395 117.946 22.7754C117.604 22.6113 117.099 22.4609 116.429 22.3242C115.841 22.1943 115.301 22.0405 114.809 21.8628C114.323 21.6782 113.906 21.4561 113.558 21.1963C113.209 20.9365 112.939 20.6289 112.748 20.2734C112.556 19.918 112.46 19.5078 112.46 19.043C112.46 18.5918 112.56 18.1646 112.758 17.7612C112.956 17.3579 113.24 17.0024 113.609 16.6948C113.978 16.3872 114.426 16.1445 114.952 15.9668C115.485 15.7891 116.08 15.7002 116.736 15.7002C117.666 15.7002 118.462 15.8574 119.125 16.1719C119.795 16.4795 120.308 16.8999 120.664 17.4331C121.019 17.9595 121.197 18.5542 121.197 19.2173H118.726C118.726 18.9233 118.65 18.6499 118.5 18.397C118.356 18.1372 118.138 17.9287 117.844 17.7715C117.55 17.6074 117.181 17.5254 116.736 17.5254C116.312 17.5254 115.96 17.5938 115.68 17.7305C115.407 17.8604 115.202 18.0312 115.065 18.2432C114.935 18.4551 114.87 18.6875 114.87 18.9404C114.87 19.125 114.904 19.2925 114.973 19.4429C115.048 19.5864 115.171 19.7197 115.342 19.8428C115.513 19.959 115.745 20.0684 116.039 20.1709C116.34 20.2734 116.716 20.3726 117.167 20.4683C118.015 20.646 118.743 20.875 119.351 21.1553C119.966 21.4287 120.438 21.7842 120.766 22.2217C121.094 22.6523 121.258 23.1992 121.258 23.8623C121.258 24.3545 121.152 24.8057 120.94 25.2158C120.735 25.6191 120.435 25.9712 120.038 26.272C119.642 26.5659 119.167 26.7949 118.613 26.959C118.066 27.123 117.451 27.2051 116.767 27.2051C115.762 27.2051 114.911 27.0273 114.214 26.6719C113.517 26.3096 112.987 25.8481 112.625 25.2876C112.269 24.7202 112.091 24.1323 112.091 23.5239H114.48C114.508 23.9819 114.634 24.3477 114.86 24.6211C115.092 24.8877 115.379 25.0825 115.721 25.2056C116.07 25.3218 116.429 25.3799 116.798 25.3799C117.242 25.3799 117.615 25.3218 117.916 25.2056C118.216 25.0825 118.445 24.9185 118.603 24.7134C118.76 24.5015 118.838 24.2622 118.838 23.9956ZM128.508 15.9053V17.71H122.253V15.9053H128.508ZM124.058 13.188H126.529V23.9341C126.529 24.2759 126.577 24.5391 126.672 24.7236C126.775 24.9014 126.915 25.021 127.093 25.0825C127.271 25.144 127.479 25.1748 127.718 25.1748C127.889 25.1748 128.053 25.1646 128.21 25.144C128.368 25.1235 128.494 25.103 128.59 25.0825L128.6 26.9692C128.395 27.0308 128.156 27.0854 127.882 27.1333C127.616 27.1812 127.308 27.2051 126.959 27.2051C126.392 27.2051 125.89 27.106 125.452 26.9077C125.015 26.7026 124.673 26.3711 124.427 25.9131C124.181 25.4551 124.058 24.8467 124.058 24.0879V13.188ZM135.388 19.6377V21.6064H129.964V19.6377H135.388ZM142.084 25.2363C142.487 25.2363 142.85 25.1577 143.171 25.0005C143.499 24.8364 143.762 24.6108 143.96 24.3237C144.166 24.0366 144.278 23.7051 144.299 23.3291H146.626C146.613 24.0469 146.401 24.6997 145.991 25.2876C145.581 25.8755 145.037 26.3438 144.36 26.6924C143.684 27.0342 142.935 27.2051 142.115 27.2051C141.267 27.2051 140.529 27.0615 139.9 26.7744C139.271 26.4805 138.748 26.0771 138.331 25.5645C137.914 25.0518 137.6 24.4604 137.388 23.7905C137.183 23.1206 137.08 22.4028 137.08 21.6372V21.2783C137.08 20.5127 137.183 19.7949 137.388 19.125C137.6 18.4482 137.914 17.8535 138.331 17.3408C138.748 16.8281 139.271 16.4282 139.9 16.1411C140.529 15.8472 141.264 15.7002 142.104 15.7002C142.993 15.7002 143.772 15.8779 144.442 16.2334C145.112 16.582 145.639 17.0708 146.021 17.6997C146.411 18.3218 146.613 19.0464 146.626 19.8735H144.299C144.278 19.4634 144.176 19.0942 143.991 18.7661C143.813 18.4312 143.561 18.1646 143.232 17.9663C142.911 17.7681 142.525 17.6689 142.074 17.6689C141.575 17.6689 141.161 17.7715 140.833 17.9766C140.505 18.1748 140.249 18.4482 140.064 18.7969C139.879 19.1387 139.746 19.5249 139.664 19.9556C139.589 20.3794 139.551 20.8203 139.551 21.2783V21.6372C139.551 22.0952 139.589 22.5396 139.664 22.9702C139.739 23.4009 139.869 23.7871 140.054 24.1289C140.245 24.4639 140.505 24.7339 140.833 24.939C141.161 25.1372 141.578 25.2363 142.084 25.2363ZM151.169 11.25V27H148.688V11.25H151.169ZM160.131 24.7749V19.4839C160.131 19.0874 160.059 18.7456 159.916 18.4585C159.772 18.1714 159.553 17.9492 159.259 17.792C158.972 17.6348 158.61 17.5562 158.172 17.5562C157.769 17.5562 157.42 17.6245 157.126 17.7612C156.833 17.8979 156.604 18.0825 156.439 18.3149C156.275 18.5474 156.193 18.8105 156.193 19.1045H153.732C153.732 18.667 153.838 18.2432 154.05 17.833C154.262 17.4229 154.57 17.0571 154.973 16.7358C155.376 16.4146 155.858 16.1616 156.419 15.9771C156.979 15.7925 157.608 15.7002 158.306 15.7002C159.14 15.7002 159.878 15.8403 160.521 16.1206C161.17 16.4009 161.679 16.8247 162.048 17.3921C162.424 17.9526 162.612 18.6567 162.612 19.5044V24.4365C162.612 24.9424 162.646 25.397 162.715 25.8003C162.79 26.1968 162.896 26.542 163.033 26.8359V27H160.5C160.384 26.7334 160.292 26.395 160.223 25.9849C160.162 25.5679 160.131 25.1646 160.131 24.7749ZM160.49 20.2529L160.51 21.7808H158.736C158.278 21.7808 157.875 21.8252 157.526 21.9141C157.178 21.9961 156.887 22.1191 156.655 22.2832C156.422 22.4473 156.248 22.6455 156.132 22.8779C156.016 23.1104 155.958 23.3735 155.958 23.6675C155.958 23.9614 156.026 24.2314 156.163 24.4775C156.299 24.7168 156.498 24.9048 156.757 25.0415C157.024 25.1782 157.345 25.2466 157.721 25.2466C158.227 25.2466 158.668 25.144 159.044 24.939C159.427 24.7271 159.728 24.4707 159.946 24.1699C160.165 23.8623 160.281 23.5718 160.295 23.2983L161.095 24.3955C161.013 24.6758 160.873 24.9766 160.674 25.2979C160.476 25.6191 160.216 25.9268 159.895 26.2207C159.581 26.5078 159.201 26.7437 158.757 26.9282C158.319 27.1128 157.813 27.2051 157.239 27.2051C156.515 27.2051 155.869 27.0615 155.301 26.7744C154.734 26.4805 154.29 26.0874 153.968 25.5952C153.647 25.0962 153.486 24.5322 153.486 23.9033C153.486 23.3154 153.596 22.7959 153.814 22.3447C154.04 21.8867 154.368 21.5039 154.799 21.1963C155.236 20.8887 155.77 20.6562 156.398 20.499C157.027 20.335 157.745 20.2529 158.552 20.2529H160.49ZM171.42 23.9956C171.42 23.7495 171.359 23.5273 171.236 23.3291C171.113 23.124 170.877 22.9395 170.528 22.7754C170.187 22.6113 169.681 22.4609 169.011 22.3242C168.423 22.1943 167.883 22.0405 167.391 21.8628C166.905 21.6782 166.488 21.4561 166.14 21.1963C165.791 20.9365 165.521 20.6289 165.33 20.2734C165.138 19.918 165.042 19.5078 165.042 19.043C165.042 18.5918 165.142 18.1646 165.34 17.7612C165.538 17.3579 165.822 17.0024 166.191 16.6948C166.56 16.3872 167.008 16.1445 167.534 15.9668C168.067 15.7891 168.662 15.7002 169.318 15.7002C170.248 15.7002 171.044 15.8574 171.708 16.1719C172.377 16.4795 172.89 16.8999 173.246 17.4331C173.601 17.9595 173.779 18.5542 173.779 19.2173H171.308C171.308 18.9233 171.232 18.6499 171.082 18.397C170.938 18.1372 170.72 17.9287 170.426 17.7715C170.132 17.6074 169.763 17.5254 169.318 17.5254C168.895 17.5254 168.542 17.5938 168.262 17.7305C167.989 17.8604 167.784 18.0312 167.647 18.2432C167.517 18.4551 167.452 18.6875 167.452 18.9404C167.452 19.125 167.486 19.2925 167.555 19.4429C167.63 19.5864 167.753 19.7197 167.924 19.8428C168.095 19.959 168.327 20.0684 168.621 20.1709C168.922 20.2734 169.298 20.3726 169.749 20.4683C170.597 20.646 171.325 20.875 171.933 21.1553C172.548 21.4287 173.02 21.7842 173.348 22.2217C173.676 22.6523 173.84 23.1992 173.84 23.8623C173.84 24.3545 173.734 24.8057 173.522 25.2158C173.317 25.6191 173.017 25.9712 172.62 26.272C172.224 26.5659 171.749 26.7949 171.195 26.959C170.648 27.123 170.033 27.2051 169.349 27.2051C168.344 27.2051 167.493 27.0273 166.796 26.6719C166.099 26.3096 165.569 25.8481 165.207 25.2876C164.851 24.7202 164.673 24.1323 164.673 23.5239H167.062C167.09 23.9819 167.216 24.3477 167.442 24.6211C167.674 24.8877 167.961 25.0825 168.303 25.2056C168.652 25.3218 169.011 25.3799 169.38 25.3799C169.824 25.3799 170.197 25.3218 170.498 25.2056C170.798 25.0825 171.027 24.9185 171.185 24.7134C171.342 24.5015 171.42 24.2622 171.42 23.9956ZM182.228 23.9956C182.228 23.7495 182.167 23.5273 182.043 23.3291C181.92 23.124 181.685 22.9395 181.336 22.7754C180.994 22.6113 180.488 22.4609 179.818 22.3242C179.23 22.1943 178.69 22.0405 178.198 21.8628C177.713 21.6782 177.296 21.4561 176.947 21.1963C176.599 20.9365 176.329 20.6289 176.137 20.2734C175.946 19.918 175.85 19.5078 175.85 19.043C175.85 18.5918 175.949 18.1646 176.147 17.7612C176.346 17.3579 176.629 17.0024 176.999 16.6948C177.368 16.3872 177.815 16.1445 178.342 15.9668C178.875 15.7891 179.47 15.7002 180.126 15.7002C181.056 15.7002 181.852 15.8574 182.515 16.1719C183.185 16.4795 183.698 16.8999 184.053 17.4331C184.409 17.9595 184.586 18.5542 184.586 19.2173H182.115C182.115 18.9233 182.04 18.6499 181.89 18.397C181.746 18.1372 181.527 17.9287 181.233 17.7715C180.939 17.6074 180.57 17.5254 180.126 17.5254C179.702 17.5254 179.35 17.5938 179.07 17.7305C178.796 17.8604 178.591 18.0312 178.455 18.2432C178.325 18.4551 178.26 18.6875 178.26 18.9404C178.26 19.125 178.294 19.2925 178.362 19.4429C178.438 19.5864 178.561 19.7197 178.731 19.8428C178.902 19.959 179.135 20.0684 179.429 20.1709C179.729 20.2734 180.105 20.3726 180.557 20.4683C181.404 20.646 182.132 20.875 182.741 21.1553C183.356 21.4287 183.828 21.7842 184.156 22.2217C184.484 22.6523 184.648 23.1992 184.648 23.8623C184.648 24.3545 184.542 24.8057 184.33 25.2158C184.125 25.6191 183.824 25.9712 183.428 26.272C183.031 26.5659 182.556 26.7949 182.002 26.959C181.456 27.123 180.84 27.2051 180.157 27.2051C179.152 27.2051 178.301 27.0273 177.604 26.6719C176.906 26.3096 176.376 25.8481 176.014 25.2876C175.659 24.7202 175.481 24.1323 175.481 23.5239H177.87C177.897 23.9819 178.024 24.3477 178.25 24.6211C178.482 24.8877 178.769 25.0825 179.111 25.2056C179.459 25.3218 179.818 25.3799 180.188 25.3799C180.632 25.3799 181.004 25.3218 181.305 25.2056C181.606 25.0825 181.835 24.9185 181.992 24.7134C182.149 24.5015 182.228 24.2622 182.228 23.9956Z" fill="black"/>
<defs>
<filter id="filter0_d_45_3466" x="51" y="59" width="258" height="48" filterUnits="userSpaceOnUse" color-interpolation-filters="sRGB">
<feFlood flood-opacity="0" result="BackgroundImageFix"/>
<feColorMatrix in="SourceAlpha" type="matrix" values="0 0 0 0 0 0 0 0 0 0 0 0 0 0 0 0 0 0 127 0" result="hardAlpha"/>
<feOffset dy="4"/>
<feGaussianBlur stdDeviation="2"/>
<feComposite in2="hardAlpha" operator="out"/>
<feColorMatrix type="matrix" values="0 0 0 0 0 0 0 0 0 0 0 0 0 0 0 0 0 0 0.25 0"/>
<feBlend mode="normal" in2="BackgroundImageFix" result="effect1_dropShadow_45_3466"/>
<feBlend mode="normal" in="SourceGraphic" in2="effect1_dropShadow_45_3466" result="shape"/>
</filter>
<filter id="filter1_d_45_3466" x="0" y="0" width="258" height="48" filterUnits="userSpaceOnUse" color-interpolation-filters="sRGB">
<feFlood flood-opacity="0" result="BackgroundImageFix"/>
<feColorMatrix in="SourceAlpha" type="matrix" values="0 0 0 0 0 0 0 0 0 0 0 0 0 0 0 0 0 0 127 0" result="hardAlpha"/>
<feOffset dy="4"/>
<feGaussianBlur stdDeviation="2"/>
<feComposite in2="hardAlpha" operator="out"/>
<feColorMatrix type="matrix" values="0 0 0 0 0 0 0 0 0 0 0 0 0 0 0 0 0 0 0.25 0"/>
<feBlend mode="normal" in2="BackgroundImageFix" result="effect1_dropShadow_45_3466"/>
<feBlend mode="normal" in="SourceGraphic" in2="effect1_dropShadow_45_3466" result="shape"/>
</filter>
</defs>
</svg>
