<svg width="562" height="107" viewBox="0 0 562 107" fill="none" xmlns="http://www.w3.org/2000/svg">
<g filter="url(#filter0_d_45_3455)">
<path d="M4 40C4 17.9086 21.9086 0 44 0H254V0C254 22.0914 236.091 40 214 40H4V40Z" fill="#F6DAE4"/>
</g>
<g filter="url(#filter1_d_45_3455)">
<path d="M263 40C263 17.9086 280.909 0 303 0H513V0C513 22.0914 495.091 40 473 40H263V40Z" fill="#F6DAE4"/>
</g>
<g filter="url(#filter2_d_45_3455)">
<path d="M43 99C43 76.9086 60.9086 59 83 59H293V59C293 81.0914 275.091 99 253 99H43V99Z" fill="#F6DAE4"/>
</g>
<g filter="url(#filter3_d_45_3455)">
<path d="M308 99C308 76.9086 325.909 59 348 59H558V59C558 81.0914 540.091 99 518 99H308V99Z" fill="#F6DAE4"/>
</g>
<path d="M91.3721 25.1548C91.3721 24.8472 91.3242 24.5737 91.2285 24.3345C91.1396 24.0952 90.979 23.8765 90.7466 23.6782C90.5142 23.48 90.186 23.2886 89.7622 23.104C89.3452 22.9126 88.812 22.7178 88.1626 22.5195C87.4517 22.3008 86.7954 22.0581 86.1938 21.7915C85.5991 21.5181 85.0796 21.2036 84.6353 20.8481C84.1909 20.4858 83.8457 20.0723 83.5996 19.6074C83.3535 19.1357 83.2305 18.5923 83.2305 17.9771C83.2305 17.3687 83.3569 16.8149 83.6099 16.3159C83.8696 15.8169 84.2354 15.3862 84.707 15.0239C85.1855 14.6548 85.7495 14.3711 86.3989 14.1729C87.0483 13.9678 87.7661 13.8652 88.5522 13.8652C89.6597 13.8652 90.6133 14.0703 91.4131 14.4805C92.2197 14.8906 92.8384 15.4409 93.269 16.1313C93.7065 16.8218 93.9253 17.584 93.9253 18.418H91.3721C91.3721 17.9258 91.2661 17.4917 91.0542 17.1157C90.8491 16.7329 90.5347 16.4321 90.1108 16.2134C89.6938 15.9946 89.1641 15.8853 88.5215 15.8853C87.9131 15.8853 87.4072 15.9775 87.0039 16.1621C86.6006 16.3467 86.2998 16.5962 86.1016 16.9106C85.9033 17.2251 85.8042 17.5806 85.8042 17.9771C85.8042 18.2573 85.8691 18.5137 85.999 18.7461C86.1289 18.9717 86.3271 19.1836 86.5938 19.3818C86.8604 19.5732 87.1953 19.7544 87.5986 19.9253C88.002 20.0962 88.4771 20.2603 89.0239 20.4175C89.8511 20.6636 90.5723 20.937 91.1875 21.2378C91.8027 21.5317 92.3154 21.8667 92.7256 22.2427C93.1357 22.6187 93.4434 23.0459 93.6484 23.5244C93.8535 23.9961 93.9561 24.5327 93.9561 25.1343C93.9561 25.7632 93.8296 26.3306 93.5767 26.8364C93.3237 27.3354 92.9614 27.7627 92.4897 28.1182C92.0249 28.4668 91.4644 28.7368 90.8081 28.9282C90.1587 29.1128 89.4341 29.2051 88.6343 29.2051C87.9165 29.2051 87.209 29.1094 86.5117 28.918C85.8213 28.7266 85.1924 28.436 84.625 28.0464C84.0576 27.6499 83.6064 27.1577 83.2715 26.5698C82.9365 25.9751 82.769 25.2812 82.769 24.4883H85.3428C85.3428 24.9736 85.4248 25.3872 85.5889 25.729C85.7598 26.0708 85.9956 26.3511 86.2964 26.5698C86.5972 26.7817 86.9458 26.939 87.3423 27.0415C87.7456 27.144 88.1763 27.1953 88.6343 27.1953C89.2358 27.1953 89.7383 27.1099 90.1416 26.939C90.5518 26.7681 90.8594 26.5288 91.0645 26.2212C91.2695 25.9136 91.3721 25.5581 91.3721 25.1548ZM98.4678 20.0381V33.2656H95.9966V17.9053H98.2729L98.4678 20.0381ZM105.697 23.3501V23.5654C105.697 24.3721 105.601 25.1206 105.41 25.811C105.225 26.4946 104.948 27.0928 104.579 27.6055C104.217 28.1113 103.769 28.5044 103.236 28.7847C102.703 29.0649 102.087 29.2051 101.39 29.2051C100.7 29.2051 100.095 29.0786 99.5752 28.8257C99.0625 28.5659 98.6284 28.2002 98.2729 27.7285C97.9175 27.2568 97.6304 26.7031 97.4116 26.0674C97.1997 25.4248 97.0493 24.7207 96.9604 23.9551V23.1245C97.0493 22.311 97.1997 21.5728 97.4116 20.9097C97.6304 20.2466 97.9175 19.6758 98.2729 19.1973C98.6284 18.7188 99.0625 18.3496 99.5752 18.0898C100.088 17.8301 100.686 17.7002 101.37 17.7002C102.067 17.7002 102.686 17.8369 103.226 18.1104C103.766 18.377 104.22 18.7598 104.589 19.2588C104.958 19.751 105.235 20.3457 105.42 21.043C105.604 21.7334 105.697 22.5024 105.697 23.3501ZM103.226 23.5654V23.3501C103.226 22.8374 103.178 22.3623 103.082 21.9248C102.986 21.4805 102.836 21.0908 102.631 20.7559C102.426 20.4209 102.163 20.1611 101.841 19.9766C101.527 19.7852 101.147 19.6895 100.703 19.6895C100.266 19.6895 99.8896 19.7646 99.5752 19.915C99.2607 20.0586 98.9976 20.2603 98.7856 20.52C98.5737 20.7798 98.4097 21.084 98.2935 21.4326C98.1772 21.7744 98.0952 22.147 98.0474 22.5503V24.5396C98.1294 25.0317 98.2695 25.4829 98.4678 25.8931C98.666 26.3032 98.9463 26.6313 99.3086 26.8774C99.6777 27.1167 100.149 27.2363 100.724 27.2363C101.168 27.2363 101.547 27.1406 101.862 26.9492C102.176 26.7578 102.433 26.4946 102.631 26.1597C102.836 25.8179 102.986 25.4248 103.082 24.9805C103.178 24.5361 103.226 24.0645 103.226 23.5654ZM110.444 13.25V29H107.963V13.25H110.444ZM118.042 29.2051C117.222 29.2051 116.48 29.0718 115.817 28.8052C115.161 28.5317 114.601 28.1523 114.136 27.667C113.678 27.1816 113.326 26.6108 113.08 25.9546C112.833 25.2983 112.71 24.5908 112.71 23.832V23.4219C112.71 22.5537 112.837 21.7676 113.09 21.0635C113.343 20.3594 113.695 19.7578 114.146 19.2588C114.597 18.7529 115.13 18.3667 115.746 18.1001C116.361 17.8335 117.027 17.7002 117.745 17.7002C118.538 17.7002 119.232 17.8335 119.827 18.1001C120.421 18.3667 120.914 18.7427 121.303 19.228C121.7 19.7065 121.994 20.2773 122.185 20.9404C122.383 21.6035 122.482 22.335 122.482 23.1348V24.1909H113.91V22.417H120.042V22.2222C120.028 21.7778 119.939 21.3608 119.775 20.9712C119.618 20.5815 119.375 20.2671 119.047 20.0278C118.719 19.7886 118.282 19.6689 117.735 19.6689C117.325 19.6689 116.959 19.7578 116.638 19.9355C116.323 20.1064 116.06 20.356 115.848 20.6841C115.636 21.0122 115.472 21.4087 115.356 21.8735C115.247 22.3315 115.192 22.8477 115.192 23.4219V23.832C115.192 24.3174 115.257 24.7686 115.387 25.1855C115.523 25.5957 115.722 25.9546 115.981 26.2622C116.241 26.5698 116.556 26.8125 116.925 26.9902C117.294 27.1611 117.714 27.2466 118.186 27.2466C118.781 27.2466 119.311 27.127 119.775 26.8877C120.24 26.6484 120.644 26.3101 120.985 25.8726L122.288 27.1338C122.048 27.4824 121.737 27.8174 121.354 28.1387C120.972 28.4531 120.503 28.7095 119.95 28.9077C119.403 29.106 118.767 29.2051 118.042 29.2051ZM126.861 20.2739V29H124.39V17.9053H126.717L126.861 20.2739ZM126.42 23.0425L125.62 23.0322C125.627 22.2461 125.736 21.5249 125.948 20.8687C126.167 20.2124 126.468 19.6484 126.851 19.1768C127.24 18.7051 127.705 18.3428 128.245 18.0898C128.785 17.8301 129.387 17.7002 130.05 17.7002C130.583 17.7002 131.065 17.7754 131.496 17.9258C131.933 18.0693 132.306 18.3052 132.613 18.6333C132.928 18.9614 133.167 19.3887 133.331 19.915C133.495 20.4346 133.577 21.0737 133.577 21.8325V29H131.096V21.8223C131.096 21.2891 131.017 20.8687 130.86 20.561C130.709 20.2466 130.487 20.0244 130.193 19.8945C129.906 19.7578 129.547 19.6895 129.117 19.6895C128.693 19.6895 128.313 19.7783 127.979 19.9561C127.644 20.1338 127.36 20.3765 127.127 20.6841C126.902 20.9917 126.728 21.3472 126.604 21.7505C126.481 22.1538 126.42 22.5845 126.42 23.0425ZM142.867 26.7031V13.25H145.349V29H143.103L142.867 26.7031ZM135.648 23.5757V23.3604C135.648 22.5195 135.748 21.7539 135.946 21.0635C136.144 20.3662 136.431 19.7681 136.807 19.269C137.183 18.7632 137.641 18.377 138.181 18.1104C138.721 17.8369 139.33 17.7002 140.006 17.7002C140.676 17.7002 141.264 17.8301 141.77 18.0898C142.276 18.3496 142.707 18.7222 143.062 19.2075C143.417 19.686 143.701 20.2603 143.913 20.9302C144.125 21.5933 144.275 22.3315 144.364 23.145V23.832C144.275 24.625 144.125 25.3496 143.913 26.0059C143.701 26.6621 143.417 27.2295 143.062 27.708C142.707 28.1865 142.272 28.5557 141.76 28.8154C141.254 29.0752 140.663 29.2051 139.986 29.2051C139.316 29.2051 138.711 29.0649 138.171 28.7847C137.638 28.5044 137.183 28.1113 136.807 27.6055C136.431 27.0996 136.144 26.5049 135.946 25.8213C135.748 25.1309 135.648 24.3823 135.648 23.5757ZM138.12 23.3604V23.5757C138.12 24.0815 138.164 24.5532 138.253 24.9907C138.349 25.4282 138.496 25.8145 138.694 26.1494C138.892 26.4775 139.148 26.7373 139.463 26.9287C139.784 27.1133 140.167 27.2056 140.611 27.2056C141.172 27.2056 141.633 27.0825 141.996 26.8364C142.358 26.5903 142.642 26.2588 142.847 25.8418C143.059 25.418 143.202 24.9463 143.277 24.4268V22.5708C143.236 22.1675 143.151 21.7915 143.021 21.4429C142.898 21.0942 142.73 20.79 142.519 20.5303C142.307 20.2637 142.043 20.0586 141.729 19.915C141.421 19.7646 141.056 19.6895 140.632 19.6895C140.181 19.6895 139.798 19.7852 139.483 19.9766C139.169 20.168 138.909 20.4312 138.704 20.7661C138.506 21.1011 138.359 21.4907 138.263 21.9351C138.167 22.3794 138.12 22.8545 138.12 23.3604ZM150.578 17.9053V29H148.097V17.9053H150.578ZM147.933 14.9932C147.933 14.6172 148.056 14.3062 148.302 14.0601C148.555 13.8071 148.903 13.6807 149.348 13.6807C149.785 13.6807 150.13 13.8071 150.383 14.0601C150.636 14.3062 150.763 14.6172 150.763 14.9932C150.763 15.3623 150.636 15.6699 150.383 15.916C150.13 16.1621 149.785 16.2852 149.348 16.2852C148.903 16.2852 148.555 16.1621 148.302 15.916C148.056 15.6699 147.933 15.3623 147.933 14.9932ZM160.053 26.7031V13.25H162.534V29H160.289L160.053 26.7031ZM152.834 23.5757V23.3604C152.834 22.5195 152.933 21.7539 153.131 21.0635C153.33 20.3662 153.617 19.7681 153.993 19.269C154.369 18.7632 154.827 18.377 155.367 18.1104C155.907 17.8369 156.515 17.7002 157.192 17.7002C157.862 17.7002 158.45 17.8301 158.956 18.0898C159.461 18.3496 159.892 18.7222 160.248 19.2075C160.603 19.686 160.887 20.2603 161.099 20.9302C161.311 21.5933 161.461 22.3315 161.55 23.145V23.832C161.461 24.625 161.311 25.3496 161.099 26.0059C160.887 26.6621 160.603 27.2295 160.248 27.708C159.892 28.1865 159.458 28.5557 158.945 28.8154C158.439 29.0752 157.848 29.2051 157.171 29.2051C156.501 29.2051 155.896 29.0649 155.356 28.7847C154.823 28.5044 154.369 28.1113 153.993 27.6055C153.617 27.0996 153.33 26.5049 153.131 25.8213C152.933 25.1309 152.834 24.3823 152.834 23.5757ZM155.305 23.3604V23.5757C155.305 24.0815 155.35 24.5532 155.438 24.9907C155.534 25.4282 155.681 25.8145 155.879 26.1494C156.078 26.4775 156.334 26.7373 156.648 26.9287C156.97 27.1133 157.353 27.2056 157.797 27.2056C158.357 27.2056 158.819 27.0825 159.181 26.8364C159.543 26.5903 159.827 26.2588 160.032 25.8418C160.244 25.418 160.388 24.9463 160.463 24.4268V22.5708C160.422 22.1675 160.336 21.7915 160.207 21.4429C160.083 21.0942 159.916 20.79 159.704 20.5303C159.492 20.2637 159.229 20.0586 158.915 19.915C158.607 19.7646 158.241 19.6895 157.817 19.6895C157.366 19.6895 156.983 19.7852 156.669 19.9766C156.354 20.168 156.095 20.4312 155.89 20.7661C155.691 21.1011 155.544 21.4907 155.449 21.9351C155.353 22.3794 155.305 22.8545 155.305 23.3604Z" fill="black"/>
<path d="M340.563 14.0703H342.86L347.177 25.5854L351.484 14.0703H353.781L348.08 29H346.254L340.563 14.0703ZM339.518 14.0703H341.702L342.081 24.0371V29H339.518V14.0703ZM352.643 14.0703H354.837V29H352.263V24.0371L352.643 14.0703ZM363.901 26.7749V21.4839C363.901 21.0874 363.83 20.7456 363.686 20.4585C363.542 20.1714 363.324 19.9492 363.03 19.792C362.743 19.6348 362.38 19.5562 361.943 19.5562C361.54 19.5562 361.191 19.6245 360.897 19.7612C360.603 19.8979 360.374 20.0825 360.21 20.3149C360.046 20.5474 359.964 20.8105 359.964 21.1045H357.503C357.503 20.667 357.609 20.2432 357.821 19.833C358.033 19.4229 358.34 19.0571 358.744 18.7358C359.147 18.4146 359.629 18.1616 360.189 17.9771C360.75 17.7925 361.379 17.7002 362.076 17.7002C362.91 17.7002 363.648 17.8403 364.291 18.1206C364.94 18.4009 365.45 18.8247 365.819 19.3921C366.195 19.9526 366.383 20.6567 366.383 21.5044V26.4365C366.383 26.9424 366.417 27.397 366.485 27.8003C366.561 28.1968 366.667 28.542 366.803 28.8359V29H364.271C364.154 28.7334 364.062 28.395 363.994 27.9849C363.932 27.5679 363.901 27.1646 363.901 26.7749ZM364.26 22.2529L364.281 23.7808H362.507C362.049 23.7808 361.646 23.8252 361.297 23.9141C360.948 23.9961 360.658 24.1191 360.425 24.2832C360.193 24.4473 360.019 24.6455 359.902 24.8779C359.786 25.1104 359.728 25.3735 359.728 25.6675C359.728 25.9614 359.796 26.2314 359.933 26.4775C360.07 26.7168 360.268 26.9048 360.528 27.0415C360.794 27.1782 361.116 27.2466 361.492 27.2466C361.998 27.2466 362.438 27.144 362.814 26.939C363.197 26.7271 363.498 26.4707 363.717 26.1699C363.936 25.8623 364.052 25.5718 364.065 25.2983L364.865 26.3955C364.783 26.6758 364.643 26.9766 364.445 27.2979C364.247 27.6191 363.987 27.9268 363.666 28.2207C363.351 28.5078 362.972 28.7437 362.527 28.9282C362.09 29.1128 361.584 29.2051 361.01 29.2051C360.285 29.2051 359.639 29.0615 359.072 28.7744C358.504 28.4805 358.06 28.0874 357.739 27.5952C357.417 27.0962 357.257 26.5322 357.257 25.9033C357.257 25.3154 357.366 24.7959 357.585 24.3447C357.811 23.8867 358.139 23.5039 358.569 23.1963C359.007 22.8887 359.54 22.6562 360.169 22.499C360.798 22.335 361.516 22.2529 362.322 22.2529H364.26ZM376.073 17.9053H378.318V28.6924C378.318 29.6904 378.106 30.5381 377.683 31.2354C377.259 31.9326 376.667 32.4624 375.909 32.8247C375.15 33.1938 374.271 33.3784 373.273 33.3784C372.85 33.3784 372.378 33.3169 371.858 33.1938C371.346 33.0708 370.847 32.8726 370.361 32.5991C369.883 32.3325 369.483 31.9805 369.162 31.543L370.32 30.0869C370.717 30.5586 371.154 30.9038 371.633 31.1226C372.111 31.3413 372.614 31.4507 373.14 31.4507C373.708 31.4507 374.189 31.3447 374.586 31.1328C374.989 30.9277 375.3 30.6235 375.519 30.2202C375.738 29.8169 375.847 29.3247 375.847 28.7437V20.4175L376.073 17.9053ZM368.536 23.5757V23.3604C368.536 22.5195 368.639 21.7539 368.844 21.0635C369.049 20.3662 369.343 19.7681 369.726 19.269C370.108 18.7632 370.573 18.377 371.12 18.1104C371.667 17.8369 372.286 17.7002 372.976 17.7002C373.694 17.7002 374.306 17.8301 374.812 18.0898C375.324 18.3496 375.751 18.7222 376.093 19.2075C376.435 19.686 376.702 20.2603 376.893 20.9302C377.091 21.5933 377.238 22.3315 377.334 23.145V23.832C377.245 24.625 377.095 25.3496 376.883 26.0059C376.671 26.6621 376.391 27.2295 376.042 27.708C375.693 28.1865 375.263 28.5557 374.75 28.8154C374.244 29.0752 373.646 29.2051 372.956 29.2051C372.279 29.2051 371.667 29.0649 371.12 28.7847C370.58 28.5044 370.115 28.1113 369.726 27.6055C369.343 27.0996 369.049 26.5049 368.844 25.8213C368.639 25.1309 368.536 24.3823 368.536 23.5757ZM371.007 23.3604V23.5757C371.007 24.0815 371.055 24.5532 371.151 24.9907C371.253 25.4282 371.407 25.8145 371.612 26.1494C371.824 26.4775 372.091 26.7373 372.412 26.9287C372.74 27.1133 373.126 27.2056 373.571 27.2056C374.152 27.2056 374.627 27.0825 374.996 26.8364C375.372 26.5903 375.659 26.2588 375.857 25.8418C376.062 25.418 376.206 24.9463 376.288 24.4268V22.5708C376.247 22.1675 376.162 21.7915 376.032 21.4429C375.909 21.0942 375.741 20.79 375.529 20.5303C375.317 20.2637 375.051 20.0586 374.729 19.915C374.408 19.7646 374.029 19.6895 373.591 19.6895C373.147 19.6895 372.761 19.7852 372.433 19.9766C372.104 20.168 371.834 20.4312 371.623 20.7661C371.417 21.1011 371.264 21.4907 371.161 21.9351C371.059 22.3794 371.007 22.8545 371.007 23.3604ZM383.333 20.2739V29H380.861V17.9053H383.189L383.333 20.2739ZM382.892 23.0425L382.092 23.0322C382.099 22.2461 382.208 21.5249 382.42 20.8687C382.639 20.2124 382.939 19.6484 383.322 19.1768C383.712 18.7051 384.177 18.3428 384.717 18.0898C385.257 17.8301 385.858 17.7002 386.521 17.7002C387.055 17.7002 387.537 17.7754 387.967 17.9258C388.405 18.0693 388.777 18.3052 389.085 18.6333C389.399 18.9614 389.639 19.3887 389.803 19.915C389.967 20.4346 390.049 21.0737 390.049 21.8325V29H387.567V21.8223C387.567 21.2891 387.489 20.8687 387.332 20.561C387.181 20.2466 386.959 20.0244 386.665 19.8945C386.378 19.7578 386.019 19.6895 385.588 19.6895C385.165 19.6895 384.785 19.7783 384.45 19.9561C384.115 20.1338 383.832 20.3765 383.599 20.6841C383.374 20.9917 383.199 21.3472 383.076 21.7505C382.953 22.1538 382.892 22.5845 382.892 23.0425ZM395.217 17.9053V29H392.735V17.9053H395.217ZM392.571 14.9932C392.571 14.6172 392.694 14.3062 392.94 14.0601C393.193 13.8071 393.542 13.6807 393.986 13.6807C394.424 13.6807 394.769 13.8071 395.022 14.0601C395.275 14.3062 395.401 14.6172 395.401 14.9932C395.401 15.3623 395.275 15.6699 395.022 15.916C394.769 16.1621 394.424 16.2852 393.986 16.2852C393.542 16.2852 393.193 16.1621 392.94 15.916C392.694 15.6699 392.571 15.3623 392.571 14.9932ZM401.103 29H398.621V17.1875C398.621 16.292 398.799 15.5366 399.154 14.9214C399.517 14.3062 400.033 13.8379 400.703 13.5166C401.379 13.1953 402.183 13.0347 403.112 13.0347C403.659 13.0347 404.186 13.0928 404.691 13.209C405.204 13.3252 405.734 13.4722 406.281 13.6499L405.901 15.6597C405.553 15.5435 405.167 15.4341 404.743 15.3315C404.319 15.2222 403.83 15.1675 403.276 15.1675C402.531 15.1675 401.981 15.3384 401.625 15.6802C401.277 16.0151 401.103 16.5176 401.103 17.1875V29ZM403.328 17.9053V19.71H396.919V17.9053H403.328ZM407.45 17.9053V29H404.979V17.9053H407.45ZM414.74 27.2363C415.144 27.2363 415.506 27.1577 415.827 27.0005C416.155 26.8364 416.418 26.6108 416.617 26.3237C416.822 26.0366 416.935 25.7051 416.955 25.3291H419.283C419.269 26.0469 419.057 26.6997 418.647 27.2876C418.237 27.8755 417.693 28.3438 417.017 28.6924C416.34 29.0342 415.591 29.2051 414.771 29.2051C413.923 29.2051 413.185 29.0615 412.556 28.7744C411.927 28.4805 411.404 28.0771 410.987 27.5645C410.57 27.0518 410.256 26.4604 410.044 25.7905C409.839 25.1206 409.736 24.4028 409.736 23.6372V23.2783C409.736 22.5127 409.839 21.7949 410.044 21.125C410.256 20.4482 410.57 19.8535 410.987 19.3408C411.404 18.8281 411.927 18.4282 412.556 18.1411C413.185 17.8472 413.92 17.7002 414.761 17.7002C415.649 17.7002 416.429 17.8779 417.099 18.2334C417.769 18.582 418.295 19.0708 418.678 19.6997C419.067 20.3218 419.269 21.0464 419.283 21.8735H416.955C416.935 21.4634 416.832 21.0942 416.647 20.7661C416.47 20.4312 416.217 20.1646 415.889 19.9663C415.567 19.7681 415.181 19.6689 414.73 19.6689C414.231 19.6689 413.817 19.7715 413.489 19.9766C413.161 20.1748 412.905 20.4482 412.72 20.7969C412.536 21.1387 412.402 21.5249 412.32 21.9556C412.245 22.3794 412.208 22.8203 412.208 23.2783V23.6372C412.208 24.0952 412.245 24.5396 412.32 24.9702C412.396 25.4009 412.525 25.7871 412.71 26.1289C412.901 26.4639 413.161 26.7339 413.489 26.939C413.817 27.1372 414.234 27.2363 414.74 27.2363ZM426.071 29.2051C425.25 29.2051 424.509 29.0718 423.846 28.8052C423.189 28.5317 422.629 28.1523 422.164 27.667C421.706 27.1816 421.354 26.6108 421.108 25.9546C420.862 25.2983 420.739 24.5908 420.739 23.832V23.4219C420.739 22.5537 420.865 21.7676 421.118 21.0635C421.371 20.3594 421.723 19.7578 422.174 19.2588C422.625 18.7529 423.159 18.3667 423.774 18.1001C424.389 17.8335 425.056 17.7002 425.773 17.7002C426.566 17.7002 427.26 17.8335 427.855 18.1001C428.45 18.3667 428.942 18.7427 429.332 19.228C429.728 19.7065 430.022 20.2773 430.213 20.9404C430.412 21.6035 430.511 22.335 430.511 23.1348V24.1909H421.938V22.417H428.07V22.2222C428.057 21.7778 427.968 21.3608 427.804 20.9712C427.646 20.5815 427.404 20.2671 427.076 20.0278C426.748 19.7886 426.31 19.6689 425.763 19.6689C425.353 19.6689 424.987 19.7578 424.666 19.9355C424.352 20.1064 424.088 20.356 423.876 20.6841C423.665 21.0122 423.5 21.4087 423.384 21.8735C423.275 22.3315 423.22 22.8477 423.22 23.4219V23.832C423.22 24.3174 423.285 24.7686 423.415 25.1855C423.552 25.5957 423.75 25.9546 424.01 26.2622C424.27 26.5698 424.584 26.8125 424.953 26.9902C425.322 27.1611 425.743 27.2466 426.214 27.2466C426.809 27.2466 427.339 27.127 427.804 26.8877C428.269 26.6484 428.672 26.3101 429.014 25.8726L430.316 27.1338C430.077 27.4824 429.766 27.8174 429.383 28.1387C429 28.4531 428.532 28.7095 427.978 28.9077C427.431 29.106 426.795 29.2051 426.071 29.2051ZM434.889 20.2739V29H432.418V17.9053H434.746L434.889 20.2739ZM434.448 23.0425L433.648 23.0322C433.655 22.2461 433.765 21.5249 433.977 20.8687C434.195 20.2124 434.496 19.6484 434.879 19.1768C435.269 18.7051 435.733 18.3428 436.273 18.0898C436.813 17.8301 437.415 17.7002 438.078 17.7002C438.611 17.7002 439.093 17.7754 439.524 17.9258C439.961 18.0693 440.334 18.3052 440.642 18.6333C440.956 18.9614 441.195 19.3887 441.359 19.915C441.523 20.4346 441.605 21.0737 441.605 21.8325V29H439.124V21.8223C439.124 21.2891 439.045 20.8687 438.888 20.561C438.738 20.2466 438.516 20.0244 438.222 19.8945C437.935 19.7578 437.576 19.6895 437.145 19.6895C436.721 19.6895 436.342 19.7783 436.007 19.9561C435.672 20.1338 435.388 20.3765 435.156 20.6841C434.93 20.9917 434.756 21.3472 434.633 21.7505C434.51 22.1538 434.448 22.5845 434.448 23.0425ZM449.214 17.9053V19.71H442.959V17.9053H449.214ZM444.764 15.188H447.235V25.9341C447.235 26.2759 447.283 26.5391 447.378 26.7236C447.481 26.9014 447.621 27.021 447.799 27.0825C447.977 27.144 448.185 27.1748 448.424 27.1748C448.595 27.1748 448.759 27.1646 448.917 27.144C449.074 27.1235 449.2 27.103 449.296 27.0825L449.306 28.9692C449.101 29.0308 448.862 29.0854 448.588 29.1333C448.322 29.1812 448.014 29.2051 447.666 29.2051C447.098 29.2051 446.596 29.106 446.158 28.9077C445.721 28.7026 445.379 28.3711 445.133 27.9131C444.887 27.4551 444.764 26.8467 444.764 26.0879V15.188Z" fill="black"/>
<path d="M140.981 80.3711V86.0723C140.77 86.3525 140.438 86.6602 139.987 86.9951C139.542 87.3232 138.951 87.6069 138.213 87.8462C137.475 88.0854 136.555 88.2051 135.455 88.2051C134.518 88.2051 133.66 88.0479 132.881 87.7334C132.102 87.4121 131.428 86.9438 130.861 86.3286C130.3 85.7134 129.866 84.9648 129.559 84.083C129.251 83.1943 129.097 82.1826 129.097 81.0479V80.0122C129.097 78.8843 129.237 77.8794 129.518 76.9976C129.805 76.1089 130.215 75.3569 130.748 74.7417C131.281 74.1265 131.924 73.6616 132.676 73.3472C133.435 73.0259 134.292 72.8652 135.25 72.8652C136.473 72.8652 137.485 73.0703 138.285 73.4805C139.091 73.8838 139.713 74.4443 140.151 75.1621C140.588 75.8799 140.865 76.7002 140.981 77.623H138.459C138.377 77.1035 138.216 76.6387 137.977 76.2285C137.745 75.8184 137.41 75.4971 136.972 75.2646C136.542 75.0254 135.981 74.9058 135.291 74.9058C134.696 74.9058 134.173 75.0186 133.722 75.2441C133.271 75.4697 132.895 75.8013 132.594 76.2388C132.3 76.6763 132.078 77.2095 131.927 77.8384C131.777 78.4673 131.702 79.1851 131.702 79.9917V81.0479C131.702 81.8682 131.787 82.5962 131.958 83.2319C132.136 83.8677 132.389 84.4043 132.717 84.8418C133.052 85.2793 133.458 85.6108 133.937 85.8364C134.416 86.0552 134.956 86.1646 135.557 86.1646C136.145 86.1646 136.627 86.1167 137.003 86.021C137.379 85.9185 137.676 85.7988 137.895 85.6621C138.121 85.5186 138.295 85.3818 138.418 85.252V82.2886H135.311V80.3711H140.981ZM146.231 72.25V88H143.75V72.25H146.231ZM148.467 82.5757V82.3398C148.467 81.54 148.583 80.7983 148.815 80.1147C149.048 79.4243 149.383 78.8262 149.82 78.3203C150.265 77.8076 150.805 77.4111 151.44 77.1309C152.083 76.8438 152.808 76.7002 153.614 76.7002C154.428 76.7002 155.152 76.8438 155.788 77.1309C156.431 77.4111 156.974 77.8076 157.418 78.3203C157.863 78.8262 158.201 79.4243 158.434 80.1147C158.666 80.7983 158.782 81.54 158.782 82.3398V82.5757C158.782 83.3755 158.666 84.1172 158.434 84.8008C158.201 85.4844 157.863 86.0825 157.418 86.5952C156.974 87.1011 156.434 87.4976 155.798 87.7847C155.163 88.0649 154.441 88.2051 153.635 88.2051C152.821 88.2051 152.093 88.0649 151.451 87.7847C150.815 87.4976 150.275 87.1011 149.831 86.5952C149.386 86.0825 149.048 85.4844 148.815 84.8008C148.583 84.1172 148.467 83.3755 148.467 82.5757ZM150.938 82.3398V82.5757C150.938 83.0747 150.989 83.5464 151.092 83.9907C151.194 84.4351 151.355 84.8247 151.574 85.1597C151.792 85.4946 152.073 85.7578 152.415 85.9492C152.756 86.1406 153.163 86.2363 153.635 86.2363C154.093 86.2363 154.489 86.1406 154.824 85.9492C155.166 85.7578 155.446 85.4946 155.665 85.1597C155.884 84.8247 156.044 84.4351 156.147 83.9907C156.256 83.5464 156.311 83.0747 156.311 82.5757V82.3398C156.311 81.8477 156.256 81.3828 156.147 80.9453C156.044 80.501 155.88 80.1079 155.655 79.7661C155.436 79.4243 155.156 79.1577 154.814 78.9663C154.479 78.7681 154.079 78.6689 153.614 78.6689C153.149 78.6689 152.746 78.7681 152.404 78.9663C152.069 79.1577 151.792 79.4243 151.574 79.7661C151.355 80.1079 151.194 80.501 151.092 80.9453C150.989 81.3828 150.938 81.8477 150.938 82.3398ZM163.335 79.0176V88H160.864V76.9053H163.222L163.335 79.0176ZM166.729 76.8335L166.708 79.1304C166.558 79.103 166.394 79.0825 166.216 79.0688C166.045 79.0552 165.875 79.0483 165.704 79.0483C165.28 79.0483 164.907 79.1099 164.586 79.2329C164.265 79.3491 163.995 79.52 163.776 79.7456C163.564 79.9644 163.4 80.231 163.284 80.5454C163.167 80.8599 163.099 81.2119 163.079 81.6016L162.515 81.6426C162.515 80.9453 162.583 80.2993 162.72 79.7046C162.856 79.1099 163.062 78.5869 163.335 78.1357C163.615 77.6846 163.964 77.3325 164.381 77.0796C164.805 76.8267 165.293 76.7002 165.847 76.7002C165.998 76.7002 166.158 76.7139 166.329 76.7412C166.507 76.7686 166.64 76.7993 166.729 76.8335ZM170.923 76.9053V88H168.441V76.9053H170.923ZM168.277 73.9932C168.277 73.6172 168.4 73.3062 168.646 73.0601C168.899 72.8071 169.248 72.6807 169.692 72.6807C170.13 72.6807 170.475 72.8071 170.728 73.0601C170.981 73.3062 171.107 73.6172 171.107 73.9932C171.107 74.3623 170.981 74.6699 170.728 74.916C170.475 75.1621 170.13 75.2852 169.692 75.2852C169.248 75.2852 168.899 75.1621 168.646 74.916C168.4 74.6699 168.277 74.3623 168.277 73.9932ZM173.158 82.5757V82.3398C173.158 81.54 173.274 80.7983 173.507 80.1147C173.739 79.4243 174.074 78.8262 174.512 78.3203C174.956 77.8076 175.496 77.4111 176.132 77.1309C176.774 76.8438 177.499 76.7002 178.306 76.7002C179.119 76.7002 179.844 76.8438 180.479 77.1309C181.122 77.4111 181.666 77.8076 182.11 78.3203C182.554 78.8262 182.893 79.4243 183.125 80.1147C183.357 80.7983 183.474 81.54 183.474 82.3398V82.5757C183.474 83.3755 183.357 84.1172 183.125 84.8008C182.893 85.4844 182.554 86.0825 182.11 86.5952C181.666 87.1011 181.125 87.4976 180.49 87.7847C179.854 88.0649 179.133 88.2051 178.326 88.2051C177.513 88.2051 176.785 88.0649 176.142 87.7847C175.506 87.4976 174.966 87.1011 174.522 86.5952C174.078 86.0825 173.739 85.4844 173.507 84.8008C173.274 84.1172 173.158 83.3755 173.158 82.5757ZM175.629 82.3398V82.5757C175.629 83.0747 175.681 83.5464 175.783 83.9907C175.886 84.4351 176.046 84.8247 176.265 85.1597C176.484 85.4946 176.764 85.7578 177.106 85.9492C177.448 86.1406 177.854 86.2363 178.326 86.2363C178.784 86.2363 179.181 86.1406 179.516 85.9492C179.857 85.7578 180.138 85.4946 180.356 85.1597C180.575 84.8247 180.736 84.4351 180.838 83.9907C180.948 83.5464 181.002 83.0747 181.002 82.5757V82.3398C181.002 81.8477 180.948 81.3828 180.838 80.9453C180.736 80.501 180.572 80.1079 180.346 79.7661C180.127 79.4243 179.847 79.1577 179.505 78.9663C179.17 78.7681 178.771 78.6689 178.306 78.6689C177.841 78.6689 177.438 78.7681 177.096 78.9663C176.761 79.1577 176.484 79.4243 176.265 79.7661C176.046 80.1079 175.886 80.501 175.783 80.9453C175.681 81.3828 175.629 81.8477 175.629 82.3398ZM192.22 85.3853V76.9053H194.702V88H192.364L192.22 85.3853ZM192.569 83.0781L193.399 83.0576C193.399 83.8027 193.317 84.4897 193.153 85.1187C192.989 85.7407 192.736 86.2842 192.395 86.749C192.053 87.207 191.615 87.5659 191.082 87.8257C190.549 88.0786 189.91 88.2051 189.165 88.2051C188.625 88.2051 188.129 88.1265 187.678 87.9692C187.227 87.812 186.837 87.5693 186.509 87.2412C186.188 86.9131 185.938 86.4858 185.76 85.9595C185.583 85.4331 185.494 84.8042 185.494 84.0728V76.9053H187.965V84.0933C187.965 84.4966 188.013 84.835 188.108 85.1084C188.204 85.375 188.334 85.5903 188.498 85.7544C188.662 85.9185 188.854 86.0347 189.072 86.103C189.291 86.1714 189.523 86.2056 189.77 86.2056C190.474 86.2056 191.027 86.0688 191.431 85.7954C191.841 85.5151 192.131 85.1392 192.302 84.6675C192.48 84.1958 192.569 83.666 192.569 83.0781ZM203.458 84.9956C203.458 84.7495 203.397 84.5273 203.274 84.3291C203.151 84.124 202.915 83.9395 202.566 83.7754C202.225 83.6113 201.719 83.4609 201.049 83.3242C200.461 83.1943 199.921 83.0405 199.429 82.8628C198.943 82.6782 198.526 82.4561 198.178 82.1963C197.829 81.9365 197.559 81.6289 197.368 81.2734C197.176 80.918 197.081 80.5078 197.081 80.043C197.081 79.5918 197.18 79.1646 197.378 78.7612C197.576 78.3579 197.86 78.0024 198.229 77.6948C198.598 77.3872 199.046 77.1445 199.572 76.9668C200.105 76.7891 200.7 76.7002 201.356 76.7002C202.286 76.7002 203.083 76.8574 203.746 77.1719C204.416 77.4795 204.928 77.8999 205.284 78.4331C205.639 78.9595 205.817 79.5542 205.817 80.2173H203.346C203.346 79.9233 203.271 79.6499 203.12 79.397C202.977 79.1372 202.758 78.9287 202.464 78.7715C202.17 78.6074 201.801 78.5254 201.356 78.5254C200.933 78.5254 200.581 78.5938 200.3 78.7305C200.027 78.8604 199.822 79.0312 199.685 79.2432C199.555 79.4551 199.49 79.6875 199.49 79.9404C199.49 80.125 199.524 80.2925 199.593 80.4429C199.668 80.5864 199.791 80.7197 199.962 80.8428C200.133 80.959 200.365 81.0684 200.659 81.1709C200.96 81.2734 201.336 81.3726 201.787 81.4683C202.635 81.646 203.363 81.875 203.971 82.1553C204.586 82.4287 205.058 82.7842 205.386 83.2217C205.714 83.6523 205.878 84.1992 205.878 84.8623C205.878 85.3545 205.772 85.8057 205.561 86.2158C205.355 86.6191 205.055 86.9712 204.658 87.272C204.262 87.5659 203.787 87.7949 203.233 87.959C202.686 88.123 202.071 88.2051 201.387 88.2051C200.382 88.2051 199.531 88.0273 198.834 87.6719C198.137 87.3096 197.607 86.8481 197.245 86.2876C196.889 85.7202 196.711 85.1323 196.711 84.5239H199.101C199.128 84.9819 199.254 85.3477 199.48 85.6211C199.712 85.8877 200 86.0825 200.341 86.2056C200.69 86.3218 201.049 86.3799 201.418 86.3799C201.862 86.3799 202.235 86.3218 202.536 86.2056C202.836 86.0825 203.065 85.9185 203.223 85.7134C203.38 85.5015 203.458 85.2622 203.458 84.9956Z" fill="black"/>
<path d="M401.29 85.9595V88H393.363V85.9595H401.29ZM394.091 73.0703V88H391.518V73.0703H394.091ZM400.254 79.3047V81.3145H393.363V79.3047H400.254ZM401.238 73.0703V75.1211H393.363V73.0703H401.238ZM405.032 76.9053L407.145 80.5864L409.298 76.9053H412.015L408.652 82.3501L412.148 88H409.431L407.175 84.165L404.919 88H402.192L405.678 82.3501L402.325 76.9053H405.032ZM420.259 92.2656V79.1099L420.546 76.9053H422.751V92.2656H420.259ZM413.051 82.5654V82.3501C413.051 81.5093 413.146 80.7437 413.338 80.0532C413.529 79.356 413.813 78.7578 414.189 78.2588C414.565 77.7598 415.023 77.377 415.563 77.1104C416.103 76.8369 416.725 76.7002 417.429 76.7002C418.113 76.7002 418.708 76.8301 419.213 77.0898C419.726 77.3496 420.157 77.7222 420.505 78.2075C420.861 78.686 421.145 79.2568 421.356 79.9199C421.568 80.583 421.722 81.3213 421.818 82.1348V82.8218C421.729 83.6147 421.579 84.3394 421.367 84.9956C421.155 85.6519 420.871 86.2192 420.516 86.6978C420.16 87.1763 419.726 87.5488 419.213 87.8154C418.701 88.0752 418.099 88.2051 417.409 88.2051C416.718 88.2051 416.103 88.0649 415.563 87.7847C415.023 87.5044 414.565 87.1113 414.189 86.6055C413.82 86.0928 413.536 85.4946 413.338 84.811C413.146 84.1206 413.051 83.3721 413.051 82.5654ZM415.522 82.3501V82.5654C415.522 83.0713 415.566 83.5464 415.655 83.9907C415.751 84.4282 415.901 84.8179 416.106 85.1597C416.312 85.4946 416.571 85.7578 416.886 85.9492C417.2 86.1406 417.58 86.2363 418.024 86.2363C418.605 86.2363 419.08 86.1099 419.449 85.8569C419.825 85.604 420.112 85.2656 420.311 84.8418C420.516 84.4111 420.659 83.936 420.741 83.4165V81.5605C420.693 81.1572 420.608 80.7812 420.485 80.4326C420.362 80.0771 420.191 79.7695 419.972 79.5098C419.76 79.2432 419.494 79.0381 419.172 78.8945C418.858 78.7441 418.482 78.6689 418.044 78.6689C417.6 78.6689 417.217 78.7646 416.896 78.9561C416.575 79.1475 416.312 79.4141 416.106 79.7559C415.908 80.0908 415.761 80.4805 415.666 80.9248C415.57 81.3691 415.522 81.8442 415.522 82.3501ZM432.072 85.3853V76.9053H434.553V88H432.215L432.072 85.3853ZM432.42 83.0781L433.251 83.0576C433.251 83.8027 433.169 84.4897 433.005 85.1187C432.841 85.7407 432.588 86.2842 432.246 86.749C431.904 87.207 431.467 87.5659 430.934 87.8257C430.4 88.0786 429.761 88.2051 429.016 88.2051C428.476 88.2051 427.98 88.1265 427.529 87.9692C427.078 87.812 426.688 87.5693 426.36 87.2412C426.039 86.9131 425.79 86.4858 425.612 85.9595C425.434 85.4331 425.345 84.8042 425.345 84.0728V76.9053H427.816V84.0933C427.816 84.4966 427.864 84.835 427.96 85.1084C428.056 85.375 428.186 85.5903 428.35 85.7544C428.514 85.9185 428.705 86.0347 428.924 86.103C429.143 86.1714 429.375 86.2056 429.621 86.2056C430.325 86.2056 430.879 86.0688 431.282 85.7954C431.692 85.5151 431.983 85.1392 432.154 84.6675C432.332 84.1958 432.42 83.666 432.42 83.0781ZM439.731 76.9053V88H437.25V76.9053H439.731ZM437.086 73.9932C437.086 73.6172 437.209 73.3062 437.455 73.0601C437.708 72.8071 438.057 72.6807 438.501 72.6807C438.938 72.6807 439.284 72.8071 439.537 73.0601C439.79 73.3062 439.916 73.6172 439.916 73.9932C439.916 74.3623 439.79 74.6699 439.537 74.916C439.284 75.1621 438.938 75.2852 438.501 75.2852C438.057 75.2852 437.708 75.1621 437.455 74.916C437.209 74.6699 437.086 74.3623 437.086 73.9932ZM448.663 84.9956C448.663 84.7495 448.601 84.5273 448.478 84.3291C448.355 84.124 448.119 83.9395 447.771 83.7754C447.429 83.6113 446.923 83.4609 446.253 83.3242C445.665 83.1943 445.125 83.0405 444.633 82.8628C444.147 82.6782 443.73 82.4561 443.382 82.1963C443.033 81.9365 442.763 81.6289 442.572 81.2734C442.38 80.918 442.285 80.5078 442.285 80.043C442.285 79.5918 442.384 79.1646 442.582 78.7612C442.78 78.3579 443.064 78.0024 443.433 77.6948C443.802 77.3872 444.25 77.1445 444.776 76.9668C445.31 76.7891 445.904 76.7002 446.561 76.7002C447.49 76.7002 448.287 76.8574 448.95 77.1719C449.62 77.4795 450.132 77.8999 450.488 78.4331C450.843 78.9595 451.021 79.5542 451.021 80.2173H448.55C448.55 79.9233 448.475 79.6499 448.324 79.397C448.181 79.1372 447.962 78.9287 447.668 78.7715C447.374 78.6074 447.005 78.5254 446.561 78.5254C446.137 78.5254 445.785 78.5938 445.504 78.7305C445.231 78.8604 445.026 79.0312 444.889 79.2432C444.759 79.4551 444.694 79.6875 444.694 79.9404C444.694 80.125 444.729 80.2925 444.797 80.4429C444.872 80.5864 444.995 80.7197 445.166 80.8428C445.337 80.959 445.569 81.0684 445.863 81.1709C446.164 81.2734 446.54 81.3726 446.991 81.4683C447.839 81.646 448.567 81.875 449.175 82.1553C449.791 82.4287 450.262 82.7842 450.59 83.2217C450.918 83.6523 451.083 84.1992 451.083 84.8623C451.083 85.3545 450.977 85.8057 450.765 86.2158C450.56 86.6191 450.259 86.9712 449.862 87.272C449.466 87.5659 448.991 87.7949 448.437 87.959C447.89 88.123 447.275 88.2051 446.591 88.2051C445.586 88.2051 444.735 88.0273 444.038 87.6719C443.341 87.3096 442.811 86.8481 442.449 86.2876C442.093 85.7202 441.916 85.1323 441.916 84.5239H444.305C444.332 84.9819 444.458 85.3477 444.684 85.6211C444.917 85.8877 445.204 86.0825 445.545 86.2056C445.894 86.3218 446.253 86.3799 446.622 86.3799C447.066 86.3799 447.439 86.3218 447.74 86.2056C448.041 86.0825 448.27 85.9185 448.427 85.7134C448.584 85.5015 448.663 85.2622 448.663 84.9956ZM455.892 76.9053V88H453.41V76.9053H455.892ZM453.246 73.9932C453.246 73.6172 453.369 73.3062 453.615 73.0601C453.868 72.8071 454.217 72.6807 454.661 72.6807C455.099 72.6807 455.444 72.8071 455.697 73.0601C455.95 73.3062 456.076 73.6172 456.076 73.9932C456.076 74.3623 455.95 74.6699 455.697 74.916C455.444 75.1621 455.099 75.2852 454.661 75.2852C454.217 75.2852 453.868 75.1621 453.615 74.916C453.369 74.6699 453.246 74.3623 453.246 73.9932ZM463.685 76.9053V78.71H457.43V76.9053H463.685ZM459.234 74.188H461.706V84.9341C461.706 85.2759 461.753 85.5391 461.849 85.7236C461.952 85.9014 462.092 86.021 462.27 86.0825C462.447 86.144 462.656 86.1748 462.895 86.1748C463.066 86.1748 463.23 86.1646 463.387 86.144C463.544 86.1235 463.671 86.103 463.767 86.0825L463.777 87.9692C463.572 88.0308 463.333 88.0854 463.059 88.1333C462.792 88.1812 462.485 88.2051 462.136 88.2051C461.569 88.2051 461.066 88.106 460.629 87.9077C460.191 87.7026 459.85 87.3711 459.604 86.9131C459.357 86.4551 459.234 85.8467 459.234 85.0879V74.188ZM470.483 88.2051C469.663 88.2051 468.921 88.0718 468.258 87.8052C467.602 87.5317 467.041 87.1523 466.576 86.667C466.118 86.1816 465.766 85.6108 465.52 84.9546C465.274 84.2983 465.151 83.5908 465.151 82.832V82.4219C465.151 81.5537 465.277 80.7676 465.53 80.0635C465.783 79.3594 466.135 78.7578 466.586 78.2588C467.038 77.7529 467.571 77.3667 468.186 77.1001C468.801 76.8335 469.468 76.7002 470.186 76.7002C470.979 76.7002 471.672 76.8335 472.267 77.1001C472.862 77.3667 473.354 77.7427 473.744 78.228C474.14 78.7065 474.434 79.2773 474.625 79.9404C474.824 80.6035 474.923 81.335 474.923 82.1348V83.1909H466.351V81.417H472.482V81.2222C472.469 80.7778 472.38 80.3608 472.216 79.9712C472.059 79.5815 471.816 79.2671 471.488 79.0278C471.16 78.7886 470.722 78.6689 470.175 78.6689C469.765 78.6689 469.399 78.7578 469.078 78.9355C468.764 79.1064 468.5 79.356 468.289 79.6841C468.077 80.0122 467.913 80.4087 467.796 80.8735C467.687 81.3315 467.632 81.8477 467.632 82.4219V82.832C467.632 83.3174 467.697 83.7686 467.827 84.1855C467.964 84.5957 468.162 84.9546 468.422 85.2622C468.682 85.5698 468.996 85.8125 469.365 85.9902C469.734 86.1611 470.155 86.2466 470.626 86.2466C471.221 86.2466 471.751 86.127 472.216 85.8877C472.681 85.6484 473.084 85.3101 473.426 84.8726L474.728 86.1338C474.489 86.4824 474.178 86.8174 473.795 87.1387C473.412 87.4531 472.944 87.7095 472.39 87.9077C471.843 88.106 471.208 88.2051 470.483 88.2051Z" fill="black"/>
<defs>
<filter id="filter0_d_45_3455" x="0" y="0" width="258" height="48" filterUnits="userSpaceOnUse" color-interpolation-filters="sRGB">
<feFlood flood-opacity="0" result="BackgroundImageFix"/>
<feColorMatrix in="SourceAlpha" type="matrix" values="0 0 0 0 0 0 0 0 0 0 0 0 0 0 0 0 0 0 127 0" result="hardAlpha"/>
<feOffset dy="4"/>
<feGaussianBlur stdDeviation="2"/>
<feComposite in2="hardAlpha" operator="out"/>
<feColorMatrix type="matrix" values="0 0 0 0 0 0 0 0 0 0 0 0 0 0 0 0 0 0 0.25 0"/>
<feBlend mode="normal" in2="BackgroundImageFix" result="effect1_dropShadow_45_3455"/>
<feBlend mode="normal" in="SourceGraphic" in2="effect1_dropShadow_45_3455" result="shape"/>
</filter>
<filter id="filter1_d_45_3455" x="259" y="0" width="258" height="48" filterUnits="userSpaceOnUse" color-interpolation-filters="sRGB">
<feFlood flood-opacity="0" result="BackgroundImageFix"/>
<feColorMatrix in="SourceAlpha" type="matrix" values="0 0 0 0 0 0 0 0 0 0 0 0 0 0 0 0 0 0 127 0" result="hardAlpha"/>
<feOffset dy="4"/>
<feGaussianBlur stdDeviation="2"/>
<feComposite in2="hardAlpha" operator="out"/>
<feColorMatrix type="matrix" values="0 0 0 0 0 0 0 0 0 0 0 0 0 0 0 0 0 0 0.25 0"/>
<feBlend mode="normal" in2="BackgroundImageFix" result="effect1_dropShadow_45_3455"/>
<feBlend mode="normal" in="SourceGraphic" in2="effect1_dropShadow_45_3455" result="shape"/>
</filter>
<filter id="filter2_d_45_3455" x="39" y="59" width="258" height="48" filterUnits="userSpaceOnUse" color-interpolation-filters="sRGB">
<feFlood flood-opacity="0" result="BackgroundImageFix"/>
<feColorMatrix in="SourceAlpha" type="matrix" values="0 0 0 0 0 0 0 0 0 0 0 0 0 0 0 0 0 0 127 0" result="hardAlpha"/>
<feOffset dy="4"/>
<feGaussianBlur stdDeviation="2"/>
<feComposite in2="hardAlpha" operator="out"/>
<feColorMatrix type="matrix" values="0 0 0 0 0 0 0 0 0 0 0 0 0 0 0 0 0 0 0.25 0"/>
<feBlend mode="normal" in2="BackgroundImageFix" result="effect1_dropShadow_45_3455"/>
<feBlend mode="normal" in="SourceGraphic" in2="effect1_dropShadow_45_3455" result="shape"/>
</filter>
<filter id="filter3_d_45_3455" x="304" y="59" width="258" height="48" filterUnits="userSpaceOnUse" color-interpolation-filters="sRGB">
<feFlood flood-opacity="0" result="BackgroundImageFix"/>
<feColorMatrix in="SourceAlpha" type="matrix" values="0 0 0 0 0 0 0 0 0 0 0 0 0 0 0 0 0 0 127 0" result="hardAlpha"/>
<feOffset dy="4"/>
<feGaussianBlur stdDeviation="2"/>
<feComposite in2="hardAlpha" operator="out"/>
<feColorMatrix type="matrix" values="0 0 0 0 0 0 0 0 0 0 0 0 0 0 0 0 0 0 0.25 0"/>
<feBlend mode="normal" in2="BackgroundImageFix" result="effect1_dropShadow_45_3455"/>
<feBlend mode="normal" in="SourceGraphic" in2="effect1_dropShadow_45_3455" result="shape"/>
</filter>
</defs>
</svg>
