<svg width="794" height="48" viewBox="0 0 794 48" fill="none" xmlns="http://www.w3.org/2000/svg">
<g filter="url(#filter0_d_66_3040)">
<path d="M540 40C540 17.9086 557.909 0 580 0H790C790 22.0914 772.091 40 750 40H540Z" fill="#F6DAE4"/>
</g>
<path d="M633.29 26.9595V29H625.363V26.9595H633.29ZM626.091 14.0703V29H623.518V14.0703H626.091ZM632.254 20.3047V22.3145H625.363V20.3047H632.254ZM633.238 14.0703V16.1211H625.363V14.0703H633.238ZM637.032 17.9053L639.145 21.5864L641.298 17.9053H644.015L640.652 23.3501L644.148 29H641.431L639.175 25.165L636.919 29H634.192L637.678 23.3501L634.325 17.9053H637.032ZM652.259 33.2656V20.1099L652.546 17.9053H654.751V33.2656H652.259ZM645.051 23.5654V23.3501C645.051 22.5093 645.146 21.7437 645.338 21.0532C645.529 20.356 645.813 19.7578 646.189 19.2588C646.565 18.7598 647.023 18.377 647.563 18.1104C648.103 17.8369 648.725 17.7002 649.429 17.7002C650.113 17.7002 650.708 17.8301 651.213 18.0898C651.726 18.3496 652.157 18.7222 652.505 19.2075C652.861 19.686 653.145 20.2568 653.356 20.9199C653.568 21.583 653.722 22.3213 653.818 23.1348V23.8218C653.729 24.6147 653.579 25.3394 653.367 25.9956C653.155 26.6519 652.871 27.2192 652.516 27.6978C652.16 28.1763 651.726 28.5488 651.213 28.8154C650.701 29.0752 650.099 29.2051 649.409 29.2051C648.718 29.2051 648.103 29.0649 647.563 28.7847C647.023 28.5044 646.565 28.1113 646.189 27.6055C645.82 27.0928 645.536 26.4946 645.338 25.811C645.146 25.1206 645.051 24.3721 645.051 23.5654ZM647.522 23.3501V23.5654C647.522 24.0713 647.566 24.5464 647.655 24.9907C647.751 25.4282 647.901 25.8179 648.106 26.1597C648.312 26.4946 648.571 26.7578 648.886 26.9492C649.2 27.1406 649.58 27.2363 650.024 27.2363C650.605 27.2363 651.08 27.1099 651.449 26.8569C651.825 26.604 652.112 26.2656 652.311 25.8418C652.516 25.4111 652.659 24.936 652.741 24.4165V22.5605C652.693 22.1572 652.608 21.7812 652.485 21.4326C652.362 21.0771 652.191 20.7695 651.972 20.5098C651.76 20.2432 651.494 20.0381 651.172 19.8945C650.858 19.7441 650.482 19.6689 650.044 19.6689C649.6 19.6689 649.217 19.7646 648.896 19.9561C648.575 20.1475 648.312 20.4141 648.106 20.7559C647.908 21.0908 647.761 21.4805 647.666 21.9248C647.57 22.3691 647.522 22.8442 647.522 23.3501ZM664.072 26.3853V17.9053H666.553V29H664.215L664.072 26.3853ZM664.42 24.0781L665.251 24.0576C665.251 24.8027 665.169 25.4897 665.005 26.1187C664.841 26.7407 664.588 27.2842 664.246 27.749C663.904 28.207 663.467 28.5659 662.934 28.8257C662.4 29.0786 661.761 29.2051 661.016 29.2051C660.476 29.2051 659.98 29.1265 659.529 28.9692C659.078 28.812 658.688 28.5693 658.36 28.2412C658.039 27.9131 657.79 27.4858 657.612 26.9595C657.434 26.4331 657.345 25.8042 657.345 25.0728V17.9053H659.816V25.0933C659.816 25.4966 659.864 25.835 659.96 26.1084C660.056 26.375 660.186 26.5903 660.35 26.7544C660.514 26.9185 660.705 27.0347 660.924 27.103C661.143 27.1714 661.375 27.2056 661.621 27.2056C662.325 27.2056 662.879 27.0688 663.282 26.7954C663.692 26.5151 663.983 26.1392 664.154 25.6675C664.332 25.1958 664.42 24.666 664.42 24.0781ZM671.731 17.9053V29H669.25V17.9053H671.731ZM669.086 14.9932C669.086 14.6172 669.209 14.3062 669.455 14.0601C669.708 13.8071 670.057 13.6807 670.501 13.6807C670.938 13.6807 671.284 13.8071 671.537 14.0601C671.79 14.3062 671.916 14.6172 671.916 14.9932C671.916 15.3623 671.79 15.6699 671.537 15.916C671.284 16.1621 670.938 16.2852 670.501 16.2852C670.057 16.2852 669.708 16.1621 669.455 15.916C669.209 15.6699 669.086 15.3623 669.086 14.9932ZM680.663 25.9956C680.663 25.7495 680.601 25.5273 680.478 25.3291C680.355 25.124 680.119 24.9395 679.771 24.7754C679.429 24.6113 678.923 24.4609 678.253 24.3242C677.665 24.1943 677.125 24.0405 676.633 23.8628C676.147 23.6782 675.73 23.4561 675.382 23.1963C675.033 22.9365 674.763 22.6289 674.572 22.2734C674.38 21.918 674.285 21.5078 674.285 21.043C674.285 20.5918 674.384 20.1646 674.582 19.7612C674.78 19.3579 675.064 19.0024 675.433 18.6948C675.802 18.3872 676.25 18.1445 676.776 17.9668C677.31 17.7891 677.904 17.7002 678.561 17.7002C679.49 17.7002 680.287 17.8574 680.95 18.1719C681.62 18.4795 682.132 18.8999 682.488 19.4331C682.843 19.9595 683.021 20.5542 683.021 21.2173H680.55C680.55 20.9233 680.475 20.6499 680.324 20.397C680.181 20.1372 679.962 19.9287 679.668 19.7715C679.374 19.6074 679.005 19.5254 678.561 19.5254C678.137 19.5254 677.785 19.5938 677.504 19.7305C677.231 19.8604 677.026 20.0312 676.889 20.2432C676.759 20.4551 676.694 20.6875 676.694 20.9404C676.694 21.125 676.729 21.2925 676.797 21.4429C676.872 21.5864 676.995 21.7197 677.166 21.8428C677.337 21.959 677.569 22.0684 677.863 22.1709C678.164 22.2734 678.54 22.3726 678.991 22.4683C679.839 22.646 680.567 22.875 681.175 23.1553C681.791 23.4287 682.262 23.7842 682.59 24.2217C682.918 24.6523 683.083 25.1992 683.083 25.8623C683.083 26.3545 682.977 26.8057 682.765 27.2158C682.56 27.6191 682.259 27.9712 681.862 28.272C681.466 28.5659 680.991 28.7949 680.437 28.959C679.89 29.123 679.275 29.2051 678.591 29.2051C677.586 29.2051 676.735 29.0273 676.038 28.6719C675.341 28.3096 674.811 27.8481 674.449 27.2876C674.093 26.7202 673.916 26.1323 673.916 25.5239H676.305C676.332 25.9819 676.458 26.3477 676.684 26.6211C676.917 26.8877 677.204 27.0825 677.545 27.2056C677.894 27.3218 678.253 27.3799 678.622 27.3799C679.066 27.3799 679.439 27.3218 679.74 27.2056C680.041 27.0825 680.27 26.9185 680.427 26.7134C680.584 26.5015 680.663 26.2622 680.663 25.9956ZM687.892 17.9053V29H685.41V17.9053H687.892ZM685.246 14.9932C685.246 14.6172 685.369 14.3062 685.615 14.0601C685.868 13.8071 686.217 13.6807 686.661 13.6807C687.099 13.6807 687.444 13.8071 687.697 14.0601C687.95 14.3062 688.076 14.6172 688.076 14.9932C688.076 15.3623 687.95 15.6699 687.697 15.916C687.444 16.1621 687.099 16.2852 686.661 16.2852C686.217 16.2852 685.868 16.1621 685.615 15.916C685.369 15.6699 685.246 15.3623 685.246 14.9932ZM695.685 17.9053V19.71H689.43V17.9053H695.685ZM691.234 15.188H693.706V25.9341C693.706 26.2759 693.753 26.5391 693.849 26.7236C693.952 26.9014 694.092 27.021 694.27 27.0825C694.447 27.144 694.656 27.1748 694.895 27.1748C695.066 27.1748 695.23 27.1646 695.387 27.144C695.544 27.1235 695.671 27.103 695.767 27.0825L695.777 28.9692C695.572 29.0308 695.333 29.0854 695.059 29.1333C694.792 29.1812 694.485 29.2051 694.136 29.2051C693.569 29.2051 693.066 29.106 692.629 28.9077C692.191 28.7026 691.85 28.3711 691.604 27.9131C691.357 27.4551 691.234 26.8467 691.234 26.0879V15.188ZM702.483 29.2051C701.663 29.2051 700.921 29.0718 700.258 28.8052C699.602 28.5317 699.041 28.1523 698.576 27.667C698.118 27.1816 697.766 26.6108 697.52 25.9546C697.274 25.2983 697.151 24.5908 697.151 23.832V23.4219C697.151 22.5537 697.277 21.7676 697.53 21.0635C697.783 20.3594 698.135 19.7578 698.586 19.2588C699.038 18.7529 699.571 18.3667 700.186 18.1001C700.801 17.8335 701.468 17.7002 702.186 17.7002C702.979 17.7002 703.672 17.8335 704.267 18.1001C704.862 18.3667 705.354 18.7427 705.744 19.228C706.14 19.7065 706.434 20.2773 706.625 20.9404C706.824 21.6035 706.923 22.335 706.923 23.1348V24.1909H698.351V22.417H704.482V22.2222C704.469 21.7778 704.38 21.3608 704.216 20.9712C704.059 20.5815 703.816 20.2671 703.488 20.0278C703.16 19.7886 702.722 19.6689 702.175 19.6689C701.765 19.6689 701.399 19.7578 701.078 19.9355C700.764 20.1064 700.5 20.356 700.289 20.6841C700.077 21.0122 699.913 21.4087 699.796 21.8735C699.687 22.3315 699.632 22.8477 699.632 23.4219V23.832C699.632 24.3174 699.697 24.7686 699.827 25.1855C699.964 25.5957 700.162 25.9546 700.422 26.2622C700.682 26.5698 700.996 26.8125 701.365 26.9902C701.734 27.1611 702.155 27.2466 702.626 27.2466C703.221 27.2466 703.751 27.127 704.216 26.8877C704.681 26.6484 705.084 26.3101 705.426 25.8726L706.728 27.1338C706.489 27.4824 706.178 27.8174 705.795 28.1387C705.412 28.4531 704.944 28.7095 704.39 28.9077C703.843 29.106 703.208 29.2051 702.483 29.2051Z" fill="black"/>
<g filter="url(#filter1_d_66_3040)">
<path d="M272 40C272 17.9086 289.909 0 312 0H522C522 22.0914 504.091 40 482 40H272Z" fill="#F6DAE4"/>
</g>
<path d="M371.372 25.1548C371.372 24.8472 371.324 24.5737 371.229 24.3345C371.14 24.0952 370.979 23.8765 370.747 23.6782C370.514 23.48 370.186 23.2886 369.762 23.104C369.345 22.9126 368.812 22.7178 368.163 22.5195C367.452 22.3008 366.795 22.0581 366.194 21.7915C365.599 21.5181 365.08 21.2036 364.635 20.8481C364.191 20.4858 363.846 20.0723 363.6 19.6074C363.354 19.1357 363.23 18.5923 363.23 17.9771C363.23 17.3687 363.357 16.8149 363.61 16.3159C363.87 15.8169 364.235 15.3862 364.707 15.0239C365.186 14.6548 365.75 14.3711 366.399 14.1729C367.048 13.9678 367.766 13.8652 368.552 13.8652C369.66 13.8652 370.613 14.0703 371.413 14.4805C372.22 14.8906 372.838 15.4409 373.269 16.1313C373.707 16.8218 373.925 17.584 373.925 18.418H371.372C371.372 17.9258 371.266 17.4917 371.054 17.1157C370.849 16.7329 370.535 16.4321 370.111 16.2134C369.694 15.9946 369.164 15.8853 368.521 15.8853C367.913 15.8853 367.407 15.9775 367.004 16.1621C366.601 16.3467 366.3 16.5962 366.102 16.9106C365.903 17.2251 365.804 17.5806 365.804 17.9771C365.804 18.2573 365.869 18.5137 365.999 18.7461C366.129 18.9717 366.327 19.1836 366.594 19.3818C366.86 19.5732 367.195 19.7544 367.599 19.9253C368.002 20.0962 368.477 20.2603 369.024 20.4175C369.851 20.6636 370.572 20.937 371.188 21.2378C371.803 21.5317 372.315 21.8667 372.726 22.2427C373.136 22.6187 373.443 23.0459 373.648 23.5244C373.854 23.9961 373.956 24.5327 373.956 25.1343C373.956 25.7632 373.83 26.3306 373.577 26.8364C373.324 27.3354 372.961 27.7627 372.49 28.1182C372.025 28.4668 371.464 28.7368 370.808 28.9282C370.159 29.1128 369.434 29.2051 368.634 29.2051C367.917 29.2051 367.209 29.1094 366.512 28.918C365.821 28.7266 365.192 28.436 364.625 28.0464C364.058 27.6499 363.606 27.1577 363.271 26.5698C362.937 25.9751 362.769 25.2812 362.769 24.4883H365.343C365.343 24.9736 365.425 25.3872 365.589 25.729C365.76 26.0708 365.996 26.3511 366.296 26.5698C366.597 26.7817 366.946 26.939 367.342 27.0415C367.746 27.144 368.176 27.1953 368.634 27.1953C369.236 27.1953 369.738 27.1099 370.142 26.939C370.552 26.7681 370.859 26.5288 371.064 26.2212C371.27 25.9136 371.372 25.5581 371.372 25.1548ZM378.427 13.25V29H375.966V13.25H378.427ZM377.996 23.0425L377.196 23.0322C377.203 22.2666 377.309 21.5591 377.514 20.9097C377.726 20.2603 378.02 19.6963 378.396 19.2178C378.779 18.7324 379.237 18.3599 379.77 18.1001C380.303 17.8335 380.895 17.7002 381.544 17.7002C382.091 17.7002 382.583 17.7754 383.021 17.9258C383.465 18.0762 383.848 18.3188 384.169 18.6538C384.49 18.9819 384.733 19.4126 384.897 19.9458C385.068 20.4722 385.153 21.1147 385.153 21.8735V29H382.672V21.853C382.672 21.3198 382.593 20.896 382.436 20.5815C382.286 20.2671 382.063 20.0415 381.77 19.9048C381.476 19.7612 381.117 19.6895 380.693 19.6895C380.249 19.6895 379.855 19.7783 379.514 19.9561C379.179 20.1338 378.898 20.3765 378.673 20.6841C378.447 20.9917 378.276 21.3472 378.16 21.7505C378.051 22.1538 377.996 22.5845 377.996 23.0425ZM393.91 26.7749V21.4839C393.91 21.0874 393.838 20.7456 393.695 20.4585C393.551 20.1714 393.333 19.9492 393.039 19.792C392.751 19.6348 392.389 19.5562 391.952 19.5562C391.548 19.5562 391.2 19.6245 390.906 19.7612C390.612 19.8979 390.383 20.0825 390.219 20.3149C390.055 20.5474 389.973 20.8105 389.973 21.1045H387.512C387.512 20.667 387.618 20.2432 387.83 19.833C388.042 19.4229 388.349 19.0571 388.752 18.7358C389.156 18.4146 389.638 18.1616 390.198 17.9771C390.759 17.7925 391.388 17.7002 392.085 17.7002C392.919 17.7002 393.657 17.8403 394.3 18.1206C394.949 18.4009 395.458 18.8247 395.828 19.3921C396.204 19.9526 396.392 20.6567 396.392 21.5044V26.4365C396.392 26.9424 396.426 27.397 396.494 27.8003C396.569 28.1968 396.675 28.542 396.812 28.8359V29H394.279C394.163 28.7334 394.071 28.395 394.002 27.9849C393.941 27.5679 393.91 27.1646 393.91 26.7749ZM394.269 22.2529L394.29 23.7808H392.516C392.058 23.7808 391.654 23.8252 391.306 23.9141C390.957 23.9961 390.667 24.1191 390.434 24.2832C390.202 24.4473 390.027 24.6455 389.911 24.8779C389.795 25.1104 389.737 25.3735 389.737 25.6675C389.737 25.9614 389.805 26.2314 389.942 26.4775C390.079 26.7168 390.277 26.9048 390.537 27.0415C390.803 27.1782 391.125 27.2466 391.5 27.2466C392.006 27.2466 392.447 27.144 392.823 26.939C393.206 26.7271 393.507 26.4707 393.726 26.1699C393.944 25.8623 394.061 25.5718 394.074 25.2983L394.874 26.3955C394.792 26.6758 394.652 26.9766 394.454 27.2979C394.255 27.6191 393.996 27.9268 393.674 28.2207C393.36 28.5078 392.98 28.7437 392.536 28.9282C392.099 29.1128 391.593 29.2051 391.019 29.2051C390.294 29.2051 389.648 29.0615 389.081 28.7744C388.513 28.4805 388.069 28.0874 387.748 27.5952C387.426 27.0962 387.266 26.5322 387.266 25.9033C387.266 25.3154 387.375 24.7959 387.594 24.3447C387.819 23.8867 388.147 23.5039 388.578 23.1963C389.016 22.8887 389.549 22.6562 390.178 22.499C390.807 22.335 391.524 22.2529 392.331 22.2529H394.269ZM398.986 13.25H401.457V26.6313L401.221 29H398.986V13.25ZM408.696 23.3501V23.5654C408.696 24.3857 408.604 25.1411 408.419 25.8315C408.242 26.5151 407.968 27.1099 407.599 27.6157C407.237 28.1216 406.786 28.5146 406.246 28.7949C405.712 29.0684 405.094 29.2051 404.39 29.2051C403.699 29.2051 403.098 29.0752 402.585 28.8154C402.072 28.5557 401.642 28.1865 401.293 27.708C400.951 27.2295 400.674 26.6587 400.462 25.9956C400.25 25.3325 400.1 24.6011 400.011 23.8013V23.1143C400.1 22.3076 400.25 21.5762 400.462 20.9199C400.674 20.2568 400.951 19.686 401.293 19.2075C401.642 18.7222 402.069 18.3496 402.575 18.0898C403.087 17.8301 403.686 17.7002 404.369 17.7002C405.08 17.7002 405.706 17.8369 406.246 18.1104C406.792 18.3838 407.247 18.7734 407.609 19.2793C407.972 19.7783 408.242 20.373 408.419 21.0635C408.604 21.7539 408.696 22.5161 408.696 23.3501ZM406.225 23.5654V23.3501C406.225 22.8511 406.184 22.3828 406.102 21.9453C406.02 21.501 405.883 21.1113 405.692 20.7764C405.507 20.4414 405.254 20.1782 404.933 19.9868C404.619 19.7886 404.226 19.6895 403.754 19.6895C403.316 19.6895 402.94 19.7646 402.626 19.915C402.312 20.0654 402.048 20.2705 401.836 20.5303C401.625 20.79 401.457 21.0908 401.334 21.4326C401.218 21.7744 401.139 22.1436 401.098 22.54V24.396C401.16 24.9087 401.29 25.3804 401.488 25.811C401.693 26.2349 401.98 26.5767 402.349 26.8364C402.718 27.0894 403.193 27.2158 403.774 27.2158C404.232 27.2158 404.619 27.1235 404.933 26.939C405.248 26.7544 405.497 26.498 405.682 26.1699C405.873 25.835 406.01 25.4453 406.092 25.001C406.181 24.5566 406.225 24.0781 406.225 23.5654ZM410.798 13.25H413.27V26.6313L413.034 29H410.798V13.25ZM420.509 23.3501V23.5654C420.509 24.3857 420.417 25.1411 420.232 25.8315C420.054 26.5151 419.781 27.1099 419.412 27.6157C419.049 28.1216 418.598 28.5146 418.058 28.7949C417.525 29.0684 416.906 29.2051 416.202 29.2051C415.512 29.2051 414.91 29.0752 414.397 28.8154C413.885 28.5557 413.454 28.1865 413.105 27.708C412.764 27.2295 412.487 26.6587 412.275 25.9956C412.063 25.3325 411.913 24.6011 411.824 23.8013V23.1143C411.913 22.3076 412.063 21.5762 412.275 20.9199C412.487 20.2568 412.764 19.686 413.105 19.2075C413.454 18.7222 413.881 18.3496 414.387 18.0898C414.9 17.8301 415.498 17.7002 416.182 17.7002C416.893 17.7002 417.518 17.8369 418.058 18.1104C418.605 18.3838 419.06 18.7734 419.422 19.2793C419.784 19.7783 420.054 20.373 420.232 21.0635C420.417 21.7539 420.509 22.5161 420.509 23.3501ZM418.038 23.5654V23.3501C418.038 22.8511 417.997 22.3828 417.915 21.9453C417.833 21.501 417.696 21.1113 417.504 20.7764C417.32 20.4414 417.067 20.1782 416.746 19.9868C416.431 19.7886 416.038 19.6895 415.566 19.6895C415.129 19.6895 414.753 19.7646 414.438 19.915C414.124 20.0654 413.861 20.2705 413.649 20.5303C413.437 20.79 413.27 21.0908 413.146 21.4326C413.03 21.7744 412.952 22.1436 412.911 22.54V24.396C412.972 24.9087 413.102 25.3804 413.3 25.811C413.505 26.2349 413.792 26.5767 414.162 26.8364C414.531 27.0894 415.006 27.2158 415.587 27.2158C416.045 27.2158 416.431 27.1235 416.746 26.939C417.06 26.7544 417.31 26.498 417.494 26.1699C417.686 25.835 417.822 25.4453 417.904 25.001C417.993 24.5566 418.038 24.0781 418.038 23.5654ZM425.697 27.79L428.712 17.9053H431.357L426.907 30.6919C426.805 30.9653 426.671 31.2627 426.507 31.584C426.343 31.9053 426.128 32.2095 425.861 32.4966C425.602 32.7905 425.277 33.0264 424.887 33.2041C424.498 33.3887 424.026 33.481 423.472 33.481C423.253 33.481 423.042 33.4604 422.836 33.4194C422.638 33.3853 422.45 33.3477 422.272 33.3066L422.262 31.4199C422.331 31.4268 422.413 31.4336 422.508 31.4404C422.611 31.4473 422.693 31.4507 422.754 31.4507C423.165 31.4507 423.506 31.3994 423.78 31.2969C424.053 31.2012 424.275 31.0439 424.446 30.8252C424.624 30.6064 424.774 30.3125 424.897 29.9434L425.697 27.79ZM423.995 17.9053L426.63 26.2109L427.071 28.8154L425.359 29.2563L421.329 17.9053H423.995Z" fill="black"/>
<g filter="url(#filter2_d_66_3040)">
<path d="M4 40C4 17.9086 21.9086 0 44 0H254C254 22.0914 236.091 40 214 40H4Z" fill="#F6DAE4"/>
</g>
<path d="M91.0913 12.0703V27H88.5176V12.0703H91.0913ZM97.1821 18.6021V20.6426H90.4351V18.6021H97.1821ZM98.0332 12.0703V14.1211H90.4351V12.0703H98.0332ZM102.483 15.9053V27H100.002V15.9053H102.483ZM99.8379 12.9932C99.8379 12.6172 99.9609 12.3062 100.207 12.0601C100.46 11.8071 100.809 11.6807 101.253 11.6807C101.69 11.6807 102.036 11.8071 102.289 12.0601C102.542 12.3062 102.668 12.6172 102.668 12.9932C102.668 13.3623 102.542 13.6699 102.289 13.916C102.036 14.1621 101.69 14.2852 101.253 14.2852C100.809 14.2852 100.46 14.1621 100.207 13.916C99.9609 13.6699 99.8379 13.3623 99.8379 12.9932ZM107.672 18.0176V27H105.201V15.9053H107.559L107.672 18.0176ZM111.066 15.8335L111.045 18.1304C110.895 18.103 110.731 18.0825 110.553 18.0688C110.382 18.0552 110.211 18.0483 110.041 18.0483C109.617 18.0483 109.244 18.1099 108.923 18.2329C108.602 18.3491 108.332 18.52 108.113 18.7456C107.901 18.9644 107.737 19.231 107.621 19.5454C107.504 19.8599 107.436 20.2119 107.416 20.6016L106.852 20.6426C106.852 19.9453 106.92 19.2993 107.057 18.7046C107.193 18.1099 107.398 17.5869 107.672 17.1357C107.952 16.6846 108.301 16.3325 108.718 16.0796C109.142 15.8267 109.63 15.7002 110.184 15.7002C110.334 15.7002 110.495 15.7139 110.666 15.7412C110.844 15.7686 110.977 15.7993 111.066 15.8335ZM118.838 23.9956C118.838 23.7495 118.777 23.5273 118.654 23.3291C118.531 23.124 118.295 22.9395 117.946 22.7754C117.604 22.6113 117.099 22.4609 116.429 22.3242C115.841 22.1943 115.301 22.0405 114.809 21.8628C114.323 21.6782 113.906 21.4561 113.558 21.1963C113.209 20.9365 112.939 20.6289 112.748 20.2734C112.556 19.918 112.46 19.5078 112.46 19.043C112.46 18.5918 112.56 18.1646 112.758 17.7612C112.956 17.3579 113.24 17.0024 113.609 16.6948C113.978 16.3872 114.426 16.1445 114.952 15.9668C115.485 15.7891 116.08 15.7002 116.736 15.7002C117.666 15.7002 118.462 15.8574 119.125 16.1719C119.795 16.4795 120.308 16.8999 120.664 17.4331C121.019 17.9595 121.197 18.5542 121.197 19.2173H118.726C118.726 18.9233 118.65 18.6499 118.5 18.397C118.356 18.1372 118.138 17.9287 117.844 17.7715C117.55 17.6074 117.181 17.5254 116.736 17.5254C116.312 17.5254 115.96 17.5938 115.68 17.7305C115.407 17.8604 115.202 18.0312 115.065 18.2432C114.935 18.4551 114.87 18.6875 114.87 18.9404C114.87 19.125 114.904 19.2925 114.973 19.4429C115.048 19.5864 115.171 19.7197 115.342 19.8428C115.513 19.959 115.745 20.0684 116.039 20.1709C116.34 20.2734 116.716 20.3726 117.167 20.4683C118.015 20.646 118.743 20.875 119.351 21.1553C119.966 21.4287 120.438 21.7842 120.766 22.2217C121.094 22.6523 121.258 23.1992 121.258 23.8623C121.258 24.3545 121.152 24.8057 120.94 25.2158C120.735 25.6191 120.435 25.9712 120.038 26.272C119.642 26.5659 119.167 26.7949 118.613 26.959C118.066 27.123 117.451 27.2051 116.767 27.2051C115.762 27.2051 114.911 27.0273 114.214 26.6719C113.517 26.3096 112.987 25.8481 112.625 25.2876C112.269 24.7202 112.091 24.1323 112.091 23.5239H114.48C114.508 23.9819 114.634 24.3477 114.86 24.6211C115.092 24.8877 115.379 25.0825 115.721 25.2056C116.07 25.3218 116.429 25.3799 116.798 25.3799C117.242 25.3799 117.615 25.3218 117.916 25.2056C118.216 25.0825 118.445 24.9185 118.603 24.7134C118.76 24.5015 118.838 24.2622 118.838 23.9956ZM128.508 15.9053V17.71H122.253V15.9053H128.508ZM124.058 13.188H126.529V23.9341C126.529 24.2759 126.577 24.5391 126.672 24.7236C126.775 24.9014 126.915 25.021 127.093 25.0825C127.271 25.144 127.479 25.1748 127.718 25.1748C127.889 25.1748 128.053 25.1646 128.21 25.144C128.368 25.1235 128.494 25.103 128.59 25.0825L128.6 26.9692C128.395 27.0308 128.156 27.0854 127.882 27.1333C127.616 27.1812 127.308 27.2051 126.959 27.2051C126.392 27.2051 125.89 27.106 125.452 26.9077C125.015 26.7026 124.673 26.3711 124.427 25.9131C124.181 25.4551 124.058 24.8467 124.058 24.0879V13.188ZM135.388 19.6377V21.6064H129.964V19.6377H135.388ZM142.084 25.2363C142.487 25.2363 142.85 25.1577 143.171 25.0005C143.499 24.8364 143.762 24.6108 143.96 24.3237C144.166 24.0366 144.278 23.7051 144.299 23.3291H146.626C146.613 24.0469 146.401 24.6997 145.991 25.2876C145.581 25.8755 145.037 26.3438 144.36 26.6924C143.684 27.0342 142.935 27.2051 142.115 27.2051C141.267 27.2051 140.529 27.0615 139.9 26.7744C139.271 26.4805 138.748 26.0771 138.331 25.5645C137.914 25.0518 137.6 24.4604 137.388 23.7905C137.183 23.1206 137.08 22.4028 137.08 21.6372V21.2783C137.08 20.5127 137.183 19.7949 137.388 19.125C137.6 18.4482 137.914 17.8535 138.331 17.3408C138.748 16.8281 139.271 16.4282 139.9 16.1411C140.529 15.8472 141.264 15.7002 142.104 15.7002C142.993 15.7002 143.772 15.8779 144.442 16.2334C145.112 16.582 145.639 17.0708 146.021 17.6997C146.411 18.3218 146.613 19.0464 146.626 19.8735H144.299C144.278 19.4634 144.176 19.0942 143.991 18.7661C143.813 18.4312 143.561 18.1646 143.232 17.9663C142.911 17.7681 142.525 17.6689 142.074 17.6689C141.575 17.6689 141.161 17.7715 140.833 17.9766C140.505 18.1748 140.249 18.4482 140.064 18.7969C139.879 19.1387 139.746 19.5249 139.664 19.9556C139.589 20.3794 139.551 20.8203 139.551 21.2783V21.6372C139.551 22.0952 139.589 22.5396 139.664 22.9702C139.739 23.4009 139.869 23.7871 140.054 24.1289C140.245 24.4639 140.505 24.7339 140.833 24.939C141.161 25.1372 141.578 25.2363 142.084 25.2363ZM151.169 11.25V27H148.688V11.25H151.169ZM160.131 24.7749V19.4839C160.131 19.0874 160.059 18.7456 159.916 18.4585C159.772 18.1714 159.553 17.9492 159.259 17.792C158.972 17.6348 158.61 17.5562 158.172 17.5562C157.769 17.5562 157.42 17.6245 157.126 17.7612C156.833 17.8979 156.604 18.0825 156.439 18.3149C156.275 18.5474 156.193 18.8105 156.193 19.1045H153.732C153.732 18.667 153.838 18.2432 154.05 17.833C154.262 17.4229 154.57 17.0571 154.973 16.7358C155.376 16.4146 155.858 16.1616 156.419 15.9771C156.979 15.7925 157.608 15.7002 158.306 15.7002C159.14 15.7002 159.878 15.8403 160.521 16.1206C161.17 16.4009 161.679 16.8247 162.048 17.3921C162.424 17.9526 162.612 18.6567 162.612 19.5044V24.4365C162.612 24.9424 162.646 25.397 162.715 25.8003C162.79 26.1968 162.896 26.542 163.033 26.8359V27H160.5C160.384 26.7334 160.292 26.395 160.223 25.9849C160.162 25.5679 160.131 25.1646 160.131 24.7749ZM160.49 20.2529L160.51 21.7808H158.736C158.278 21.7808 157.875 21.8252 157.526 21.9141C157.178 21.9961 156.887 22.1191 156.655 22.2832C156.422 22.4473 156.248 22.6455 156.132 22.8779C156.016 23.1104 155.958 23.3735 155.958 23.6675C155.958 23.9614 156.026 24.2314 156.163 24.4775C156.299 24.7168 156.498 24.9048 156.757 25.0415C157.024 25.1782 157.345 25.2466 157.721 25.2466C158.227 25.2466 158.668 25.144 159.044 24.939C159.427 24.7271 159.728 24.4707 159.946 24.1699C160.165 23.8623 160.281 23.5718 160.295 23.2983L161.095 24.3955C161.013 24.6758 160.873 24.9766 160.674 25.2979C160.476 25.6191 160.216 25.9268 159.895 26.2207C159.581 26.5078 159.201 26.7437 158.757 26.9282C158.319 27.1128 157.813 27.2051 157.239 27.2051C156.515 27.2051 155.869 27.0615 155.301 26.7744C154.734 26.4805 154.29 26.0874 153.968 25.5952C153.647 25.0962 153.486 24.5322 153.486 23.9033C153.486 23.3154 153.596 22.7959 153.814 22.3447C154.04 21.8867 154.368 21.5039 154.799 21.1963C155.236 20.8887 155.77 20.6562 156.398 20.499C157.027 20.335 157.745 20.2529 158.552 20.2529H160.49ZM171.42 23.9956C171.42 23.7495 171.359 23.5273 171.236 23.3291C171.113 23.124 170.877 22.9395 170.528 22.7754C170.187 22.6113 169.681 22.4609 169.011 22.3242C168.423 22.1943 167.883 22.0405 167.391 21.8628C166.905 21.6782 166.488 21.4561 166.14 21.1963C165.791 20.9365 165.521 20.6289 165.33 20.2734C165.138 19.918 165.042 19.5078 165.042 19.043C165.042 18.5918 165.142 18.1646 165.34 17.7612C165.538 17.3579 165.822 17.0024 166.191 16.6948C166.56 16.3872 167.008 16.1445 167.534 15.9668C168.067 15.7891 168.662 15.7002 169.318 15.7002C170.248 15.7002 171.044 15.8574 171.708 16.1719C172.377 16.4795 172.89 16.8999 173.246 17.4331C173.601 17.9595 173.779 18.5542 173.779 19.2173H171.308C171.308 18.9233 171.232 18.6499 171.082 18.397C170.938 18.1372 170.72 17.9287 170.426 17.7715C170.132 17.6074 169.763 17.5254 169.318 17.5254C168.895 17.5254 168.542 17.5938 168.262 17.7305C167.989 17.8604 167.784 18.0312 167.647 18.2432C167.517 18.4551 167.452 18.6875 167.452 18.9404C167.452 19.125 167.486 19.2925 167.555 19.4429C167.63 19.5864 167.753 19.7197 167.924 19.8428C168.095 19.959 168.327 20.0684 168.621 20.1709C168.922 20.2734 169.298 20.3726 169.749 20.4683C170.597 20.646 171.325 20.875 171.933 21.1553C172.548 21.4287 173.02 21.7842 173.348 22.2217C173.676 22.6523 173.84 23.1992 173.84 23.8623C173.84 24.3545 173.734 24.8057 173.522 25.2158C173.317 25.6191 173.017 25.9712 172.62 26.272C172.224 26.5659 171.749 26.7949 171.195 26.959C170.648 27.123 170.033 27.2051 169.349 27.2051C168.344 27.2051 167.493 27.0273 166.796 26.6719C166.099 26.3096 165.569 25.8481 165.207 25.2876C164.851 24.7202 164.673 24.1323 164.673 23.5239H167.062C167.09 23.9819 167.216 24.3477 167.442 24.6211C167.674 24.8877 167.961 25.0825 168.303 25.2056C168.652 25.3218 169.011 25.3799 169.38 25.3799C169.824 25.3799 170.197 25.3218 170.498 25.2056C170.798 25.0825 171.027 24.9185 171.185 24.7134C171.342 24.5015 171.42 24.2622 171.42 23.9956ZM182.228 23.9956C182.228 23.7495 182.167 23.5273 182.043 23.3291C181.92 23.124 181.685 22.9395 181.336 22.7754C180.994 22.6113 180.488 22.4609 179.818 22.3242C179.23 22.1943 178.69 22.0405 178.198 21.8628C177.713 21.6782 177.296 21.4561 176.947 21.1963C176.599 20.9365 176.329 20.6289 176.137 20.2734C175.946 19.918 175.85 19.5078 175.85 19.043C175.85 18.5918 175.949 18.1646 176.147 17.7612C176.346 17.3579 176.629 17.0024 176.999 16.6948C177.368 16.3872 177.815 16.1445 178.342 15.9668C178.875 15.7891 179.47 15.7002 180.126 15.7002C181.056 15.7002 181.852 15.8574 182.515 16.1719C183.185 16.4795 183.698 16.8999 184.053 17.4331C184.409 17.9595 184.586 18.5542 184.586 19.2173H182.115C182.115 18.9233 182.04 18.6499 181.89 18.397C181.746 18.1372 181.527 17.9287 181.233 17.7715C180.939 17.6074 180.57 17.5254 180.126 17.5254C179.702 17.5254 179.35 17.5938 179.07 17.7305C178.796 17.8604 178.591 18.0312 178.455 18.2432C178.325 18.4551 178.26 18.6875 178.26 18.9404C178.26 19.125 178.294 19.2925 178.362 19.4429C178.438 19.5864 178.561 19.7197 178.731 19.8428C178.902 19.959 179.135 20.0684 179.429 20.1709C179.729 20.2734 180.105 20.3726 180.557 20.4683C181.404 20.646 182.132 20.875 182.741 21.1553C183.356 21.4287 183.828 21.7842 184.156 22.2217C184.484 22.6523 184.648 23.1992 184.648 23.8623C184.648 24.3545 184.542 24.8057 184.33 25.2158C184.125 25.6191 183.824 25.9712 183.428 26.272C183.031 26.5659 182.556 26.7949 182.002 26.959C181.456 27.123 180.84 27.2051 180.157 27.2051C179.152 27.2051 178.301 27.0273 177.604 26.6719C176.906 26.3096 176.376 25.8481 176.014 25.2876C175.659 24.7202 175.481 24.1323 175.481 23.5239H177.87C177.897 23.9819 178.024 24.3477 178.25 24.6211C178.482 24.8877 178.769 25.0825 179.111 25.2056C179.459 25.3218 179.818 25.3799 180.188 25.3799C180.632 25.3799 181.004 25.3218 181.305 25.2056C181.606 25.0825 181.835 24.9185 181.992 24.7134C182.149 24.5015 182.228 24.2622 182.228 23.9956Z" fill="black"/>
<defs>
<filter id="filter0_d_66_3040" x="536" y="0" width="258" height="48" filterUnits="userSpaceOnUse" color-interpolation-filters="sRGB">
<feFlood flood-opacity="0" result="BackgroundImageFix"/>
<feColorMatrix in="SourceAlpha" type="matrix" values="0 0 0 0 0 0 0 0 0 0 0 0 0 0 0 0 0 0 127 0" result="hardAlpha"/>
<feOffset dy="4"/>
<feGaussianBlur stdDeviation="2"/>
<feComposite in2="hardAlpha" operator="out"/>
<feColorMatrix type="matrix" values="0 0 0 0 0 0 0 0 0 0 0 0 0 0 0 0 0 0 0.25 0"/>
<feBlend mode="normal" in2="BackgroundImageFix" result="effect1_dropShadow_66_3040"/>
<feBlend mode="normal" in="SourceGraphic" in2="effect1_dropShadow_66_3040" result="shape"/>
</filter>
<filter id="filter1_d_66_3040" x="268" y="0" width="258" height="48" filterUnits="userSpaceOnUse" color-interpolation-filters="sRGB">
<feFlood flood-opacity="0" result="BackgroundImageFix"/>
<feColorMatrix in="SourceAlpha" type="matrix" values="0 0 0 0 0 0 0 0 0 0 0 0 0 0 0 0 0 0 127 0" result="hardAlpha"/>
<feOffset dy="4"/>
<feGaussianBlur stdDeviation="2"/>
<feComposite in2="hardAlpha" operator="out"/>
<feColorMatrix type="matrix" values="0 0 0 0 0 0 0 0 0 0 0 0 0 0 0 0 0 0 0.25 0"/>
<feBlend mode="normal" in2="BackgroundImageFix" result="effect1_dropShadow_66_3040"/>
<feBlend mode="normal" in="SourceGraphic" in2="effect1_dropShadow_66_3040" result="shape"/>
</filter>
<filter id="filter2_d_66_3040" x="0" y="0" width="258" height="48" filterUnits="userSpaceOnUse" color-interpolation-filters="sRGB">
<feFlood flood-opacity="0" result="BackgroundImageFix"/>
<feColorMatrix in="SourceAlpha" type="matrix" values="0 0 0 0 0 0 0 0 0 0 0 0 0 0 0 0 0 0 127 0" result="hardAlpha"/>
<feOffset dy="4"/>
<feGaussianBlur stdDeviation="2"/>
<feComposite in2="hardAlpha" operator="out"/>
<feColorMatrix type="matrix" values="0 0 0 0 0 0 0 0 0 0 0 0 0 0 0 0 0 0 0.25 0"/>
<feBlend mode="normal" in2="BackgroundImageFix" result="effect1_dropShadow_66_3040"/>
<feBlend mode="normal" in="SourceGraphic" in2="effect1_dropShadow_66_3040" result="shape"/>
</filter>
</defs>
</svg>
